<svg width="288" height="284" viewBox="0 0 288 284" fill="none" xmlns="http://www.w3.org/2000/svg">
<rect width="288" height="284" rx="8" fill="#131313"/>
<rect x="18" y="52" width="36" height="36" fill="#131313"/>
<rect x="54" y="52" width="36" height="36" fill="#131313"/>
<rect x="90" y="52" width="36" height="36" fill="#131313"/>
<rect x="126" y="52" width="36" height="36" fill="#131313"/>
<path d="M141.8 67.05L139.74 74H138.45L136.99 68.74L135.44 74L134.16 74.01L132.19 67.05H133.4L134.84 72.71L136.4 67.05H137.68L139.13 72.68L140.58 67.05H141.8ZM144.18 67.97V70.01H146.58V70.94H144.18V73.07H146.88V74H143.04V67.04H146.88V67.97H144.18ZM150.854 67.05C151.594 67.05 152.241 67.1933 152.794 67.48C153.354 67.76 153.784 68.1667 154.084 68.7C154.391 69.2267 154.544 69.8433 154.544 70.55C154.544 71.2567 154.391 71.87 154.084 72.39C153.784 72.91 153.354 73.31 152.794 73.59C152.241 73.8633 151.594 74 150.854 74H148.584V67.05H150.854ZM150.854 73.07C151.668 73.07 152.291 72.85 152.724 72.41C153.158 71.97 153.374 71.35 153.374 70.55C153.374 69.7433 153.158 69.1133 152.724 68.66C152.291 68.2067 151.668 67.98 150.854 67.98H149.724V73.07H150.854Z" fill="#CFCFCF"/>
<rect x="162" y="52" width="36" height="36" fill="#131313"/>
<rect x="198" y="52" width="36" height="36" fill="#131313"/>
<rect x="234" y="52" width="36" height="36" fill="#131313"/>
<path d="M29.7656 68.6378C29.7277 68.3016 29.5715 68.0412 29.2969 67.8565C29.0223 67.6695 28.6766 67.576 28.2599 67.576C27.9616 67.576 27.7036 67.6233 27.4858 67.718C27.268 67.8104 27.0987 67.9382 26.978 68.1016C26.8596 68.2625 26.8004 68.446 26.8004 68.652C26.8004 68.8248 26.8407 68.974 26.9212 69.0994C27.004 69.2249 27.1117 69.3303 27.2443 69.4155C27.3793 69.4983 27.5237 69.5682 27.6776 69.625C27.8314 69.6795 27.9794 69.7244 28.1214 69.7599L28.8317 69.9446C29.0637 70.0014 29.3016 70.0784 29.5455 70.1754C29.7893 70.2725 30.0154 70.4003 30.2237 70.5589C30.4321 70.7176 30.6001 70.9141 30.728 71.1484C30.8582 71.3828 30.9233 71.6634 30.9233 71.9901C30.9233 72.402 30.8168 72.7678 30.6037 73.0874C30.393 73.407 30.0864 73.6591 29.6839 73.8438C29.2839 74.0284 28.7997 74.1207 28.2315 74.1207C27.687 74.1207 27.2159 74.0343 26.8182 73.8615C26.4205 73.6887 26.1091 73.4437 25.8842 73.1264C25.6593 72.8068 25.535 72.428 25.5114 71.9901H26.6122C26.6335 72.2528 26.7188 72.4718 26.8679 72.647C27.0194 72.8198 27.2124 72.9489 27.4467 73.0341C27.6835 73.117 27.9427 73.1584 28.2244 73.1584C28.5346 73.1584 28.8104 73.1098 29.0518 73.0128C29.2957 72.9134 29.4875 72.776 29.6271 72.6009C29.7668 72.4233 29.8366 72.2161 29.8366 71.9794C29.8366 71.764 29.7751 71.5876 29.652 71.4503C29.5313 71.313 29.3667 71.1993 29.1584 71.1094C28.9524 71.0194 28.7192 70.9401 28.4588 70.8714L27.5994 70.6371C27.017 70.4785 26.5554 70.2453 26.2145 69.9375C25.8759 69.6297 25.7067 69.2225 25.7067 68.7159C25.7067 68.2969 25.8203 67.9311 26.0476 67.6186C26.2749 67.3061 26.5826 67.0634 26.9709 66.8906C27.3591 66.7154 27.7971 66.6278 28.2848 66.6278C28.7772 66.6278 29.2116 66.7143 29.5881 66.8871C29.9669 67.0599 30.2652 67.2978 30.483 67.6009C30.7008 67.9015 30.8144 68.2472 30.8239 68.6378H29.7656ZM37.2114 66.7273H38.3123V71.5107C38.3123 72.0196 38.1927 72.4706 37.9536 72.8636C37.7145 73.2543 37.3783 73.562 36.9451 73.7869C36.5118 74.0095 36.004 74.1207 35.4216 74.1207C34.8416 74.1207 34.335 74.0095 33.9017 73.7869C33.4685 73.562 33.1323 73.2543 32.8932 72.8636C32.6541 72.4706 32.5346 72.0196 32.5346 71.5107V66.7273H33.6319V71.4219C33.6319 71.7509 33.7041 72.0433 33.8485 72.299C33.9953 72.5547 34.2024 72.7559 34.4699 72.9027C34.7374 73.0471 35.0547 73.1193 35.4216 73.1193C35.7909 73.1193 36.1094 73.0471 36.3769 72.9027C36.6468 72.7559 36.8527 72.5547 36.9948 72.299C37.1392 72.0433 37.2114 71.7509 37.2114 71.4219V66.7273ZM46.0776 66.7273V74H45.0691L41.3724 68.6662H41.3049V74H40.2076V66.7273H41.2232L44.9235 72.0682H44.991V66.7273H46.0776Z" fill="#CFCFCF"/>
<path d="M60.799 66.7273H62.1307L64.446 72.3807H64.5312L66.8466 66.7273H68.1783V74H67.1342V68.7372H67.0668L64.9219 73.9893H64.0554L61.9105 68.7337H61.843V74H60.799V66.7273ZM76.3911 70.3636C76.3911 71.1402 76.249 71.8078 75.965 72.3665C75.6809 72.9228 75.2914 73.3513 74.7966 73.652C74.3042 73.9503 73.7443 74.0994 73.1169 74.0994C72.4872 74.0994 71.9249 73.9503 71.4301 73.652C70.9377 73.3513 70.5495 72.9216 70.2654 72.3629C69.9813 71.8042 69.8392 71.1378 69.8392 70.3636C69.8392 69.5871 69.9813 68.9207 70.2654 68.3643C70.5495 67.8056 70.9377 67.3771 71.4301 67.0788C71.9249 66.7782 72.4872 66.6278 73.1169 66.6278C73.7443 66.6278 74.3042 66.7782 74.7966 67.0788C75.2914 67.3771 75.6809 67.8056 75.965 68.3643C76.249 68.9207 76.3911 69.5871 76.3911 70.3636ZM75.3044 70.3636C75.3044 69.7718 75.2086 69.2734 75.0168 68.8686C74.8274 68.4614 74.567 68.1536 74.2355 67.9453C73.9065 67.7346 73.5336 67.6293 73.1169 67.6293C72.6979 67.6293 72.3239 67.7346 71.9948 67.9453C71.6657 68.1536 71.4053 68.4614 71.2135 68.8686C71.0241 69.2734 70.9294 69.7718 70.9294 70.3636C70.9294 70.9555 71.0241 71.455 71.2135 71.8622C71.4053 72.267 71.6657 72.5748 71.9948 72.7855C72.3239 72.9938 72.6979 73.098 73.1169 73.098C73.5336 73.098 73.9065 72.9938 74.2355 72.7855C74.567 72.5748 74.8274 72.267 75.0168 71.8622C75.2086 71.455 75.3044 70.9555 75.3044 70.3636ZM83.9292 66.7273V74H82.9207L79.2239 68.6662H79.1565V74H78.0592V66.7273H79.0748L82.7751 72.0682H82.8425V66.7273H83.9292Z" fill="#CFCFCF"/>
<path d="M98.4403 67.6719V66.7273H104.069V67.6719H101.8V74H100.706V67.6719H98.4403ZM110.29 66.7273H111.39V71.5107C111.39 72.0196 111.271 72.4706 111.032 72.8636C110.793 73.2543 110.456 73.562 110.023 73.7869C109.59 74.0095 109.082 74.1207 108.5 74.1207C107.92 74.1207 107.413 74.0095 106.98 73.7869C106.547 73.562 106.21 73.2543 105.971 72.8636C105.732 72.4706 105.613 72.0196 105.613 71.5107V66.7273H106.71V71.4219C106.71 71.7509 106.782 72.0433 106.927 72.299C107.073 72.5547 107.281 72.7559 107.548 72.9027C107.816 73.0471 108.133 73.1193 108.5 73.1193C108.869 73.1193 109.187 73.0471 109.455 72.9027C109.725 72.7559 109.931 72.5547 110.073 72.299C110.217 72.0433 110.29 71.7509 110.29 71.4219V66.7273ZM113.286 74V66.7273H117.845V67.6719H114.383V69.8878H117.607V70.8288H114.383V73.0554H117.888V74H113.286Z" fill="#CFCFCF"/>
<path d="M169.44 67.6719V66.7273H175.069V67.6719H172.8V74H171.706V67.6719H169.44ZM176.613 74V66.7273H177.71V69.8878H181.336V66.7273H182.437V74H181.336V70.8288H177.71V74H176.613ZM189.011 66.7273H190.112V71.5107C190.112 72.0196 189.993 72.4706 189.754 72.8636C189.514 73.2543 189.178 73.562 188.745 73.7869C188.312 74.0095 187.804 74.1207 187.222 74.1207C186.642 74.1207 186.135 74.0095 185.702 73.7869C185.269 73.562 184.932 73.2543 184.693 72.8636C184.454 72.4706 184.335 72.0196 184.335 71.5107V66.7273H185.432V71.4219C185.432 71.7509 185.504 72.0433 185.648 72.299C185.795 72.5547 186.002 72.7559 186.27 72.9027C186.537 73.0471 186.855 73.1193 187.222 73.1193C187.591 73.1193 187.909 73.0471 188.177 72.9027C188.447 72.7559 188.653 72.5547 188.795 72.299C188.939 72.0433 189.011 71.7509 189.011 71.4219V66.7273Z" fill="#CFCFCF"/>
<path d="M208.799 74V66.7273H213.309V67.6719H209.896V69.8878H212.986V70.8288H209.896V74H208.799ZM214.958 74V66.7273H217.551C218.114 66.7273 218.582 66.8243 218.953 67.0185C219.327 67.2126 219.607 67.4813 219.791 67.8246C219.976 68.1655 220.068 68.5597 220.068 69.0071C220.068 69.4522 219.975 69.844 219.788 70.1825C219.603 70.5187 219.324 70.7803 218.95 70.9673C218.578 71.1544 218.111 71.2479 217.547 71.2479H215.583V70.3033H217.448C217.803 70.3033 218.092 70.2524 218.314 70.1506C218.539 70.0488 218.704 69.9008 218.808 69.7067C218.912 69.5125 218.964 69.2794 218.964 69.0071C218.964 68.7325 218.911 68.4946 218.804 68.2933C218.7 68.0921 218.536 67.9382 218.311 67.8317C218.088 67.7228 217.796 67.6683 217.434 67.6683H216.056V74H214.958ZM218.549 70.7188L220.345 74H219.095L217.334 70.7188H218.549ZM222.801 66.7273V74H221.704V66.7273H222.801Z" fill="#CFCFCF"/>
<path d="M246.766 68.6378C246.728 68.3016 246.571 68.0412 246.297 67.8565C246.022 67.6695 245.677 67.576 245.26 67.576C244.962 67.576 244.704 67.6233 244.486 67.718C244.268 67.8104 244.099 67.9382 243.978 68.1016C243.86 68.2625 243.8 68.446 243.8 68.652C243.8 68.8248 243.841 68.974 243.921 69.0994C244.004 69.2249 244.112 69.3303 244.244 69.4155C244.379 69.4983 244.524 69.5682 244.678 69.625C244.831 69.6795 244.979 69.7244 245.121 69.7599L245.832 69.9446C246.064 70.0014 246.302 70.0784 246.545 70.1754C246.789 70.2725 247.015 70.4003 247.224 70.5589C247.432 70.7176 247.6 70.9141 247.728 71.1484C247.858 71.3828 247.923 71.6634 247.923 71.9901C247.923 72.402 247.817 72.7678 247.604 73.0874C247.393 73.407 247.086 73.6591 246.684 73.8438C246.284 74.0284 245.8 74.1207 245.232 74.1207C244.687 74.1207 244.216 74.0343 243.818 73.8615C243.42 73.6887 243.109 73.4437 242.884 73.1264C242.659 72.8068 242.535 72.428 242.511 71.9901H243.612C243.634 72.2528 243.719 72.4718 243.868 72.647C244.019 72.8198 244.212 72.9489 244.447 73.0341C244.683 73.117 244.943 73.1584 245.224 73.1584C245.535 73.1584 245.81 73.1098 246.052 73.0128C246.296 72.9134 246.487 72.776 246.627 72.6009C246.767 72.4233 246.837 72.2161 246.837 71.9794C246.837 71.764 246.775 71.5876 246.652 71.4503C246.531 71.313 246.367 71.1993 246.158 71.1094C245.952 71.0194 245.719 70.9401 245.459 70.8714L244.599 70.6371C244.017 70.4785 243.555 70.2453 243.214 69.9375C242.876 69.6297 242.707 69.2225 242.707 68.7159C242.707 68.2969 242.82 67.9311 243.048 67.6186C243.275 67.3061 243.583 67.0634 243.971 66.8906C244.359 66.7154 244.797 66.6278 245.285 66.6278C245.777 66.6278 246.212 66.7143 246.588 66.8871C246.967 67.0599 247.265 67.2978 247.483 67.6009C247.701 67.9015 247.814 68.2472 247.824 68.6378H246.766ZM250.09 74H248.926L251.543 66.7273H252.81L255.428 74H254.263L252.207 68.0483H252.15L250.09 74ZM250.286 71.152H254.064V72.0753H250.286V71.152ZM255.56 67.6719V66.7273H261.188V67.6719H258.919V74H257.825V67.6719H255.56Z" fill="#CFCFCF"/>
<rect x="18" y="88" width="36" height="36" fill="#131313"/>
<path d="M28.1714 103.314C28.2274 102.446 28.5587 101.769 29.1654 101.284C29.7814 100.799 30.5654 100.556 31.5174 100.556C32.1707 100.556 32.7354 100.673 33.2114 100.906C33.6874 101.139 34.0467 101.457 34.2894 101.858C34.532 102.259 34.6534 102.712 34.6534 103.216C34.6534 103.795 34.4994 104.289 34.1914 104.7C33.8834 105.111 33.5147 105.386 33.0854 105.526V105.582C33.636 105.75 34.0654 106.058 34.3734 106.506C34.6814 106.945 34.8354 107.509 34.8354 108.2C34.8354 108.751 34.7094 109.241 34.4574 109.67C34.2054 110.099 33.832 110.44 33.3374 110.692C32.8427 110.935 32.25 111.056 31.5594 111.056C30.5514 111.056 29.7207 110.799 29.0674 110.286C28.4234 109.763 28.078 109.017 28.0314 108.046H29.5714C29.6087 108.541 29.8 108.947 30.1454 109.264C30.4907 109.572 30.9574 109.726 31.5454 109.726C32.1147 109.726 32.5534 109.572 32.8614 109.264C33.1694 108.947 33.3234 108.541 33.3234 108.046C33.3234 107.393 33.1134 106.931 32.6934 106.66C32.2827 106.38 31.648 106.24 30.7894 106.24H30.4254V104.924H30.8034C31.5594 104.915 32.1334 104.789 32.5254 104.546C32.9267 104.303 33.1274 103.921 33.1274 103.398C33.1274 102.95 32.9827 102.595 32.6934 102.334C32.404 102.063 31.9934 101.928 31.4614 101.928C30.9387 101.928 30.5327 102.063 30.2434 102.334C29.954 102.595 29.7814 102.922 29.7254 103.314H28.1714ZM36.5119 105.764C36.5119 104.149 36.7825 102.889 37.3239 101.984C37.8745 101.069 38.8172 100.612 40.1519 100.612C41.4865 100.612 42.4245 101.069 42.9659 101.984C43.5165 102.889 43.7919 104.149 43.7919 105.764C43.7919 107.397 43.5165 108.676 42.9659 109.6C42.4245 110.515 41.4865 110.972 40.1519 110.972C38.8172 110.972 37.8745 110.515 37.3239 109.6C36.7825 108.676 36.5119 107.397 36.5119 105.764ZM42.2239 105.764C42.2239 105.008 42.1725 104.369 42.0699 103.846C41.9765 103.323 41.7805 102.899 41.4819 102.572C41.1832 102.236 40.7399 102.068 40.1519 102.068C39.5639 102.068 39.1205 102.236 38.8219 102.572C38.5232 102.899 38.3225 103.323 38.2199 103.846C38.1265 104.369 38.0799 105.008 38.0799 105.764C38.0799 106.548 38.1265 107.206 38.2199 107.738C38.3132 108.27 38.5092 108.699 38.8079 109.026C39.1159 109.353 39.5639 109.516 40.1519 109.516C40.7399 109.516 41.1832 109.353 41.4819 109.026C41.7899 108.699 41.9905 108.27 42.0839 107.738C42.1772 107.206 42.2239 106.548 42.2239 105.764Z" fill="#CFCFCF"/>
<rect x="54" y="88" width="36" height="36" fill="#131313"/>
<path d="M66.2085 103.314C66.2645 102.446 66.5958 101.769 67.2025 101.284C67.8185 100.799 68.6025 100.556 69.5545 100.556C70.2078 100.556 70.7725 100.673 71.2485 100.906C71.7245 101.139 72.0838 101.457 72.3265 101.858C72.5692 102.259 72.6905 102.712 72.6905 103.216C72.6905 103.795 72.5365 104.289 72.2285 104.7C71.9205 105.111 71.5518 105.386 71.1225 105.526V105.582C71.6732 105.75 72.1025 106.058 72.4105 106.506C72.7185 106.945 72.8725 107.509 72.8725 108.2C72.8725 108.751 72.7465 109.241 72.4945 109.67C72.2425 110.099 71.8692 110.44 71.3745 110.692C70.8798 110.935 70.2872 111.056 69.5965 111.056C68.5885 111.056 67.7578 110.799 67.1045 110.286C66.4605 109.763 66.1152 109.017 66.0685 108.046H67.6085C67.6458 108.541 67.8372 108.947 68.1825 109.264C68.5278 109.572 68.9945 109.726 69.5825 109.726C70.1518 109.726 70.5905 109.572 70.8985 109.264C71.2065 108.947 71.3605 108.541 71.3605 108.046C71.3605 107.393 71.1505 106.931 70.7305 106.66C70.3198 106.38 69.6852 106.24 68.8265 106.24H68.4625V104.924H68.8405C69.5965 104.915 70.1705 104.789 70.5625 104.546C70.9638 104.303 71.1645 103.921 71.1645 103.398C71.1645 102.95 71.0198 102.595 70.7305 102.334C70.4412 102.063 70.0305 101.928 69.4985 101.928C68.9758 101.928 68.5698 102.063 68.2805 102.334C67.9912 102.595 67.8185 102.922 67.7625 103.314H66.2085ZM74.339 102.25V100.794H77.251V111H75.641V102.25H74.339Z" fill="#CFCFCF"/>
<rect x="90" y="88" width="36" height="36" fill="#131313"/>
<path d="M106.683 102.25V100.794H109.595V111H107.985V102.25H106.683Z" fill="#222222"/>
<rect x="126" y="88" width="36" height="36" fill="#131313"/>
<path d="M142.182 108.83C143.078 108.055 143.783 107.421 144.296 106.926C144.819 106.422 145.253 105.899 145.598 105.358C145.943 104.817 146.116 104.275 146.116 103.734C146.116 103.174 145.981 102.735 145.71 102.418C145.449 102.101 145.033 101.942 144.464 101.942C143.913 101.942 143.484 102.119 143.176 102.474C142.877 102.819 142.719 103.286 142.7 103.874H141.16C141.188 102.81 141.505 101.998 142.112 101.438C142.728 100.869 143.507 100.584 144.45 100.584C145.467 100.584 146.261 100.864 146.83 101.424C147.409 101.984 147.698 102.731 147.698 103.664C147.698 104.336 147.525 104.985 147.18 105.61C146.844 106.226 146.438 106.781 145.962 107.276C145.495 107.761 144.898 108.326 144.17 108.97L143.54 109.53H147.978V110.86H141.174V109.698L142.182 108.83Z" fill="#222222"/>
<rect x="162" y="88" width="36" height="36" fill="#131313"/>
<path d="M177.156 103.314C177.212 102.446 177.543 101.769 178.15 101.284C178.766 100.799 179.55 100.556 180.502 100.556C181.155 100.556 181.72 100.673 182.196 100.906C182.672 101.139 183.031 101.457 183.274 101.858C183.516 102.259 183.638 102.712 183.638 103.216C183.638 103.795 183.484 104.289 183.176 104.7C182.868 105.111 182.499 105.386 182.07 105.526V105.582C182.62 105.75 183.05 106.058 183.358 106.506C183.666 106.945 183.82 107.509 183.82 108.2C183.82 108.751 183.694 109.241 183.442 109.67C183.19 110.099 182.816 110.44 182.322 110.692C181.827 110.935 181.234 111.056 180.544 111.056C179.536 111.056 178.705 110.799 178.052 110.286C177.408 109.763 177.062 109.017 177.016 108.046H178.556C178.593 108.541 178.784 108.947 179.13 109.264C179.475 109.572 179.942 109.726 180.53 109.726C181.099 109.726 181.538 109.572 181.846 109.264C182.154 108.947 182.308 108.541 182.308 108.046C182.308 107.393 182.098 106.931 181.678 106.66C181.267 106.38 180.632 106.24 179.774 106.24H179.41V104.924H179.788C180.544 104.915 181.118 104.789 181.51 104.546C181.911 104.303 182.112 103.921 182.112 103.398C182.112 102.95 181.967 102.595 181.678 102.334C181.388 102.063 180.978 101.928 180.446 101.928C179.923 101.928 179.517 102.063 179.228 102.334C178.938 102.595 178.766 102.922 178.71 103.314H177.156Z" fill="#222222"/>
<rect x="198" y="88" width="36" height="36" fill="#131313"/>
<path d="M212.112 108.872V107.668L216.816 100.92H218.748V107.486H220.05V108.872H218.748V111H217.18V108.872H212.112ZM217.25 102.544L213.946 107.486H217.25V102.544Z" fill="#222222"/>
<rect x="234" y="88" width="36" height="36" fill="#131313"/>
<path d="M255.449 102.166H250.759V104.952C250.955 104.691 251.245 104.471 251.627 104.294C252.019 104.117 252.435 104.028 252.873 104.028C253.657 104.028 254.292 104.196 254.777 104.532C255.272 104.868 255.622 105.293 255.827 105.806C256.042 106.319 256.149 106.861 256.149 107.43C256.149 108.121 256.014 108.737 255.743 109.278C255.482 109.81 255.085 110.23 254.553 110.538C254.031 110.846 253.387 111 252.621 111C251.604 111 250.787 110.748 250.171 110.244C249.555 109.74 249.187 109.073 249.065 108.242H250.619C250.722 108.681 250.951 109.031 251.305 109.292C251.66 109.544 252.103 109.67 252.635 109.67C253.298 109.67 253.793 109.469 254.119 109.068C254.455 108.667 254.623 108.135 254.623 107.472C254.623 106.8 254.455 106.287 254.119 105.932C253.783 105.568 253.289 105.386 252.635 105.386C252.178 105.386 251.791 105.503 251.473 105.736C251.165 105.96 250.941 106.268 250.801 106.66H249.289V100.766H255.449V102.166Z" fill="#222222"/>
<rect x="18" y="124" width="36" height="36" fill="#131313"/>
<path d="M38.3368 139.16C38.2341 138.731 38.0475 138.409 37.7768 138.194C37.5061 137.979 37.1281 137.872 36.6428 137.872C35.9055 137.872 35.3548 138.157 34.9908 138.726C34.6268 139.286 34.4355 140.219 34.4168 141.526C34.6595 141.115 35.0141 140.798 35.4808 140.574C35.9475 140.35 36.4515 140.238 36.9928 140.238C37.6088 140.238 38.1501 140.373 38.6168 140.644C39.0928 140.905 39.4615 141.288 39.7228 141.792C39.9935 142.296 40.1288 142.898 40.1288 143.598C40.1288 144.251 39.9981 144.835 39.7368 145.348C39.4848 145.861 39.1068 146.267 38.6028 146.566C38.0988 146.855 37.4921 147 36.7828 147C35.8215 147 35.0655 146.79 34.5148 146.37C33.9735 145.941 33.5908 145.339 33.3668 144.564C33.1521 143.789 33.0448 142.823 33.0448 141.666C33.0448 138.25 34.2488 136.542 36.6568 136.542C37.5901 136.542 38.3228 136.794 38.8548 137.298C39.3961 137.802 39.7135 138.423 39.8068 139.16H38.3368ZM36.6428 141.582C36.0735 141.582 35.5881 141.755 35.1868 142.1C34.7948 142.436 34.5988 142.926 34.5988 143.57C34.5988 144.214 34.7808 144.727 35.1448 145.11C35.5181 145.483 36.0361 145.67 36.6988 145.67C37.2868 145.67 37.7488 145.488 38.0848 145.124C38.4301 144.76 38.6028 144.275 38.6028 143.668C38.6028 143.033 38.4348 142.529 38.0988 142.156C37.7721 141.773 37.2868 141.582 36.6428 141.582Z" fill="#CFCFCF"/>
<rect x="54" y="124" width="36" height="36" fill="#131313"/>
<path d="M75.391 138.026L71.499 147H69.889L73.823 138.194H68.643V136.836H75.391V138.026Z" fill="#222222"/>
<rect x="90" y="124" width="36" height="36" fill="#131313"/>
<path d="M106.598 141.666C105.627 141.181 105.142 140.415 105.142 139.37C105.142 138.866 105.268 138.404 105.52 137.984C105.772 137.564 106.15 137.233 106.654 136.99C107.158 136.738 107.774 136.612 108.502 136.612C109.221 136.612 109.832 136.738 110.336 136.99C110.849 137.233 111.232 137.564 111.484 137.984C111.736 138.404 111.862 138.866 111.862 139.37C111.862 139.893 111.727 140.355 111.456 140.756C111.195 141.148 110.845 141.451 110.406 141.666C110.938 141.862 111.358 142.184 111.666 142.632C111.974 143.071 112.128 143.589 112.128 144.186C112.128 144.793 111.974 145.329 111.666 145.796C111.358 146.263 110.929 146.622 110.378 146.874C109.827 147.126 109.202 147.252 108.502 147.252C107.802 147.252 107.177 147.126 106.626 146.874C106.085 146.622 105.66 146.263 105.352 145.796C105.044 145.329 104.89 144.793 104.89 144.186C104.89 143.579 105.044 143.057 105.352 142.618C105.66 142.179 106.075 141.862 106.598 141.666ZM110.336 139.566C110.336 139.043 110.173 138.642 109.846 138.362C109.519 138.082 109.071 137.942 108.502 137.942C107.942 137.942 107.499 138.082 107.172 138.362C106.845 138.642 106.682 139.048 106.682 139.58C106.682 140.047 106.85 140.429 107.186 140.728C107.531 141.017 107.97 141.162 108.502 141.162C109.034 141.162 109.473 141.013 109.818 140.714C110.163 140.415 110.336 140.033 110.336 139.566ZM108.502 142.366C107.886 142.366 107.382 142.52 106.99 142.828C106.607 143.127 106.416 143.561 106.416 144.13C106.416 144.662 106.603 145.096 106.976 145.432C107.349 145.759 107.858 145.922 108.502 145.922C109.137 145.922 109.636 145.754 110 145.418C110.373 145.082 110.56 144.653 110.56 144.13C110.56 143.57 110.369 143.136 109.986 142.828C109.613 142.52 109.118 142.366 108.502 142.366Z" fill="#222222"/>
<rect x="126" y="124" width="36" height="36" fill="#131313"/>
<path d="M142.885 144.228C142.978 144.695 143.179 145.049 143.487 145.292C143.795 145.535 144.21 145.656 144.733 145.656C145.395 145.656 145.881 145.395 146.189 144.872C146.497 144.349 146.651 143.458 146.651 142.198C146.427 142.515 146.109 142.763 145.699 142.94C145.297 143.108 144.859 143.192 144.383 143.192C143.776 143.192 143.225 143.071 142.731 142.828C142.236 142.576 141.844 142.207 141.555 141.722C141.275 141.227 141.135 140.63 141.135 139.93C141.135 138.903 141.433 138.087 142.031 137.48C142.637 136.864 143.468 136.556 144.523 136.556C145.792 136.556 146.693 136.981 147.225 137.83C147.766 138.67 148.037 139.963 148.037 141.708C148.037 142.912 147.934 143.897 147.729 144.662C147.533 145.427 147.187 146.006 146.693 146.398C146.198 146.79 145.512 146.986 144.635 146.986C143.636 146.986 142.866 146.725 142.325 146.202C141.783 145.679 141.48 145.021 141.415 144.228H142.885ZM144.663 141.848C145.223 141.848 145.661 141.675 145.979 141.33C146.305 140.975 146.469 140.509 146.469 139.93C146.469 139.286 146.296 138.787 145.951 138.432C145.615 138.068 145.153 137.886 144.565 137.886C143.977 137.886 143.51 138.073 143.165 138.446C142.829 138.81 142.661 139.291 142.661 139.888C142.661 140.457 142.824 140.929 143.151 141.302C143.487 141.666 143.991 141.848 144.663 141.848Z" fill="#222222"/>
<rect x="162" y="124" width="36" height="36" rx="18" fill="#CFCFCF"/>
<path d="M173.698 138.25V136.794H176.61V147H175V138.25H173.698ZM178.803 141.764C178.803 140.149 179.074 138.889 179.615 137.984C180.166 137.069 181.108 136.612 182.443 136.612C183.778 136.612 184.716 137.069 185.257 137.984C185.808 138.889 186.083 140.149 186.083 141.764C186.083 143.397 185.808 144.676 185.257 145.6C184.716 146.515 183.778 146.972 182.443 146.972C181.108 146.972 180.166 146.515 179.615 145.6C179.074 144.676 178.803 143.397 178.803 141.764ZM184.515 141.764C184.515 141.008 184.464 140.369 184.361 139.846C184.268 139.323 184.072 138.899 183.773 138.572C183.474 138.236 183.031 138.068 182.443 138.068C181.855 138.068 181.412 138.236 181.113 138.572C180.814 138.899 180.614 139.323 180.511 139.846C180.418 140.369 180.371 141.008 180.371 141.764C180.371 142.548 180.418 143.206 180.511 143.738C180.604 144.27 180.8 144.699 181.099 145.026C181.407 145.353 181.855 145.516 182.443 145.516C183.031 145.516 183.474 145.353 183.773 145.026C184.081 144.699 184.282 144.27 184.375 143.738C184.468 143.206 184.515 142.548 184.515 141.764Z" fill="#131313"/>
<rect x="198" y="124" width="36" height="36" fill="#131313"/>
<path d="M211.735 138.25V136.794H214.647V147H213.037V138.25H211.735ZM216.63 138.25V136.794H219.542V147H217.932V138.25H216.63Z" fill="#222222"/>
<rect x="234" y="124" width="36" height="36" fill="#131313"/>
<path d="M246.643 138.25V136.794H249.555V147H247.945V138.25H246.643ZM252.629 144.83C253.525 144.055 254.23 143.421 254.743 142.926C255.266 142.422 255.7 141.899 256.045 141.358C256.391 140.817 256.563 140.275 256.563 139.734C256.563 139.174 256.428 138.735 256.157 138.418C255.896 138.101 255.481 137.942 254.911 137.942C254.361 137.942 253.931 138.119 253.623 138.474C253.325 138.819 253.166 139.286 253.147 139.874H251.607C251.635 138.81 251.953 137.998 252.559 137.438C253.175 136.869 253.955 136.584 254.897 136.584C255.915 136.584 256.708 136.864 257.277 137.424C257.856 137.984 258.145 138.731 258.145 139.664C258.145 140.336 257.973 140.985 257.627 141.61C257.291 142.226 256.885 142.781 256.409 143.276C255.943 143.761 255.345 144.326 254.617 144.97L253.987 145.53H258.425V146.86H251.621V145.698L252.629 144.83Z" fill="#222222"/>
<rect x="18" y="160" width="36" height="36" fill="#131313"/>
<path d="M30.0265 174.25V172.794H32.9385V183H31.3285V174.25H30.0265ZM35.103 175.314C35.159 174.446 35.4903 173.769 36.097 173.284C36.713 172.799 37.497 172.556 38.449 172.556C39.1023 172.556 39.667 172.673 40.143 172.906C40.619 173.139 40.9783 173.457 41.221 173.858C41.4637 174.259 41.585 174.712 41.585 175.216C41.585 175.795 41.431 176.289 41.123 176.7C40.815 177.111 40.4463 177.386 40.017 177.526V177.582C40.5677 177.75 40.997 178.058 41.305 178.506C41.613 178.945 41.767 179.509 41.767 180.2C41.767 180.751 41.641 181.241 41.389 181.67C41.137 182.099 40.7637 182.44 40.269 182.692C39.7743 182.935 39.1817 183.056 38.491 183.056C37.483 183.056 36.6523 182.799 35.999 182.286C35.355 181.763 35.0097 181.017 34.963 180.046H36.503C36.5403 180.541 36.7317 180.947 37.077 181.264C37.4223 181.572 37.889 181.726 38.477 181.726C39.0463 181.726 39.485 181.572 39.793 181.264C40.101 180.947 40.255 180.541 40.255 180.046C40.255 179.393 40.045 178.931 39.625 178.66C39.2143 178.38 38.5797 178.24 37.721 178.24H37.357V176.924H37.735C38.491 176.915 39.065 176.789 39.457 176.546C39.8583 176.303 40.059 175.921 40.059 175.398C40.059 174.95 39.9143 174.595 39.625 174.334C39.3357 174.063 38.925 173.928 38.393 173.928C37.8703 173.928 37.4643 174.063 37.175 174.334C36.8857 174.595 36.713 174.922 36.657 175.314H35.103Z" fill="#CFCFCF"/>
<rect x="54" y="160" width="36" height="36" fill="#131313"/>
<path d="M65.6505 174.25V172.794H68.5625V183H66.9525V174.25H65.6505ZM70.559 180.872V179.668L75.263 172.92H77.195V179.486H78.497V180.872H77.195V183H75.627V180.872H70.559ZM75.697 174.544L72.393 179.486H75.697V174.544Z" fill="#222222"/>
<rect x="90" y="160" width="36" height="36" fill="#131313"/>
<path d="M101.712 174.25V172.794H104.624V183H103.014V174.25H101.712ZM113.397 174.166H108.707V176.952C108.903 176.691 109.192 176.471 109.575 176.294C109.967 176.117 110.382 176.028 110.821 176.028C111.605 176.028 112.239 176.196 112.725 176.532C113.219 176.868 113.569 177.293 113.775 177.806C113.989 178.319 114.097 178.861 114.097 179.43C114.097 180.121 113.961 180.737 113.691 181.278C113.429 181.81 113.033 182.23 112.501 182.538C111.978 182.846 111.334 183 110.569 183C109.551 183 108.735 182.748 108.119 182.244C107.503 181.74 107.134 181.073 107.013 180.242H108.567C108.669 180.681 108.898 181.031 109.253 181.292C109.607 181.544 110.051 181.67 110.583 181.67C111.245 181.67 111.74 181.469 112.067 181.068C112.403 180.667 112.571 180.135 112.571 179.472C112.571 178.8 112.403 178.287 112.067 177.932C111.731 177.568 111.236 177.386 110.583 177.386C110.125 177.386 109.738 177.503 109.421 177.736C109.113 177.96 108.889 178.268 108.749 178.66H107.237V172.766H113.397V174.166Z" fill="#222222"/>
<rect x="126" y="160" width="36" height="36" fill="#131313"/>
<path d="M137.692 174.25V172.794H140.604V183H138.994V174.25H137.692ZM148.284 175.16C148.181 174.731 147.995 174.409 147.724 174.194C147.453 173.979 147.075 173.872 146.59 173.872C145.853 173.872 145.302 174.157 144.938 174.726C144.574 175.286 144.383 176.219 144.364 177.526C144.607 177.115 144.961 176.798 145.428 176.574C145.895 176.35 146.399 176.238 146.94 176.238C147.556 176.238 148.097 176.373 148.564 176.644C149.04 176.905 149.409 177.288 149.67 177.792C149.941 178.296 150.076 178.898 150.076 179.598C150.076 180.251 149.945 180.835 149.684 181.348C149.432 181.861 149.054 182.267 148.55 182.566C148.046 182.855 147.439 183 146.73 183C145.769 183 145.013 182.79 144.462 182.37C143.921 181.941 143.538 181.339 143.314 180.564C143.099 179.789 142.992 178.823 142.992 177.666C142.992 174.25 144.196 172.542 146.604 172.542C147.537 172.542 148.27 172.794 148.802 173.298C149.343 173.802 149.661 174.423 149.754 175.16H148.284ZM146.59 177.582C146.021 177.582 145.535 177.755 145.134 178.1C144.742 178.436 144.546 178.926 144.546 179.57C144.546 180.214 144.728 180.727 145.092 181.11C145.465 181.483 145.983 181.67 146.646 181.67C147.234 181.67 147.696 181.488 148.032 181.124C148.377 180.76 148.55 180.275 148.55 179.668C148.55 179.033 148.382 178.529 148.046 178.156C147.719 177.773 147.234 177.582 146.59 177.582Z" fill="#222222"/>
<rect x="162" y="160" width="36" height="36" fill="#131313"/>
<path d="M174.766 174.25V172.794H177.678V183H176.068V174.25H174.766ZM186.338 174.026L182.446 183H180.836L184.77 174.194H179.59V172.836H186.338V174.026Z" fill="#222222"/>
<rect x="198" y="160" width="36" height="36" fill="#131313"/>
<path d="M209.719 174.25V172.794H212.631V183H211.021V174.25H209.719ZM216.545 177.666C215.575 177.181 215.089 176.415 215.089 175.37C215.089 174.866 215.215 174.404 215.467 173.984C215.719 173.564 216.097 173.233 216.601 172.99C217.105 172.738 217.721 172.612 218.449 172.612C219.168 172.612 219.779 172.738 220.283 172.99C220.797 173.233 221.179 173.564 221.431 173.984C221.683 174.404 221.809 174.866 221.809 175.37C221.809 175.893 221.674 176.355 221.403 176.756C221.142 177.148 220.792 177.451 220.353 177.666C220.885 177.862 221.305 178.184 221.613 178.632C221.921 179.071 222.075 179.589 222.075 180.186C222.075 180.793 221.921 181.329 221.613 181.796C221.305 182.263 220.876 182.622 220.325 182.874C219.775 183.126 219.149 183.252 218.449 183.252C217.749 183.252 217.124 183.126 216.573 182.874C216.032 182.622 215.607 182.263 215.299 181.796C214.991 181.329 214.837 180.793 214.837 180.186C214.837 179.579 214.991 179.057 215.299 178.618C215.607 178.179 216.023 177.862 216.545 177.666ZM220.283 175.566C220.283 175.043 220.12 174.642 219.793 174.362C219.467 174.082 219.019 173.942 218.449 173.942C217.889 173.942 217.446 174.082 217.119 174.362C216.793 174.642 216.629 175.048 216.629 175.58C216.629 176.047 216.797 176.429 217.133 176.728C217.479 177.017 217.917 177.162 218.449 177.162C218.981 177.162 219.42 177.013 219.765 176.714C220.111 176.415 220.283 176.033 220.283 175.566ZM218.449 178.366C217.833 178.366 217.329 178.52 216.937 178.828C216.555 179.127 216.363 179.561 216.363 180.13C216.363 180.662 216.55 181.096 216.923 181.432C217.297 181.759 217.805 181.922 218.449 181.922C219.084 181.922 219.583 181.754 219.947 181.418C220.321 181.082 220.507 180.653 220.507 180.13C220.507 179.57 220.316 179.136 219.933 178.828C219.56 178.52 219.065 178.366 218.449 178.366Z" fill="#222222"/>
<rect x="234" y="160" width="36" height="36" fill="#131313"/>
<path d="M245.739 174.25V172.794H248.651V183H247.041V174.25H245.739ZM252.832 180.228C252.925 180.695 253.126 181.049 253.434 181.292C253.742 181.535 254.157 181.656 254.68 181.656C255.343 181.656 255.828 181.395 256.136 180.872C256.444 180.349 256.598 179.458 256.598 178.198C256.374 178.515 256.057 178.763 255.646 178.94C255.245 179.108 254.806 179.192 254.33 179.192C253.723 179.192 253.173 179.071 252.678 178.828C252.183 178.576 251.791 178.207 251.502 177.722C251.222 177.227 251.082 176.63 251.082 175.93C251.082 174.903 251.381 174.087 251.978 173.48C252.585 172.864 253.415 172.556 254.47 172.556C255.739 172.556 256.64 172.981 257.172 173.83C257.713 174.67 257.984 175.963 257.984 177.708C257.984 178.912 257.881 179.897 257.676 180.662C257.48 181.427 257.135 182.006 256.64 182.398C256.145 182.79 255.459 182.986 254.582 182.986C253.583 182.986 252.813 182.725 252.272 182.202C251.731 181.679 251.427 181.021 251.362 180.228H252.832ZM254.61 177.848C255.17 177.848 255.609 177.675 255.926 177.33C256.253 176.975 256.416 176.509 256.416 175.93C256.416 175.286 256.243 174.787 255.898 174.432C255.562 174.068 255.1 173.886 254.512 173.886C253.924 173.886 253.457 174.073 253.112 174.446C252.776 174.81 252.608 175.291 252.608 175.888C252.608 176.457 252.771 176.929 253.098 177.302C253.434 177.666 253.938 177.848 254.61 177.848Z" fill="#222222"/>
<rect x="18" y="196" width="36" height="36" fill="#131313"/>
<path d="M29.1976 216.83C30.0936 216.055 30.7983 215.421 31.3116 214.926C31.8343 214.422 32.2683 213.899 32.6136 213.358C32.9589 212.817 33.1316 212.275 33.1316 211.734C33.1316 211.174 32.9963 210.735 32.7256 210.418C32.4643 210.101 32.0489 209.942 31.4796 209.942C30.9289 209.942 30.4996 210.119 30.1916 210.474C29.8929 210.819 29.7343 211.286 29.7156 211.874H28.1756C28.2036 210.81 28.5209 209.998 29.1276 209.438C29.7436 208.869 30.5229 208.584 31.4656 208.584C32.4829 208.584 33.2763 208.864 33.8456 209.424C34.4243 209.984 34.7136 210.731 34.7136 211.664C34.7136 212.336 34.5409 212.985 34.1956 213.61C33.8596 214.226 33.4536 214.781 32.9776 215.276C32.5109 215.761 31.9136 216.326 31.1856 216.97L30.5556 217.53H34.9936V218.86H28.1896V217.698L29.1976 216.83ZM36.3957 213.764C36.3957 212.149 36.6663 210.889 37.2077 209.984C37.7583 209.069 38.701 208.612 40.0357 208.612C41.3703 208.612 42.3083 209.069 42.8497 209.984C43.4003 210.889 43.6757 212.149 43.6757 213.764C43.6757 215.397 43.4003 216.676 42.8497 217.6C42.3083 218.515 41.3703 218.972 40.0357 218.972C38.701 218.972 37.7583 218.515 37.2077 217.6C36.6663 216.676 36.3957 215.397 36.3957 213.764ZM42.1077 213.764C42.1077 213.008 42.0563 212.369 41.9537 211.846C41.8603 211.323 41.6643 210.899 41.3657 210.572C41.067 210.236 40.6237 210.068 40.0357 210.068C39.4477 210.068 39.0043 210.236 38.7057 210.572C38.407 210.899 38.2063 211.323 38.1037 211.846C38.0103 212.369 37.9637 213.008 37.9637 213.764C37.9637 214.548 38.0103 215.206 38.1037 215.738C38.197 216.27 38.393 216.699 38.6917 217.026C38.9997 217.353 39.4477 217.516 40.0357 217.516C40.6237 217.516 41.067 217.353 41.3657 217.026C41.6737 216.699 41.8743 216.27 41.9677 215.738C42.061 215.206 42.1077 214.548 42.1077 213.764Z" fill="#CFCFCF"/>
<rect x="54" y="196" width="36" height="36" fill="#131313"/>
<path d="M67.7347 216.83C68.6307 216.055 69.3354 215.421 69.8487 214.926C70.3714 214.422 70.8054 213.899 71.1507 213.358C71.496 212.817 71.6687 212.275 71.6687 211.734C71.6687 211.174 71.5334 210.735 71.2627 210.418C71.0014 210.101 70.586 209.942 70.0167 209.942C69.466 209.942 69.0367 210.119 68.7287 210.474C68.43 210.819 68.2714 211.286 68.2527 211.874H66.7127C66.7407 210.81 67.058 209.998 67.6647 209.438C68.2807 208.869 69.06 208.584 70.0027 208.584C71.02 208.584 71.8134 208.864 72.3827 209.424C72.9614 209.984 73.2507 210.731 73.2507 211.664C73.2507 212.336 73.078 212.985 72.7327 213.61C72.3967 214.226 71.9907 214.781 71.5147 215.276C71.048 215.761 70.4507 216.326 69.7227 216.97L69.0927 217.53H73.5307V218.86H66.7267V217.698L67.7347 216.83ZM74.7228 210.25V208.794H77.6348V219H76.0248V210.25H74.7228Z" fill="#222222"/>
<rect x="90" y="196" width="36" height="36" fill="#131313"/>
<path d="M102.142 216.83C103.038 216.055 103.743 215.421 104.256 214.926C104.779 214.422 105.213 213.899 105.558 213.358C105.903 212.817 106.076 212.275 106.076 211.734C106.076 211.174 105.941 210.735 105.67 210.418C105.409 210.101 104.993 209.942 104.424 209.942C103.873 209.942 103.444 210.119 103.136 210.474C102.837 210.819 102.679 211.286 102.66 211.874H101.12C101.148 210.81 101.465 209.998 102.072 209.438C102.688 208.869 103.467 208.584 104.41 208.584C105.427 208.584 106.221 208.864 106.79 209.424C107.369 209.984 107.658 210.731 107.658 211.664C107.658 212.336 107.485 212.985 107.14 213.61C106.804 214.226 106.398 214.781 105.922 215.276C105.455 215.761 104.858 216.326 104.13 216.97L103.5 217.53H107.938V218.86H101.134V217.698L102.142 216.83ZM110.222 216.83C111.118 216.055 111.823 215.421 112.336 214.926C112.859 214.422 113.293 213.899 113.638 213.358C113.983 212.817 114.156 212.275 114.156 211.734C114.156 211.174 114.021 210.735 113.75 210.418C113.489 210.101 113.073 209.942 112.504 209.942C111.953 209.942 111.524 210.119 111.216 210.474C110.917 210.819 110.759 211.286 110.74 211.874H109.2C109.228 210.81 109.545 209.998 110.152 209.438C110.768 208.869 111.547 208.584 112.49 208.584C113.507 208.584 114.301 208.864 114.87 209.424C115.449 209.984 115.738 210.731 115.738 211.664C115.738 212.336 115.565 212.985 115.22 213.61C114.884 214.226 114.478 214.781 114.002 215.276C113.535 215.761 112.938 216.326 112.21 216.97L111.58 217.53H116.018V218.86H109.214V217.698L110.222 216.83Z" fill="#222222"/>
<rect x="126" y="196" width="36" height="36" fill="#131313"/>
<path d="M138.026 216.83C138.922 216.055 139.626 215.421 140.14 214.926C140.662 214.422 141.096 213.899 141.442 213.358C141.787 212.817 141.96 212.275 141.96 211.734C141.96 211.174 141.824 210.735 141.554 210.418C141.292 210.101 140.877 209.942 140.308 209.942C139.757 209.942 139.328 210.119 139.02 210.474C138.721 210.819 138.562 211.286 138.544 211.874H137.004C137.032 210.81 137.349 209.998 137.956 209.438C138.572 208.869 139.351 208.584 140.294 208.584C141.311 208.584 142.104 208.864 142.674 209.424C143.252 209.984 143.542 210.731 143.542 211.664C143.542 212.336 143.369 212.985 143.024 213.61C142.688 214.226 142.282 214.781 141.806 215.276C141.339 215.761 140.742 216.326 140.014 216.97L139.384 217.53H143.822V218.86H137.018V217.698L138.026 216.83ZM145.196 211.314C145.252 210.446 145.583 209.769 146.19 209.284C146.806 208.799 147.59 208.556 148.542 208.556C149.195 208.556 149.76 208.673 150.236 208.906C150.712 209.139 151.071 209.457 151.314 209.858C151.556 210.259 151.678 210.712 151.678 211.216C151.678 211.795 151.524 212.289 151.216 212.7C150.908 213.111 150.539 213.386 150.11 213.526V213.582C150.66 213.75 151.09 214.058 151.398 214.506C151.706 214.945 151.86 215.509 151.86 216.2C151.86 216.751 151.734 217.241 151.482 217.67C151.23 218.099 150.856 218.44 150.362 218.692C149.867 218.935 149.274 219.056 148.584 219.056C147.576 219.056 146.745 218.799 146.092 218.286C145.448 217.763 145.102 217.017 145.056 216.046H146.596C146.633 216.541 146.824 216.947 147.17 217.264C147.515 217.572 147.982 217.726 148.57 217.726C149.139 217.726 149.578 217.572 149.886 217.264C150.194 216.947 150.348 216.541 150.348 216.046C150.348 215.393 150.138 214.931 149.718 214.66C149.307 214.38 148.672 214.24 147.814 214.24H147.45V212.924H147.828C148.584 212.915 149.158 212.789 149.55 212.546C149.951 212.303 150.152 211.921 150.152 211.398C150.152 210.95 150.007 210.595 149.718 210.334C149.428 210.063 149.018 209.928 148.486 209.928C147.963 209.928 147.557 210.063 147.268 210.334C146.978 210.595 146.806 210.922 146.75 211.314H145.196Z" fill="#222222"/>
<rect x="162" y="196" width="36" height="36" fill="#131313"/>
<path d="M173.15 216.83C174.046 216.055 174.75 215.421 175.264 214.926C175.786 214.422 176.22 213.899 176.566 213.358C176.911 212.817 177.084 212.275 177.084 211.734C177.084 211.174 176.948 210.735 176.678 210.418C176.416 210.101 176.001 209.942 175.432 209.942C174.881 209.942 174.452 210.119 174.144 210.474C173.845 210.819 173.686 211.286 173.668 211.874H172.128C172.156 210.81 172.473 209.998 173.08 209.438C173.696 208.869 174.475 208.584 175.418 208.584C176.435 208.584 177.228 208.864 177.798 209.424C178.376 209.984 178.666 210.731 178.666 211.664C178.666 212.336 178.493 212.985 178.148 213.61C177.812 214.226 177.406 214.781 176.93 215.276C176.463 215.761 175.866 216.326 175.138 216.97L174.508 217.53H178.946V218.86H172.142V217.698L173.15 216.83ZM180.152 216.872V215.668L184.856 208.92H186.788V215.486H188.09V216.872H186.788V219H185.22V216.872H180.152ZM185.29 210.544L181.986 215.486H185.29V210.544Z" fill="#222222"/>
<rect x="198" y="196" width="36" height="36" fill="#131313"/>
<path d="M209.211 216.83C210.107 216.055 210.812 215.421 211.325 214.926C211.848 214.422 212.282 213.899 212.627 213.358C212.973 212.817 213.145 212.275 213.145 211.734C213.145 211.174 213.01 210.735 212.739 210.418C212.478 210.101 212.063 209.942 211.493 209.942C210.943 209.942 210.513 210.119 210.205 210.474C209.907 210.819 209.748 211.286 209.729 211.874H208.189C208.217 210.81 208.535 209.998 209.141 209.438C209.757 208.869 210.537 208.584 211.479 208.584C212.497 208.584 213.29 208.864 213.859 209.424C214.438 209.984 214.727 210.731 214.727 211.664C214.727 212.336 214.555 212.985 214.209 213.61C213.873 214.226 213.467 214.781 212.991 215.276C212.525 215.761 211.927 216.326 211.199 216.97L210.569 217.53H215.007V218.86H208.203V217.698L209.211 216.83ZM222.989 210.166H218.299V212.952C218.495 212.691 218.785 212.471 219.167 212.294C219.559 212.117 219.975 212.028 220.413 212.028C221.197 212.028 221.832 212.196 222.317 212.532C222.812 212.868 223.162 213.293 223.367 213.806C223.582 214.319 223.689 214.861 223.689 215.43C223.689 216.121 223.554 216.737 223.283 217.278C223.022 217.81 222.625 218.23 222.093 218.538C221.571 218.846 220.927 219 220.161 219C219.144 219 218.327 218.748 217.711 218.244C217.095 217.74 216.727 217.073 216.605 216.242H218.159C218.262 216.681 218.491 217.031 218.845 217.292C219.2 217.544 219.643 217.67 220.175 217.67C220.838 217.67 221.333 217.469 221.659 217.068C221.995 216.667 222.163 216.135 222.163 215.472C222.163 214.8 221.995 214.287 221.659 213.932C221.323 213.568 220.829 213.386 220.175 213.386C219.718 213.386 219.331 213.503 219.013 213.736C218.705 213.96 218.481 214.268 218.341 214.66H216.829V208.766H222.989V210.166Z" fill="#222222"/>
<rect x="234" y="196" width="36" height="36" fill="#131313"/>
<path d="M245.191 216.83C246.087 216.055 246.791 215.421 247.305 214.926C247.827 214.422 248.261 213.899 248.607 213.358C248.952 212.817 249.125 212.275 249.125 211.734C249.125 211.174 248.989 210.735 248.719 210.418C248.457 210.101 248.042 209.942 247.473 209.942C246.922 209.942 246.493 210.119 246.185 210.474C245.886 210.819 245.727 211.286 245.709 211.874H244.169C244.197 210.81 244.514 209.998 245.121 209.438C245.737 208.869 246.516 208.584 247.459 208.584C248.476 208.584 249.269 208.864 249.839 209.424C250.417 209.984 250.707 210.731 250.707 211.664C250.707 212.336 250.534 212.985 250.189 213.61C249.853 214.226 249.447 214.781 248.971 215.276C248.504 215.761 247.907 216.326 247.179 216.97L246.549 217.53H250.987V218.86H244.183V217.698L245.191 216.83ZM257.877 211.16C257.774 210.731 257.587 210.409 257.317 210.194C257.046 209.979 256.668 209.872 256.183 209.872C255.445 209.872 254.895 210.157 254.531 210.726C254.167 211.286 253.975 212.219 253.957 213.526C254.199 213.115 254.554 212.798 255.021 212.574C255.487 212.35 255.991 212.238 256.533 212.238C257.149 212.238 257.69 212.373 258.157 212.644C258.633 212.905 259.001 213.288 259.263 213.792C259.533 214.296 259.669 214.898 259.669 215.598C259.669 216.251 259.538 216.835 259.277 217.348C259.025 217.861 258.647 218.267 258.143 218.566C257.639 218.855 257.032 219 256.323 219C255.361 219 254.605 218.79 254.055 218.37C253.513 217.941 253.131 217.339 252.907 216.564C252.692 215.789 252.585 214.823 252.585 213.666C252.585 210.25 253.789 208.542 256.197 208.542C257.13 208.542 257.863 208.794 258.395 209.298C258.936 209.802 259.253 210.423 259.347 211.16H257.877ZM256.183 213.582C255.613 213.582 255.128 213.755 254.727 214.1C254.335 214.436 254.139 214.926 254.139 215.57C254.139 216.214 254.321 216.727 254.685 217.11C255.058 217.483 255.576 217.67 256.239 217.67C256.827 217.67 257.289 217.488 257.625 217.124C257.97 216.76 258.143 216.275 258.143 215.668C258.143 215.033 257.975 214.529 257.639 214.156C257.312 213.773 256.827 213.582 256.183 213.582Z" fill="#222222"/>
<rect x="18" y="232" width="36" height="36" fill="#131313"/>
<path d="M29.765 252.83C30.661 252.055 31.3656 251.421 31.879 250.926C32.4016 250.422 32.8356 249.899 33.181 249.358C33.5263 248.817 33.699 248.275 33.699 247.734C33.699 247.174 33.5636 246.735 33.293 246.418C33.0316 246.101 32.6163 245.942 32.047 245.942C31.4963 245.942 31.067 246.119 30.759 246.474C30.4603 246.819 30.3016 247.286 30.283 247.874H28.743C28.771 246.81 29.0883 245.998 29.695 245.438C30.311 244.869 31.0903 244.584 32.033 244.584C33.0503 244.584 33.8436 244.864 34.413 245.424C34.9916 245.984 35.281 246.731 35.281 247.664C35.281 248.336 35.1083 248.985 34.763 249.61C34.427 250.226 34.021 250.781 33.545 251.276C33.0783 251.761 32.481 252.326 31.753 252.97L31.123 253.53H35.561V254.86H28.757V253.698L29.765 252.83ZM43.431 246.026L39.539 255H37.929L41.863 246.194H36.683V244.836H43.431V246.026Z" fill="#CFCFCF"/>
<rect x="54" y="232" width="36" height="36" fill="#131313"/>
<path d="M65.2181 252.83C66.1141 252.055 66.8188 251.421 67.3321 250.926C67.8548 250.422 68.2888 249.899 68.6341 249.358C68.9794 248.817 69.1521 248.275 69.1521 247.734C69.1521 247.174 69.0168 246.735 68.7461 246.418C68.4848 246.101 68.0694 245.942 67.5001 245.942C66.9494 245.942 66.5201 246.119 66.2121 246.474C65.9134 246.819 65.7548 247.286 65.7361 247.874H64.1961C64.2241 246.81 64.5414 245.998 65.1481 245.438C65.7641 244.869 66.5434 244.584 67.4861 244.584C68.5034 244.584 69.2968 244.864 69.8661 245.424C70.4448 245.984 70.7341 246.731 70.7341 247.664C70.7341 248.336 70.5614 248.985 70.2161 249.61C69.8801 250.226 69.4741 250.781 68.9981 251.276C68.5314 251.761 67.9341 252.326 67.2061 252.97L66.5761 253.53H71.0141V254.86H64.2101V253.698L65.2181 252.83ZM74.1382 249.666C73.1675 249.181 72.6822 248.415 72.6822 247.37C72.6822 246.866 72.8082 246.404 73.0602 245.984C73.3122 245.564 73.6902 245.233 74.1942 244.99C74.6982 244.738 75.3142 244.612 76.0422 244.612C76.7608 244.612 77.3722 244.738 77.8762 244.99C78.3895 245.233 78.7722 245.564 79.0242 245.984C79.2762 246.404 79.4022 246.866 79.4022 247.37C79.4022 247.893 79.2668 248.355 78.9962 248.756C78.7348 249.148 78.3848 249.451 77.9462 249.666C78.4782 249.862 78.8982 250.184 79.2062 250.632C79.5142 251.071 79.6682 251.589 79.6682 252.186C79.6682 252.793 79.5142 253.329 79.2062 253.796C78.8982 254.263 78.4688 254.622 77.9182 254.874C77.3675 255.126 76.7422 255.252 76.0422 255.252C75.3422 255.252 74.7168 255.126 74.1662 254.874C73.6248 254.622 73.2002 254.263 72.8922 253.796C72.5842 253.329 72.4302 252.793 72.4302 252.186C72.4302 251.579 72.5842 251.057 72.8922 250.618C73.2002 250.179 73.6155 249.862 74.1382 249.666ZM77.8762 247.566C77.8762 247.043 77.7128 246.642 77.3862 246.362C77.0595 246.082 76.6115 245.942 76.0422 245.942C75.4822 245.942 75.0388 246.082 74.7122 246.362C74.3855 246.642 74.2222 247.048 74.2222 247.58C74.2222 248.047 74.3902 248.429 74.7262 248.728C75.0715 249.017 75.5102 249.162 76.0422 249.162C76.5742 249.162 77.0128 249.013 77.3582 248.714C77.7035 248.415 77.8762 248.033 77.8762 247.566ZM76.0422 250.366C75.4262 250.366 74.9222 250.52 74.5302 250.828C74.1475 251.127 73.9562 251.561 73.9562 252.13C73.9562 252.662 74.1428 253.096 74.5162 253.432C74.8895 253.759 75.3982 253.922 76.0422 253.922C76.6768 253.922 77.1762 253.754 77.5402 253.418C77.9135 253.082 78.1002 252.653 78.1002 252.13C78.1002 251.57 77.9088 251.136 77.5262 250.828C77.1528 250.52 76.6582 250.366 76.0422 250.366Z" fill="#222222"/>
<rect x="162" y="232" width="36" height="36" fill="#131313"/>
<rect x="198" y="232" width="36" height="36" fill="#131313"/>
<rect x="234" y="232" width="36" height="36" fill="#131313"/>
<path d="M115.827 29.228V36.088C115.827 37.04 115.552 37.782 115.001 38.314C114.45 38.8367 113.713 39.098 112.789 39.098C111.856 39.098 111.1 38.8273 110.521 38.286C109.952 37.7447 109.667 36.9887 109.667 36.018H111.627C111.636 36.438 111.734 36.7647 111.921 36.998C112.117 37.2313 112.397 37.348 112.761 37.348C113.116 37.348 113.386 37.236 113.573 37.012C113.76 36.788 113.853 36.48 113.853 36.088V29.228H115.827ZM125.435 31.244V39H123.461V38.02C123.209 38.356 122.878 38.622 122.467 38.818C122.066 39.0047 121.627 39.098 121.151 39.098C120.545 39.098 120.008 38.972 119.541 38.72C119.075 38.4587 118.706 38.0807 118.435 37.586C118.174 37.082 118.043 36.4847 118.043 35.794V31.244H120.003V35.514C120.003 36.13 120.157 36.606 120.465 36.942C120.773 37.2687 121.193 37.432 121.725 37.432C122.267 37.432 122.691 37.2687 122.999 36.942C123.307 36.606 123.461 36.13 123.461 35.514V31.244H125.435ZM131.667 31.132C132.591 31.132 133.338 31.426 133.907 32.014C134.477 32.5927 134.761 33.4047 134.761 34.45V39H132.801V34.716C132.801 34.1 132.647 33.6287 132.339 33.302C132.031 32.966 131.611 32.798 131.079 32.798C130.538 32.798 130.109 32.966 129.791 33.302C129.483 33.6287 129.329 34.1 129.329 34.716V39H127.369V31.244H129.329V32.21C129.591 31.874 129.922 31.6127 130.323 31.426C130.734 31.23 131.182 31.132 131.667 31.132ZM143.835 34.954C143.835 35.234 143.817 35.486 143.779 35.71H138.109C138.156 36.27 138.352 36.7087 138.697 37.026C139.043 37.3433 139.467 37.502 139.971 37.502C140.699 37.502 141.217 37.1893 141.525 36.564H143.639C143.415 37.3107 142.986 37.9267 142.351 38.412C141.717 38.888 140.937 39.126 140.013 39.126C139.267 39.126 138.595 38.9627 137.997 38.636C137.409 38.3 136.947 37.8287 136.611 37.222C136.285 36.6153 136.121 35.9153 136.121 35.122C136.121 34.3193 136.285 33.6147 136.611 33.008C136.938 32.4013 137.395 31.9347 137.983 31.608C138.571 31.2813 139.248 31.118 140.013 31.118C140.751 31.118 141.409 31.2767 141.987 31.594C142.575 31.9113 143.028 32.364 143.345 32.952C143.672 33.5307 143.835 34.198 143.835 34.954ZM141.805 34.394C141.796 33.89 141.614 33.4887 141.259 33.19C140.905 32.882 140.471 32.728 139.957 32.728C139.472 32.728 139.061 32.8773 138.725 33.176C138.399 33.4653 138.198 33.8713 138.123 34.394H141.805ZM148.994 36.788C149.89 36.0413 150.604 35.4207 151.136 34.926C151.668 34.422 152.111 33.8993 152.466 33.358C152.82 32.8167 152.998 32.2847 152.998 31.762C152.998 31.286 152.886 30.9127 152.662 30.642C152.438 30.3713 152.092 30.236 151.626 30.236C151.159 30.236 150.8 30.3947 150.548 30.712C150.296 31.02 150.165 31.4447 150.156 31.986H148.252C148.289 30.866 148.62 30.0167 149.246 29.438C149.88 28.8593 150.683 28.57 151.654 28.57C152.718 28.57 153.534 28.8547 154.104 29.424C154.673 29.984 154.958 30.726 154.958 31.65C154.958 32.378 154.762 33.0733 154.37 33.736C153.978 34.3987 153.53 34.9773 153.026 35.472C152.522 35.9573 151.864 36.5453 151.052 37.236H155.182V38.86H148.266V37.404L148.994 36.788ZM156.417 33.764C156.417 32.1493 156.706 30.8847 157.285 29.97C157.873 29.0553 158.843 28.598 160.197 28.598C161.55 28.598 162.516 29.0553 163.095 29.97C163.683 30.8847 163.977 32.1493 163.977 33.764C163.977 35.388 163.683 36.662 163.095 37.586C162.516 38.51 161.55 38.972 160.197 38.972C158.843 38.972 157.873 38.51 157.285 37.586C156.706 36.662 156.417 35.388 156.417 33.764ZM162.045 33.764C162.045 33.0733 161.998 32.4947 161.905 32.028C161.821 31.552 161.643 31.1647 161.373 30.866C161.111 30.5673 160.719 30.418 160.197 30.418C159.674 30.418 159.277 30.5673 159.007 30.866C158.745 31.1647 158.568 31.552 158.475 32.028C158.391 32.4947 158.349 33.0733 158.349 33.764C158.349 34.4733 158.391 35.0707 158.475 35.556C158.559 36.032 158.736 36.4193 159.007 36.718C159.277 37.0073 159.674 37.152 160.197 37.152C160.719 37.152 161.116 37.0073 161.387 36.718C161.657 36.4193 161.835 36.032 161.919 35.556C162.003 35.0707 162.045 34.4733 162.045 33.764ZM166.084 36.788C166.98 36.0413 167.694 35.4207 168.226 34.926C168.758 34.422 169.201 33.8993 169.556 33.358C169.91 32.8167 170.088 32.2847 170.088 31.762C170.088 31.286 169.976 30.9127 169.752 30.642C169.528 30.3713 169.182 30.236 168.716 30.236C168.249 30.236 167.89 30.3947 167.638 30.712C167.386 31.02 167.255 31.4447 167.246 31.986H165.342C165.379 30.866 165.71 30.0167 166.336 29.438C166.97 28.8593 167.773 28.57 168.744 28.57C169.808 28.57 170.624 28.8547 171.194 29.424C171.763 29.984 172.048 30.726 172.048 31.65C172.048 32.378 171.852 33.0733 171.46 33.736C171.068 34.3987 170.62 34.9773 170.116 35.472C169.612 35.9573 168.954 36.5453 168.142 37.236H172.272V38.86H165.356V37.404L166.084 36.788ZM173.269 30.6V28.794H176.643V39H174.627V30.6H173.269Z" fill="#222222"/>
<path d="M101.739 252.83C102.635 252.055 103.339 251.421 103.853 250.926C104.375 250.422 104.809 249.899 105.155 249.358C105.5 248.817 105.673 248.275 105.673 247.734C105.673 247.174 105.537 246.735 105.267 246.418C105.005 246.101 104.59 245.942 104.021 245.942C103.47 245.942 103.041 246.119 102.733 246.474C102.434 246.819 102.275 247.286 102.257 247.874H100.717C100.745 246.81 101.062 245.998 101.669 245.438C102.285 244.869 103.064 244.584 104.007 244.584C105.024 244.584 105.817 244.864 106.387 245.424C106.965 245.984 107.255 246.731 107.255 247.664C107.255 248.336 107.082 248.985 106.737 249.61C106.401 250.226 105.995 250.781 105.519 251.276C105.052 251.761 104.455 252.326 103.727 252.97L103.097 253.53H107.535V254.86H100.731V253.698L101.739 252.83ZM110.925 252.228C111.018 252.695 111.219 253.049 111.527 253.292C111.835 253.535 112.25 253.656 112.773 253.656C113.435 253.656 113.921 253.395 114.229 252.872C114.537 252.349 114.691 251.458 114.691 250.198C114.467 250.515 114.149 250.763 113.739 250.94C113.337 251.108 112.899 251.192 112.423 251.192C111.816 251.192 111.265 251.071 110.771 250.828C110.276 250.576 109.884 250.207 109.595 249.722C109.315 249.227 109.175 248.63 109.175 247.93C109.175 246.903 109.473 246.087 110.071 245.48C110.677 244.864 111.508 244.556 112.563 244.556C113.832 244.556 114.733 244.981 115.265 245.83C115.806 246.67 116.077 247.963 116.077 249.708C116.077 250.912 115.974 251.897 115.769 252.662C115.573 253.427 115.227 254.006 114.733 254.398C114.238 254.79 113.552 254.986 112.675 254.986C111.676 254.986 110.906 254.725 110.365 254.202C109.823 253.679 109.52 253.021 109.455 252.228H110.925ZM112.703 249.848C113.263 249.848 113.701 249.675 114.019 249.33C114.345 248.975 114.509 248.509 114.509 247.93C114.509 247.286 114.336 246.787 113.991 246.432C113.655 246.068 113.193 245.886 112.605 245.886C112.017 245.886 111.55 246.073 111.205 246.446C110.869 246.81 110.701 247.291 110.701 247.888C110.701 248.457 110.864 248.929 111.191 249.302C111.527 249.666 112.031 249.848 112.703 249.848Z" fill="#222222"/>
<path d="M137.171 247.314C137.227 246.446 137.559 245.769 138.165 245.284C138.781 244.799 139.565 244.556 140.517 244.556C141.171 244.556 141.735 244.673 142.211 244.906C142.687 245.139 143.047 245.457 143.289 245.858C143.532 246.259 143.653 246.712 143.653 247.216C143.653 247.795 143.499 248.289 143.191 248.7C142.883 249.111 142.515 249.386 142.085 249.526V249.582C142.636 249.75 143.065 250.058 143.373 250.506C143.681 250.945 143.835 251.509 143.835 252.2C143.835 252.751 143.709 253.241 143.457 253.67C143.205 254.099 142.832 254.44 142.337 254.692C141.843 254.935 141.25 255.056 140.559 255.056C139.551 255.056 138.721 254.799 138.067 254.286C137.423 253.763 137.078 253.017 137.031 252.046H138.571C138.609 252.541 138.8 252.947 139.145 253.264C139.491 253.572 139.957 253.726 140.545 253.726C141.115 253.726 141.553 253.572 141.861 253.264C142.169 252.947 142.323 252.541 142.323 252.046C142.323 251.393 142.113 250.931 141.693 250.66C141.283 250.38 140.648 250.24 139.789 250.24H139.425V248.924H139.803C140.559 248.915 141.133 248.789 141.525 248.546C141.927 248.303 142.127 247.921 142.127 247.398C142.127 246.95 141.983 246.595 141.693 246.334C141.404 246.063 140.993 245.928 140.461 245.928C139.939 245.928 139.533 246.063 139.243 246.334C138.954 246.595 138.781 246.922 138.725 247.314H137.171ZM145.512 249.764C145.512 248.149 145.783 246.889 146.324 245.984C146.875 245.069 147.817 244.612 149.152 244.612C150.487 244.612 151.425 245.069 151.966 245.984C152.517 246.889 152.792 248.149 152.792 249.764C152.792 251.397 152.517 252.676 151.966 253.6C151.425 254.515 150.487 254.972 149.152 254.972C147.817 254.972 146.875 254.515 146.324 253.6C145.783 252.676 145.512 251.397 145.512 249.764ZM151.224 249.764C151.224 249.008 151.173 248.369 151.07 247.846C150.977 247.323 150.781 246.899 150.482 246.572C150.183 246.236 149.74 246.068 149.152 246.068C148.564 246.068 148.121 246.236 147.822 246.572C147.523 246.899 147.323 247.323 147.22 247.846C147.127 248.369 147.08 249.008 147.08 249.764C147.08 250.548 147.127 251.206 147.22 251.738C147.313 252.27 147.509 252.699 147.808 253.026C148.116 253.353 148.564 253.516 149.152 253.516C149.74 253.516 150.183 253.353 150.482 253.026C150.79 252.699 150.991 252.27 151.084 251.738C151.177 251.206 151.224 250.548 151.224 249.764Z" fill="#222222"/>
<g filter="url(#filter0_d_1825_154)">
<circle cx="41.5" cy="33.5" r="16.5" fill="#131313"/>
</g>
<path d="M43 27L37 33L43 39" stroke="#222222" stroke-width="2" stroke-linecap="round" stroke-linejoin="round"/>
<g filter="url(#filter1_d_1825_154)">
<circle cx="243.5" cy="33.5" r="16.5" transform="rotate(-180 243.5 33.5)" fill="#131313"/>
</g>
<path d="M242 40L248 34L242 28" stroke="#222222" stroke-width="2" stroke-linecap="round" stroke-linejoin="round"/>
<defs>
<filter id="filter0_d_1825_154" x="15" y="10" width="53" height="53" filterUnits="userSpaceOnUse" color-interpolation-filters="sRGB">
<feFlood flood-opacity="0" result="BackgroundImageFix"/>
<feColorMatrix in="SourceAlpha" type="matrix" values="0 0 0 0 0 0 0 0 0 0 0 0 0 0 0 0 0 0 127 0" result="hardAlpha"/>
<feOffset dy="3"/>
<feGaussianBlur stdDeviation="5"/>
<feColorMatrix type="matrix" values="0 0 0 0 0 0 0 0 0 0 0 0 0 0 0 0 0 0 0.25 0"/>
<feBlend mode="normal" in2="BackgroundImageFix" result="effect1_dropShadow_1825_154"/>
<feBlend mode="normal" in="SourceGraphic" in2="effect1_dropShadow_1825_154" result="shape"/>
</filter>
<filter id="filter1_d_1825_154" x="217" y="10" width="53" height="53" filterUnits="userSpaceOnUse" color-interpolation-filters="sRGB">
<feFlood flood-opacity="0" result="BackgroundImageFix"/>
<feColorMatrix in="SourceAlpha" type="matrix" values="0 0 0 0 0 0 0 0 0 0 0 0 0 0 0 0 0 0 127 0" result="hardAlpha"/>
<feOffset dy="3"/>
<feGaussianBlur stdDeviation="5"/>
<feColorMatrix type="matrix" values="0 0 0 0 0 0 0 0 0 0 0 0 0 0 0 0 0 0 0.25 0"/>
<feBlend mode="normal" in2="BackgroundImageFix" result="effect1_dropShadow_1825_154"/>
<feBlend mode="normal" in="SourceGraphic" in2="effect1_dropShadow_1825_154" result="shape"/>
</filter>
</defs>
</svg>
