<svg width="450" height="350" viewBox="0 0 450 350" fill="none" xmlns="http://www.w3.org/2000/svg">
<rect width="450" height="350" rx="10" fill="#131313"/>
<circle cx="57" cy="153" r="22" fill="#CFCFCF"/>
<path d="M100.41 149.87H96.045L95.295 152H93.51L97.245 141.56H99.225L102.96 152H101.16L100.41 149.87ZM99.93 148.475L98.235 143.63L96.525 148.475H99.93ZM106.594 144.965C106.884 144.565 107.279 144.24 107.779 143.99C108.289 143.73 108.854 143.6 109.474 143.6C110.204 143.6 110.864 143.775 111.454 144.125C112.044 144.475 112.509 144.975 112.849 145.625C113.189 146.265 113.359 147 113.359 147.83C113.359 148.66 113.189 149.405 112.849 150.065C112.509 150.715 112.039 151.225 111.439 151.595C110.849 151.955 110.194 152.135 109.474 152.135C108.834 152.135 108.264 152.01 107.764 151.76C107.274 151.51 106.884 151.19 106.594 150.8V152H104.884V140.9H106.594V144.965ZM111.619 147.83C111.619 147.26 111.499 146.77 111.259 146.36C111.029 145.94 110.719 145.625 110.329 145.415C109.949 145.195 109.539 145.085 109.099 145.085C108.669 145.085 108.259 145.195 107.869 145.415C107.489 145.635 107.179 145.955 106.939 146.375C106.709 146.795 106.594 147.29 106.594 147.86C106.594 148.43 106.709 148.93 106.939 149.36C107.179 149.78 107.489 150.1 107.869 150.32C108.259 150.54 108.669 150.65 109.099 150.65C109.539 150.65 109.949 150.54 110.329 150.32C110.719 150.09 111.029 149.76 111.259 149.33C111.499 148.9 111.619 148.4 111.619 147.83ZM118.35 152.135C117.7 152.135 117.115 152.02 116.595 151.79C116.085 151.55 115.68 151.23 115.38 150.83C115.08 150.42 114.92 149.965 114.9 149.465H116.67C116.7 149.815 116.865 150.11 117.165 150.35C117.475 150.58 117.86 150.695 118.32 150.695C118.8 150.695 119.17 150.605 119.43 150.425C119.7 150.235 119.835 149.995 119.835 149.705C119.835 149.395 119.685 149.165 119.385 149.015C119.095 148.865 118.63 148.7 117.99 148.52C117.37 148.35 116.865 148.185 116.475 148.025C116.085 147.865 115.745 147.62 115.455 147.29C115.175 146.96 115.035 146.525 115.035 145.985C115.035 145.545 115.165 145.145 115.425 144.785C115.685 144.415 116.055 144.125 116.535 143.915C117.025 143.705 117.585 143.6 118.215 143.6C119.155 143.6 119.91 143.84 120.48 144.32C121.06 144.79 121.37 145.435 121.41 146.255H119.7C119.67 145.885 119.52 145.59 119.25 145.37C118.98 145.15 118.615 145.04 118.155 145.04C117.705 145.04 117.36 145.125 117.12 145.295C116.88 145.465 116.76 145.69 116.76 145.97C116.76 146.19 116.84 146.375 117 146.525C117.16 146.675 117.355 146.795 117.585 146.885C117.815 146.965 118.155 147.07 118.605 147.2C119.205 147.36 119.695 147.525 120.075 147.695C120.465 147.855 120.8 148.095 121.08 148.415C121.36 148.735 121.505 149.16 121.515 149.69C121.515 150.16 121.385 150.58 121.125 150.95C120.865 151.32 120.495 151.61 120.015 151.82C119.545 152.03 118.99 152.135 118.35 152.135ZM131.238 147.665C131.238 147.975 131.218 148.255 131.178 148.505H124.863C124.913 149.165 125.158 149.695 125.598 150.095C126.038 150.495 126.578 150.695 127.218 150.695C128.138 150.695 128.788 150.31 129.168 149.54H131.013C130.763 150.3 130.308 150.925 129.648 151.415C128.998 151.895 128.188 152.135 127.218 152.135C126.428 152.135 125.718 151.96 125.088 151.61C124.468 151.25 123.978 150.75 123.618 150.11C123.268 149.46 123.093 148.71 123.093 147.86C123.093 147.01 123.263 146.265 123.603 145.625C123.953 144.975 124.438 144.475 125.058 144.125C125.688 143.775 126.408 143.6 127.218 143.6C127.998 143.6 128.693 143.77 129.303 144.11C129.913 144.45 130.388 144.93 130.728 145.55C131.068 146.16 131.238 146.865 131.238 147.665ZM129.453 147.125C129.443 146.495 129.218 145.99 128.778 145.61C128.338 145.23 127.793 145.04 127.143 145.04C126.553 145.04 126.048 145.23 125.628 145.61C125.208 145.98 124.958 146.485 124.878 147.125H129.453ZM137.391 143.6C138.041 143.6 138.621 143.735 139.131 144.005C139.651 144.275 140.056 144.675 140.346 145.205C140.636 145.735 140.781 146.375 140.781 147.125V152H139.086V147.38C139.086 146.64 138.901 146.075 138.531 145.685C138.161 145.285 137.656 145.085 137.016 145.085C136.376 145.085 135.866 145.285 135.486 145.685C135.116 146.075 134.931 146.64 134.931 147.38V152H133.221V143.735H134.931V144.68C135.211 144.34 135.566 144.075 135.996 143.885C136.436 143.695 136.901 143.6 137.391 143.6ZM142.692 147.86C142.692 147.01 142.862 146.265 143.202 145.625C143.552 144.975 144.032 144.475 144.642 144.125C145.252 143.775 145.952 143.6 146.742 143.6C147.742 143.6 148.567 143.84 149.217 144.32C149.877 144.79 150.322 145.465 150.552 146.345H148.707C148.557 145.935 148.317 145.615 147.987 145.385C147.657 145.155 147.242 145.04 146.742 145.04C146.042 145.04 145.482 145.29 145.062 145.79C144.652 146.28 144.447 146.97 144.447 147.86C144.447 148.75 144.652 149.445 145.062 149.945C145.482 150.445 146.042 150.695 146.742 150.695C147.732 150.695 148.387 150.26 148.707 149.39H150.552C150.312 150.23 149.862 150.9 149.202 151.4C148.542 151.89 147.722 152.135 146.742 152.135C145.952 152.135 145.252 151.96 144.642 151.61C144.032 151.25 143.552 150.75 143.202 150.11C142.862 149.46 142.692 148.71 142.692 147.86ZM160.131 147.665C160.131 147.975 160.111 148.255 160.071 148.505H153.756C153.806 149.165 154.051 149.695 154.491 150.095C154.931 150.495 155.471 150.695 156.111 150.695C157.031 150.695 157.681 150.31 158.061 149.54H159.906C159.656 150.3 159.201 150.925 158.541 151.415C157.891 151.895 157.081 152.135 156.111 152.135C155.321 152.135 154.611 151.96 153.981 151.61C153.361 151.25 152.871 150.75 152.511 150.11C152.161 149.46 151.986 148.71 151.986 147.86C151.986 147.01 152.156 146.265 152.496 145.625C152.846 144.975 153.331 144.475 153.951 144.125C154.581 143.775 155.301 143.6 156.111 143.6C156.891 143.6 157.586 143.77 158.196 144.11C158.806 144.45 159.281 144.93 159.621 145.55C159.961 146.16 160.131 146.865 160.131 147.665ZM158.346 147.125C158.336 146.495 158.111 145.99 157.671 145.61C157.231 145.23 156.686 145.04 156.036 145.04C155.446 145.04 154.941 145.23 154.521 145.61C154.101 145.98 153.851 146.485 153.771 147.125H158.346Z" fill="#CFCFCF"/>
<path d="M96.225 169.925C96.305 170.365 96.485 170.705 96.765 170.945C97.055 171.175 97.44 171.29 97.92 171.29C98.54 171.29 98.99 171.035 99.27 170.525C99.55 170.005 99.69 169.135 99.69 167.915C99.46 168.235 99.135 168.485 98.715 168.665C98.305 168.845 97.86 168.935 97.38 168.935C96.74 168.935 96.16 168.805 95.64 168.545C95.13 168.275 94.725 167.88 94.425 167.36C94.125 166.83 93.975 166.19 93.975 165.44C93.975 164.33 94.305 163.45 94.965 162.8C95.625 162.14 96.525 161.81 97.665 161.81C99.085 161.81 100.085 162.265 100.665 163.175C101.255 164.085 101.55 165.455 101.55 167.285C101.55 168.585 101.435 169.65 101.205 170.48C100.985 171.31 100.6 171.94 100.05 172.37C99.51 172.8 98.77 173.015 97.83 173.015C97.09 173.015 96.46 172.875 95.94 172.595C95.42 172.305 95.02 171.93 94.74 171.47C94.47 171 94.315 170.485 94.275 169.925H96.225ZM97.815 167.225C98.335 167.225 98.745 167.065 99.045 166.745C99.345 166.425 99.495 165.995 99.495 165.455C99.495 164.865 99.335 164.41 99.015 164.09C98.705 163.76 98.28 163.595 97.74 163.595C97.2 163.595 96.77 163.765 96.45 164.105C96.14 164.435 95.985 164.875 95.985 165.425C95.985 165.955 96.135 166.39 96.435 166.73C96.745 167.06 97.205 167.225 97.815 167.225ZM103.485 167.39C103.485 165.66 103.795 164.305 104.415 163.325C105.045 162.345 106.085 161.855 107.535 161.855C108.985 161.855 110.02 162.345 110.64 163.325C111.27 164.305 111.585 165.66 111.585 167.39C111.585 169.13 111.27 170.495 110.64 171.485C110.02 172.475 108.985 172.97 107.535 172.97C106.085 172.97 105.045 172.475 104.415 171.485C103.795 170.495 103.485 169.13 103.485 167.39ZM109.515 167.39C109.515 166.65 109.465 166.03 109.365 165.53C109.275 165.02 109.085 164.605 108.795 164.285C108.515 163.965 108.095 163.805 107.535 163.805C106.975 163.805 106.55 163.965 106.26 164.285C105.98 164.605 105.79 165.02 105.69 165.53C105.6 166.03 105.555 166.65 105.555 167.39C105.555 168.15 105.6 168.79 105.69 169.31C105.78 169.82 105.97 170.235 106.26 170.555C106.55 170.865 106.975 171.02 107.535 171.02C108.095 171.02 108.52 170.865 108.81 170.555C109.1 170.235 109.29 169.82 109.38 169.31C109.47 168.79 109.515 168.15 109.515 167.39ZM113.242 164.75C113.242 163.99 113.462 163.395 113.902 162.965C114.352 162.535 114.927 162.32 115.627 162.32C116.327 162.32 116.897 162.535 117.337 162.965C117.787 163.395 118.012 163.99 118.012 164.75C118.012 165.52 117.787 166.12 117.337 166.55C116.897 166.98 116.327 167.195 115.627 167.195C114.927 167.195 114.352 166.98 113.902 166.55C113.462 166.12 113.242 165.52 113.242 164.75ZM122.872 162.5L116.977 173H114.937L120.817 162.5H122.872ZM115.612 163.58C115.062 163.58 114.787 163.97 114.787 164.75C114.787 165.54 115.062 165.935 115.612 165.935C115.882 165.935 116.092 165.84 116.242 165.65C116.392 165.45 116.467 165.15 116.467 164.75C116.467 163.97 116.182 163.58 115.612 163.58ZM119.827 170.735C119.827 169.965 120.047 169.37 120.487 168.95C120.937 168.52 121.512 168.305 122.212 168.305C122.912 168.305 123.477 168.52 123.907 168.95C124.347 169.37 124.567 169.965 124.567 170.735C124.567 171.505 124.347 172.105 123.907 172.535C123.477 172.965 122.912 173.18 122.212 173.18C121.502 173.18 120.927 172.965 120.487 172.535C120.047 172.105 119.827 171.505 119.827 170.735ZM122.197 169.565C121.627 169.565 121.342 169.955 121.342 170.735C121.342 171.525 121.627 171.92 122.197 171.92C122.757 171.92 123.037 171.525 123.037 170.735C123.037 169.955 122.757 169.565 122.197 169.565Z" fill="#9A9A9A"/>
<path d="M47.625 164.25C47.625 164.25 45.75 164.25 45.75 162.375C45.75 160.5 47.625 154.875 57 154.875C66.375 154.875 68.25 160.5 68.25 162.375C68.25 164.25 66.375 164.25 66.375 164.25H47.625ZM57 153C58.4918 153 59.9226 152.407 60.9775 151.352C62.0324 150.298 62.625 148.867 62.625 147.375C62.625 145.883 62.0324 144.452 60.9775 143.398C59.9226 142.343 58.4918 141.75 57 141.75C55.5082 141.75 54.0774 142.343 53.0225 143.398C51.9676 144.452 51.375 145.883 51.375 147.375C51.375 148.867 51.9676 150.298 53.0225 151.352C54.0774 152.407 55.5082 153 57 153Z" fill="#131313"/>
<circle cx="57" cy="217" r="22" fill="#CFCFCF"/>
<path d="M100.86 205.575V206.97H98.085V216H96.375V206.97H93.585V205.575H100.86ZM102.322 211.83C102.322 211 102.492 210.265 102.832 209.625C103.182 208.985 103.652 208.49 104.242 208.14C104.842 207.78 105.502 207.6 106.222 207.6C106.872 207.6 107.437 207.73 107.917 207.99C108.407 208.24 108.797 208.555 109.087 208.935V207.735H110.812V216H109.087V214.77C108.797 215.16 108.402 215.485 107.902 215.745C107.402 216.005 106.832 216.135 106.192 216.135C105.482 216.135 104.832 215.955 104.242 215.595C103.652 215.225 103.182 214.715 102.832 214.065C102.492 213.405 102.322 212.66 102.322 211.83ZM109.087 211.86C109.087 211.29 108.967 210.795 108.727 210.375C108.497 209.955 108.192 209.635 107.812 209.415C107.432 209.195 107.022 209.085 106.582 209.085C106.142 209.085 105.732 209.195 105.352 209.415C104.972 209.625 104.662 209.94 104.422 210.36C104.192 210.77 104.077 211.26 104.077 211.83C104.077 212.4 104.192 212.9 104.422 213.33C104.662 213.76 104.972 214.09 105.352 214.32C105.742 214.54 106.152 214.65 106.582 214.65C107.022 214.65 107.432 214.54 107.812 214.32C108.192 214.1 108.497 213.78 108.727 213.36C108.967 212.93 109.087 212.43 109.087 211.86ZM116.358 216.135C115.708 216.135 115.123 216.02 114.603 215.79C114.093 215.55 113.688 215.23 113.388 214.83C113.088 214.42 112.928 213.965 112.908 213.465H114.678C114.708 213.815 114.873 214.11 115.173 214.35C115.483 214.58 115.868 214.695 116.328 214.695C116.808 214.695 117.178 214.605 117.438 214.425C117.708 214.235 117.843 213.995 117.843 213.705C117.843 213.395 117.693 213.165 117.393 213.015C117.103 212.865 116.638 212.7 115.998 212.52C115.378 212.35 114.873 212.185 114.483 212.025C114.093 211.865 113.753 211.62 113.463 211.29C113.183 210.96 113.043 210.525 113.043 209.985C113.043 209.545 113.173 209.145 113.433 208.785C113.693 208.415 114.063 208.125 114.543 207.915C115.033 207.705 115.593 207.6 116.223 207.6C117.163 207.6 117.918 207.84 118.488 208.32C119.068 208.79 119.378 209.435 119.418 210.255H117.708C117.678 209.885 117.528 209.59 117.258 209.37C116.988 209.15 116.623 209.04 116.163 209.04C115.713 209.04 115.368 209.125 115.128 209.295C114.888 209.465 114.768 209.69 114.768 209.97C114.768 210.19 114.848 210.375 115.008 210.525C115.168 210.675 115.363 210.795 115.593 210.885C115.823 210.965 116.163 211.07 116.613 211.2C117.213 211.36 117.703 211.525 118.083 211.695C118.473 211.855 118.808 212.095 119.088 212.415C119.368 212.735 119.513 213.16 119.523 213.69C119.523 214.16 119.393 214.58 119.133 214.95C118.873 215.32 118.503 215.61 118.023 215.82C117.553 216.03 116.998 216.135 116.358 216.135ZM124.941 211.875L128.751 216H126.441L123.381 212.445V216H121.671V204.9H123.381V211.35L126.381 207.735H128.751L124.941 211.875ZM133.276 216.135C132.626 216.135 132.041 216.02 131.521 215.79C131.011 215.55 130.606 215.23 130.306 214.83C130.006 214.42 129.846 213.965 129.826 213.465H131.596C131.626 213.815 131.791 214.11 132.091 214.35C132.401 214.58 132.786 214.695 133.246 214.695C133.726 214.695 134.096 214.605 134.356 214.425C134.626 214.235 134.761 213.995 134.761 213.705C134.761 213.395 134.611 213.165 134.311 213.015C134.021 212.865 133.556 212.7 132.916 212.52C132.296 212.35 131.791 212.185 131.401 212.025C131.011 211.865 130.671 211.62 130.381 211.29C130.101 210.96 129.961 210.525 129.961 209.985C129.961 209.545 130.091 209.145 130.351 208.785C130.611 208.415 130.981 208.125 131.461 207.915C131.951 207.705 132.511 207.6 133.141 207.6C134.081 207.6 134.836 207.84 135.406 208.32C135.986 208.79 136.296 209.435 136.336 210.255H134.626C134.596 209.885 134.446 209.59 134.176 209.37C133.906 209.15 133.541 209.04 133.081 209.04C132.631 209.04 132.286 209.125 132.046 209.295C131.806 209.465 131.686 209.69 131.686 209.97C131.686 210.19 131.766 210.375 131.926 210.525C132.086 210.675 132.281 210.795 132.511 210.885C132.741 210.965 133.081 211.07 133.531 211.2C134.131 211.36 134.621 211.525 135.001 211.695C135.391 211.855 135.726 212.095 136.006 212.415C136.286 212.735 136.431 213.16 136.441 213.69C136.441 214.16 136.311 214.58 136.051 214.95C135.791 215.32 135.421 215.61 134.941 215.82C134.471 216.03 133.916 216.135 133.276 216.135ZM150.84 216L149.55 214.71C149.05 215.21 148.505 215.585 147.915 215.835C147.325 216.075 146.665 216.195 145.935 216.195C145.195 216.195 144.54 216.065 143.97 215.805C143.4 215.545 142.96 215.175 142.65 214.695C142.34 214.205 142.185 213.64 142.185 213C142.185 212.28 142.39 211.64 142.8 211.08C143.21 210.51 143.82 210.06 144.63 209.73C144.34 209.38 144.135 209.055 144.015 208.755C143.895 208.445 143.835 208.105 143.835 207.735C143.835 207.275 143.95 206.865 144.18 206.505C144.42 206.145 144.76 205.86 145.2 205.65C145.64 205.44 146.15 205.335 146.73 205.335C147.32 205.335 147.82 205.45 148.23 205.68C148.65 205.9 148.96 206.205 149.16 206.595C149.37 206.985 149.455 207.42 149.415 207.9H147.705C147.715 207.53 147.625 207.245 147.435 207.045C147.245 206.835 146.985 206.73 146.655 206.73C146.325 206.73 146.055 206.83 145.845 207.03C145.645 207.22 145.545 207.455 145.545 207.735C145.545 208.005 145.62 208.275 145.77 208.545C145.93 208.805 146.205 209.145 146.595 209.565L149.355 212.31L150.42 210.555H152.265L150.915 212.865L150.54 213.48L153.075 216H150.84ZM145.935 214.74C146.875 214.74 147.705 214.355 148.425 213.585L145.665 210.81C144.485 211.28 143.895 211.99 143.895 212.94C143.895 213.45 144.085 213.88 144.465 214.23C144.845 214.57 145.335 214.74 145.935 214.74ZM160.403 206.955V210.015H164.003V211.41H160.403V214.605H164.453V216H158.693V205.56H164.453V206.955H160.403ZM170.399 211.815L173.069 216H171.134L169.349 213.195L167.669 216H165.884L168.554 211.935L165.884 207.735H167.819L169.604 210.54L171.284 207.735H173.069L170.399 211.815ZM174.075 211.83C174.075 211 174.245 210.265 174.585 209.625C174.935 208.985 175.405 208.49 175.995 208.14C176.595 207.78 177.255 207.6 177.975 207.6C178.625 207.6 179.19 207.73 179.67 207.99C180.16 208.24 180.55 208.555 180.84 208.935V207.735H182.565V216H180.84V214.77C180.55 215.16 180.155 215.485 179.655 215.745C179.155 216.005 178.585 216.135 177.945 216.135C177.235 216.135 176.585 215.955 175.995 215.595C175.405 215.225 174.935 214.715 174.585 214.065C174.245 213.405 174.075 212.66 174.075 211.83ZM180.84 211.86C180.84 211.29 180.72 210.795 180.48 210.375C180.25 209.955 179.945 209.635 179.565 209.415C179.185 209.195 178.775 209.085 178.335 209.085C177.895 209.085 177.485 209.195 177.105 209.415C176.725 209.625 176.415 209.94 176.175 210.36C175.945 210.77 175.83 211.26 175.83 211.83C175.83 212.4 175.945 212.9 176.175 213.33C176.415 213.76 176.725 214.09 177.105 214.32C177.495 214.54 177.905 214.65 178.335 214.65C178.775 214.65 179.185 214.54 179.565 214.32C179.945 214.1 180.25 213.78 180.48 213.36C180.72 212.93 180.84 212.43 180.84 211.86ZM195.116 207.6C195.766 207.6 196.346 207.735 196.856 208.005C197.376 208.275 197.781 208.675 198.071 209.205C198.371 209.735 198.521 210.375 198.521 211.125V216H196.826V211.38C196.826 210.64 196.641 210.075 196.271 209.685C195.901 209.285 195.396 209.085 194.756 209.085C194.116 209.085 193.606 209.285 193.226 209.685C192.856 210.075 192.671 210.64 192.671 211.38V216H190.976V211.38C190.976 210.64 190.791 210.075 190.421 209.685C190.051 209.285 189.546 209.085 188.906 209.085C188.266 209.085 187.756 209.285 187.376 209.685C187.006 210.075 186.821 210.64 186.821 211.38V216H185.111V207.735H186.821V208.68C187.101 208.34 187.456 208.075 187.886 207.885C188.316 207.695 188.776 207.6 189.266 207.6C189.926 207.6 190.516 207.74 191.036 208.02C191.556 208.3 191.956 208.705 192.236 209.235C192.486 208.735 192.876 208.34 193.406 208.05C193.936 207.75 194.506 207.6 195.116 207.6Z" fill="#CFCFCF"/>
<path d="M100.755 225.655L96.765 235H94.635L98.655 225.895H93.525V224.095H100.755V225.655ZM102.313 229.39C102.313 227.66 102.623 226.305 103.243 225.325C103.873 224.345 104.913 223.855 106.363 223.855C107.813 223.855 108.848 224.345 109.468 225.325C110.098 226.305 110.413 227.66 110.413 229.39C110.413 231.13 110.098 232.495 109.468 233.485C108.848 234.475 107.813 234.97 106.363 234.97C104.913 234.97 103.873 234.475 103.243 233.485C102.623 232.495 102.313 231.13 102.313 229.39ZM108.343 229.39C108.343 228.65 108.293 228.03 108.193 227.53C108.103 227.02 107.913 226.605 107.623 226.285C107.343 225.965 106.923 225.805 106.363 225.805C105.803 225.805 105.378 225.965 105.088 226.285C104.808 226.605 104.618 227.02 104.518 227.53C104.428 228.03 104.383 228.65 104.383 229.39C104.383 230.15 104.428 230.79 104.518 231.31C104.608 231.82 104.798 232.235 105.088 232.555C105.378 232.865 105.803 233.02 106.363 233.02C106.923 233.02 107.348 232.865 107.638 232.555C107.928 232.235 108.118 231.82 108.208 231.31C108.298 230.79 108.343 230.15 108.343 229.39ZM112.07 226.75C112.07 225.99 112.29 225.395 112.73 224.965C113.18 224.535 113.755 224.32 114.455 224.32C115.155 224.32 115.725 224.535 116.165 224.965C116.615 225.395 116.84 225.99 116.84 226.75C116.84 227.52 116.615 228.12 116.165 228.55C115.725 228.98 115.155 229.195 114.455 229.195C113.755 229.195 113.18 228.98 112.73 228.55C112.29 228.12 112.07 227.52 112.07 226.75ZM121.7 224.5L115.805 235H113.765L119.645 224.5H121.7ZM114.44 225.58C113.89 225.58 113.615 225.97 113.615 226.75C113.615 227.54 113.89 227.935 114.44 227.935C114.71 227.935 114.92 227.84 115.07 227.65C115.22 227.45 115.295 227.15 115.295 226.75C115.295 225.97 115.01 225.58 114.44 225.58ZM118.655 232.735C118.655 231.965 118.875 231.37 119.315 230.95C119.765 230.52 120.34 230.305 121.04 230.305C121.74 230.305 122.305 230.52 122.735 230.95C123.175 231.37 123.395 231.965 123.395 232.735C123.395 233.505 123.175 234.105 122.735 234.535C122.305 234.965 121.74 235.18 121.04 235.18C120.33 235.18 119.755 234.965 119.315 234.535C118.875 234.105 118.655 233.505 118.655 232.735ZM121.025 231.565C120.455 231.565 120.17 231.955 120.17 232.735C120.17 233.525 120.455 233.92 121.025 233.92C121.585 233.92 121.865 233.525 121.865 232.735C121.865 231.955 121.585 231.565 121.025 231.565Z" fill="#9A9A9A"/>
<g clip-path="url(#clip0_1825_373)">
<path d="M59.2628 203H50C49.0717 203 48.1815 203.369 47.5251 204.025C46.8687 204.682 46.5 205.572 46.5 206.5V227.5C46.5 228.428 46.8687 229.318 47.5251 229.975C48.1815 230.631 49.0717 231 50 231H64C64.9283 231 65.8185 230.631 66.4749 229.975C67.1313 229.318 67.5 228.428 67.5 227.5V211.237C67.4999 210.773 67.3155 210.328 66.9872 210L60.5 203.513C60.1719 203.185 59.7268 203 59.2628 203V203ZM59.625 209.125V205.625L64.875 210.875H61.375C60.9109 210.875 60.4658 210.691 60.1376 210.362C59.8094 210.034 59.625 209.589 59.625 209.125ZM61.9945 216.745L56.7445 221.994C56.6632 222.076 56.5667 222.141 56.4604 222.185C56.3541 222.229 56.2401 222.252 56.125 222.252C56.0099 222.252 55.8959 222.229 55.7896 222.185C55.6833 222.141 55.5868 222.076 55.5055 221.994L52.8805 219.369C52.7991 219.288 52.7346 219.192 52.6906 219.085C52.6466 218.979 52.6239 218.865 52.6239 218.75C52.6239 218.635 52.6466 218.521 52.6906 218.415C52.7346 218.308 52.7991 218.212 52.8805 218.13C53.0448 217.966 53.2676 217.874 53.5 217.874C53.6151 217.874 53.729 217.897 53.8353 217.941C53.9416 217.985 54.0381 218.049 54.1195 218.13L56.125 220.138L60.7555 215.505C60.9198 215.341 61.1426 215.249 61.375 215.249C61.6074 215.249 61.8302 215.341 61.9945 215.505C62.1588 215.67 62.2511 215.893 62.2511 216.125C62.2511 216.357 62.1588 216.58 61.9945 216.745Z" fill="#131313"/>
</g>
<circle cx="57" cy="281" r="22" fill="#636363"/>
<path d="M102.195 281.89L100.365 279.91C99.915 280.04 99.42 280.105 98.88 280.105C97.91 280.105 97.015 279.88 96.195 279.43C95.385 278.97 94.74 278.335 94.26 277.525C93.79 276.705 93.555 275.785 93.555 274.765C93.555 273.745 93.79 272.83 94.26 272.02C94.74 271.21 95.385 270.58 96.195 270.13C97.015 269.67 97.91 269.44 98.88 269.44C99.86 269.44 100.755 269.67 101.565 270.13C102.385 270.58 103.03 271.21 103.5 272.02C103.97 272.83 104.205 273.745 104.205 274.765C104.205 275.725 103.995 276.595 103.575 277.375C103.165 278.145 102.595 278.765 101.865 279.235L104.37 281.89H102.195ZM95.31 274.765C95.31 275.535 95.46 276.215 95.76 276.805C96.07 277.385 96.495 277.835 97.035 278.155C97.575 278.465 98.19 278.62 98.88 278.62C99.57 278.62 100.185 278.465 100.725 278.155C101.265 277.835 101.685 277.385 101.985 276.805C102.295 276.215 102.45 275.535 102.45 274.765C102.45 273.995 102.295 273.32 101.985 272.74C101.685 272.16 101.265 271.715 100.725 271.405C100.185 271.095 99.57 270.94 98.88 270.94C98.19 270.94 97.575 271.095 97.035 271.405C96.495 271.715 96.07 272.16 95.76 272.74C95.46 273.32 95.31 273.995 95.31 274.765ZM113.717 271.735V280H112.007V279.025C111.737 279.365 111.382 279.635 110.942 279.835C110.512 280.025 110.052 280.12 109.562 280.12C108.912 280.12 108.327 279.985 107.807 279.715C107.297 279.445 106.892 279.045 106.592 278.515C106.302 277.985 106.157 277.345 106.157 276.595V271.735H107.852V276.34C107.852 277.08 108.037 277.65 108.407 278.05C108.777 278.44 109.282 278.635 109.922 278.635C110.562 278.635 111.067 278.44 111.437 278.05C111.817 277.65 112.007 277.08 112.007 276.34V271.735H113.717ZM117.143 270.64C116.833 270.64 116.573 270.535 116.363 270.325C116.153 270.115 116.048 269.855 116.048 269.545C116.048 269.235 116.153 268.975 116.363 268.765C116.573 268.555 116.833 268.45 117.143 268.45C117.443 268.45 117.698 268.555 117.908 268.765C118.118 268.975 118.223 269.235 118.223 269.545C118.223 269.855 118.118 270.115 117.908 270.325C117.698 270.535 117.443 270.64 117.143 270.64ZM117.983 271.735V280H116.273V271.735H117.983ZM122.043 278.605H125.793V280H120.063V278.605L123.828 273.13H120.063V271.735H125.793V273.13L122.043 278.605Z" fill="#CFCFCF"/>
<path d="M95.625 293.21C94.625 292.69 94.125 291.885 94.125 290.795C94.125 290.255 94.26 289.765 94.53 289.325C94.81 288.875 95.225 288.52 95.775 288.26C96.335 287.99 97.015 287.855 97.815 287.855C98.615 287.855 99.29 287.99 99.84 288.26C100.4 288.52 100.815 288.875 101.085 289.325C101.365 289.765 101.505 290.255 101.505 290.795C101.505 291.345 101.37 291.83 101.1 292.25C100.83 292.66 100.47 292.98 100.02 293.21C100.57 293.45 101 293.8 101.31 294.26C101.62 294.72 101.775 295.265 101.775 295.895C101.775 296.575 101.6 297.17 101.25 297.68C100.91 298.18 100.44 298.565 99.84 298.835C99.24 299.105 98.565 299.24 97.815 299.24C97.065 299.24 96.39 299.105 95.79 298.835C95.2 298.565 94.73 298.18 94.38 297.68C94.04 297.17 93.87 296.575 93.87 295.895C93.87 295.265 94.025 294.72 94.335 294.26C94.645 293.79 95.075 293.44 95.625 293.21ZM99.465 291.095C99.465 290.605 99.315 290.225 99.015 289.955C98.725 289.685 98.325 289.55 97.815 289.55C97.315 289.55 96.915 289.685 96.615 289.955C96.325 290.225 96.18 290.61 96.18 291.11C96.18 291.56 96.33 291.92 96.63 292.19C96.94 292.46 97.335 292.595 97.815 292.595C98.295 292.595 98.69 292.46 99 292.19C99.31 291.91 99.465 291.545 99.465 291.095ZM97.815 294.125C97.245 294.125 96.78 294.27 96.42 294.56C96.07 294.85 95.895 295.265 95.895 295.805C95.895 296.305 96.065 296.715 96.405 297.035C96.755 297.345 97.225 297.5 97.815 297.5C98.405 297.5 98.87 297.34 99.21 297.02C99.55 296.7 99.72 296.295 99.72 295.805C99.72 295.275 99.545 294.865 99.195 294.575C98.845 294.275 98.385 294.125 97.815 294.125ZM111.084 289.88H106.224V292.445C106.434 292.185 106.734 291.975 107.124 291.815C107.514 291.645 107.929 291.56 108.369 291.56C109.169 291.56 109.824 291.735 110.334 292.085C110.844 292.435 111.214 292.885 111.444 293.435C111.674 293.975 111.789 294.555 111.789 295.175C111.789 296.325 111.459 297.25 110.799 297.95C110.149 298.65 109.219 299 108.009 299C106.869 299 105.959 298.715 105.279 298.145C104.599 297.575 104.214 296.83 104.124 295.91H106.164C106.254 296.31 106.454 296.63 106.764 296.87C107.084 297.11 107.489 297.23 107.979 297.23C108.569 297.23 109.014 297.045 109.314 296.675C109.614 296.305 109.764 295.815 109.764 295.205C109.764 294.585 109.609 294.115 109.299 293.795C108.999 293.465 108.554 293.3 107.964 293.3C107.544 293.3 107.194 293.405 106.914 293.615C106.634 293.825 106.434 294.105 106.314 294.455H104.304V288.035H111.084V289.88ZM113.447 290.75C113.447 289.99 113.667 289.395 114.107 288.965C114.557 288.535 115.132 288.32 115.832 288.32C116.532 288.32 117.102 288.535 117.542 288.965C117.992 289.395 118.217 289.99 118.217 290.75C118.217 291.52 117.992 292.12 117.542 292.55C117.102 292.98 116.532 293.195 115.832 293.195C115.132 293.195 114.557 292.98 114.107 292.55C113.667 292.12 113.447 291.52 113.447 290.75ZM123.077 288.5L117.182 299H115.142L121.022 288.5H123.077ZM115.817 289.58C115.267 289.58 114.992 289.97 114.992 290.75C114.992 291.54 115.267 291.935 115.817 291.935C116.087 291.935 116.297 291.84 116.447 291.65C116.597 291.45 116.672 291.15 116.672 290.75C116.672 289.97 116.387 289.58 115.817 289.58ZM120.032 296.735C120.032 295.965 120.252 295.37 120.692 294.95C121.142 294.52 121.717 294.305 122.417 294.305C123.117 294.305 123.682 294.52 124.112 294.95C124.552 295.37 124.772 295.965 124.772 296.735C124.772 297.505 124.552 298.105 124.112 298.535C123.682 298.965 123.117 299.18 122.417 299.18C121.707 299.18 121.132 298.965 120.692 298.535C120.252 298.105 120.032 297.505 120.032 296.735ZM122.402 295.565C121.832 295.565 121.547 295.955 121.547 296.735C121.547 297.525 121.832 297.92 122.402 297.92C122.962 297.92 123.242 297.525 123.242 296.735C123.242 295.955 122.962 295.565 122.402 295.565Z" fill="#9A9A9A"/>
<g clip-path="url(#clip1_1825_373)">
<path d="M53.5002 267.875C53.5002 267.643 53.5923 267.42 53.7564 267.256C53.9205 267.092 54.1431 267 54.3752 267H59.6252C59.8572 267 60.0798 267.092 60.2439 267.256C60.408 267.42 60.5002 267.643 60.5002 267.875C60.5002 268.107 60.408 268.33 60.2439 268.494C60.0798 268.658 59.8572 268.75 59.6252 268.75H58.7502V270.622C61.1333 270.967 63.3623 272.005 65.1586 273.609C66.9549 275.212 68.2389 277.309 68.8501 279.638C69.4614 281.967 69.3729 284.425 68.5956 286.704C67.8183 288.983 66.3867 290.982 64.4797 292.452L65.5314 293.506C65.6957 293.67 65.7881 293.892 65.7883 294.124C65.7884 294.357 65.6964 294.579 65.5323 294.744C65.3682 294.908 65.1456 295 64.9134 295C64.6812 295.001 64.4585 294.909 64.2942 294.744L62.9887 293.439C61.1599 294.465 59.0973 295.003 57.0002 295C54.903 295.003 52.8404 294.465 51.0117 293.439L49.7062 294.744C49.6248 294.826 49.5282 294.89 49.422 294.934C49.3157 294.978 49.2019 295.001 49.0869 295C48.9719 295 48.8581 294.978 48.7519 294.934C48.6457 294.89 48.5493 294.825 48.468 294.744C48.3868 294.662 48.3224 294.566 48.2784 294.459C48.2345 294.353 48.212 294.239 48.212 294.124C48.2122 293.892 48.3046 293.67 48.4689 293.506L49.5224 292.452C47.6154 290.982 46.1838 288.983 45.4064 286.704C44.629 284.425 44.5403 281.968 45.1514 279.639C45.7625 277.31 47.0462 275.213 48.8423 273.609C50.6384 272.006 52.8671 270.967 55.2502 270.622V268.75H54.3752C54.1431 268.75 53.9205 268.658 53.7564 268.494C53.5923 268.33 53.5002 268.107 53.5002 267.875ZM57.8752 276.625C57.8752 276.393 57.783 276.17 57.6189 276.006C57.4548 275.842 57.2322 275.75 57.0002 275.75C56.7681 275.75 56.5455 275.842 56.3814 276.006C56.2173 276.17 56.1252 276.393 56.1252 276.625V282.509L53.6244 286.674C53.5049 286.873 53.4694 287.111 53.5257 287.336C53.5819 287.562 53.7254 287.755 53.9245 287.875C54.1236 287.994 54.3621 288.03 54.5874 287.974C54.8127 287.917 55.0064 287.774 55.1259 287.575L57.7509 283.2C57.8323 283.064 57.8752 282.908 57.8752 282.75V276.625ZM44.5052 276.427C44.0524 276.033 43.6854 275.551 43.4272 275.009C43.169 274.467 43.025 273.878 43.0041 273.278C42.9833 272.679 43.086 272.081 43.306 271.523C43.526 270.964 43.8585 270.457 44.2829 270.033C44.7072 269.608 45.2143 269.276 45.7727 269.056C46.331 268.836 46.9287 268.733 47.5285 268.754C48.1282 268.775 48.7173 268.919 49.259 269.177C49.8007 269.435 50.2835 269.802 50.6774 270.255C48.0173 271.606 45.8557 273.767 44.5052 276.427ZM63.3229 270.255C63.7168 269.802 64.1996 269.435 64.7413 269.177C65.283 268.919 65.8721 268.775 66.4719 268.754C67.0716 268.733 67.6693 268.836 68.2276 269.056C68.786 269.276 69.2931 269.608 69.7174 270.033C70.1418 270.457 70.4743 270.964 70.6943 271.523C70.9143 272.081 71.0171 272.679 70.9962 273.278C70.9754 273.878 70.8313 274.467 70.5731 275.009C70.3149 275.551 69.948 276.033 69.4952 276.427C68.1446 273.767 65.983 271.606 63.3229 270.255Z" fill="#131313"/>
</g>
<path d="M37.82 63.154C36.7493 63.154 35.7813 62.9707 34.916 62.604C34.0653 62.2373 33.3907 61.7093 32.892 61.02C32.3933 60.3307 32.1367 59.5167 32.122 58.578H35.422C35.466 59.2087 35.686 59.7073 36.082 60.074C36.4927 60.4407 37.05 60.624 37.754 60.624C38.4727 60.624 39.0373 60.4553 39.448 60.118C39.8587 59.766 40.064 59.3113 40.064 58.754C40.064 58.2993 39.9247 57.9253 39.646 57.632C39.3673 57.3387 39.0153 57.1113 38.59 56.95C38.1793 56.774 37.6073 56.5833 36.874 56.378C35.8767 56.0847 35.0627 55.7987 34.432 55.52C33.816 55.2267 33.2807 54.794 32.826 54.222C32.386 53.6353 32.166 52.858 32.166 51.89C32.166 50.9807 32.3933 50.1887 32.848 49.514C33.3027 48.8393 33.9407 48.326 34.762 47.974C35.5833 47.6073 36.522 47.424 37.578 47.424C39.162 47.424 40.4453 47.8127 41.428 48.59C42.4253 49.3527 42.9753 50.4233 43.078 51.802H39.69C39.6607 51.274 39.4333 50.8413 39.008 50.504C38.5973 50.152 38.0473 49.976 37.358 49.976C36.7567 49.976 36.2727 50.13 35.906 50.438C35.554 50.746 35.378 51.1933 35.378 51.78C35.378 52.1907 35.51 52.5353 35.774 52.814C36.0527 53.078 36.39 53.298 36.786 53.474C37.1967 53.6353 37.7687 53.826 38.502 54.046C39.4993 54.3393 40.3133 54.6327 40.944 54.926C41.5747 55.2193 42.1173 55.6593 42.572 56.246C43.0267 56.8327 43.254 57.6027 43.254 58.556C43.254 59.3773 43.0413 60.14 42.616 60.844C42.1907 61.548 41.5673 62.1127 40.746 62.538C39.9247 62.9487 38.9493 63.154 37.82 63.154ZM49.8103 53.342V59.238C49.8103 59.6487 49.9056 59.9493 50.0963 60.14C50.3016 60.316 50.6389 60.404 51.1083 60.404H52.5383V63H50.6023C48.0063 63 46.7083 61.7387 46.7083 59.216V53.342H45.2563V50.812H46.7083V47.798H49.8103V50.812H52.5383V53.342H49.8103ZM54.2615 56.862C54.2615 55.63 54.5035 54.5373 54.9875 53.584C55.4862 52.6307 56.1535 51.8973 56.9895 51.384C57.8402 50.8707 58.7862 50.614 59.8275 50.614C60.7369 50.614 61.5289 50.7973 62.2035 51.164C62.8929 51.5307 63.4429 51.9927 63.8535 52.55V50.812H66.9555V63H63.8535V61.218C63.4575 61.79 62.9075 62.2667 62.2035 62.648C61.5142 63.0147 60.7149 63.198 59.8055 63.198C58.7789 63.198 57.8402 62.934 56.9895 62.406C56.1535 61.878 55.4862 61.1373 54.9875 60.184C54.5035 59.216 54.2615 58.1087 54.2615 56.862ZM63.8535 56.906C63.8535 56.158 63.7069 55.52 63.4135 54.992C63.1202 54.4493 62.7242 54.0387 62.2255 53.76C61.7269 53.4667 61.1915 53.32 60.6195 53.32C60.0475 53.32 59.5195 53.4593 59.0355 53.738C58.5515 54.0167 58.1555 54.4273 57.8475 54.97C57.5542 55.498 57.4075 56.1287 57.4075 56.862C57.4075 57.5953 57.5542 58.2407 57.8475 58.798C58.1555 59.3407 58.5515 59.7587 59.0355 60.052C59.5342 60.3453 60.0622 60.492 60.6195 60.492C61.1915 60.492 61.7269 60.3527 62.2255 60.074C62.7242 59.7807 63.1202 59.37 63.4135 58.842C63.7069 58.2993 63.8535 57.654 63.8535 56.906ZM73.8497 53.342V59.238C73.8497 59.6487 73.945 59.9493 74.1357 60.14C74.341 60.316 74.6784 60.404 75.1477 60.404H76.5777V63H74.6417C72.0457 63 70.7477 61.7387 70.7477 59.216V53.342H69.2957V50.812H70.7477V47.798H73.8497V50.812H76.5777V53.342H73.8497ZM80.655 49.36C80.1123 49.36 79.6577 49.1913 79.291 48.854C78.939 48.502 78.763 48.0693 78.763 47.556C78.763 47.0427 78.939 46.6173 79.291 46.28C79.6577 45.928 80.1123 45.752 80.655 45.752C81.1977 45.752 81.645 45.928 81.997 46.28C82.3637 46.6173 82.547 47.0427 82.547 47.556C82.547 48.0693 82.3637 48.502 81.997 48.854C81.645 49.1913 81.1977 49.36 80.655 49.36ZM82.173 50.812V63H79.093V50.812H82.173ZM90.18 63.198C89.1827 63.198 88.288 63.022 87.496 62.67C86.704 62.3033 86.0734 61.812 85.604 61.196C85.1494 60.58 84.9 59.898 84.856 59.15H87.958C88.0167 59.6193 88.244 60.008 88.64 60.316C89.0507 60.624 89.5567 60.778 90.158 60.778C90.7447 60.778 91.1994 60.6607 91.522 60.426C91.8594 60.1913 92.028 59.8907 92.028 59.524C92.028 59.128 91.8227 58.8347 91.412 58.644C91.016 58.4387 90.378 58.2187 89.498 57.984C88.5887 57.764 87.8407 57.5367 87.254 57.302C86.682 57.0673 86.1834 56.708 85.758 56.224C85.3474 55.74 85.142 55.0873 85.142 54.266C85.142 53.5913 85.3327 52.9753 85.714 52.418C86.11 51.8607 86.6674 51.4207 87.386 51.098C88.1194 50.7753 88.9774 50.614 89.96 50.614C91.412 50.614 92.5707 50.9807 93.436 51.714C94.3014 52.4327 94.778 53.408 94.866 54.64H91.918C91.874 54.156 91.6687 53.7747 91.302 53.496C90.95 53.2027 90.4734 53.056 89.872 53.056C89.3147 53.056 88.882 53.1587 88.574 53.364C88.2807 53.5693 88.134 53.8553 88.134 54.222C88.134 54.6327 88.3394 54.948 88.75 55.168C89.1607 55.3733 89.7987 55.586 90.664 55.806C91.544 56.026 92.27 56.2533 92.842 56.488C93.414 56.7227 93.9054 57.0893 94.316 57.588C94.7414 58.072 94.9614 58.7173 94.976 59.524C94.976 60.228 94.778 60.8587 94.382 61.416C94.0007 61.9733 93.4434 62.4133 92.71 62.736C91.9914 63.044 91.148 63.198 90.18 63.198ZM101.39 53.342V59.238C101.39 59.6487 101.486 59.9493 101.676 60.14C101.882 60.316 102.219 60.404 102.688 60.404H104.118V63H102.182C99.5863 63 98.2883 61.7387 98.2883 59.216V53.342H96.8363V50.812H98.2883V47.798H101.39V50.812H104.118V53.342H101.39ZM108.196 49.36C107.653 49.36 107.198 49.1913 106.832 48.854C106.48 48.502 106.304 48.0693 106.304 47.556C106.304 47.0427 106.48 46.6173 106.832 46.28C107.198 45.928 107.653 45.752 108.196 45.752C108.738 45.752 109.186 45.928 109.538 46.28C109.904 46.6173 110.088 47.0427 110.088 47.556C110.088 48.0693 109.904 48.502 109.538 48.854C109.186 49.1913 108.738 49.36 108.196 49.36ZM109.714 50.812V63H106.634V50.812H109.714ZM112.265 56.906C112.265 55.6447 112.521 54.5447 113.035 53.606C113.548 52.6527 114.259 51.9193 115.169 51.406C116.078 50.878 117.119 50.614 118.293 50.614C119.803 50.614 121.05 50.9953 122.033 51.758C123.03 52.506 123.697 53.562 124.035 54.926H120.713C120.537 54.398 120.236 53.9873 119.811 53.694C119.4 53.386 118.887 53.232 118.271 53.232C117.391 53.232 116.694 53.5547 116.181 54.2C115.667 54.8307 115.411 55.7327 115.411 56.906C115.411 58.0647 115.667 58.9667 116.181 59.612C116.694 60.2427 117.391 60.558 118.271 60.558C119.517 60.558 120.331 60.0007 120.713 58.886H124.035C123.697 60.206 123.03 61.2547 122.033 62.032C121.035 62.8093 119.789 63.198 118.293 63.198C117.119 63.198 116.078 62.9413 115.169 62.428C114.259 61.9 113.548 61.1667 113.035 60.228C112.521 59.2747 112.265 58.1673 112.265 56.906ZM131.255 63.198C130.258 63.198 129.363 63.022 128.571 62.67C127.779 62.3033 127.148 61.812 126.679 61.196C126.224 60.58 125.975 59.898 125.931 59.15H129.033C129.092 59.6193 129.319 60.008 129.715 60.316C130.126 60.624 130.632 60.778 131.233 60.778C131.82 60.778 132.274 60.6607 132.597 60.426C132.934 60.1913 133.103 59.8907 133.103 59.524C133.103 59.128 132.898 58.8347 132.487 58.644C132.091 58.4387 131.453 58.2187 130.573 57.984C129.664 57.764 128.916 57.5367 128.329 57.302C127.757 57.0673 127.258 56.708 126.833 56.224C126.422 55.74 126.217 55.0873 126.217 54.266C126.217 53.5913 126.408 52.9753 126.789 52.418C127.185 51.8607 127.742 51.4207 128.461 51.098C129.194 50.7753 130.052 50.614 131.035 50.614C132.487 50.614 133.646 50.9807 134.511 51.714C135.376 52.4327 135.853 53.408 135.941 54.64H132.993C132.949 54.156 132.744 53.7747 132.377 53.496C132.025 53.2027 131.548 53.056 130.947 53.056C130.39 53.056 129.957 53.1587 129.649 53.364C129.356 53.5693 129.209 53.8553 129.209 54.222C129.209 54.6327 129.414 54.948 129.825 55.168C130.236 55.3733 130.874 55.586 131.739 55.806C132.619 56.026 133.345 56.2533 133.917 56.488C134.489 56.7227 134.98 57.0893 135.391 57.588C135.816 58.072 136.036 58.7173 136.051 59.524C136.051 60.228 135.853 60.8587 135.457 61.416C135.076 61.9733 134.518 62.4133 133.785 62.736C133.066 63.044 132.223 63.198 131.255 63.198Z" fill="#9A9A9A"/>
<path opacity="0.5" d="M36.136 86.636V92.816C36.136 93.504 35.924 94.056 35.5 94.472C35.076 94.88 34.516 95.084 33.82 95.084C33.116 95.084 32.552 94.876 32.128 94.46C31.704 94.036 31.492 93.46 31.492 92.732H32.584C32.592 93.14 32.696 93.472 32.896 93.728C33.104 93.984 33.412 94.112 33.82 94.112C34.228 94.112 34.532 93.992 34.732 93.752C34.932 93.504 35.032 93.192 35.032 92.816V86.636H36.136ZM38.1793 91.688C38.1793 91.016 38.3153 90.428 38.5873 89.924C38.8593 89.412 39.2313 89.016 39.7033 88.736C40.1833 88.456 40.7153 88.316 41.2993 88.316C41.8753 88.316 42.3753 88.44 42.7993 88.688C43.2233 88.936 43.5393 89.248 43.7473 89.624V88.424H44.8513V95H43.7473V93.776C43.5313 94.16 43.2073 94.48 42.7753 94.736C42.3513 94.984 41.8553 95.108 41.2873 95.108C40.7033 95.108 40.1753 94.964 39.7033 94.676C39.2313 94.388 38.8593 93.984 38.5873 93.464C38.3153 92.944 38.1793 92.352 38.1793 91.688ZM43.7473 91.7C43.7473 91.204 43.6473 90.772 43.4473 90.404C43.2473 90.036 42.9753 89.756 42.6313 89.564C42.2953 89.364 41.9233 89.264 41.5153 89.264C41.1073 89.264 40.7353 89.36 40.3993 89.552C40.0633 89.744 39.7953 90.024 39.5953 90.392C39.3953 90.76 39.2953 91.192 39.2953 91.688C39.2953 92.192 39.3953 92.632 39.5953 93.008C39.7953 93.376 40.0633 93.66 40.3993 93.86C40.7353 94.052 41.1073 94.148 41.5153 94.148C41.9233 94.148 42.2953 94.052 42.6313 93.86C42.9753 93.66 43.2473 93.376 43.4473 93.008C43.6473 92.632 43.7473 92.196 43.7473 91.7ZM50.2007 88.304C51.0007 88.304 51.6487 88.548 52.1447 89.036C52.6407 89.516 52.8887 90.212 52.8887 91.124V95H51.8087V91.28C51.8087 90.624 51.6447 90.124 51.3167 89.78C50.9887 89.428 50.5407 89.252 49.9727 89.252C49.3967 89.252 48.9367 89.432 48.5927 89.792C48.2567 90.152 48.0887 90.676 48.0887 91.364V95H46.9967V88.424H48.0887V89.36C48.3047 89.024 48.5967 88.764 48.9647 88.58C49.3407 88.396 49.7527 88.304 50.2007 88.304ZM60.8044 88.424V95H59.7124V94.028C59.5044 94.364 59.2124 94.628 58.8364 94.82C58.4684 95.004 58.0604 95.096 57.6124 95.096C57.1004 95.096 56.6404 94.992 56.2324 94.784C55.8244 94.568 55.5004 94.248 55.2604 93.824C55.0284 93.4 54.9124 92.884 54.9124 92.276V88.424H55.9924V92.132C55.9924 92.78 56.1564 93.28 56.4844 93.632C56.8124 93.976 57.2604 94.148 57.8284 94.148C58.4124 94.148 58.8724 93.968 59.2084 93.608C59.5444 93.248 59.7124 92.724 59.7124 92.036V88.424H60.8044ZM62.5402 91.688C62.5402 91.016 62.6762 90.428 62.9482 89.924C63.2202 89.412 63.5922 89.016 64.0642 88.736C64.5442 88.456 65.0762 88.316 65.6602 88.316C66.2362 88.316 66.7362 88.44 67.1602 88.688C67.5842 88.936 67.9002 89.248 68.1082 89.624V88.424H69.2122V95H68.1082V93.776C67.8922 94.16 67.5682 94.48 67.1362 94.736C66.7122 94.984 66.2162 95.108 65.6482 95.108C65.0642 95.108 64.5362 94.964 64.0642 94.676C63.5922 94.388 63.2202 93.984 62.9482 93.464C62.6762 92.944 62.5402 92.352 62.5402 91.688ZM68.1082 91.7C68.1082 91.204 68.0082 90.772 67.8082 90.404C67.6082 90.036 67.3362 89.756 66.9922 89.564C66.6562 89.364 66.2842 89.264 65.8762 89.264C65.4682 89.264 65.0962 89.36 64.7602 89.552C64.4242 89.744 64.1562 90.024 63.9562 90.392C63.7562 90.76 63.6562 91.192 63.6562 91.688C63.6562 92.192 63.7562 92.632 63.9562 93.008C64.1562 93.376 64.4242 93.66 64.7602 93.86C65.0962 94.052 65.4682 94.148 65.8762 94.148C66.2842 94.148 66.6562 94.052 66.9922 93.86C67.3362 93.66 67.6082 93.376 67.8082 93.008C68.0082 92.632 68.1082 92.196 68.1082 91.7ZM72.4496 89.492C72.6416 89.116 72.9136 88.824 73.2656 88.616C73.6256 88.408 74.0616 88.304 74.5736 88.304V89.432H74.2856C73.0616 89.432 72.4496 90.096 72.4496 91.424V95H71.3576V88.424H72.4496V89.492ZM77.4662 89.324V93.2C77.4662 93.52 77.5342 93.748 77.6702 93.884C77.8062 94.012 78.0422 94.076 78.3782 94.076H79.1822V95H78.1982C77.5902 95 77.1342 94.86 76.8302 94.58C76.5262 94.3 76.3742 93.84 76.3742 93.2V89.324H75.5222V88.424H76.3742V86.768H77.4662V88.424H79.1822V89.324H77.4662ZM88.8645 90.14V91.064H84.0765V90.14H88.8645ZM98.9251 86.636V92.816C98.9251 93.504 98.7131 94.056 98.2891 94.472C97.8651 94.88 97.3051 95.084 96.6091 95.084C95.9051 95.084 95.3411 94.876 94.9171 94.46C94.4931 94.036 94.2811 93.46 94.2811 92.732H95.3731C95.3811 93.14 95.4851 93.472 95.6851 93.728C95.8931 93.984 96.2011 94.112 96.6091 94.112C97.0171 94.112 97.3211 93.992 97.5211 93.752C97.7211 93.504 97.8211 93.192 97.8211 92.816V86.636H98.9251ZM107.208 88.424V95H106.116V94.028C105.908 94.364 105.616 94.628 105.24 94.82C104.872 95.004 104.464 95.096 104.016 95.096C103.504 95.096 103.044 94.992 102.636 94.784C102.228 94.568 101.904 94.248 101.664 93.824C101.432 93.4 101.316 92.884 101.316 92.276V88.424H102.396V92.132C102.396 92.78 102.56 93.28 102.888 93.632C103.216 93.976 103.664 94.148 104.232 94.148C104.816 94.148 105.276 93.968 105.612 93.608C105.948 93.248 106.116 92.724 106.116 92.036V88.424H107.208ZM112.556 88.304C113.356 88.304 114.004 88.548 114.5 89.036C114.996 89.516 115.244 90.212 115.244 91.124V95H114.164V91.28C114.164 90.624 114 90.124 113.672 89.78C113.344 89.428 112.896 89.252 112.328 89.252C111.752 89.252 111.292 89.432 110.948 89.792C110.612 90.152 110.444 90.676 110.444 91.364V95H109.352V88.424H110.444V89.36C110.66 89.024 110.952 88.764 111.32 88.58C111.696 88.396 112.108 88.304 112.556 88.304ZM123.328 91.46C123.328 91.668 123.316 91.888 123.292 92.12H118.036C118.076 92.768 118.296 93.276 118.696 93.644C119.104 94.004 119.596 94.184 120.172 94.184C120.644 94.184 121.036 94.076 121.348 93.86C121.668 93.636 121.892 93.34 122.02 92.972H123.196C123.02 93.604 122.668 94.12 122.14 94.52C121.612 94.912 120.956 95.108 120.172 95.108C119.548 95.108 118.988 94.968 118.492 94.688C118.004 94.408 117.62 94.012 117.34 93.5C117.06 92.98 116.92 92.38 116.92 91.7C116.92 91.02 117.056 90.424 117.328 89.912C117.6 89.4 117.98 89.008 118.468 88.736C118.964 88.456 119.532 88.316 120.172 88.316C120.796 88.316 121.348 88.452 121.828 88.724C122.308 88.996 122.676 89.372 122.932 89.852C123.196 90.324 123.328 90.86 123.328 91.46ZM122.2 91.232C122.2 90.816 122.108 90.46 121.924 90.164C121.74 89.86 121.488 89.632 121.168 89.48C120.856 89.32 120.508 89.24 120.124 89.24C119.572 89.24 119.1 89.416 118.708 89.768C118.324 90.12 118.104 90.608 118.048 91.232H122.2ZM128.257 94.124C129.273 93.308 130.069 92.64 130.645 92.12C131.221 91.592 131.705 91.044 132.097 90.476C132.497 89.9 132.697 89.336 132.697 88.784C132.697 88.264 132.569 87.856 132.313 87.56C132.065 87.256 131.661 87.104 131.101 87.104C130.557 87.104 130.133 87.276 129.829 87.62C129.533 87.956 129.373 88.408 129.349 88.976H128.293C128.325 88.08 128.597 87.388 129.109 86.9C129.621 86.412 130.281 86.168 131.089 86.168C131.913 86.168 132.565 86.396 133.045 86.852C133.533 87.308 133.777 87.936 133.777 88.736C133.777 89.4 133.577 90.048 133.177 90.68C132.785 91.304 132.337 91.856 131.833 92.336C131.329 92.808 130.685 93.36 129.901 93.992H134.029V94.904H128.257V94.124ZM135.591 90.572C135.591 89.196 135.815 88.124 136.263 87.356C136.711 86.58 137.495 86.192 138.615 86.192C139.727 86.192 140.507 86.58 140.955 87.356C141.403 88.124 141.627 89.196 141.627 90.572C141.627 91.972 141.403 93.06 140.955 93.836C140.507 94.612 139.727 95 138.615 95C137.495 95 136.711 94.612 136.263 93.836C135.815 93.06 135.591 91.972 135.591 90.572ZM140.547 90.572C140.547 89.876 140.499 89.288 140.403 88.808C140.315 88.32 140.127 87.928 139.839 87.632C139.559 87.336 139.151 87.188 138.615 87.188C138.071 87.188 137.655 87.336 137.367 87.632C137.087 87.928 136.899 88.32 136.803 88.808C136.715 89.288 136.671 89.876 136.671 90.572C136.671 91.292 136.715 91.896 136.803 92.384C136.899 92.872 137.087 93.264 137.367 93.56C137.655 93.856 138.071 94.004 138.615 94.004C139.151 94.004 139.559 93.856 139.839 93.56C140.127 93.264 140.315 92.872 140.403 92.384C140.499 91.896 140.547 91.292 140.547 90.572ZM143.294 94.124C144.31 93.308 145.106 92.64 145.682 92.12C146.258 91.592 146.742 91.044 147.134 90.476C147.534 89.9 147.734 89.336 147.734 88.784C147.734 88.264 147.606 87.856 147.35 87.56C147.102 87.256 146.698 87.104 146.138 87.104C145.594 87.104 145.17 87.276 144.866 87.62C144.57 87.956 144.41 88.408 144.386 88.976H143.33C143.362 88.08 143.634 87.388 144.146 86.9C144.658 86.412 145.318 86.168 146.126 86.168C146.95 86.168 147.602 86.396 148.082 86.852C148.57 87.308 148.814 87.936 148.814 88.736C148.814 89.4 148.614 90.048 148.214 90.68C147.822 91.304 147.374 91.856 146.87 92.336C146.366 92.808 145.722 93.36 144.938 93.992H149.066V94.904H143.294V94.124ZM150.34 87.32V86.324H152.596V95H151.492V87.32H150.34Z" fill="#9A9A9A"/>
<path opacity="0.5" d="M279.26 206.06C279.028 205.572 278.692 205.196 278.252 204.932C277.812 204.66 277.3 204.524 276.716 204.524C276.132 204.524 275.604 204.66 275.132 204.932C274.668 205.196 274.3 205.58 274.028 206.084C273.764 206.58 273.632 207.156 273.632 207.812C273.632 208.468 273.764 209.044 274.028 209.54C274.3 210.036 274.668 210.42 275.132 210.692C275.604 210.956 276.132 211.088 276.716 211.088C277.532 211.088 278.204 210.844 278.732 210.356C279.26 209.868 279.568 209.208 279.656 208.376H276.32V207.488H280.82V208.328C280.756 209.016 280.54 209.648 280.172 210.224C279.804 210.792 279.32 211.244 278.72 211.58C278.12 211.908 277.452 212.072 276.716 212.072C275.94 212.072 275.232 211.892 274.592 211.532C273.952 211.164 273.444 210.656 273.068 210.008C272.7 209.36 272.516 208.628 272.516 207.812C272.516 206.996 272.7 206.264 273.068 205.616C273.444 204.96 273.952 204.452 274.592 204.092C275.232 203.724 275.94 203.54 276.716 203.54C277.604 203.54 278.388 203.76 279.068 204.2C279.756 204.64 280.256 205.26 280.568 206.06H279.26ZM283.656 206.492C283.848 206.116 284.12 205.824 284.472 205.616C284.832 205.408 285.268 205.304 285.78 205.304V206.432H285.492C284.268 206.432 283.656 207.096 283.656 208.424V212H282.564V205.424H283.656V206.492ZM286.932 208.688C286.932 208.016 287.068 207.428 287.34 206.924C287.612 206.412 287.984 206.016 288.456 205.736C288.936 205.456 289.468 205.316 290.052 205.316C290.628 205.316 291.128 205.44 291.552 205.688C291.976 205.936 292.292 206.248 292.5 206.624V205.424H293.604V212H292.5V210.776C292.284 211.16 291.96 211.48 291.528 211.736C291.104 211.984 290.608 212.108 290.04 212.108C289.456 212.108 288.928 211.964 288.456 211.676C287.984 211.388 287.612 210.984 287.34 210.464C287.068 209.944 286.932 209.352 286.932 208.688ZM292.5 208.7C292.5 208.204 292.4 207.772 292.2 207.404C292 207.036 291.728 206.756 291.384 206.564C291.048 206.364 290.676 206.264 290.268 206.264C289.86 206.264 289.488 206.36 289.152 206.552C288.816 206.744 288.548 207.024 288.348 207.392C288.148 207.76 288.048 208.192 288.048 208.688C288.048 209.192 288.148 209.632 288.348 210.008C288.548 210.376 288.816 210.66 289.152 210.86C289.488 211.052 289.86 211.148 290.268 211.148C290.676 211.148 291.048 211.052 291.384 210.86C291.728 210.66 292 210.376 292.2 210.008C292.4 209.632 292.5 209.196 292.5 208.7ZM295.342 208.688C295.342 208.016 295.478 207.428 295.75 206.924C296.022 206.412 296.394 206.016 296.866 205.736C297.346 205.456 297.882 205.316 298.474 205.316C298.986 205.316 299.462 205.436 299.902 205.676C300.342 205.908 300.678 206.216 300.91 206.6V203.12H302.014V212H300.91V210.764C300.694 211.156 300.374 211.48 299.95 211.736C299.526 211.984 299.03 212.108 298.462 212.108C297.878 212.108 297.346 211.964 296.866 211.676C296.394 211.388 296.022 210.984 295.75 210.464C295.478 209.944 295.342 209.352 295.342 208.688ZM300.91 208.7C300.91 208.204 300.81 207.772 300.61 207.404C300.41 207.036 300.138 206.756 299.794 206.564C299.458 206.364 299.086 206.264 298.678 206.264C298.27 206.264 297.898 206.36 297.562 206.552C297.226 206.744 296.958 207.024 296.758 207.392C296.558 207.76 296.458 208.192 296.458 208.688C296.458 209.192 296.558 209.632 296.758 210.008C296.958 210.376 297.226 210.66 297.562 210.86C297.898 211.052 298.27 211.148 298.678 211.148C299.086 211.148 299.458 211.052 299.794 210.86C300.138 210.66 300.41 210.376 300.61 210.008C300.81 209.632 300.91 209.196 300.91 208.7ZM310.159 208.46C310.159 208.668 310.147 208.888 310.123 209.12H304.867C304.907 209.768 305.127 210.276 305.527 210.644C305.935 211.004 306.427 211.184 307.003 211.184C307.475 211.184 307.867 211.076 308.179 210.86C308.499 210.636 308.723 210.34 308.851 209.972H310.027C309.851 210.604 309.499 211.12 308.971 211.52C308.443 211.912 307.787 212.108 307.003 212.108C306.379 212.108 305.819 211.968 305.323 211.688C304.835 211.408 304.451 211.012 304.171 210.5C303.891 209.98 303.751 209.38 303.751 208.7C303.751 208.02 303.887 207.424 304.159 206.912C304.431 206.4 304.811 206.008 305.299 205.736C305.795 205.456 306.363 205.316 307.003 205.316C307.627 205.316 308.179 205.452 308.659 205.724C309.139 205.996 309.507 206.372 309.763 206.852C310.027 207.324 310.159 207.86 310.159 208.46ZM309.031 208.232C309.031 207.816 308.939 207.46 308.755 207.164C308.571 206.86 308.319 206.632 307.999 206.48C307.687 206.32 307.339 206.24 306.955 206.24C306.403 206.24 305.931 206.416 305.539 206.768C305.155 207.12 304.935 207.608 304.879 208.232H309.031ZM314.229 212.108C313.725 212.108 313.273 212.024 312.873 211.856C312.473 211.68 312.157 211.44 311.925 211.136C311.693 210.824 311.565 210.468 311.541 210.068H312.669C312.701 210.396 312.853 210.664 313.125 210.872C313.405 211.08 313.769 211.184 314.217 211.184C314.633 211.184 314.961 211.092 315.201 210.908C315.441 210.724 315.561 210.492 315.561 210.212C315.561 209.924 315.433 209.712 315.177 209.576C314.921 209.432 314.525 209.292 313.989 209.156C313.501 209.028 313.101 208.9 312.789 208.772C312.485 208.636 312.221 208.44 311.997 208.184C311.781 207.92 311.673 207.576 311.673 207.152C311.673 206.816 311.773 206.508 311.973 206.228C312.173 205.948 312.457 205.728 312.825 205.568C313.193 205.4 313.613 205.316 314.085 205.316C314.813 205.316 315.401 205.5 315.849 205.868C316.297 206.236 316.537 206.74 316.569 207.38H315.477C315.453 207.036 315.313 206.76 315.057 206.552C314.809 206.344 314.473 206.24 314.049 206.24C313.657 206.24 313.345 206.324 313.113 206.492C312.881 206.66 312.765 206.88 312.765 207.152C312.765 207.368 312.833 207.548 312.969 207.692C313.113 207.828 313.289 207.94 313.497 208.028C313.713 208.108 314.009 208.2 314.385 208.304C314.857 208.432 315.241 208.56 315.537 208.688C315.833 208.808 316.085 208.992 316.293 209.24C316.509 209.488 316.621 209.812 316.629 210.212C316.629 210.572 316.529 210.896 316.329 211.184C316.129 211.472 315.845 211.7 315.477 211.868C315.117 212.028 314.701 212.108 314.229 212.108ZM321.561 207.812C321.561 206.996 321.745 206.264 322.113 205.616C322.481 204.96 322.981 204.448 323.613 204.08C324.253 203.712 324.961 203.528 325.737 203.528C326.649 203.528 327.445 203.748 328.125 204.188C328.805 204.628 329.301 205.252 329.613 206.06H328.305C328.073 205.556 327.737 205.168 327.297 204.896C326.865 204.624 326.345 204.488 325.737 204.488C325.153 204.488 324.629 204.624 324.165 204.896C323.701 205.168 323.337 205.556 323.073 206.06C322.809 206.556 322.677 207.14 322.677 207.812C322.677 208.476 322.809 209.06 323.073 209.564C323.337 210.06 323.701 210.444 324.165 210.716C324.629 210.988 325.153 211.124 325.737 211.124C326.345 211.124 326.865 210.992 327.297 210.728C327.737 210.456 328.073 210.068 328.305 209.564H329.613C329.301 210.364 328.805 210.984 328.125 211.424C327.445 211.856 326.649 212.072 325.737 212.072C324.961 212.072 324.253 211.892 323.613 211.532C322.981 211.164 322.481 210.656 322.113 210.008C321.745 209.36 321.561 208.628 321.561 207.812ZM334.407 212.108C333.791 212.108 333.231 211.968 332.727 211.688C332.231 211.408 331.839 211.012 331.551 210.5C331.271 209.98 331.131 209.38 331.131 208.7C331.131 208.028 331.275 207.436 331.563 206.924C331.859 206.404 332.259 206.008 332.763 205.736C333.267 205.456 333.831 205.316 334.455 205.316C335.079 205.316 335.643 205.456 336.147 205.736C336.651 206.008 337.047 206.4 337.335 206.912C337.631 207.424 337.779 208.02 337.779 208.7C337.779 209.38 337.627 209.98 337.323 210.5C337.027 211.012 336.623 211.408 336.111 211.688C335.599 211.968 335.031 212.108 334.407 212.108ZM334.407 211.148C334.799 211.148 335.167 211.056 335.511 210.872C335.855 210.688 336.131 210.412 336.339 210.044C336.555 209.676 336.663 209.228 336.663 208.7C336.663 208.172 336.559 207.724 336.351 207.356C336.143 206.988 335.871 206.716 335.535 206.54C335.199 206.356 334.835 206.264 334.443 206.264C334.043 206.264 333.675 206.356 333.339 206.54C333.011 206.716 332.747 206.988 332.547 207.356C332.347 207.724 332.247 208.172 332.247 208.7C332.247 209.236 332.343 209.688 332.535 210.056C332.735 210.424 332.999 210.7 333.327 210.884C333.655 211.06 334.015 211.148 334.407 211.148ZM347.423 205.304C347.935 205.304 348.391 205.412 348.791 205.628C349.191 205.836 349.507 206.152 349.739 206.576C349.971 207 350.087 207.516 350.087 208.124V212H349.007V208.28C349.007 207.624 348.843 207.124 348.515 206.78C348.195 206.428 347.759 206.252 347.207 206.252C346.639 206.252 346.187 206.436 345.851 206.804C345.515 207.164 345.347 207.688 345.347 208.376V212H344.267V208.28C344.267 207.624 344.103 207.124 343.775 206.78C343.455 206.428 343.019 206.252 342.467 206.252C341.899 206.252 341.447 206.436 341.111 206.804C340.775 207.164 340.607 207.688 340.607 208.376V212H339.515V205.424H340.607V206.372C340.823 206.028 341.111 205.764 341.471 205.58C341.839 205.396 342.243 205.304 342.683 205.304C343.235 205.304 343.723 205.428 344.147 205.676C344.571 205.924 344.887 206.288 345.095 206.768C345.279 206.304 345.583 205.944 346.007 205.688C346.431 205.432 346.903 205.304 347.423 205.304ZM353.27 206.636C353.486 206.26 353.806 205.948 354.23 205.7C354.662 205.444 355.162 205.316 355.73 205.316C356.314 205.316 356.842 205.456 357.314 205.736C357.794 206.016 358.17 206.412 358.442 206.924C358.714 207.428 358.85 208.016 358.85 208.688C358.85 209.352 358.714 209.944 358.442 210.464C358.17 210.984 357.794 211.388 357.314 211.676C356.842 211.964 356.314 212.108 355.73 212.108C355.17 212.108 354.674 211.984 354.242 211.736C353.818 211.48 353.494 211.164 353.27 210.788V215.12H352.178V205.424H353.27V206.636ZM357.734 208.688C357.734 208.192 357.634 207.76 357.434 207.392C357.234 207.024 356.962 206.744 356.618 206.552C356.282 206.36 355.91 206.264 355.502 206.264C355.102 206.264 354.73 206.364 354.386 206.564C354.05 206.756 353.778 207.04 353.57 207.416C353.37 207.784 353.27 208.212 353.27 208.7C353.27 209.196 353.37 209.632 353.57 210.008C353.778 210.376 354.05 210.66 354.386 210.86C354.73 211.052 355.102 211.148 355.502 211.148C355.91 211.148 356.282 211.052 356.618 210.86C356.962 210.66 357.234 210.376 357.434 210.008C357.634 209.632 357.734 209.192 357.734 208.688ZM361.679 203.12V212H360.587V203.12H361.679ZM369.84 208.46C369.84 208.668 369.828 208.888 369.804 209.12H364.548C364.588 209.768 364.808 210.276 365.208 210.644C365.616 211.004 366.108 211.184 366.684 211.184C367.156 211.184 367.548 211.076 367.86 210.86C368.18 210.636 368.404 210.34 368.532 209.972H369.708C369.532 210.604 369.18 211.12 368.652 211.52C368.124 211.912 367.468 212.108 366.684 212.108C366.06 212.108 365.5 211.968 365.004 211.688C364.516 211.408 364.132 211.012 363.852 210.5C363.572 209.98 363.432 209.38 363.432 208.7C363.432 208.02 363.568 207.424 363.84 206.912C364.112 206.4 364.492 206.008 364.98 205.736C365.476 205.456 366.044 205.316 366.684 205.316C367.308 205.316 367.86 205.452 368.34 205.724C368.82 205.996 369.188 206.372 369.444 206.852C369.708 207.324 369.84 207.86 369.84 208.46ZM368.712 208.232C368.712 207.816 368.62 207.46 368.436 207.164C368.252 206.86 368 206.632 367.68 206.48C367.368 206.32 367.02 206.24 366.636 206.24C366.084 206.24 365.612 206.416 365.22 206.768C364.836 207.12 364.616 207.608 364.56 208.232H368.712ZM372.914 206.324V210.2C372.914 210.52 372.982 210.748 373.118 210.884C373.254 211.012 373.49 211.076 373.826 211.076H374.63V212H373.646C373.038 212 372.582 211.86 372.278 211.58C371.974 211.3 371.822 210.84 371.822 210.2V206.324H370.97V205.424H371.822V203.768H372.914V205.424H374.63V206.324H372.914ZM382.253 208.46C382.253 208.668 382.241 208.888 382.217 209.12H376.961C377.001 209.768 377.221 210.276 377.621 210.644C378.029 211.004 378.521 211.184 379.097 211.184C379.569 211.184 379.961 211.076 380.273 210.86C380.593 210.636 380.817 210.34 380.945 209.972H382.121C381.945 210.604 381.593 211.12 381.065 211.52C380.537 211.912 379.881 212.108 379.097 212.108C378.473 212.108 377.913 211.968 377.417 211.688C376.929 211.408 376.545 211.012 376.265 210.5C375.985 209.98 375.845 209.38 375.845 208.7C375.845 208.02 375.981 207.424 376.253 206.912C376.525 206.4 376.905 206.008 377.393 205.736C377.889 205.456 378.457 205.316 379.097 205.316C379.721 205.316 380.273 205.452 380.753 205.724C381.233 205.996 381.601 206.372 381.857 206.852C382.121 207.324 382.253 207.86 382.253 208.46ZM381.125 208.232C381.125 207.816 381.033 207.46 380.849 207.164C380.665 206.86 380.413 206.632 380.093 206.48C379.781 206.32 379.433 206.24 379.049 206.24C378.497 206.24 378.025 206.416 377.633 206.768C377.249 207.12 377.029 207.608 376.973 208.232H381.125ZM383.586 208.688C383.586 208.016 383.722 207.428 383.994 206.924C384.266 206.412 384.638 206.016 385.11 205.736C385.59 205.456 386.126 205.316 386.718 205.316C387.23 205.316 387.706 205.436 388.146 205.676C388.586 205.908 388.922 206.216 389.154 206.6V203.12H390.258V212H389.154V210.764C388.938 211.156 388.618 211.48 388.194 211.736C387.77 211.984 387.274 212.108 386.706 212.108C386.122 212.108 385.59 211.964 385.11 211.676C384.638 211.388 384.266 210.984 383.994 210.464C383.722 209.944 383.586 209.352 383.586 208.688ZM389.154 208.7C389.154 208.204 389.054 207.772 388.854 207.404C388.654 207.036 388.382 206.756 388.038 206.564C387.702 206.364 387.33 206.264 386.922 206.264C386.514 206.264 386.142 206.36 385.806 206.552C385.47 206.744 385.202 207.024 385.002 207.392C384.802 207.76 384.702 208.192 384.702 208.688C384.702 209.192 384.802 209.632 385.002 210.008C385.202 210.376 385.47 210.66 385.806 210.86C386.142 211.052 386.514 211.148 386.922 211.148C387.33 211.148 387.702 211.052 388.038 210.86C388.382 210.66 388.654 210.376 388.854 210.008C389.054 209.632 389.154 209.196 389.154 208.7Z" fill="#9A9A9A"/>
<path d="M310.544 170.064L302.032 190H297.488L306.064 170.576H295.12V166.736H310.544V170.064ZM328.907 170.544H318.539V176.016C318.987 175.461 319.627 175.013 320.459 174.672C321.291 174.309 322.177 174.128 323.115 174.128C324.822 174.128 326.219 174.501 327.307 175.248C328.395 175.995 329.185 176.955 329.675 178.128C330.166 179.28 330.411 180.517 330.411 181.84C330.411 184.293 329.707 186.267 328.299 187.76C326.913 189.253 324.929 190 322.347 190C319.915 190 317.974 189.392 316.523 188.176C315.073 186.96 314.251 185.371 314.059 183.408H318.411C318.603 184.261 319.03 184.944 319.691 185.456C320.374 185.968 321.238 186.224 322.283 186.224C323.542 186.224 324.491 185.829 325.131 185.04C325.771 184.251 326.091 183.205 326.091 181.904C326.091 180.581 325.761 179.579 325.099 178.896C324.459 178.192 323.51 177.84 322.251 177.84C321.355 177.84 320.609 178.064 320.011 178.512C319.414 178.96 318.987 179.557 318.731 180.304H314.443V166.608H328.907V170.544ZM333.309 172.4C333.309 170.779 333.778 169.509 334.717 168.592C335.677 167.675 336.904 167.216 338.397 167.216C339.89 167.216 341.106 167.675 342.045 168.592C343.005 169.509 343.485 170.779 343.485 172.4C343.485 174.043 343.005 175.323 342.045 176.24C341.106 177.157 339.89 177.616 338.397 177.616C336.904 177.616 335.677 177.157 334.717 176.24C333.778 175.323 333.309 174.043 333.309 172.4ZM353.853 167.6L341.277 190H336.925L349.469 167.6H353.853ZM338.365 169.904C337.192 169.904 336.605 170.736 336.605 172.4C336.605 174.085 337.192 174.928 338.365 174.928C338.941 174.928 339.389 174.725 339.709 174.32C340.029 173.893 340.189 173.253 340.189 172.4C340.189 170.736 339.581 169.904 338.365 169.904ZM347.357 185.168C347.357 183.525 347.826 182.256 348.765 181.36C349.725 180.443 350.952 179.984 352.445 179.984C353.938 179.984 355.144 180.443 356.061 181.36C357 182.256 357.469 183.525 357.469 185.168C357.469 186.811 357 188.091 356.061 189.008C355.144 189.925 353.938 190.384 352.445 190.384C350.93 190.384 349.704 189.925 348.765 189.008C347.826 188.091 347.357 186.811 347.357 185.168ZM352.413 182.672C351.197 182.672 350.589 183.504 350.589 185.168C350.589 186.853 351.197 187.696 352.413 187.696C353.608 187.696 354.205 186.853 354.205 185.168C354.205 183.504 353.608 182.672 352.413 182.672Z" fill="#CFCFCF"/>
<circle cx="326.5" cy="188.5" r="84.5" stroke="#CFCFCF" stroke-width="6" stroke-linecap="round"/>
<path d="M411 188.5C411 141.832 373.168 104 326.5 104C279.832 104 242 141.832 242 188.5C242 235.168 279.832 273 326.5 273" stroke="#CFCFCF" stroke-width="10" stroke-linecap="round" stroke-linejoin="round"/>
<defs>
<clipPath id="clip0_1825_373">
<rect width="28" height="28" fill="white" transform="translate(43 203)"/>
</clipPath>
<clipPath id="clip1_1825_373">
<rect width="28" height="28" fill="white" transform="translate(43 267)"/>
</clipPath>
</defs>
</svg>
