<svg width="460" height="298" viewBox="0 0 460 298" fill="none" xmlns="http://www.w3.org/2000/svg">
<rect width="460" height="298" rx="8" fill="#131313"/>
<path d="M36.85 34.575L33.4 41.22V45H31.69V41.22L28.225 34.575H30.13L32.545 39.69L34.96 34.575H36.85ZM42.092 45.135C41.312 45.135 40.607 44.96 39.977 44.61C39.347 44.25 38.852 43.75 38.492 43.11C38.132 42.46 37.952 41.71 37.952 40.86C37.952 40.02 38.137 39.275 38.507 38.625C38.877 37.975 39.382 37.475 40.022 37.125C40.662 36.775 41.377 36.6 42.167 36.6C42.957 36.6 43.672 36.775 44.312 37.125C44.952 37.475 45.457 37.975 45.827 38.625C46.197 39.275 46.382 40.02 46.382 40.86C46.382 41.7 46.192 42.445 45.812 43.095C45.432 43.745 44.912 44.25 44.252 44.61C43.602 44.96 42.882 45.135 42.092 45.135ZM42.092 43.65C42.532 43.65 42.942 43.545 43.322 43.335C43.712 43.125 44.027 42.81 44.267 42.39C44.507 41.97 44.627 41.46 44.627 40.86C44.627 40.26 44.512 39.755 44.282 39.345C44.052 38.925 43.747 38.61 43.367 38.4C42.987 38.19 42.577 38.085 42.137 38.085C41.697 38.085 41.287 38.19 40.907 38.4C40.537 38.61 40.242 38.925 40.022 39.345C39.802 39.755 39.692 40.26 39.692 40.86C39.692 41.75 39.917 42.44 40.367 42.93C40.827 43.41 41.402 43.65 42.092 43.65ZM55.8575 36.735V45H54.1475V44.025C53.8775 44.365 53.5225 44.635 53.0825 44.835C52.6525 45.025 52.1925 45.12 51.7025 45.12C51.0525 45.12 50.4675 44.985 49.9475 44.715C49.4375 44.445 49.0325 44.045 48.7325 43.515C48.4425 42.985 48.2975 42.345 48.2975 41.595V36.735H49.9925V41.34C49.9925 42.08 50.1775 42.65 50.5475 43.05C50.9175 43.44 51.4225 43.635 52.0625 43.635C52.7025 43.635 53.2075 43.44 53.5775 43.05C53.9575 42.65 54.1475 42.08 54.1475 41.34V36.735H55.8575ZM60.1237 37.935C60.3737 37.515 60.7037 37.19 61.1137 36.96C61.5337 36.72 62.0287 36.6 62.5987 36.6V38.37H62.1637C61.4937 38.37 60.9837 38.54 60.6337 38.88C60.2937 39.22 60.1237 39.81 60.1237 40.65V45H58.4137V36.735H60.1237V37.935ZM72.072 34.575C73.182 34.575 74.152 34.79 74.982 35.22C75.822 35.64 76.467 36.25 76.917 37.05C77.377 37.84 77.607 38.765 77.607 39.825C77.607 40.885 77.377 41.805 76.917 42.585C76.467 43.365 75.822 43.965 74.982 44.385C74.152 44.795 73.182 45 72.072 45H68.667V34.575H72.072ZM72.072 43.605C73.292 43.605 74.227 43.275 74.877 42.615C75.527 41.955 75.852 41.025 75.852 39.825C75.852 38.615 75.527 37.67 74.877 36.99C74.227 36.31 73.292 35.97 72.072 35.97H70.377V43.605H72.072ZM83.1868 45.135C82.4068 45.135 81.7018 44.96 81.0718 44.61C80.4418 44.25 79.9468 43.75 79.5868 43.11C79.2268 42.46 79.0468 41.71 79.0468 40.86C79.0468 40.02 79.2318 39.275 79.6018 38.625C79.9718 37.975 80.4768 37.475 81.1168 37.125C81.7568 36.775 82.4718 36.6 83.2618 36.6C84.0518 36.6 84.7668 36.775 85.4068 37.125C86.0468 37.475 86.5518 37.975 86.9218 38.625C87.2918 39.275 87.4768 40.02 87.4768 40.86C87.4768 41.7 87.2868 42.445 86.9068 43.095C86.5268 43.745 86.0068 44.25 85.3468 44.61C84.6968 44.96 83.9768 45.135 83.1868 45.135ZM83.1868 43.65C83.6268 43.65 84.0368 43.545 84.4168 43.335C84.8068 43.125 85.1218 42.81 85.3618 42.39C85.6018 41.97 85.7218 41.46 85.7218 40.86C85.7218 40.26 85.6068 39.755 85.3768 39.345C85.1468 38.925 84.8418 38.61 84.4618 38.4C84.0818 38.19 83.6718 38.085 83.2318 38.085C82.7918 38.085 82.3818 38.19 82.0018 38.4C81.6318 38.61 81.3368 38.925 81.1168 39.345C80.8968 39.755 80.7868 40.26 80.7868 40.86C80.7868 41.75 81.0118 42.44 81.4618 42.93C81.9218 43.41 82.4968 43.65 83.1868 43.65ZM100.567 36.735L98.0022 45H96.2022L94.5372 38.895L92.8722 45H91.0722L88.4922 36.735H90.2322L91.9572 43.38L93.7122 36.735H95.4972L97.1772 43.35L98.8872 36.735H100.567ZM106.315 36.6C106.965 36.6 107.545 36.735 108.055 37.005C108.575 37.275 108.98 37.675 109.27 38.205C109.56 38.735 109.705 39.375 109.705 40.125V45H108.01V40.38C108.01 39.64 107.825 39.075 107.455 38.685C107.085 38.285 106.58 38.085 105.94 38.085C105.3 38.085 104.79 38.285 104.41 38.685C104.04 39.075 103.855 39.64 103.855 40.38V45H102.145V36.735H103.855V37.68C104.135 37.34 104.49 37.075 104.92 36.885C105.36 36.695 105.825 36.6 106.315 36.6ZM113.896 33.9V45H112.186V33.9H113.896ZM120.026 45.135C119.246 45.135 118.541 44.96 117.911 44.61C117.281 44.25 116.786 43.75 116.426 43.11C116.066 42.46 115.886 41.71 115.886 40.86C115.886 40.02 116.071 39.275 116.441 38.625C116.811 37.975 117.316 37.475 117.956 37.125C118.596 36.775 119.311 36.6 120.101 36.6C120.891 36.6 121.606 36.775 122.246 37.125C122.886 37.475 123.391 37.975 123.761 38.625C124.131 39.275 124.316 40.02 124.316 40.86C124.316 41.7 124.126 42.445 123.746 43.095C123.366 43.745 122.846 44.25 122.186 44.61C121.536 44.96 120.816 45.135 120.026 45.135ZM120.026 43.65C120.466 43.65 120.876 43.545 121.256 43.335C121.646 43.125 121.961 42.81 122.201 42.39C122.441 41.97 122.561 41.46 122.561 40.86C122.561 40.26 122.446 39.755 122.216 39.345C121.986 38.925 121.681 38.61 121.301 38.4C120.921 38.19 120.511 38.085 120.071 38.085C119.631 38.085 119.221 38.19 118.841 38.4C118.471 38.61 118.176 38.925 117.956 39.345C117.736 39.755 117.626 40.26 117.626 40.86C117.626 41.75 117.851 42.44 118.301 42.93C118.761 43.41 119.336 43.65 120.026 43.65ZM125.737 40.83C125.737 40 125.907 39.265 126.247 38.625C126.597 37.985 127.067 37.49 127.657 37.14C128.257 36.78 128.917 36.6 129.637 36.6C130.287 36.6 130.852 36.73 131.332 36.99C131.822 37.24 132.212 37.555 132.502 37.935V36.735H134.227V45H132.502V43.77C132.212 44.16 131.817 44.485 131.317 44.745C130.817 45.005 130.247 45.135 129.607 45.135C128.897 45.135 128.247 44.955 127.657 44.595C127.067 44.225 126.597 43.715 126.247 43.065C125.907 42.405 125.737 41.66 125.737 40.83ZM132.502 40.86C132.502 40.29 132.382 39.795 132.142 39.375C131.912 38.955 131.607 38.635 131.227 38.415C130.847 38.195 130.437 38.085 129.997 38.085C129.557 38.085 129.147 38.195 128.767 38.415C128.387 38.625 128.077 38.94 127.837 39.36C127.607 39.77 127.492 40.26 127.492 40.83C127.492 41.4 127.607 41.9 127.837 42.33C128.077 42.76 128.387 43.09 128.767 43.32C129.157 43.54 129.567 43.65 129.997 43.65C130.437 43.65 130.847 43.54 131.227 43.32C131.607 43.1 131.912 42.78 132.142 42.36C132.382 41.93 132.502 41.43 132.502 40.86ZM136.203 40.83C136.203 40 136.373 39.265 136.713 38.625C137.063 37.985 137.533 37.49 138.123 37.14C138.723 36.78 139.388 36.6 140.118 36.6C140.658 36.6 141.188 36.72 141.708 36.96C142.238 37.19 142.658 37.5 142.968 37.89V33.9H144.693V45H142.968V43.755C142.688 44.155 142.298 44.485 141.798 44.745C141.308 45.005 140.743 45.135 140.103 45.135C139.383 45.135 138.723 44.955 138.123 44.595C137.533 44.225 137.063 43.715 136.713 43.065C136.373 42.405 136.203 41.66 136.203 40.83ZM142.968 40.86C142.968 40.29 142.848 39.795 142.608 39.375C142.378 38.955 142.073 38.635 141.693 38.415C141.313 38.195 140.903 38.085 140.463 38.085C140.023 38.085 139.613 38.195 139.233 38.415C138.853 38.625 138.543 38.94 138.303 39.36C138.073 39.77 137.958 40.26 137.958 40.83C137.958 41.4 138.073 41.9 138.303 42.33C138.543 42.76 138.853 43.09 139.233 43.32C139.623 43.54 140.033 43.65 140.463 43.65C140.903 43.65 141.313 43.54 141.693 43.32C142.073 43.1 142.378 42.78 142.608 42.36C142.848 41.93 142.968 41.43 142.968 40.86ZM150.239 45.135C149.589 45.135 149.004 45.02 148.484 44.79C147.974 44.55 147.569 44.23 147.269 43.83C146.969 43.42 146.809 42.965 146.789 42.465H148.559C148.589 42.815 148.754 43.11 149.054 43.35C149.364 43.58 149.749 43.695 150.209 43.695C150.689 43.695 151.059 43.605 151.319 43.425C151.589 43.235 151.724 42.995 151.724 42.705C151.724 42.395 151.574 42.165 151.274 42.015C150.984 41.865 150.519 41.7 149.879 41.52C149.259 41.35 148.754 41.185 148.364 41.025C147.974 40.865 147.634 40.62 147.344 40.29C147.064 39.96 146.924 39.525 146.924 38.985C146.924 38.545 147.054 38.145 147.314 37.785C147.574 37.415 147.944 37.125 148.424 36.915C148.914 36.705 149.474 36.6 150.104 36.6C151.044 36.6 151.799 36.84 152.369 37.32C152.949 37.79 153.259 38.435 153.299 39.255H151.589C151.559 38.885 151.409 38.59 151.139 38.37C150.869 38.15 150.504 38.04 150.044 38.04C149.594 38.04 149.249 38.125 149.009 38.295C148.769 38.465 148.649 38.69 148.649 38.97C148.649 39.19 148.729 39.375 148.889 39.525C149.049 39.675 149.244 39.795 149.474 39.885C149.704 39.965 150.044 40.07 150.494 40.2C151.094 40.36 151.584 40.525 151.964 40.695C152.354 40.855 152.689 41.095 152.969 41.415C153.249 41.735 153.394 42.16 153.404 42.69C153.404 43.16 153.274 43.58 153.014 43.95C152.754 44.32 152.384 44.61 151.904 44.82C151.434 45.03 150.879 45.135 150.239 45.135Z" fill="#9A9A9A"/>
<path d="M89.668 98L87.588 94.386H86.457V98H84.975V88.965H88.095C88.7883 88.965 89.3733 89.0863 89.85 89.329C90.3353 89.5717 90.695 89.8967 90.929 90.304C91.1717 90.7113 91.293 91.1663 91.293 91.669C91.293 92.2583 91.1197 92.7957 90.773 93.281C90.435 93.7577 89.9107 94.0827 89.2 94.256L91.436 98H89.668ZM86.457 93.203H88.095C88.6497 93.203 89.0657 93.0643 89.343 92.787C89.629 92.5097 89.772 92.137 89.772 91.669C89.772 91.201 89.6333 90.837 89.356 90.577C89.0787 90.3083 88.6583 90.174 88.095 90.174H86.457V93.203ZM100.054 94.243C100.054 94.5117 100.037 94.7543 100.002 94.971H94.5289C94.5722 95.543 94.7845 96.0023 95.1659 96.349C95.5472 96.6957 96.0152 96.869 96.5699 96.869C97.3672 96.869 97.9305 96.5353 98.2599 95.868H99.8589C99.6422 96.5267 99.2479 97.0683 98.6759 97.493C98.1125 97.909 97.4105 98.117 96.5699 98.117C95.8852 98.117 95.2699 97.9653 94.7239 97.662C94.1865 97.35 93.7619 96.9167 93.4499 96.362C93.1465 95.7987 92.9949 95.1487 92.9949 94.412C92.9949 93.6753 93.1422 93.0297 93.4369 92.475C93.7402 91.9117 94.1605 91.4783 94.6979 91.175C95.2439 90.8717 95.8679 90.72 96.5699 90.72C97.2459 90.72 97.8482 90.8673 98.3769 91.162C98.9055 91.4567 99.3172 91.8727 99.6119 92.41C99.9065 92.9387 100.054 93.5497 100.054 94.243ZM98.5069 93.775C98.4982 93.229 98.3032 92.7913 97.9219 92.462C97.5405 92.1327 97.0682 91.968 96.5049 91.968C95.9935 91.968 95.5559 92.1327 95.1919 92.462C94.8279 92.7827 94.6112 93.2203 94.5419 93.775H98.5069ZM101.318 94.386C101.318 93.6667 101.466 93.0297 101.76 92.475C102.064 91.9203 102.471 91.4913 102.982 91.188C103.502 90.876 104.074 90.72 104.698 90.72C105.262 90.72 105.751 90.8327 106.167 91.058C106.592 91.2747 106.93 91.5477 107.181 91.877V90.837H108.676V98H107.181V96.934C106.93 97.272 106.588 97.5537 106.154 97.779C105.721 98.0043 105.227 98.117 104.672 98.117C104.057 98.117 103.494 97.961 102.982 97.649C102.471 97.3283 102.064 96.8863 101.76 96.323C101.466 95.751 101.318 95.1053 101.318 94.386ZM107.181 94.412C107.181 93.918 107.077 93.489 106.869 93.125C106.67 92.761 106.406 92.4837 106.076 92.293C105.747 92.1023 105.392 92.007 105.01 92.007C104.629 92.007 104.274 92.1023 103.944 92.293C103.615 92.475 103.346 92.748 103.138 93.112C102.939 93.4673 102.839 93.892 102.839 94.386C102.839 94.88 102.939 95.3133 103.138 95.686C103.346 96.0587 103.615 96.3447 103.944 96.544C104.282 96.7347 104.638 96.83 105.01 96.83C105.392 96.83 105.747 96.7347 106.076 96.544C106.406 96.3533 106.67 96.076 106.869 95.712C107.077 95.3393 107.181 94.906 107.181 94.412ZM110.429 94.412C110.429 93.6753 110.576 93.0297 110.871 92.475C111.174 91.9117 111.59 91.4783 112.119 91.175C112.648 90.8717 113.254 90.72 113.939 90.72C114.806 90.72 115.521 90.928 116.084 91.344C116.656 91.7513 117.042 92.3363 117.241 93.099H115.642C115.512 92.7437 115.304 92.4663 115.018 92.267C114.732 92.0677 114.372 91.968 113.939 91.968C113.332 91.968 112.847 92.1847 112.483 92.618C112.128 93.0427 111.95 93.6407 111.95 94.412C111.95 95.1833 112.128 95.7857 112.483 96.219C112.847 96.6523 113.332 96.869 113.939 96.869C114.797 96.869 115.365 96.492 115.642 95.738H117.241C117.033 96.466 116.643 97.0467 116.071 97.48C115.499 97.9047 114.788 98.117 113.939 98.117C113.254 98.117 112.648 97.9653 112.119 97.662C111.59 97.35 111.174 96.9167 110.871 96.362C110.576 95.7987 110.429 95.1487 110.429 94.412ZM120.747 92.046V96.011C120.747 96.2797 120.807 96.4747 120.929 96.596C121.059 96.7087 121.275 96.765 121.579 96.765H122.489V98H121.319C120.651 98 120.14 97.844 119.785 97.532C119.429 97.22 119.252 96.713 119.252 96.011V92.046H118.407V90.837H119.252V89.056H120.747V90.837H122.489V92.046H120.747ZM129.082 88.965V95.478C129.082 96.284 128.835 96.921 128.341 97.389C127.855 97.857 127.214 98.091 126.417 98.091C125.619 98.091 124.974 97.857 124.48 97.389C123.994 96.921 123.752 96.284 123.752 95.478H125.247C125.255 95.8767 125.355 96.193 125.546 96.427C125.745 96.661 126.035 96.778 126.417 96.778C126.798 96.778 127.088 96.661 127.288 96.427C127.487 96.1843 127.587 95.868 127.587 95.478V88.965H129.082ZM134.77 98.091C134.163 98.091 133.617 97.987 133.132 97.779C132.646 97.5623 132.265 97.259 131.988 96.869C131.71 96.479 131.572 96.024 131.572 95.504H133.158C133.192 95.894 133.344 96.2147 133.613 96.466C133.89 96.7173 134.276 96.843 134.77 96.843C135.281 96.843 135.68 96.7217 135.966 96.479C136.252 96.2277 136.395 95.907 136.395 95.517C136.395 95.2137 136.304 94.9667 136.122 94.776C135.948 94.5853 135.727 94.438 135.459 94.334C135.199 94.23 134.835 94.1173 134.367 93.996C133.777 93.84 133.296 93.684 132.924 93.528C132.56 93.3633 132.248 93.112 131.988 92.774C131.728 92.436 131.598 91.9853 131.598 91.422C131.598 90.902 131.728 90.447 131.988 90.057C132.248 89.667 132.612 89.368 133.08 89.16C133.548 88.952 134.089 88.848 134.705 88.848C135.58 88.848 136.295 89.069 136.85 89.511C137.413 89.9443 137.725 90.5423 137.786 91.305H136.148C136.122 90.9757 135.966 90.694 135.68 90.46C135.394 90.226 135.017 90.109 134.549 90.109C134.124 90.109 133.777 90.2173 133.509 90.434C133.24 90.6507 133.106 90.9627 133.106 91.37C133.106 91.6473 133.188 91.877 133.353 92.059C133.526 92.2323 133.743 92.371 134.003 92.475C134.263 92.579 134.618 92.6917 135.069 92.813C135.667 92.9777 136.152 93.1423 136.525 93.307C136.906 93.4717 137.227 93.7273 137.487 94.074C137.755 94.412 137.89 94.867 137.89 95.439C137.89 95.8983 137.764 96.3317 137.513 96.739C137.27 97.1463 136.91 97.4757 136.434 97.727C135.966 97.9697 135.411 98.091 134.77 98.091ZM145.437 92.67V93.918H140.094V92.67H145.437ZM150.846 92.046H149.52V98H148.025V92.046H147.18V90.837H148.025V90.33C148.025 89.5067 148.241 88.9087 148.675 88.536C149.117 88.1547 149.806 87.964 150.742 87.964V89.199C150.291 89.199 149.975 89.2857 149.793 89.459C149.611 89.6237 149.52 89.914 149.52 90.33V90.837H150.846V92.046ZM155.566 98.117C154.89 98.117 154.279 97.9653 153.733 97.662C153.187 97.35 152.758 96.9167 152.446 96.362C152.134 95.7987 151.978 95.1487 151.978 94.412C151.978 93.684 152.139 93.0383 152.459 92.475C152.78 91.9117 153.218 91.4783 153.772 91.175C154.327 90.8717 154.947 90.72 155.631 90.72C156.316 90.72 156.936 90.8717 157.49 91.175C158.045 91.4783 158.483 91.9117 158.803 92.475C159.124 93.0383 159.284 93.684 159.284 94.412C159.284 95.14 159.12 95.7857 158.79 96.349C158.461 96.9123 158.01 97.35 157.438 97.662C156.875 97.9653 156.251 98.117 155.566 98.117ZM155.566 96.83C155.948 96.83 156.303 96.739 156.632 96.557C156.97 96.375 157.243 96.102 157.451 95.738C157.659 95.374 157.763 94.932 157.763 94.412C157.763 93.892 157.664 93.4543 157.464 93.099C157.265 92.735 157.001 92.462 156.671 92.28C156.342 92.098 155.987 92.007 155.605 92.007C155.224 92.007 154.869 92.098 154.539 92.28C154.219 92.462 153.963 92.735 153.772 93.099C153.582 93.4543 153.486 93.892 153.486 94.412C153.486 95.1833 153.681 95.7813 154.071 96.206C154.47 96.622 154.968 96.83 155.566 96.83ZM162.531 91.877C162.748 91.513 163.034 91.2313 163.389 91.032C163.753 90.824 164.182 90.72 164.676 90.72V92.254H164.299C163.719 92.254 163.277 92.4013 162.973 92.696C162.679 92.9907 162.531 93.502 162.531 94.23V98H161.049V90.837H162.531V91.877ZM171.837 92.67V93.918H166.494V92.67H171.837ZM175.725 91.903C175.976 91.5563 176.319 91.2747 176.752 91.058C177.194 90.8327 177.684 90.72 178.221 90.72C178.854 90.72 179.426 90.8717 179.937 91.175C180.448 91.4783 180.851 91.9117 181.146 92.475C181.441 93.0297 181.588 93.6667 181.588 94.386C181.588 95.1053 181.441 95.751 181.146 96.323C180.851 96.8863 180.444 97.3283 179.924 97.649C179.413 97.961 178.845 98.117 178.221 98.117C177.666 98.117 177.172 98.0087 176.739 97.792C176.314 97.5753 175.976 97.298 175.725 96.96V98H174.243V88.38H175.725V91.903ZM180.08 94.386C180.08 93.892 179.976 93.4673 179.768 93.112C179.569 92.748 179.3 92.475 178.962 92.293C178.633 92.1023 178.277 92.007 177.896 92.007C177.523 92.007 177.168 92.1023 176.83 92.293C176.501 92.4837 176.232 92.761 176.024 93.125C175.825 93.489 175.725 93.918 175.725 94.412C175.725 94.906 175.825 95.3393 176.024 95.712C176.232 96.076 176.501 96.3533 176.83 96.544C177.168 96.7347 177.523 96.83 177.896 96.83C178.277 96.83 178.633 96.7347 178.962 96.544C179.3 96.3447 179.569 96.0587 179.768 95.686C179.976 95.3133 180.08 94.88 180.08 94.386ZM189.919 94.243C189.919 94.5117 189.901 94.7543 189.867 94.971H184.394C184.437 95.543 184.649 96.0023 185.031 96.349C185.412 96.6957 185.88 96.869 186.435 96.869C187.232 96.869 187.795 96.5353 188.125 95.868H189.724C189.507 96.5267 189.113 97.0683 188.541 97.493C187.977 97.909 187.275 98.117 186.435 98.117C185.75 98.117 185.135 97.9653 184.589 97.662C184.051 97.35 183.627 96.9167 183.315 96.362C183.011 95.7987 182.86 95.1487 182.86 94.412C182.86 93.6753 183.007 93.0297 183.302 92.475C183.605 91.9117 184.025 91.4783 184.563 91.175C185.109 90.8717 185.733 90.72 186.435 90.72C187.111 90.72 187.713 90.8673 188.242 91.162C188.77 91.4567 189.182 91.8727 189.477 92.41C189.771 92.9387 189.919 93.5497 189.919 94.243ZM188.372 93.775C188.363 93.229 188.168 92.7913 187.787 92.462C187.405 92.1327 186.933 91.968 186.37 91.968C185.858 91.968 185.421 92.1327 185.057 92.462C184.693 92.7827 184.476 93.2203 184.407 93.775H188.372ZM194.563 90.72C195.118 90.72 195.607 90.8327 196.032 91.058C196.465 91.2747 196.803 91.5477 197.046 91.877V90.837H198.541V98.117C198.541 98.7757 198.402 99.3607 198.125 99.872C197.848 100.392 197.445 100.799 196.916 101.094C196.396 101.389 195.772 101.536 195.044 101.536C194.073 101.536 193.267 101.306 192.626 100.847C191.985 100.396 191.621 99.781 191.534 99.001H193.003C193.116 99.3737 193.354 99.6727 193.718 99.898C194.091 100.132 194.533 100.249 195.044 100.249C195.642 100.249 196.123 100.067 196.487 99.703C196.86 99.339 197.046 98.8103 197.046 98.117V96.921C196.795 97.259 196.452 97.545 196.019 97.779C195.594 98.0043 195.109 98.117 194.563 98.117C193.939 98.117 193.367 97.961 192.847 97.649C192.336 97.3283 191.928 96.8863 191.625 96.323C191.33 95.751 191.183 95.1053 191.183 94.386C191.183 93.6667 191.33 93.0297 191.625 92.475C191.928 91.9203 192.336 91.4913 192.847 91.188C193.367 90.876 193.939 90.72 194.563 90.72ZM197.046 94.412C197.046 93.918 196.942 93.489 196.734 93.125C196.535 92.761 196.27 92.4837 195.941 92.293C195.612 92.1023 195.256 92.007 194.875 92.007C194.494 92.007 194.138 92.1023 193.809 92.293C193.48 92.475 193.211 92.748 193.003 93.112C192.804 93.4673 192.704 93.892 192.704 94.386C192.704 94.88 192.804 95.3133 193.003 95.686C193.211 96.0587 193.48 96.3447 193.809 96.544C194.147 96.7347 194.502 96.83 194.875 96.83C195.256 96.83 195.612 96.7347 195.941 96.544C196.27 96.3533 196.535 96.076 196.734 95.712C196.942 95.3393 197.046 94.906 197.046 94.412ZM201.542 89.888C201.273 89.888 201.048 89.797 200.866 89.615C200.684 89.433 200.593 89.2077 200.593 88.939C200.593 88.6703 200.684 88.445 200.866 88.263C201.048 88.081 201.273 87.99 201.542 87.99C201.802 87.99 202.023 88.081 202.205 88.263C202.387 88.445 202.478 88.6703 202.478 88.939C202.478 89.2077 202.387 89.433 202.205 89.615C202.023 89.797 201.802 89.888 201.542 89.888ZM202.27 90.837V98H200.788V90.837H202.27ZM208.129 90.72C208.693 90.72 209.195 90.837 209.637 91.071C210.088 91.305 210.439 91.6517 210.69 92.111C210.942 92.5703 211.067 93.125 211.067 93.775V98H209.598V93.996C209.598 93.3547 209.438 92.865 209.117 92.527C208.797 92.1803 208.359 92.007 207.804 92.007C207.25 92.007 206.808 92.1803 206.478 92.527C206.158 92.865 205.997 93.3547 205.997 93.996V98H204.515V90.837H205.997V91.656C206.24 91.3613 206.548 91.1317 206.92 90.967C207.302 90.8023 207.705 90.72 208.129 90.72ZM216.872 90.72C217.435 90.72 217.938 90.837 218.38 91.071C218.83 91.305 219.181 91.6517 219.433 92.111C219.684 92.5703 219.81 93.125 219.81 93.775V98H218.341V93.996C218.341 93.3547 218.18 92.865 217.86 92.527C217.539 92.1803 217.101 92.007 216.547 92.007C215.992 92.007 215.55 92.1803 215.221 92.527C214.9 92.865 214.74 93.3547 214.74 93.996V98H213.258V90.837H214.74V91.656C214.982 91.3613 215.29 91.1317 215.663 90.967C216.044 90.8023 216.447 90.72 216.872 90.72ZM228.565 94.243C228.565 94.5117 228.548 94.7543 228.513 94.971H223.04C223.083 95.543 223.296 96.0023 223.677 96.349C224.058 96.6957 224.526 96.869 225.081 96.869C225.878 96.869 226.442 96.5353 226.771 95.868H228.37C228.153 96.5267 227.759 97.0683 227.187 97.493C226.624 97.909 225.922 98.117 225.081 98.117C224.396 98.117 223.781 97.9653 223.235 97.662C222.698 97.35 222.273 96.9167 221.961 96.362C221.658 95.7987 221.506 95.1487 221.506 94.412C221.506 93.6753 221.653 93.0297 221.948 92.475C222.251 91.9117 222.672 91.4783 223.209 91.175C223.755 90.8717 224.379 90.72 225.081 90.72C225.757 90.72 226.359 90.8673 226.888 91.162C227.417 91.4567 227.828 91.8727 228.123 92.41C228.418 92.9387 228.565 93.5497 228.565 94.243ZM227.018 93.775C227.009 93.229 226.814 92.7913 226.433 92.462C226.052 92.1327 225.579 91.968 225.016 91.968C224.505 91.968 224.067 92.1327 223.703 92.462C223.339 92.7827 223.122 93.2203 223.053 93.775H227.018ZM231.805 91.877C232.022 91.513 232.308 91.2313 232.663 91.032C233.027 90.824 233.456 90.72 233.95 90.72V92.254H233.573C232.993 92.254 232.551 92.4013 232.247 92.696C231.953 92.9907 231.805 93.502 231.805 94.23V98H230.323V90.837H231.805V91.877ZM236.211 98.091C235.942 98.091 235.717 98 235.535 97.818C235.353 97.636 235.262 97.4107 235.262 97.142C235.262 96.8733 235.353 96.648 235.535 96.466C235.717 96.284 235.942 96.193 236.211 96.193C236.471 96.193 236.692 96.284 236.874 96.466C237.056 96.648 237.147 96.8733 237.147 97.142C237.147 97.4107 237.056 97.636 236.874 97.818C236.692 98 236.471 98.091 236.211 98.091ZM240.53 91.89C240.782 91.5607 241.124 91.2833 241.557 91.058C241.991 90.8327 242.48 90.72 243.026 90.72C243.65 90.72 244.218 90.876 244.729 91.188C245.249 91.4913 245.657 91.9203 245.951 92.475C246.246 93.0297 246.393 93.6667 246.393 94.386C246.393 95.1053 246.246 95.751 245.951 96.323C245.657 96.8863 245.249 97.3283 244.729 97.649C244.218 97.961 243.65 98.117 243.026 98.117C242.48 98.117 241.995 98.0087 241.57 97.792C241.146 97.5667 240.799 97.2893 240.53 96.96V101.406H239.048V90.837H240.53V91.89ZM244.885 94.386C244.885 93.892 244.781 93.4673 244.573 93.112C244.374 92.748 244.105 92.475 243.767 92.293C243.438 92.1023 243.083 92.007 242.701 92.007C242.329 92.007 241.973 92.1023 241.635 92.293C241.306 92.4837 241.037 92.761 240.829 93.125C240.63 93.489 240.53 93.918 240.53 94.412C240.53 94.906 240.63 95.3393 240.829 95.712C241.037 96.076 241.306 96.3533 241.635 96.544C241.973 96.7347 242.329 96.83 242.701 96.83C243.083 96.83 243.438 96.7347 243.767 96.544C244.105 96.3447 244.374 96.0587 244.573 95.686C244.781 95.3133 244.885 94.88 244.885 94.386ZM247.665 94.386C247.665 93.6667 247.812 93.0297 248.107 92.475C248.41 91.9203 248.818 91.4913 249.329 91.188C249.849 90.876 250.425 90.72 251.058 90.72C251.526 90.72 251.985 90.824 252.436 91.032C252.895 91.2313 253.259 91.5 253.528 91.838V88.38H255.023V98H253.528V96.921C253.285 97.2677 252.947 97.5537 252.514 97.779C252.089 98.0043 251.6 98.117 251.045 98.117C250.421 98.117 249.849 97.961 249.329 97.649C248.818 97.3283 248.41 96.8863 248.107 96.323C247.812 95.751 247.665 95.1053 247.665 94.386ZM253.528 94.412C253.528 93.918 253.424 93.489 253.216 93.125C253.017 92.761 252.752 92.4837 252.423 92.293C252.094 92.1023 251.738 92.007 251.357 92.007C250.976 92.007 250.62 92.1023 250.291 92.293C249.962 92.475 249.693 92.748 249.485 93.112C249.286 93.4673 249.186 93.892 249.186 94.386C249.186 94.88 249.286 95.3133 249.485 95.686C249.693 96.0587 249.962 96.3447 250.291 96.544C250.629 96.7347 250.984 96.83 251.357 96.83C251.738 96.83 252.094 96.7347 252.423 96.544C252.752 96.3533 253.017 96.076 253.216 95.712C253.424 95.3393 253.528 94.906 253.528 94.412ZM260.273 92.046H258.947V98H257.452V92.046H256.607V90.837H257.452V90.33C257.452 89.5067 257.668 88.9087 258.102 88.536C258.544 88.1547 259.233 87.964 260.169 87.964V89.199C259.718 89.199 259.402 89.2857 259.22 89.459C259.038 89.6237 258.947 89.914 258.947 90.33V90.837H260.273V92.046Z" fill="#9A9A9A"/>
<rect opacity="0.15" x="84" y="115" width="296" height="5" rx="2.5" fill="#CFCFCF"/>
<rect x="84" y="115" width="200" height="5" rx="2.5" fill="#CFCFCF"/>
<path d="M291.48 95.068V94.24L295.692 88.408H297V94.12H298.2V95.068H297V97H295.92V95.068H291.48ZM295.968 89.548L292.74 94.12H295.968V89.548ZM300.119 97.072C299.911 97.072 299.735 97 299.591 96.856C299.447 96.712 299.375 96.536 299.375 96.328C299.375 96.12 299.447 95.944 299.591 95.8C299.735 95.656 299.911 95.584 300.119 95.584C300.319 95.584 300.487 95.656 300.623 95.8C300.767 95.944 300.839 96.12 300.839 96.328C300.839 96.536 300.767 96.712 300.623 96.856C300.487 97 300.319 97.072 300.119 97.072ZM307.942 89.272H303.73V92.008C303.914 91.752 304.186 91.544 304.546 91.384C304.906 91.216 305.294 91.132 305.71 91.132C306.374 91.132 306.914 91.272 307.33 91.552C307.746 91.824 308.042 92.18 308.218 92.62C308.402 93.052 308.494 93.512 308.494 94C308.494 94.576 308.386 95.092 308.17 95.548C307.954 96.004 307.622 96.364 307.174 96.628C306.734 96.892 306.186 97.024 305.53 97.024C304.69 97.024 304.01 96.808 303.49 96.376C302.97 95.944 302.654 95.368 302.542 94.648H303.61C303.714 95.104 303.934 95.46 304.27 95.716C304.606 95.972 305.03 96.1 305.542 96.1C306.174 96.1 306.65 95.912 306.97 95.536C307.29 95.152 307.45 94.648 307.45 94.024C307.45 93.4 307.29 92.92 306.97 92.584C306.65 92.24 306.178 92.068 305.554 92.068C305.13 92.068 304.758 92.172 304.438 92.38C304.126 92.58 303.898 92.856 303.754 93.208H302.722V88.312H307.942V89.272ZM322.409 88.696V97H321.317V90.808L318.557 97H317.789L315.017 90.796V97H313.925V88.696H315.101L318.173 95.56L321.245 88.696H322.409ZM328.749 92.692C329.053 92.74 329.329 92.864 329.577 93.064C329.833 93.264 330.033 93.512 330.177 93.808C330.329 94.104 330.405 94.42 330.405 94.756C330.405 95.18 330.297 95.564 330.081 95.908C329.865 96.244 329.549 96.512 329.133 96.712C328.725 96.904 328.241 97 327.681 97H324.561V88.636H327.561C328.129 88.636 328.613 88.732 329.013 88.924C329.413 89.108 329.713 89.36 329.913 89.68C330.113 90 330.213 90.36 330.213 90.76C330.213 91.256 330.077 91.668 329.805 91.996C329.541 92.316 329.189 92.548 328.749 92.692ZM325.653 92.248H327.489C328.001 92.248 328.397 92.128 328.677 91.888C328.957 91.648 329.097 91.316 329.097 90.892C329.097 90.468 328.957 90.136 328.677 89.896C328.397 89.656 327.993 89.536 327.465 89.536H325.653V92.248ZM327.585 96.1C328.129 96.1 328.553 95.972 328.857 95.716C329.161 95.46 329.313 95.104 329.313 94.648C329.313 94.184 329.153 93.82 328.833 93.556C328.513 93.284 328.085 93.148 327.549 93.148H325.653V96.1H327.585Z" fill="#9A9A9A"/>
<path opacity="0.54" d="M390.971 92.812C390.971 91.996 391.159 91.264 391.535 90.616C391.919 89.968 392.435 89.464 393.083 89.104C393.739 88.736 394.455 88.552 395.231 88.552C396.119 88.552 396.907 88.772 397.595 89.212C398.291 89.644 398.795 90.26 399.107 91.06H397.463C397.247 90.62 396.947 90.292 396.563 90.076C396.179 89.86 395.735 89.752 395.231 89.752C394.679 89.752 394.187 89.876 393.755 90.124C393.323 90.372 392.983 90.728 392.735 91.192C392.495 91.656 392.375 92.196 392.375 92.812C392.375 93.428 392.495 93.968 392.735 94.432C392.983 94.896 393.323 95.256 393.755 95.512C394.187 95.76 394.679 95.884 395.231 95.884C395.735 95.884 396.179 95.776 396.563 95.56C396.947 95.344 397.247 95.016 397.463 94.576H399.107C398.795 95.376 398.291 95.992 397.595 96.424C396.907 96.856 396.119 97.072 395.231 97.072C394.447 97.072 393.731 96.892 393.083 96.532C392.435 96.164 391.919 95.656 391.535 95.008C391.159 94.36 390.971 93.628 390.971 92.812ZM400.553 93.664C400.553 93 400.689 92.412 400.961 91.9C401.241 91.388 401.617 90.992 402.089 90.712C402.569 90.424 403.097 90.28 403.673 90.28C404.193 90.28 404.645 90.384 405.029 90.592C405.421 90.792 405.733 91.044 405.965 91.348V90.388H407.345V97H405.965V96.016C405.733 96.328 405.417 96.588 405.017 96.796C404.617 97.004 404.161 97.108 403.649 97.108C403.081 97.108 402.561 96.964 402.089 96.676C401.617 96.38 401.241 95.972 400.961 95.452C400.689 94.924 400.553 94.328 400.553 93.664ZM405.965 93.688C405.965 93.232 405.869 92.836 405.677 92.5C405.493 92.164 405.249 91.908 404.945 91.732C404.641 91.556 404.313 91.468 403.961 91.468C403.609 91.468 403.281 91.556 402.977 91.732C402.673 91.9 402.425 92.152 402.233 92.488C402.049 92.816 401.957 93.208 401.957 93.664C401.957 94.12 402.049 94.52 402.233 94.864C402.425 95.208 402.673 95.472 402.977 95.656C403.289 95.832 403.617 95.92 403.961 95.92C404.313 95.92 404.641 95.832 404.945 95.656C405.249 95.48 405.493 95.224 405.677 94.888C405.869 94.544 405.965 94.144 405.965 93.688ZM412.777 90.28C413.297 90.28 413.761 90.388 414.169 90.604C414.585 90.82 414.909 91.14 415.141 91.564C415.373 91.988 415.489 92.5 415.489 93.1V97H414.133V93.304C414.133 92.712 413.985 92.26 413.689 91.948C413.393 91.628 412.989 91.468 412.477 91.468C411.965 91.468 411.557 91.628 411.253 91.948C410.957 92.26 410.809 92.712 410.809 93.304V97H409.441V90.388H410.809V91.144C411.033 90.872 411.317 90.66 411.661 90.508C412.013 90.356 412.385 90.28 412.777 90.28ZM417.078 93.688C417.078 93.008 417.214 92.412 417.486 91.9C417.766 91.38 418.15 90.98 418.638 90.7C419.126 90.42 419.686 90.28 420.318 90.28C421.118 90.28 421.778 90.472 422.298 90.856C422.826 91.232 423.182 91.772 423.366 92.476H421.89C421.77 92.148 421.578 91.892 421.314 91.708C421.05 91.524 420.718 91.432 420.318 91.432C419.758 91.432 419.31 91.632 418.974 92.032C418.646 92.424 418.482 92.976 418.482 93.688C418.482 94.4 418.646 94.956 418.974 95.356C419.31 95.756 419.758 95.956 420.318 95.956C421.11 95.956 421.634 95.608 421.89 94.912H423.366C423.174 95.584 422.814 96.12 422.286 96.52C421.758 96.912 421.102 97.108 420.318 97.108C419.686 97.108 419.126 96.968 418.638 96.688C418.15 96.4 417.766 96 417.486 95.488C417.214 94.968 417.078 94.368 417.078 93.688ZM431.09 93.532C431.09 93.78 431.074 94.004 431.042 94.204H425.99C426.03 94.732 426.226 95.156 426.578 95.476C426.93 95.796 427.362 95.956 427.874 95.956C428.61 95.956 429.13 95.648 429.434 95.032H430.91C430.71 95.64 430.346 96.14 429.818 96.532C429.298 96.916 428.65 97.108 427.874 97.108C427.242 97.108 426.674 96.968 426.17 96.688C425.674 96.4 425.282 96 424.994 95.488C424.714 94.968 424.574 94.368 424.574 93.688C424.574 93.008 424.71 92.412 424.982 91.9C425.262 91.38 425.65 90.98 426.146 90.7C426.65 90.42 427.226 90.28 427.874 90.28C428.498 90.28 429.054 90.416 429.542 90.688C430.03 90.96 430.41 91.344 430.682 91.84C430.954 92.328 431.09 92.892 431.09 93.532ZM429.662 93.1C429.654 92.596 429.474 92.192 429.122 91.888C428.77 91.584 428.334 91.432 427.814 91.432C427.342 91.432 426.938 91.584 426.602 91.888C426.266 92.184 426.066 92.588 426.002 93.1H429.662ZM434.104 88.12V97H432.736V88.12H434.104Z" fill="#9A9A9A"/>
<path d="M32.6667 75H50.31C51.194 75.0002 52.0417 75.3515 52.6667 75.9767L65.0233 88.3333C65.6485 88.9583 65.9998 89.806 66 90.69V121.667C66 123.435 65.2976 125.13 64.0474 126.381C62.7971 127.631 61.1014 128.333 59.3333 128.333H32.6667C30.8986 128.333 29.2029 127.631 27.9526 126.381C26.7024 125.13 26 123.435 26 121.667V81.6667C26 79.8986 26.7024 78.2029 27.9526 76.9526C29.2029 75.7024 30.8986 75 32.6667 75V75ZM51 80V86.6667C51 87.5507 51.3512 88.3986 51.9763 89.0237C52.6014 89.6488 53.4493 90 54.3333 90H61L51 80Z" fill="#CFCFCF"/>
<path d="M35.42 111.08C35.12 111.08 34.8733 110.993 34.68 110.82C34.4933 110.64 34.4 110.42 34.4 110.16C34.4 109.893 34.4933 109.67 34.68 109.49C34.8733 109.31 35.12 109.22 35.42 109.22C35.7133 109.22 35.9533 109.31 36.14 109.49C36.3333 109.67 36.43 109.893 36.43 110.16C36.43 110.42 36.3333 110.64 36.14 110.82C35.9533 110.993 35.7133 111.08 35.42 111.08ZM43.2923 106.24C43.2923 106.647 43.1989 107.02 43.0123 107.36C42.8256 107.693 42.5389 107.963 42.1523 108.17C41.7656 108.377 41.2856 108.48 40.7123 108.48H39.6523V111H37.9423V103.98H40.7123C41.2723 103.98 41.7456 104.077 42.1323 104.27C42.5189 104.463 42.8089 104.73 43.0023 105.07C43.1956 105.41 43.2923 105.8 43.2923 106.24ZM40.5823 107.12C40.9089 107.12 41.1523 107.043 41.3123 106.89C41.4723 106.737 41.5523 106.52 41.5523 106.24C41.5523 105.96 41.4723 105.743 41.3123 105.59C41.1523 105.437 40.9089 105.36 40.5823 105.36H39.6523V107.12H40.5823ZM47.3125 103.98C48.0525 103.98 48.6992 104.127 49.2525 104.42C49.8058 104.713 50.2325 105.127 50.5325 105.66C50.8392 106.187 50.9925 106.797 50.9925 107.49C50.9925 108.177 50.8392 108.787 50.5325 109.32C50.2325 109.853 49.8025 110.267 49.2425 110.56C48.6892 110.853 48.0458 111 47.3125 111H44.6825V103.98H47.3125ZM47.2025 109.52C47.8492 109.52 48.3525 109.343 48.7125 108.99C49.0725 108.637 49.2525 108.137 49.2525 107.49C49.2525 106.843 49.0725 106.34 48.7125 105.98C48.3525 105.62 47.8492 105.44 47.2025 105.44H46.3925V109.52H47.2025ZM57.0181 103.98V105.35H54.1581V106.83H56.2981V108.16H54.1581V111H52.4481V103.98H57.0181Z" fill="#131313"/>
<path d="M87.926 156.965C88.888 156.965 89.7287 157.151 90.448 157.524C91.176 157.888 91.735 158.417 92.125 159.11C92.5237 159.795 92.723 160.596 92.723 161.515C92.723 162.434 92.5237 163.231 92.125 163.907C91.735 164.583 91.176 165.103 90.448 165.467C89.7287 165.822 88.888 166 87.926 166H84.975V156.965H87.926ZM87.926 164.791C88.9833 164.791 89.7937 164.505 90.357 163.933C90.9203 163.361 91.202 162.555 91.202 161.515C91.202 160.466 90.9203 159.647 90.357 159.058C89.7937 158.469 88.9833 158.174 87.926 158.174H86.457V164.791H87.926ZM93.9978 162.386C93.9978 161.667 94.1451 161.03 94.4398 160.475C94.7431 159.92 95.1505 159.491 95.6618 159.188C96.1818 158.876 96.7538 158.72 97.3778 158.72C97.9411 158.72 98.4308 158.833 98.8468 159.058C99.2715 159.275 99.6095 159.548 99.8608 159.877V158.837H101.356V166H99.8608V164.934C99.6095 165.272 99.2671 165.554 98.8338 165.779C98.4005 166.004 97.9065 166.117 97.3518 166.117C96.7365 166.117 96.1731 165.961 95.6618 165.649C95.1505 165.328 94.7431 164.886 94.4398 164.323C94.1451 163.751 93.9978 163.105 93.9978 162.386ZM99.8608 162.412C99.8608 161.918 99.7568 161.489 99.5488 161.125C99.3495 160.761 99.0851 160.484 98.7558 160.293C98.4265 160.102 98.0711 160.007 97.6898 160.007C97.3085 160.007 96.9531 160.102 96.6238 160.293C96.2945 160.475 96.0258 160.748 95.8178 161.112C95.6185 161.467 95.5188 161.892 95.5188 162.386C95.5188 162.88 95.6185 163.313 95.8178 163.686C96.0258 164.059 96.2945 164.345 96.6238 164.544C96.9618 164.735 97.3171 164.83 97.6898 164.83C98.0711 164.83 98.4265 164.735 98.7558 164.544C99.0851 164.353 99.3495 164.076 99.5488 163.712C99.7568 163.339 99.8608 162.906 99.8608 162.412ZM105.331 160.046V164.011C105.331 164.28 105.392 164.475 105.513 164.596C105.643 164.709 105.86 164.765 106.163 164.765H107.073V166H105.903C105.236 166 104.725 165.844 104.369 165.532C104.014 165.22 103.836 164.713 103.836 164.011V160.046H102.991V158.837H103.836V157.056H105.331V158.837H107.073V160.046H105.331ZM108.245 162.386C108.245 161.667 108.393 161.03 108.687 160.475C108.991 159.92 109.398 159.491 109.909 159.188C110.429 158.876 111.001 158.72 111.625 158.72C112.189 158.72 112.678 158.833 113.094 159.058C113.519 159.275 113.857 159.548 114.108 159.877V158.837H115.603V166H114.108V164.934C113.857 165.272 113.515 165.554 113.081 165.779C112.648 166.004 112.154 166.117 111.599 166.117C110.984 166.117 110.421 165.961 109.909 165.649C109.398 165.328 108.991 164.886 108.687 164.323C108.393 163.751 108.245 163.105 108.245 162.386ZM114.108 162.412C114.108 161.918 114.004 161.489 113.796 161.125C113.597 160.761 113.333 160.484 113.003 160.293C112.674 160.102 112.319 160.007 111.937 160.007C111.556 160.007 111.201 160.102 110.871 160.293C110.542 160.475 110.273 160.748 110.065 161.112C109.866 161.467 109.766 161.892 109.766 162.386C109.766 162.88 109.866 163.313 110.065 163.686C110.273 164.059 110.542 164.345 110.871 164.544C111.209 164.735 111.565 164.83 111.937 164.83C112.319 164.83 112.674 164.735 113.003 164.544C113.333 164.353 113.597 164.076 113.796 163.712C114.004 163.339 114.108 162.906 114.108 162.412ZM119.332 159.903C119.583 159.556 119.925 159.275 120.359 159.058C120.801 158.833 121.29 158.72 121.828 158.72C122.46 158.72 123.032 158.872 123.544 159.175C124.055 159.478 124.458 159.912 124.753 160.475C125.047 161.03 125.195 161.667 125.195 162.386C125.195 163.105 125.047 163.751 124.753 164.323C124.458 164.886 124.051 165.328 123.531 165.649C123.019 165.961 122.452 166.117 121.828 166.117C121.273 166.117 120.779 166.009 120.346 165.792C119.921 165.575 119.583 165.298 119.332 164.96V166H117.85V156.38H119.332V159.903ZM123.687 162.386C123.687 161.892 123.583 161.467 123.375 161.112C123.175 160.748 122.907 160.475 122.569 160.293C122.239 160.102 121.884 160.007 121.503 160.007C121.13 160.007 120.775 160.102 120.437 160.293C120.107 160.484 119.839 160.761 119.631 161.125C119.431 161.489 119.332 161.918 119.332 162.412C119.332 162.906 119.431 163.339 119.631 163.712C119.839 164.076 120.107 164.353 120.437 164.544C120.775 164.735 121.13 164.83 121.503 164.83C121.884 164.83 122.239 164.735 122.569 164.544C122.907 164.345 123.175 164.059 123.375 163.686C123.583 163.313 123.687 162.88 123.687 162.386ZM129.56 166.117C128.997 166.117 128.49 166.017 128.039 165.818C127.597 165.61 127.246 165.333 126.986 164.986C126.726 164.631 126.588 164.236 126.57 163.803H128.104C128.13 164.106 128.273 164.362 128.533 164.57C128.802 164.769 129.136 164.869 129.534 164.869C129.95 164.869 130.271 164.791 130.496 164.635C130.73 164.47 130.847 164.262 130.847 164.011C130.847 163.742 130.717 163.543 130.457 163.413C130.206 163.283 129.803 163.14 129.248 162.984C128.711 162.837 128.273 162.694 127.935 162.555C127.597 162.416 127.303 162.204 127.051 161.918C126.809 161.632 126.687 161.255 126.687 160.787C126.687 160.406 126.8 160.059 127.025 159.747C127.251 159.426 127.571 159.175 127.987 158.993C128.412 158.811 128.897 158.72 129.443 158.72C130.258 158.72 130.912 158.928 131.406 159.344C131.909 159.751 132.178 160.31 132.212 161.021H130.73C130.704 160.7 130.574 160.445 130.34 160.254C130.106 160.063 129.79 159.968 129.391 159.968C129.001 159.968 128.702 160.042 128.494 160.189C128.286 160.336 128.182 160.531 128.182 160.774C128.182 160.965 128.252 161.125 128.39 161.255C128.529 161.385 128.698 161.489 128.897 161.567C129.097 161.636 129.391 161.727 129.781 161.84C130.301 161.979 130.726 162.122 131.055 162.269C131.393 162.408 131.684 162.616 131.926 162.893C132.169 163.17 132.295 163.539 132.303 163.998C132.303 164.405 132.191 164.769 131.965 165.09C131.74 165.411 131.419 165.662 131.003 165.844C130.596 166.026 130.115 166.117 129.56 166.117ZM140.77 162.243C140.77 162.512 140.752 162.754 140.718 162.971H135.245C135.288 163.543 135.5 164.002 135.882 164.349C136.263 164.696 136.731 164.869 137.286 164.869C138.083 164.869 138.646 164.535 138.976 163.868H140.575C140.358 164.527 139.964 165.068 139.392 165.493C138.828 165.909 138.126 166.117 137.286 166.117C136.601 166.117 135.986 165.965 135.44 165.662C134.902 165.35 134.478 164.917 134.166 164.362C133.862 163.799 133.711 163.149 133.711 162.412C133.711 161.675 133.858 161.03 134.153 160.475C134.456 159.912 134.876 159.478 135.414 159.175C135.96 158.872 136.584 158.72 137.286 158.72C137.962 158.72 138.564 158.867 139.093 159.162C139.621 159.457 140.033 159.873 140.328 160.41C140.622 160.939 140.77 161.55 140.77 162.243ZM139.223 161.775C139.214 161.229 139.019 160.791 138.638 160.462C138.256 160.133 137.784 159.968 137.221 159.968C136.709 159.968 136.272 160.133 135.908 160.462C135.544 160.783 135.327 161.22 135.258 161.775H139.223ZM148.027 160.67V161.918H142.684V160.67H148.027ZM159.949 156.965V166H158.467V159.812L155.711 166H154.684L151.915 159.812V166H150.433V156.965H152.032L155.204 164.05L158.363 156.965H159.949ZM168.644 158.837L164.25 169.367H162.716L164.172 165.883L161.351 158.837H163.002L165.017 164.297L167.11 158.837H168.644ZM173.04 166.091C172.433 166.091 171.887 165.987 171.402 165.779C170.917 165.562 170.535 165.259 170.258 164.869C169.981 164.479 169.842 164.024 169.842 163.504H171.428C171.463 163.894 171.614 164.215 171.883 164.466C172.16 164.717 172.546 164.843 173.04 164.843C173.551 164.843 173.95 164.722 174.236 164.479C174.522 164.228 174.665 163.907 174.665 163.517C174.665 163.214 174.574 162.967 174.392 162.776C174.219 162.585 173.998 162.438 173.729 162.334C173.469 162.23 173.105 162.117 172.637 161.996C172.048 161.84 171.567 161.684 171.194 161.528C170.83 161.363 170.518 161.112 170.258 160.774C169.998 160.436 169.868 159.985 169.868 159.422C169.868 158.902 169.998 158.447 170.258 158.057C170.518 157.667 170.882 157.368 171.35 157.16C171.818 156.952 172.36 156.848 172.975 156.848C173.85 156.848 174.565 157.069 175.12 157.511C175.683 157.944 175.995 158.542 176.056 159.305H174.418C174.392 158.976 174.236 158.694 173.95 158.46C173.664 158.226 173.287 158.109 172.819 158.109C172.394 158.109 172.048 158.217 171.779 158.434C171.51 158.651 171.376 158.963 171.376 159.37C171.376 159.647 171.458 159.877 171.623 160.059C171.796 160.232 172.013 160.371 172.273 160.475C172.533 160.579 172.888 160.692 173.339 160.813C173.937 160.978 174.422 161.142 174.795 161.307C175.176 161.472 175.497 161.727 175.757 162.074C176.026 162.412 176.16 162.867 176.16 163.439C176.16 163.898 176.034 164.332 175.783 164.739C175.54 165.146 175.181 165.476 174.704 165.727C174.236 165.97 173.681 166.091 173.04 166.091ZM185.203 167.638L183.617 165.922C183.227 166.035 182.798 166.091 182.33 166.091C181.489 166.091 180.713 165.896 180.003 165.506C179.301 165.107 178.742 164.557 178.326 163.855C177.918 163.144 177.715 162.347 177.715 161.463C177.715 160.579 177.918 159.786 178.326 159.084C178.742 158.382 179.301 157.836 180.003 157.446C180.713 157.047 181.489 156.848 182.33 156.848C183.179 156.848 183.955 157.047 184.657 157.446C185.367 157.836 185.926 158.382 186.334 159.084C186.741 159.786 186.945 160.579 186.945 161.463C186.945 162.295 186.763 163.049 186.399 163.725C186.043 164.392 185.549 164.93 184.917 165.337L187.088 167.638H185.203ZM179.236 161.463C179.236 162.13 179.366 162.72 179.626 163.231C179.894 163.734 180.263 164.124 180.731 164.401C181.199 164.67 181.732 164.804 182.33 164.804C182.928 164.804 183.461 164.67 183.929 164.401C184.397 164.124 184.761 163.734 185.021 163.231C185.289 162.72 185.424 162.13 185.424 161.463C185.424 160.796 185.289 160.211 185.021 159.708C184.761 159.205 184.397 158.82 183.929 158.551C183.461 158.282 182.928 158.148 182.33 158.148C181.732 158.148 181.199 158.282 180.731 158.551C180.263 158.82 179.894 159.205 179.626 159.708C179.366 160.211 179.236 160.796 179.236 161.463ZM190.223 164.804H193.278V166H188.741V156.965H190.223V164.804ZM195.415 166.091C195.147 166.091 194.921 166 194.739 165.818C194.557 165.636 194.466 165.411 194.466 165.142C194.466 164.873 194.557 164.648 194.739 164.466C194.921 164.284 195.147 164.193 195.415 164.193C195.675 164.193 195.896 164.284 196.078 164.466C196.26 164.648 196.351 164.873 196.351 165.142C196.351 165.411 196.26 165.636 196.078 165.818C195.896 166 195.675 166.091 195.415 166.091ZM201.321 162.373L203.635 166H201.958L200.411 163.569L198.955 166H197.408L199.722 162.477L197.408 158.837H199.085L200.632 161.268L202.088 158.837H203.635L201.321 162.373ZM206.522 156.38V166H205.04V156.38H206.522ZM211.368 166.117C210.805 166.117 210.298 166.017 209.847 165.818C209.405 165.61 209.054 165.333 208.794 164.986C208.534 164.631 208.396 164.236 208.378 163.803H209.912C209.938 164.106 210.081 164.362 210.341 164.57C210.61 164.769 210.944 164.869 211.342 164.869C211.758 164.869 212.079 164.791 212.304 164.635C212.538 164.47 212.655 164.262 212.655 164.011C212.655 163.742 212.525 163.543 212.265 163.413C212.014 163.283 211.611 163.14 211.056 162.984C210.519 162.837 210.081 162.694 209.743 162.555C209.405 162.416 209.111 162.204 208.859 161.918C208.617 161.632 208.495 161.255 208.495 160.787C208.495 160.406 208.608 160.059 208.833 159.747C209.059 159.426 209.379 159.175 209.795 158.993C210.22 158.811 210.705 158.72 211.251 158.72C212.066 158.72 212.72 158.928 213.214 159.344C213.717 159.751 213.986 160.31 214.02 161.021H212.538C212.512 160.7 212.382 160.445 212.148 160.254C211.914 160.063 211.598 159.968 211.199 159.968C210.809 159.968 210.51 160.042 210.302 160.189C210.094 160.336 209.99 160.531 209.99 160.774C209.99 160.965 210.06 161.125 210.198 161.255C210.337 161.385 210.506 161.489 210.705 161.567C210.905 161.636 211.199 161.727 211.589 161.84C212.109 161.979 212.534 162.122 212.863 162.269C213.201 162.408 213.492 162.616 213.734 162.893C213.977 163.17 214.103 163.539 214.111 163.998C214.111 164.405 213.999 164.769 213.773 165.09C213.548 165.411 213.227 165.662 212.811 165.844C212.404 166.026 211.923 166.117 211.368 166.117Z" fill="#9A9A9A"/>
<path opacity="0.5" d="M92.624 181.388V189H91.623V183.324L89.093 189H88.389L85.848 183.313V189H84.847V181.388H85.925L88.741 187.68L91.557 181.388H92.624ZM95.1386 181.993C94.9479 181.993 94.7866 181.927 94.6546 181.795C94.5226 181.663 94.4566 181.502 94.4566 181.311C94.4566 181.12 94.5226 180.959 94.6546 180.827C94.7866 180.695 94.9479 180.629 95.1386 180.629C95.3219 180.629 95.4759 180.695 95.6006 180.827C95.7326 180.959 95.7986 181.12 95.7986 181.311C95.7986 181.502 95.7326 181.663 95.6006 181.795C95.4759 181.927 95.3219 181.993 95.1386 181.993ZM95.6226 182.972V189H94.6216V182.972H95.6226ZM97.2546 185.975C97.2546 185.352 97.3793 184.809 97.6286 184.347C97.878 183.878 98.2226 183.515 98.6626 183.258C99.11 183.001 99.6196 182.873 100.192 182.873C100.932 182.873 101.541 183.053 102.018 183.412C102.502 183.771 102.821 184.27 102.975 184.908H101.897C101.794 184.541 101.592 184.252 101.292 184.039C100.998 183.826 100.632 183.72 100.192 183.72C99.6196 183.72 99.1576 183.918 98.8056 184.314C98.4536 184.703 98.2776 185.256 98.2776 185.975C98.2776 186.701 98.4536 187.262 98.8056 187.658C99.1576 188.054 99.6196 188.252 100.192 188.252C100.632 188.252 100.998 188.149 101.292 187.944C101.585 187.739 101.787 187.445 101.897 187.064H102.975C102.813 187.68 102.491 188.175 102.007 188.549C101.523 188.916 100.918 189.099 100.192 189.099C99.6196 189.099 99.11 188.971 98.6626 188.714C98.2226 188.457 97.878 188.094 97.6286 187.625C97.3793 187.156 97.2546 186.606 97.2546 185.975ZM105.611 183.951C105.787 183.606 106.037 183.339 106.359 183.148C106.689 182.957 107.089 182.862 107.558 182.862V183.896H107.294C106.172 183.896 105.611 184.505 105.611 185.722V189H104.61V182.972H105.611V183.951ZM111.643 189.099C111.078 189.099 110.565 188.971 110.103 188.714C109.648 188.457 109.289 188.094 109.025 187.625C108.768 187.148 108.64 186.598 108.64 185.975C108.64 185.359 108.772 184.816 109.036 184.347C109.307 183.87 109.674 183.507 110.136 183.258C110.598 183.001 111.115 182.873 111.687 182.873C112.259 182.873 112.776 183.001 113.238 183.258C113.7 183.507 114.063 183.867 114.327 184.336C114.598 184.805 114.734 185.352 114.734 185.975C114.734 186.598 114.594 187.148 114.316 187.625C114.044 188.094 113.674 188.457 113.205 188.714C112.735 188.971 112.215 189.099 111.643 189.099ZM111.643 188.219C112.002 188.219 112.339 188.135 112.655 187.966C112.97 187.797 113.223 187.544 113.414 187.207C113.612 186.87 113.711 186.459 113.711 185.975C113.711 185.491 113.615 185.08 113.425 184.743C113.234 184.406 112.985 184.156 112.677 183.995C112.369 183.826 112.035 183.742 111.676 183.742C111.309 183.742 110.972 183.826 110.664 183.995C110.363 184.156 110.121 184.406 109.938 184.743C109.754 185.08 109.663 185.491 109.663 185.975C109.663 186.466 109.751 186.881 109.927 187.218C110.11 187.555 110.352 187.808 110.653 187.977C110.953 188.138 111.283 188.219 111.643 188.219ZM118.484 189.099C118.022 189.099 117.608 189.022 117.241 188.868C116.874 188.707 116.585 188.487 116.372 188.208C116.159 187.922 116.042 187.596 116.02 187.229H117.054C117.083 187.53 117.223 187.775 117.472 187.966C117.729 188.157 118.062 188.252 118.473 188.252C118.854 188.252 119.155 188.168 119.375 187.999C119.595 187.83 119.705 187.618 119.705 187.361C119.705 187.097 119.588 186.903 119.353 186.778C119.118 186.646 118.755 186.518 118.264 186.393C117.817 186.276 117.45 186.158 117.164 186.041C116.885 185.916 116.643 185.737 116.438 185.502C116.24 185.26 116.141 184.945 116.141 184.556C116.141 184.248 116.233 183.966 116.416 183.709C116.599 183.452 116.86 183.251 117.197 183.104C117.534 182.95 117.919 182.873 118.352 182.873C119.019 182.873 119.558 183.042 119.969 183.379C120.38 183.716 120.6 184.178 120.629 184.765H119.628C119.606 184.45 119.478 184.197 119.243 184.006C119.016 183.815 118.708 183.72 118.319 183.72C117.96 183.72 117.674 183.797 117.461 183.951C117.248 184.105 117.142 184.307 117.142 184.556C117.142 184.754 117.204 184.919 117.329 185.051C117.461 185.176 117.622 185.278 117.813 185.359C118.011 185.432 118.282 185.517 118.627 185.612C119.06 185.729 119.412 185.847 119.683 185.964C119.954 186.074 120.185 186.243 120.376 186.47C120.574 186.697 120.677 186.994 120.684 187.361C120.684 187.691 120.592 187.988 120.409 188.252C120.226 188.516 119.965 188.725 119.628 188.879C119.298 189.026 118.917 189.099 118.484 189.099ZM125.026 189.099C124.461 189.099 123.948 188.971 123.486 188.714C123.031 188.457 122.672 188.094 122.408 187.625C122.151 187.148 122.023 186.598 122.023 185.975C122.023 185.359 122.155 184.816 122.419 184.347C122.69 183.87 123.057 183.507 123.519 183.258C123.981 183.001 124.498 182.873 125.07 182.873C125.642 182.873 126.159 183.001 126.621 183.258C127.083 183.507 127.446 183.867 127.71 184.336C127.981 184.805 128.117 185.352 128.117 185.975C128.117 186.598 127.978 187.148 127.699 187.625C127.428 188.094 127.057 188.457 126.588 188.714C126.119 188.971 125.598 189.099 125.026 189.099ZM125.026 188.219C125.385 188.219 125.723 188.135 126.038 187.966C126.353 187.797 126.606 187.544 126.797 187.207C126.995 186.87 127.094 186.459 127.094 185.975C127.094 185.491 126.999 185.08 126.808 184.743C126.617 184.406 126.368 184.156 126.06 183.995C125.752 183.826 125.418 183.742 125.059 183.742C124.692 183.742 124.355 183.826 124.047 183.995C123.746 184.156 123.504 184.406 123.321 184.743C123.138 185.08 123.046 185.491 123.046 185.975C123.046 186.466 123.134 186.881 123.31 187.218C123.493 187.555 123.735 187.808 124.036 187.977C124.337 188.138 124.667 188.219 125.026 188.219ZM132.186 183.797H130.921V189H129.92V183.797H129.139V182.972H129.92V182.543C129.92 181.868 130.092 181.377 130.437 181.069C130.789 180.754 131.35 180.596 132.12 180.596V181.432C131.68 181.432 131.368 181.52 131.185 181.696C131.009 181.865 130.921 182.147 130.921 182.543V182.972H132.186V183.797ZM134.874 183.797V187.35C134.874 187.643 134.937 187.852 135.061 187.977C135.186 188.094 135.402 188.153 135.71 188.153H136.447V189H135.545C134.988 189 134.57 188.872 134.291 188.615C134.013 188.358 133.873 187.937 133.873 187.35V183.797H133.092V182.972H133.873V181.454H134.874V182.972H136.447V183.797H134.874ZM142.194 182.147V184.71H144.988V185.535H142.194V188.175H145.318V189H141.193V181.322H145.318V182.147H142.194ZM150.278 189L148.848 186.756L147.473 189H146.428L148.375 186.008L146.428 182.972H147.561L148.991 185.205L150.355 182.972H151.4L149.464 185.953L151.411 189H150.278ZM152.322 185.975C152.322 185.352 152.447 184.809 152.696 184.347C152.945 183.878 153.29 183.515 153.73 183.258C154.177 183.001 154.687 182.873 155.259 182.873C156 182.873 156.608 183.053 157.085 183.412C157.569 183.771 157.888 184.27 158.042 184.908H156.964C156.861 184.541 156.66 184.252 156.359 184.039C156.066 183.826 155.699 183.72 155.259 183.72C154.687 183.72 154.225 183.918 153.873 184.314C153.521 184.703 153.345 185.256 153.345 185.975C153.345 186.701 153.521 187.262 153.873 187.658C154.225 188.054 154.687 188.252 155.259 188.252C155.699 188.252 156.066 188.149 156.359 187.944C156.652 187.739 156.854 187.445 156.964 187.064H158.042C157.881 187.68 157.558 188.175 157.074 188.549C156.59 188.916 155.985 189.099 155.259 189.099C154.687 189.099 154.177 188.971 153.73 188.714C153.29 188.457 152.945 188.094 152.696 187.625C152.447 187.156 152.322 186.606 152.322 185.975ZM165.178 185.755C165.178 185.946 165.167 186.147 165.145 186.36H160.327C160.363 186.954 160.565 187.42 160.932 187.757C161.306 188.087 161.757 188.252 162.285 188.252C162.717 188.252 163.077 188.153 163.363 187.955C163.656 187.75 163.861 187.478 163.979 187.141H165.057C164.895 187.72 164.573 188.193 164.089 188.56C163.605 188.919 163.003 189.099 162.285 189.099C161.713 189.099 161.199 188.971 160.745 188.714C160.297 188.457 159.945 188.094 159.689 187.625C159.432 187.148 159.304 186.598 159.304 185.975C159.304 185.352 159.428 184.805 159.678 184.336C159.927 183.867 160.275 183.507 160.723 183.258C161.177 183.001 161.698 182.873 162.285 182.873C162.857 182.873 163.363 182.998 163.803 183.247C164.243 183.496 164.58 183.841 164.815 184.281C165.057 184.714 165.178 185.205 165.178 185.755ZM164.144 185.546C164.144 185.165 164.059 184.838 163.891 184.567C163.722 184.288 163.491 184.079 163.198 183.94C162.912 183.793 162.593 183.72 162.241 183.72C161.735 183.72 161.302 183.881 160.943 184.204C160.591 184.527 160.389 184.974 160.338 185.546H164.144ZM167.8 180.86V189H166.799V180.86H167.8Z" fill="#9A9A9A"/>
<path d="M284.612 164.124C285.628 163.308 286.424 162.64 287 162.12C287.576 161.592 288.06 161.044 288.452 160.476C288.852 159.9 289.052 159.336 289.052 158.784C289.052 158.264 288.924 157.856 288.668 157.56C288.42 157.256 288.016 157.104 287.456 157.104C286.912 157.104 286.488 157.276 286.184 157.62C285.888 157.956 285.728 158.408 285.704 158.976H284.648C284.68 158.08 284.952 157.388 285.464 156.9C285.976 156.412 286.636 156.168 287.444 156.168C288.268 156.168 288.92 156.396 289.4 156.852C289.888 157.308 290.132 157.936 290.132 158.736C290.132 159.4 289.932 160.048 289.532 160.68C289.14 161.304 288.692 161.856 288.188 162.336C287.684 162.808 287.04 163.36 286.256 163.992H290.384V164.904H284.612V164.124ZM297.478 157.272H293.266V160.008C293.45 159.752 293.722 159.544 294.082 159.384C294.442 159.216 294.83 159.132 295.246 159.132C295.91 159.132 296.45 159.272 296.866 159.552C297.282 159.824 297.578 160.18 297.754 160.62C297.938 161.052 298.03 161.512 298.03 162C298.03 162.576 297.922 163.092 297.706 163.548C297.49 164.004 297.158 164.364 296.71 164.628C296.27 164.892 295.722 165.024 295.066 165.024C294.226 165.024 293.546 164.808 293.026 164.376C292.506 163.944 292.19 163.368 292.078 162.648H293.146C293.25 163.104 293.47 163.46 293.806 163.716C294.142 163.972 294.566 164.1 295.078 164.1C295.71 164.1 296.186 163.912 296.506 163.536C296.826 163.152 296.986 162.648 296.986 162.024C296.986 161.4 296.826 160.92 296.506 160.584C296.186 160.24 295.714 160.068 295.09 160.068C294.666 160.068 294.294 160.172 293.974 160.38C293.662 160.58 293.434 160.856 293.29 161.208H292.258V156.312H297.478V157.272ZM300.31 165.072C300.102 165.072 299.926 165 299.782 164.856C299.638 164.712 299.566 164.536 299.566 164.328C299.566 164.12 299.638 163.944 299.782 163.8C299.926 163.656 300.102 163.584 300.31 163.584C300.51 163.584 300.678 163.656 300.814 163.8C300.958 163.944 301.03 164.12 301.03 164.328C301.03 164.536 300.958 164.712 300.814 164.856C300.678 165 300.51 165.072 300.31 165.072ZM307.941 157.176L304.605 165H303.501L306.885 157.284H302.253V156.348H307.941V157.176ZM321.615 156.696V165H320.523V158.808L317.763 165H316.995L314.223 158.796V165H313.131V156.696H314.307L317.379 163.56L320.451 156.696H321.615ZM327.955 160.692C328.259 160.74 328.535 160.864 328.783 161.064C329.039 161.264 329.239 161.512 329.383 161.808C329.535 162.104 329.611 162.42 329.611 162.756C329.611 163.18 329.503 163.564 329.287 163.908C329.071 164.244 328.755 164.512 328.339 164.712C327.931 164.904 327.447 165 326.887 165H323.767V156.636H326.767C327.335 156.636 327.819 156.732 328.219 156.924C328.619 157.108 328.919 157.36 329.119 157.68C329.319 158 329.419 158.36 329.419 158.76C329.419 159.256 329.283 159.668 329.011 159.996C328.747 160.316 328.395 160.548 327.955 160.692ZM324.859 160.248H326.695C327.207 160.248 327.603 160.128 327.883 159.888C328.163 159.648 328.303 159.316 328.303 158.892C328.303 158.468 328.163 158.136 327.883 157.896C327.603 157.656 327.199 157.536 326.671 157.536H324.859V160.248ZM326.791 164.1C327.335 164.1 327.759 163.972 328.063 163.716C328.367 163.46 328.519 163.104 328.519 162.648C328.519 162.184 328.359 161.82 328.039 161.556C327.719 161.284 327.291 161.148 326.755 161.148H324.859V164.1H326.791Z" fill="#9A9A9A"/>
<path d="M375.624 156.66C376.512 156.66 377.288 156.832 377.952 157.176C378.624 157.512 379.14 158 379.5 158.64C379.868 159.272 380.052 160.012 380.052 160.86C380.052 161.708 379.868 162.444 379.5 163.068C379.14 163.692 378.624 164.172 377.952 164.508C377.288 164.836 376.512 165 375.624 165H372.9V156.66H375.624ZM375.624 163.884C376.6 163.884 377.348 163.62 377.868 163.092C378.388 162.564 378.648 161.82 378.648 160.86C378.648 159.892 378.388 159.136 377.868 158.592C377.348 158.048 376.6 157.776 375.624 157.776H374.268V163.884H375.624ZM384.576 165.108C383.952 165.108 383.388 164.968 382.884 164.688C382.38 164.4 381.984 164 381.696 163.488C381.408 162.968 381.264 162.368 381.264 161.688C381.264 161.016 381.412 160.42 381.708 159.9C382.004 159.38 382.408 158.98 382.92 158.7C383.432 158.42 384.004 158.28 384.636 158.28C385.268 158.28 385.84 158.42 386.352 158.7C386.864 158.98 387.268 159.38 387.564 159.9C387.86 160.42 388.008 161.016 388.008 161.688C388.008 162.36 387.856 162.956 387.552 163.476C387.248 163.996 386.832 164.4 386.304 164.688C385.784 164.968 385.208 165.108 384.576 165.108ZM384.576 163.92C384.928 163.92 385.256 163.836 385.56 163.668C385.872 163.5 386.124 163.248 386.316 162.912C386.508 162.576 386.604 162.168 386.604 161.688C386.604 161.208 386.512 160.804 386.328 160.476C386.144 160.14 385.9 159.888 385.596 159.72C385.292 159.552 384.964 159.468 384.612 159.468C384.26 159.468 383.932 159.552 383.628 159.72C383.332 159.888 383.096 160.14 382.92 160.476C382.744 160.804 382.656 161.208 382.656 161.688C382.656 162.4 382.836 162.952 383.196 163.344C383.564 163.728 384.024 163.92 384.576 163.92ZM398.54 158.388L396.488 165H395.048L393.716 160.116L392.384 165H390.944L388.88 158.388H390.272L391.652 163.704L393.056 158.388H394.484L395.828 163.68L397.196 158.388H398.54ZM403.198 158.28C403.718 158.28 404.182 158.388 404.59 158.604C405.006 158.82 405.33 159.14 405.562 159.564C405.795 159.988 405.911 160.5 405.911 161.1V165H404.554V161.304C404.554 160.712 404.406 160.26 404.11 159.948C403.814 159.628 403.41 159.468 402.898 159.468C402.386 159.468 401.978 159.628 401.674 159.948C401.378 160.26 401.23 160.712 401.23 161.304V165H399.862V158.388H401.23V159.144C401.454 158.872 401.738 158.66 402.082 158.508C402.434 158.356 402.806 158.28 403.198 158.28ZM409.323 156.12V165H407.955V156.12H409.323ZM414.288 165.108C413.664 165.108 413.1 164.968 412.596 164.688C412.092 164.4 411.696 164 411.408 163.488C411.12 162.968 410.976 162.368 410.976 161.688C410.976 161.016 411.124 160.42 411.42 159.9C411.716 159.38 412.12 158.98 412.632 158.7C413.144 158.42 413.716 158.28 414.348 158.28C414.98 158.28 415.552 158.42 416.064 158.7C416.576 158.98 416.98 159.38 417.276 159.9C417.572 160.42 417.72 161.016 417.72 161.688C417.72 162.36 417.568 162.956 417.264 163.476C416.96 163.996 416.544 164.4 416.016 164.688C415.496 164.968 414.92 165.108 414.288 165.108ZM414.288 163.92C414.64 163.92 414.968 163.836 415.272 163.668C415.584 163.5 415.836 163.248 416.028 162.912C416.22 162.576 416.316 162.168 416.316 161.688C416.316 161.208 416.224 160.804 416.04 160.476C415.856 160.14 415.612 159.888 415.308 159.72C415.004 159.552 414.676 159.468 414.324 159.468C413.972 159.468 413.644 159.552 413.34 159.72C413.044 159.888 412.808 160.14 412.632 160.476C412.456 160.804 412.368 161.208 412.368 161.688C412.368 162.4 412.548 162.952 412.908 163.344C413.276 163.728 413.736 163.92 414.288 163.92ZM418.916 161.664C418.916 161 419.052 160.412 419.324 159.9C419.604 159.388 419.98 158.992 420.452 158.712C420.932 158.424 421.46 158.28 422.036 158.28C422.556 158.28 423.008 158.384 423.392 158.592C423.784 158.792 424.096 159.044 424.328 159.348V158.388H425.708V165H424.328V164.016C424.096 164.328 423.78 164.588 423.38 164.796C422.98 165.004 422.524 165.108 422.012 165.108C421.444 165.108 420.924 164.964 420.452 164.676C419.98 164.38 419.604 163.972 419.324 163.452C419.052 162.924 418.916 162.328 418.916 161.664ZM424.328 161.688C424.328 161.232 424.232 160.836 424.04 160.5C423.856 160.164 423.612 159.908 423.308 159.732C423.004 159.556 422.676 159.468 422.324 159.468C421.972 159.468 421.644 159.556 421.34 159.732C421.036 159.9 420.788 160.152 420.596 160.488C420.412 160.816 420.32 161.208 420.32 161.664C420.32 162.12 420.412 162.52 420.596 162.864C420.788 163.208 421.036 163.472 421.34 163.656C421.652 163.832 421.98 163.92 422.324 163.92C422.676 163.92 423.004 163.832 423.308 163.656C423.612 163.48 423.856 163.224 424.04 162.888C424.232 162.544 424.328 162.144 424.328 161.688ZM427.349 161.664C427.349 161 427.485 160.412 427.757 159.9C428.037 159.388 428.413 158.992 428.885 158.712C429.365 158.424 429.897 158.28 430.481 158.28C430.913 158.28 431.337 158.376 431.753 158.568C432.177 158.752 432.513 159 432.761 159.312V156.12H434.141V165H432.761V164.004C432.537 164.324 432.225 164.588 431.825 164.796C431.433 165.004 430.981 165.108 430.469 165.108C429.893 165.108 429.365 164.964 428.885 164.676C428.413 164.38 428.037 163.972 427.757 163.452C427.485 162.924 427.349 162.328 427.349 161.664ZM432.761 161.688C432.761 161.232 432.665 160.836 432.473 160.5C432.289 160.164 432.045 159.908 431.741 159.732C431.437 159.556 431.109 159.468 430.757 159.468C430.405 159.468 430.077 159.556 429.773 159.732C429.469 159.9 429.221 160.152 429.029 160.488C428.845 160.816 428.753 161.208 428.753 161.664C428.753 162.12 428.845 162.52 429.029 162.864C429.221 163.208 429.469 163.472 429.773 163.656C430.085 163.832 430.413 163.92 430.757 163.92C431.109 163.92 431.437 163.832 431.741 163.656C432.045 163.48 432.289 163.224 432.473 162.888C432.665 162.544 432.761 162.144 432.761 161.688Z" fill="#F5F5F5"/>
<path d="M31.6667 143H49.31C50.194 143 51.0417 143.352 51.6667 143.977L64.0233 156.333C64.6485 156.958 64.9998 157.806 65 158.69V189.667C65 191.435 64.2976 193.13 63.0474 194.381C61.7971 195.631 60.1014 196.333 58.3333 196.333H31.6667C29.8986 196.333 28.2029 195.631 26.9526 194.381C25.7024 193.13 25 191.435 25 189.667V149.667C25 147.899 25.7024 146.203 26.9526 144.953C28.2029 143.702 29.8986 143 31.6667 143V143ZM50 148V154.667C50 155.551 50.3512 156.399 50.9763 157.024C51.6014 157.649 52.4493 158 53.3333 158H60L50 148Z" fill="#CFCFCF"/>
<path d="M34.42 179.08C34.12 179.08 33.8733 178.993 33.68 178.82C33.4933 178.64 33.4 178.42 33.4 178.16C33.4 177.893 33.4933 177.67 33.68 177.49C33.8733 177.31 34.12 177.22 34.42 177.22C34.7133 177.22 34.9533 177.31 35.14 177.49C35.3333 177.67 35.43 177.893 35.43 178.16C35.43 178.42 35.3333 178.64 35.14 178.82C34.9533 178.993 34.7133 179.08 34.42 179.08ZM41.2423 179L39.8123 176.85L38.5523 179H36.6123L38.8623 175.43L36.5623 171.98H38.5523L39.9623 174.1L41.2023 171.98H43.1423L40.9123 175.52L43.2323 179H41.2423ZM46.3007 177.68H48.5407V179H44.5907V171.98H46.3007V177.68ZM52.3963 179.07C51.883 179.07 51.423 178.987 51.0163 178.82C50.6097 178.653 50.283 178.407 50.0363 178.08C49.7963 177.753 49.6697 177.36 49.6563 176.9H51.4763C51.503 177.16 51.593 177.36 51.7463 177.5C51.8997 177.633 52.0997 177.7 52.3463 177.7C52.5997 177.7 52.7997 177.643 52.9463 177.53C53.093 177.41 53.1663 177.247 53.1663 177.04C53.1663 176.867 53.1063 176.723 52.9863 176.61C52.873 176.497 52.7297 176.403 52.5563 176.33C52.3897 176.257 52.1497 176.173 51.8363 176.08C51.383 175.94 51.013 175.8 50.7263 175.66C50.4397 175.52 50.193 175.313 49.9863 175.04C49.7797 174.767 49.6763 174.41 49.6763 173.97C49.6763 173.317 49.913 172.807 50.3863 172.44C50.8597 172.067 51.4763 171.88 52.2363 171.88C53.0097 171.88 53.633 172.067 54.1063 172.44C54.5797 172.807 54.833 173.32 54.8663 173.98H53.0163C53.003 173.753 52.9197 173.577 52.7663 173.45C52.613 173.317 52.4163 173.25 52.1763 173.25C51.9697 173.25 51.803 173.307 51.6763 173.42C51.5497 173.527 51.4863 173.683 51.4863 173.89C51.4863 174.117 51.593 174.293 51.8063 174.42C52.0197 174.547 52.353 174.683 52.8063 174.83C53.2597 174.983 53.6263 175.13 53.9063 175.27C54.193 175.41 54.4397 175.613 54.6463 175.88C54.853 176.147 54.9563 176.49 54.9563 176.91C54.9563 177.31 54.853 177.673 54.6463 178C54.4463 178.327 54.153 178.587 53.7663 178.78C53.3797 178.973 52.923 179.07 52.3963 179.07Z" fill="#131313"/>
<path d="M87.952 238.091C87.3453 238.091 86.7993 237.987 86.314 237.779C85.8287 237.562 85.4473 237.259 85.17 236.869C84.8927 236.479 84.754 236.024 84.754 235.504H86.34C86.3747 235.894 86.5263 236.215 86.795 236.466C87.0723 236.717 87.458 236.843 87.952 236.843C88.4633 236.843 88.862 236.722 89.148 236.479C89.434 236.228 89.577 235.907 89.577 235.517C89.577 235.214 89.486 234.967 89.304 234.776C89.1307 234.585 88.9097 234.438 88.641 234.334C88.381 234.23 88.017 234.117 87.549 233.996C86.9597 233.84 86.4787 233.684 86.106 233.528C85.742 233.363 85.43 233.112 85.17 232.774C84.91 232.436 84.78 231.985 84.78 231.422C84.78 230.902 84.91 230.447 85.17 230.057C85.43 229.667 85.794 229.368 86.262 229.16C86.73 228.952 87.2717 228.848 87.887 228.848C88.7623 228.848 89.4773 229.069 90.032 229.511C90.5953 229.944 90.9073 230.542 90.968 231.305H89.33C89.304 230.976 89.148 230.694 88.862 230.46C88.576 230.226 88.199 230.109 87.731 230.109C87.3063 230.109 86.9597 230.217 86.691 230.434C86.4223 230.651 86.288 230.963 86.288 231.37C86.288 231.647 86.3703 231.877 86.535 232.059C86.7083 232.232 86.925 232.371 87.185 232.475C87.445 232.579 87.8003 232.692 88.251 232.813C88.849 232.978 89.3343 233.142 89.707 233.307C90.0883 233.472 90.409 233.727 90.669 234.074C90.9377 234.412 91.072 234.867 91.072 235.439C91.072 235.898 90.9463 236.332 90.695 236.739C90.4523 237.146 90.0927 237.476 89.616 237.727C89.148 237.97 88.5933 238.091 87.952 238.091ZM99.6077 230.837V238H98.1257V237.155C97.8917 237.45 97.584 237.684 97.2027 237.857C96.83 238.022 96.4314 238.104 96.0067 238.104C95.4434 238.104 94.9364 237.987 94.4857 237.753C94.0437 237.519 93.6927 237.172 93.4327 236.713C93.1814 236.254 93.0557 235.699 93.0557 235.049V230.837H94.5247V234.828C94.5247 235.469 94.685 235.963 95.0057 236.31C95.3264 236.648 95.764 236.817 96.3187 236.817C96.8734 236.817 97.311 236.648 97.6317 236.31C97.961 235.963 98.1257 235.469 98.1257 234.828V230.837H99.6077ZM110.534 230.72C111.097 230.72 111.6 230.837 112.042 231.071C112.493 231.305 112.844 231.652 113.095 232.111C113.355 232.57 113.485 233.125 113.485 233.775V238H112.016V233.996C112.016 233.355 111.856 232.865 111.535 232.527C111.214 232.18 110.777 232.007 110.222 232.007C109.667 232.007 109.225 232.18 108.896 232.527C108.575 232.865 108.415 233.355 108.415 233.996V238H106.946V233.996C106.946 233.355 106.786 232.865 106.465 232.527C106.144 232.18 105.707 232.007 105.152 232.007C104.597 232.007 104.155 232.18 103.826 232.527C103.505 232.865 103.345 233.355 103.345 233.996V238H101.863V230.837H103.345V231.656C103.588 231.361 103.895 231.132 104.268 230.967C104.641 230.802 105.039 230.72 105.464 230.72C106.036 230.72 106.547 230.841 106.998 231.084C107.449 231.327 107.795 231.678 108.038 232.137C108.255 231.704 108.593 231.361 109.052 231.11C109.511 230.85 110.005 230.72 110.534 230.72ZM124.342 230.72C124.905 230.72 125.408 230.837 125.85 231.071C126.301 231.305 126.652 231.652 126.903 232.111C127.163 232.57 127.293 233.125 127.293 233.775V238H125.824V233.996C125.824 233.355 125.664 232.865 125.343 232.527C125.022 232.18 124.585 232.007 124.03 232.007C123.475 232.007 123.033 232.18 122.704 232.527C122.383 232.865 122.223 233.355 122.223 233.996V238H120.754V233.996C120.754 233.355 120.594 232.865 120.273 232.527C119.952 232.18 119.515 232.007 118.96 232.007C118.405 232.007 117.963 232.18 117.634 232.527C117.313 232.865 117.153 233.355 117.153 233.996V238H115.671V230.837H117.153V231.656C117.396 231.361 117.703 231.132 118.076 230.967C118.449 230.802 118.847 230.72 119.272 230.72C119.844 230.72 120.355 230.841 120.806 231.084C121.257 231.327 121.603 231.678 121.846 232.137C122.063 231.704 122.401 231.361 122.86 231.11C123.319 230.85 123.813 230.72 124.342 230.72ZM128.985 234.386C128.985 233.667 129.132 233.03 129.427 232.475C129.73 231.92 130.137 231.491 130.649 231.188C131.169 230.876 131.741 230.72 132.365 230.72C132.928 230.72 133.418 230.833 133.834 231.058C134.258 231.275 134.596 231.548 134.848 231.877V230.837H136.343V238H134.848V236.934C134.596 237.272 134.254 237.554 133.821 237.779C133.387 238.004 132.893 238.117 132.339 238.117C131.723 238.117 131.16 237.961 130.649 237.649C130.137 237.328 129.73 236.886 129.427 236.323C129.132 235.751 128.985 235.105 128.985 234.386ZM134.848 234.412C134.848 233.918 134.744 233.489 134.536 233.125C134.336 232.761 134.072 232.484 133.743 232.293C133.413 232.102 133.058 232.007 132.677 232.007C132.295 232.007 131.94 232.102 131.611 232.293C131.281 232.475 131.013 232.748 130.805 233.112C130.605 233.467 130.506 233.892 130.506 234.386C130.506 234.88 130.605 235.313 130.805 235.686C131.013 236.059 131.281 236.345 131.611 236.544C131.949 236.735 132.304 236.83 132.677 236.83C133.058 236.83 133.413 236.735 133.743 236.544C134.072 236.353 134.336 236.076 134.536 235.712C134.744 235.339 134.848 234.906 134.848 234.412ZM140.071 231.877C140.288 231.513 140.574 231.231 140.929 231.032C141.293 230.824 141.722 230.72 142.216 230.72V232.254H141.839C141.259 232.254 140.817 232.401 140.513 232.696C140.219 232.991 140.071 233.502 140.071 234.23V238H138.589V230.837H140.071V231.877ZM150.327 230.837L145.933 241.367H144.399L145.855 237.883L143.034 230.837H144.685L146.7 236.297L148.793 230.837H150.327ZM157.244 232.67V233.918H151.901V232.67H157.244ZM162.756 238.117C162.08 238.117 161.469 237.965 160.923 237.662C160.377 237.35 159.948 236.917 159.636 236.362C159.324 235.799 159.168 235.149 159.168 234.412C159.168 233.684 159.329 233.038 159.649 232.475C159.97 231.912 160.408 231.478 160.962 231.175C161.517 230.872 162.137 230.72 162.821 230.72C163.506 230.72 164.126 230.872 164.68 231.175C165.235 231.478 165.673 231.912 165.993 232.475C166.314 233.038 166.474 233.684 166.474 234.412C166.474 235.14 166.31 235.786 165.98 236.349C165.651 236.912 165.2 237.35 164.628 237.662C164.065 237.965 163.441 238.117 162.756 238.117ZM162.756 236.83C163.138 236.83 163.493 236.739 163.822 236.557C164.16 236.375 164.433 236.102 164.641 235.738C164.849 235.374 164.953 234.932 164.953 234.412C164.953 233.892 164.854 233.454 164.654 233.099C164.455 232.735 164.191 232.462 163.861 232.28C163.532 232.098 163.177 232.007 162.795 232.007C162.414 232.007 162.059 232.098 161.729 232.28C161.409 232.462 161.153 232.735 160.962 233.099C160.772 233.454 160.676 233.892 160.676 234.412C160.676 235.183 160.871 235.781 161.261 236.206C161.66 236.622 162.158 236.83 162.756 236.83ZM171.242 232.046H169.916V238H168.421V232.046H167.576V230.837H168.421V230.33C168.421 229.507 168.638 228.909 169.071 228.536C169.513 228.155 170.202 227.964 171.138 227.964V229.199C170.688 229.199 170.371 229.286 170.189 229.459C170.007 229.624 169.916 229.914 169.916 230.33V230.837H171.242V232.046ZM178.355 232.67V233.918H173.012V232.67H178.355ZM182.242 231.89C182.494 231.561 182.836 231.283 183.269 231.058C183.703 230.833 184.192 230.72 184.738 230.72C185.362 230.72 185.93 230.876 186.441 231.188C186.961 231.491 187.369 231.92 187.663 232.475C187.958 233.03 188.105 233.667 188.105 234.386C188.105 235.105 187.958 235.751 187.663 236.323C187.369 236.886 186.961 237.328 186.441 237.649C185.93 237.961 185.362 238.117 184.738 238.117C184.192 238.117 183.707 238.009 183.282 237.792C182.858 237.567 182.511 237.289 182.242 236.96V241.406H180.76V230.837H182.242V231.89ZM186.597 234.386C186.597 233.892 186.493 233.467 186.285 233.112C186.086 232.748 185.817 232.475 185.479 232.293C185.15 232.102 184.795 232.007 184.413 232.007C184.041 232.007 183.685 232.102 183.347 232.293C183.018 232.484 182.749 232.761 182.541 233.125C182.342 233.489 182.242 233.918 182.242 234.412C182.242 234.906 182.342 235.339 182.541 235.712C182.749 236.076 183.018 236.353 183.347 236.544C183.685 236.735 184.041 236.83 184.413 236.83C184.795 236.83 185.15 236.735 185.479 236.544C185.817 236.345 186.086 236.059 186.285 235.686C186.493 235.313 186.597 234.88 186.597 234.386ZM193.576 230.72C194.122 230.72 194.607 230.837 195.032 231.071C195.465 231.305 195.803 231.652 196.046 232.111C196.297 232.57 196.423 233.125 196.423 233.775V238H194.954V233.996C194.954 233.355 194.794 232.865 194.473 232.527C194.152 232.18 193.715 232.007 193.16 232.007C192.605 232.007 192.163 232.18 191.834 232.527C191.513 232.865 191.353 233.355 191.353 233.996V238H189.871V228.38H191.353V231.669C191.604 231.366 191.921 231.132 192.302 230.967C192.692 230.802 193.117 230.72 193.576 230.72ZM200.095 231.89C200.347 231.561 200.689 231.283 201.122 231.058C201.556 230.833 202.045 230.72 202.591 230.72C203.215 230.72 203.783 230.876 204.294 231.188C204.814 231.491 205.222 231.92 205.516 232.475C205.811 233.03 205.958 233.667 205.958 234.386C205.958 235.105 205.811 235.751 205.516 236.323C205.222 236.886 204.814 237.328 204.294 237.649C203.783 237.961 203.215 238.117 202.591 238.117C202.045 238.117 201.56 238.009 201.135 237.792C200.711 237.567 200.364 237.289 200.095 236.96V241.406H198.613V230.837H200.095V231.89ZM204.45 234.386C204.45 233.892 204.346 233.467 204.138 233.112C203.939 232.748 203.67 232.475 203.332 232.293C203.003 232.102 202.648 232.007 202.266 232.007C201.894 232.007 201.538 232.102 201.2 232.293C200.871 232.484 200.602 232.761 200.394 233.125C200.195 233.489 200.095 233.918 200.095 234.412C200.095 234.906 200.195 235.339 200.394 235.712C200.602 236.076 200.871 236.353 201.2 236.544C201.538 236.735 201.894 236.83 202.266 236.83C202.648 236.83 203.003 236.735 203.332 236.544C203.67 236.345 203.939 236.059 204.138 235.686C204.346 235.313 204.45 234.88 204.45 234.386ZM208.322 238.091C208.053 238.091 207.828 238 207.646 237.818C207.464 237.636 207.373 237.411 207.373 237.142C207.373 236.873 207.464 236.648 207.646 236.466C207.828 236.284 208.053 236.193 208.322 236.193C208.582 236.193 208.803 236.284 208.985 236.466C209.167 236.648 209.258 236.873 209.258 237.142C209.258 237.411 209.167 237.636 208.985 237.818C208.803 238 208.582 238.091 208.322 238.091ZM210.666 234.386C210.666 233.667 210.813 233.03 211.108 232.475C211.411 231.92 211.818 231.491 212.33 231.188C212.85 230.876 213.426 230.72 214.059 230.72C214.527 230.72 214.986 230.824 215.437 231.032C215.896 231.231 216.26 231.5 216.529 231.838V228.38H218.024V238H216.529V236.921C216.286 237.268 215.948 237.554 215.515 237.779C215.09 238.004 214.6 238.117 214.046 238.117C213.422 238.117 212.85 237.961 212.33 237.649C211.818 237.328 211.411 236.886 211.108 236.323C210.813 235.751 210.666 235.105 210.666 234.386ZM216.529 234.412C216.529 233.918 216.425 233.489 216.217 233.125C216.017 232.761 215.753 232.484 215.424 232.293C215.094 232.102 214.739 232.007 214.358 232.007C213.976 232.007 213.621 232.102 213.292 232.293C212.962 232.475 212.694 232.748 212.486 233.112C212.286 233.467 212.187 233.892 212.187 234.386C212.187 234.88 212.286 235.313 212.486 235.686C212.694 236.059 212.962 236.345 213.292 236.544C213.63 236.735 213.985 236.83 214.358 236.83C214.739 236.83 215.094 236.735 215.424 236.544C215.753 236.353 216.017 236.076 216.217 235.712C216.425 235.339 216.529 234.906 216.529 234.412ZM223.377 238.117C222.701 238.117 222.09 237.965 221.544 237.662C220.998 237.35 220.569 236.917 220.257 236.362C219.945 235.799 219.789 235.149 219.789 234.412C219.789 233.684 219.949 233.038 220.27 232.475C220.591 231.912 221.028 231.478 221.583 231.175C222.138 230.872 222.757 230.72 223.442 230.72C224.127 230.72 224.746 230.872 225.301 231.175C225.856 231.478 226.293 231.912 226.614 232.475C226.935 233.038 227.095 233.684 227.095 234.412C227.095 235.14 226.93 235.786 226.601 236.349C226.272 236.912 225.821 237.35 225.249 237.662C224.686 237.965 224.062 238.117 223.377 238.117ZM223.377 236.83C223.758 236.83 224.114 236.739 224.443 236.557C224.781 236.375 225.054 236.102 225.262 235.738C225.47 235.374 225.574 234.932 225.574 234.412C225.574 233.892 225.474 233.454 225.275 233.099C225.076 232.735 224.811 232.462 224.482 232.28C224.153 232.098 223.797 232.007 223.416 232.007C223.035 232.007 222.679 232.098 222.35 232.28C222.029 232.462 221.774 232.735 221.583 233.099C221.392 233.454 221.297 233.892 221.297 234.412C221.297 235.183 221.492 235.781 221.882 236.206C222.281 236.622 222.779 236.83 223.377 236.83ZM228.366 234.412C228.366 233.675 228.513 233.03 228.808 232.475C229.111 231.912 229.527 231.478 230.056 231.175C230.585 230.872 231.191 230.72 231.876 230.72C232.743 230.72 233.458 230.928 234.021 231.344C234.593 231.751 234.979 232.336 235.178 233.099H233.579C233.449 232.744 233.241 232.466 232.955 232.267C232.669 232.068 232.309 231.968 231.876 231.968C231.269 231.968 230.784 232.185 230.42 232.618C230.065 233.043 229.887 233.641 229.887 234.412C229.887 235.183 230.065 235.786 230.42 236.219C230.784 236.652 231.269 236.869 231.876 236.869C232.734 236.869 233.302 236.492 233.579 235.738H235.178C234.97 236.466 234.58 237.047 234.008 237.48C233.436 237.905 232.725 238.117 231.876 238.117C231.191 238.117 230.585 237.965 230.056 237.662C229.527 237.35 229.111 236.917 228.808 236.362C228.513 235.799 228.366 235.149 228.366 234.412ZM240.023 234.373L242.337 238H240.66L239.113 235.569L237.657 238H236.11L238.424 234.477L236.11 230.837H237.787L239.334 233.268L240.79 230.837H242.337L240.023 234.373Z" fill="#9A9A9A"/>
<path opacity="0.5" d="M92.624 253.388V261H91.623V255.324L89.093 261H88.389L85.848 255.313V261H84.847V253.388H85.925L88.741 259.68L91.557 253.388H92.624ZM95.1386 253.993C94.9479 253.993 94.7866 253.927 94.6546 253.795C94.5226 253.663 94.4566 253.502 94.4566 253.311C94.4566 253.12 94.5226 252.959 94.6546 252.827C94.7866 252.695 94.9479 252.629 95.1386 252.629C95.3219 252.629 95.4759 252.695 95.6006 252.827C95.7326 252.959 95.7986 253.12 95.7986 253.311C95.7986 253.502 95.7326 253.663 95.6006 253.795C95.4759 253.927 95.3219 253.993 95.1386 253.993ZM95.6226 254.972V261H94.6216V254.972H95.6226ZM97.2546 257.975C97.2546 257.352 97.3793 256.809 97.6286 256.347C97.878 255.878 98.2226 255.515 98.6626 255.258C99.11 255.001 99.6196 254.873 100.192 254.873C100.932 254.873 101.541 255.053 102.018 255.412C102.502 255.771 102.821 256.27 102.975 256.908H101.897C101.794 256.541 101.592 256.252 101.292 256.039C100.998 255.826 100.632 255.72 100.192 255.72C99.6196 255.72 99.1576 255.918 98.8056 256.314C98.4536 256.703 98.2776 257.256 98.2776 257.975C98.2776 258.701 98.4536 259.262 98.8056 259.658C99.1576 260.054 99.6196 260.252 100.192 260.252C100.632 260.252 100.998 260.149 101.292 259.944C101.585 259.739 101.787 259.445 101.897 259.064H102.975C102.813 259.68 102.491 260.175 102.007 260.549C101.523 260.916 100.918 261.099 100.192 261.099C99.6196 261.099 99.11 260.971 98.6626 260.714C98.2226 260.457 97.878 260.094 97.6286 259.625C97.3793 259.156 97.2546 258.606 97.2546 257.975ZM105.611 255.951C105.787 255.606 106.037 255.339 106.359 255.148C106.689 254.957 107.089 254.862 107.558 254.862V255.896H107.294C106.172 255.896 105.611 256.505 105.611 257.722V261H104.61V254.972H105.611V255.951ZM111.643 261.099C111.078 261.099 110.565 260.971 110.103 260.714C109.648 260.457 109.289 260.094 109.025 259.625C108.768 259.148 108.64 258.598 108.64 257.975C108.64 257.359 108.772 256.816 109.036 256.347C109.307 255.87 109.674 255.507 110.136 255.258C110.598 255.001 111.115 254.873 111.687 254.873C112.259 254.873 112.776 255.001 113.238 255.258C113.7 255.507 114.063 255.867 114.327 256.336C114.598 256.805 114.734 257.352 114.734 257.975C114.734 258.598 114.594 259.148 114.316 259.625C114.044 260.094 113.674 260.457 113.205 260.714C112.735 260.971 112.215 261.099 111.643 261.099ZM111.643 260.219C112.002 260.219 112.339 260.135 112.655 259.966C112.97 259.797 113.223 259.544 113.414 259.207C113.612 258.87 113.711 258.459 113.711 257.975C113.711 257.491 113.615 257.08 113.425 256.743C113.234 256.406 112.985 256.156 112.677 255.995C112.369 255.826 112.035 255.742 111.676 255.742C111.309 255.742 110.972 255.826 110.664 255.995C110.363 256.156 110.121 256.406 109.938 256.743C109.754 257.08 109.663 257.491 109.663 257.975C109.663 258.466 109.751 258.881 109.927 259.218C110.11 259.555 110.352 259.808 110.653 259.977C110.953 260.138 111.283 260.219 111.643 260.219ZM118.484 261.099C118.022 261.099 117.608 261.022 117.241 260.868C116.874 260.707 116.585 260.487 116.372 260.208C116.159 259.922 116.042 259.596 116.02 259.229H117.054C117.083 259.53 117.223 259.775 117.472 259.966C117.729 260.157 118.062 260.252 118.473 260.252C118.854 260.252 119.155 260.168 119.375 259.999C119.595 259.83 119.705 259.618 119.705 259.361C119.705 259.097 119.588 258.903 119.353 258.778C119.118 258.646 118.755 258.518 118.264 258.393C117.817 258.276 117.45 258.158 117.164 258.041C116.885 257.916 116.643 257.737 116.438 257.502C116.24 257.26 116.141 256.945 116.141 256.556C116.141 256.248 116.233 255.966 116.416 255.709C116.599 255.452 116.86 255.251 117.197 255.104C117.534 254.95 117.919 254.873 118.352 254.873C119.019 254.873 119.558 255.042 119.969 255.379C120.38 255.716 120.6 256.178 120.629 256.765H119.628C119.606 256.45 119.478 256.197 119.243 256.006C119.016 255.815 118.708 255.72 118.319 255.72C117.96 255.72 117.674 255.797 117.461 255.951C117.248 256.105 117.142 256.307 117.142 256.556C117.142 256.754 117.204 256.919 117.329 257.051C117.461 257.176 117.622 257.278 117.813 257.359C118.011 257.432 118.282 257.517 118.627 257.612C119.06 257.729 119.412 257.847 119.683 257.964C119.954 258.074 120.185 258.243 120.376 258.47C120.574 258.697 120.677 258.994 120.684 259.361C120.684 259.691 120.592 259.988 120.409 260.252C120.226 260.516 119.965 260.725 119.628 260.879C119.298 261.026 118.917 261.099 118.484 261.099ZM125.026 261.099C124.461 261.099 123.948 260.971 123.486 260.714C123.031 260.457 122.672 260.094 122.408 259.625C122.151 259.148 122.023 258.598 122.023 257.975C122.023 257.359 122.155 256.816 122.419 256.347C122.69 255.87 123.057 255.507 123.519 255.258C123.981 255.001 124.498 254.873 125.07 254.873C125.642 254.873 126.159 255.001 126.621 255.258C127.083 255.507 127.446 255.867 127.71 256.336C127.981 256.805 128.117 257.352 128.117 257.975C128.117 258.598 127.978 259.148 127.699 259.625C127.428 260.094 127.057 260.457 126.588 260.714C126.119 260.971 125.598 261.099 125.026 261.099ZM125.026 260.219C125.385 260.219 125.723 260.135 126.038 259.966C126.353 259.797 126.606 259.544 126.797 259.207C126.995 258.87 127.094 258.459 127.094 257.975C127.094 257.491 126.999 257.08 126.808 256.743C126.617 256.406 126.368 256.156 126.06 255.995C125.752 255.826 125.418 255.742 125.059 255.742C124.692 255.742 124.355 255.826 124.047 255.995C123.746 256.156 123.504 256.406 123.321 256.743C123.138 257.08 123.046 257.491 123.046 257.975C123.046 258.466 123.134 258.881 123.31 259.218C123.493 259.555 123.735 259.808 124.036 259.977C124.337 260.138 124.667 260.219 125.026 260.219ZM132.186 255.797H130.921V261H129.92V255.797H129.139V254.972H129.92V254.543C129.92 253.868 130.092 253.377 130.437 253.069C130.789 252.754 131.35 252.596 132.12 252.596V253.432C131.68 253.432 131.368 253.52 131.185 253.696C131.009 253.865 130.921 254.147 130.921 254.543V254.972H132.186V255.797ZM134.874 255.797V259.35C134.874 259.643 134.937 259.852 135.061 259.977C135.186 260.094 135.402 260.153 135.71 260.153H136.447V261H135.545C134.988 261 134.57 260.872 134.291 260.615C134.013 260.358 133.873 259.937 133.873 259.35V255.797H133.092V254.972H133.873V253.454H134.874V254.972H136.447V255.797H134.874ZM150.829 253.333L148.607 261H147.485L145.703 254.829L143.855 261L142.744 261.011L140.599 253.333H141.666L143.338 259.834L145.186 253.333H146.308L148.068 259.812L149.751 253.333H150.829ZM154.853 261.099C154.288 261.099 153.775 260.971 153.313 260.714C152.858 260.457 152.499 260.094 152.235 259.625C151.978 259.148 151.85 258.598 151.85 257.975C151.85 257.359 151.982 256.816 152.246 256.347C152.517 255.87 152.884 255.507 153.346 255.258C153.808 255.001 154.325 254.873 154.897 254.873C155.469 254.873 155.986 255.001 156.448 255.258C156.91 255.507 157.273 255.867 157.537 256.336C157.808 256.805 157.944 257.352 157.944 257.975C157.944 258.598 157.805 259.148 157.526 259.625C157.255 260.094 156.884 260.457 156.415 260.714C155.946 260.971 155.425 261.099 154.853 261.099ZM154.853 260.219C155.212 260.219 155.55 260.135 155.865 259.966C156.18 259.797 156.433 259.544 156.624 259.207C156.822 258.87 156.921 258.459 156.921 257.975C156.921 257.491 156.826 257.08 156.635 256.743C156.444 256.406 156.195 256.156 155.887 255.995C155.579 255.826 155.245 255.742 154.886 255.742C154.519 255.742 154.182 255.826 153.874 255.995C153.573 256.156 153.331 256.406 153.148 256.743C152.965 257.08 152.873 257.491 152.873 257.975C152.873 258.466 152.961 258.881 153.137 259.218C153.32 259.555 153.562 259.808 153.863 259.977C154.164 260.138 154.494 260.219 154.853 260.219ZM160.561 255.951C160.737 255.606 160.987 255.339 161.309 255.148C161.639 254.957 162.039 254.862 162.508 254.862V255.896H162.244C161.122 255.896 160.561 256.505 160.561 257.722V261H159.56V254.972H160.561V255.951ZM163.59 257.964C163.59 257.348 163.714 256.809 163.964 256.347C164.213 255.878 164.554 255.515 164.987 255.258C165.427 255.001 165.918 254.873 166.461 254.873C166.93 254.873 167.366 254.983 167.77 255.203C168.173 255.416 168.481 255.698 168.694 256.05V252.86H169.706V261H168.694V259.867C168.496 260.226 168.202 260.523 167.814 260.758C167.425 260.985 166.97 261.099 166.45 261.099C165.914 261.099 165.427 260.967 164.987 260.703C164.554 260.439 164.213 260.069 163.964 259.592C163.714 259.115 163.59 258.573 163.59 257.964ZM168.694 257.975C168.694 257.52 168.602 257.124 168.419 256.787C168.235 256.45 167.986 256.193 167.671 256.017C167.363 255.834 167.022 255.742 166.648 255.742C166.274 255.742 165.933 255.83 165.625 256.006C165.317 256.182 165.071 256.439 164.888 256.776C164.704 257.113 164.613 257.509 164.613 257.964C164.613 258.426 164.704 258.829 164.888 259.174C165.071 259.511 165.317 259.772 165.625 259.955C165.933 260.131 166.274 260.219 166.648 260.219C167.022 260.219 167.363 260.131 167.671 259.955C167.986 259.772 168.235 259.511 168.419 259.174C168.602 258.829 168.694 258.43 168.694 257.975Z" fill="#9A9A9A"/>
<path d="M289.72 230.508C289.776 229.772 290.06 229.196 290.572 228.78C291.084 228.364 291.748 228.156 292.564 228.156C293.108 228.156 293.576 228.256 293.968 228.456C294.368 228.648 294.668 228.912 294.868 229.248C295.076 229.584 295.18 229.964 295.18 230.388C295.18 230.884 295.036 231.312 294.748 231.672C294.468 232.032 294.1 232.264 293.644 232.368V232.428C294.164 232.556 294.576 232.808 294.88 233.184C295.184 233.56 295.336 234.052 295.336 234.66C295.336 235.116 295.232 235.528 295.024 235.896C294.816 236.256 294.504 236.54 294.088 236.748C293.672 236.956 293.172 237.06 292.588 237.06C291.74 237.06 291.044 236.84 290.5 236.4C289.956 235.952 289.652 235.32 289.588 234.504H290.644C290.7 234.984 290.896 235.376 291.232 235.68C291.568 235.984 292.016 236.136 292.576 236.136C293.136 236.136 293.56 235.992 293.848 235.704C294.144 235.408 294.292 235.028 294.292 234.564C294.292 233.964 294.092 233.532 293.692 233.268C293.292 233.004 292.688 232.872 291.88 232.872H291.604V231.96H291.892C292.628 231.952 293.184 231.832 293.56 231.6C293.936 231.36 294.124 230.992 294.124 230.496C294.124 230.072 293.984 229.732 293.704 229.476C293.432 229.22 293.04 229.092 292.528 229.092C292.032 229.092 291.632 229.22 291.328 229.476C291.024 229.732 290.844 230.076 290.788 230.508H289.72ZM302.642 229.272H298.43V232.008C298.614 231.752 298.886 231.544 299.246 231.384C299.606 231.216 299.994 231.132 300.41 231.132C301.074 231.132 301.614 231.272 302.03 231.552C302.446 231.824 302.742 232.18 302.918 232.62C303.102 233.052 303.194 233.512 303.194 234C303.194 234.576 303.086 235.092 302.87 235.548C302.654 236.004 302.322 236.364 301.874 236.628C301.434 236.892 300.886 237.024 300.23 237.024C299.39 237.024 298.71 236.808 298.19 236.376C297.67 235.944 297.354 235.368 297.242 234.648H298.31C298.414 235.104 298.634 235.46 298.97 235.716C299.306 235.972 299.73 236.1 300.242 236.1C300.874 236.1 301.35 235.912 301.67 235.536C301.99 235.152 302.15 234.648 302.15 234.024C302.15 233.4 301.99 232.92 301.67 232.584C301.35 232.24 300.878 232.068 300.254 232.068C299.83 232.068 299.458 232.172 299.138 232.38C298.826 232.58 298.598 232.856 298.454 233.208H297.422V228.312H302.642V229.272ZM304.946 232.572C304.946 231.196 305.17 230.124 305.618 229.356C306.066 228.58 306.85 228.192 307.97 228.192C309.082 228.192 309.862 228.58 310.31 229.356C310.758 230.124 310.982 231.196 310.982 232.572C310.982 233.972 310.758 235.06 310.31 235.836C309.862 236.612 309.082 237 307.97 237C306.85 237 306.066 236.612 305.618 235.836C305.17 235.06 304.946 233.972 304.946 232.572ZM309.902 232.572C309.902 231.876 309.854 231.288 309.758 230.808C309.67 230.32 309.482 229.928 309.194 229.632C308.914 229.336 308.506 229.188 307.97 229.188C307.426 229.188 307.01 229.336 306.722 229.632C306.442 229.928 306.254 230.32 306.158 230.808C306.07 231.288 306.026 231.876 306.026 232.572C306.026 233.292 306.07 233.896 306.158 234.384C306.254 234.872 306.442 235.264 306.722 235.56C307.01 235.856 307.426 236.004 307.97 236.004C308.506 236.004 308.914 235.856 309.194 235.56C309.482 235.264 309.67 234.872 309.758 234.384C309.854 233.896 309.902 233.292 309.902 232.572ZM320.996 237L317.552 233.184V237H316.46V228.636H317.552V232.512L321.008 228.636H322.388L318.596 232.824L322.424 237H320.996ZM328.132 232.692C328.436 232.74 328.712 232.864 328.96 233.064C329.216 233.264 329.416 233.512 329.56 233.808C329.712 234.104 329.788 234.42 329.788 234.756C329.788 235.18 329.68 235.564 329.464 235.908C329.248 236.244 328.932 236.512 328.516 236.712C328.108 236.904 327.624 237 327.064 237H323.944V228.636H326.944C327.512 228.636 327.996 228.732 328.396 228.924C328.796 229.108 329.096 229.36 329.296 229.68C329.496 230 329.596 230.36 329.596 230.76C329.596 231.256 329.46 231.668 329.188 231.996C328.924 232.316 328.572 232.548 328.132 232.692ZM325.036 232.248H326.872C327.384 232.248 327.78 232.128 328.06 231.888C328.34 231.648 328.48 231.316 328.48 230.892C328.48 230.468 328.34 230.136 328.06 229.896C327.78 229.656 327.376 229.536 326.848 229.536H325.036V232.248ZM326.968 236.1C327.512 236.1 327.936 235.972 328.24 235.716C328.544 235.46 328.696 235.104 328.696 234.648C328.696 234.184 328.536 233.82 328.216 233.556C327.896 233.284 327.468 233.148 326.932 233.148H325.036V236.1H326.968Z" fill="#9A9A9A"/>
<path d="M374.624 228.66C375.512 228.66 376.288 228.832 376.952 229.176C377.624 229.512 378.14 230 378.5 230.64C378.868 231.272 379.052 232.012 379.052 232.86C379.052 233.708 378.868 234.444 378.5 235.068C378.14 235.692 377.624 236.172 376.952 236.508C376.288 236.836 375.512 237 374.624 237H371.9V228.66H374.624ZM374.624 235.884C375.6 235.884 376.348 235.62 376.868 235.092C377.388 234.564 377.648 233.82 377.648 232.86C377.648 231.892 377.388 231.136 376.868 230.592C376.348 230.048 375.6 229.776 374.624 229.776H373.268V235.884H374.624ZM383.576 237.108C382.952 237.108 382.388 236.968 381.884 236.688C381.38 236.4 380.984 236 380.696 235.488C380.408 234.968 380.264 234.368 380.264 233.688C380.264 233.016 380.412 232.42 380.708 231.9C381.004 231.38 381.408 230.98 381.92 230.7C382.432 230.42 383.004 230.28 383.636 230.28C384.268 230.28 384.84 230.42 385.352 230.7C385.864 230.98 386.268 231.38 386.564 231.9C386.86 232.42 387.008 233.016 387.008 233.688C387.008 234.36 386.856 234.956 386.552 235.476C386.248 235.996 385.832 236.4 385.304 236.688C384.784 236.968 384.208 237.108 383.576 237.108ZM383.576 235.92C383.928 235.92 384.256 235.836 384.56 235.668C384.872 235.5 385.124 235.248 385.316 234.912C385.508 234.576 385.604 234.168 385.604 233.688C385.604 233.208 385.512 232.804 385.328 232.476C385.144 232.14 384.9 231.888 384.596 231.72C384.292 231.552 383.964 231.468 383.612 231.468C383.26 231.468 382.932 231.552 382.628 231.72C382.332 231.888 382.096 232.14 381.92 232.476C381.744 232.804 381.656 233.208 381.656 233.688C381.656 234.4 381.836 234.952 382.196 235.344C382.564 235.728 383.024 235.92 383.576 235.92ZM397.54 230.388L395.488 237H394.048L392.716 232.116L391.384 237H389.944L387.88 230.388H389.272L390.652 235.704L392.056 230.388H393.484L394.828 235.68L396.196 230.388H397.54ZM402.198 230.28C402.718 230.28 403.182 230.388 403.59 230.604C404.006 230.82 404.33 231.14 404.562 231.564C404.795 231.988 404.911 232.5 404.911 233.1V237H403.554V233.304C403.554 232.712 403.406 232.26 403.11 231.948C402.814 231.628 402.41 231.468 401.898 231.468C401.386 231.468 400.978 231.628 400.674 231.948C400.378 232.26 400.23 232.712 400.23 233.304V237H398.862V230.388H400.23V231.144C400.454 230.872 400.738 230.66 401.082 230.508C401.434 230.356 401.806 230.28 402.198 230.28ZM408.323 228.12V237H406.955V228.12H408.323ZM413.288 237.108C412.664 237.108 412.1 236.968 411.596 236.688C411.092 236.4 410.696 236 410.408 235.488C410.12 234.968 409.976 234.368 409.976 233.688C409.976 233.016 410.124 232.42 410.42 231.9C410.716 231.38 411.12 230.98 411.632 230.7C412.144 230.42 412.716 230.28 413.348 230.28C413.98 230.28 414.552 230.42 415.064 230.7C415.576 230.98 415.98 231.38 416.276 231.9C416.572 232.42 416.72 233.016 416.72 233.688C416.72 234.36 416.568 234.956 416.264 235.476C415.96 235.996 415.544 236.4 415.016 236.688C414.496 236.968 413.92 237.108 413.288 237.108ZM413.288 235.92C413.64 235.92 413.968 235.836 414.272 235.668C414.584 235.5 414.836 235.248 415.028 234.912C415.22 234.576 415.316 234.168 415.316 233.688C415.316 233.208 415.224 232.804 415.04 232.476C414.856 232.14 414.612 231.888 414.308 231.72C414.004 231.552 413.676 231.468 413.324 231.468C412.972 231.468 412.644 231.552 412.34 231.72C412.044 231.888 411.808 232.14 411.632 232.476C411.456 232.804 411.368 233.208 411.368 233.688C411.368 234.4 411.548 234.952 411.908 235.344C412.276 235.728 412.736 235.92 413.288 235.92ZM417.916 233.664C417.916 233 418.052 232.412 418.324 231.9C418.604 231.388 418.98 230.992 419.452 230.712C419.932 230.424 420.46 230.28 421.036 230.28C421.556 230.28 422.008 230.384 422.392 230.592C422.784 230.792 423.096 231.044 423.328 231.348V230.388H424.708V237H423.328V236.016C423.096 236.328 422.78 236.588 422.38 236.796C421.98 237.004 421.524 237.108 421.012 237.108C420.444 237.108 419.924 236.964 419.452 236.676C418.98 236.38 418.604 235.972 418.324 235.452C418.052 234.924 417.916 234.328 417.916 233.664ZM423.328 233.688C423.328 233.232 423.232 232.836 423.04 232.5C422.856 232.164 422.612 231.908 422.308 231.732C422.004 231.556 421.676 231.468 421.324 231.468C420.972 231.468 420.644 231.556 420.34 231.732C420.036 231.9 419.788 232.152 419.596 232.488C419.412 232.816 419.32 233.208 419.32 233.664C419.32 234.12 419.412 234.52 419.596 234.864C419.788 235.208 420.036 235.472 420.34 235.656C420.652 235.832 420.98 235.92 421.324 235.92C421.676 235.92 422.004 235.832 422.308 235.656C422.612 235.48 422.856 235.224 423.04 234.888C423.232 234.544 423.328 234.144 423.328 233.688ZM426.349 233.664C426.349 233 426.485 232.412 426.757 231.9C427.037 231.388 427.413 230.992 427.885 230.712C428.365 230.424 428.897 230.28 429.481 230.28C429.913 230.28 430.337 230.376 430.753 230.568C431.177 230.752 431.513 231 431.761 231.312V228.12H433.141V237H431.761V236.004C431.537 236.324 431.225 236.588 430.825 236.796C430.433 237.004 429.981 237.108 429.469 237.108C428.893 237.108 428.365 236.964 427.885 236.676C427.413 236.38 427.037 235.972 426.757 235.452C426.485 234.924 426.349 234.328 426.349 233.664ZM431.761 233.688C431.761 233.232 431.665 232.836 431.473 232.5C431.289 232.164 431.045 231.908 430.741 231.732C430.437 231.556 430.109 231.468 429.757 231.468C429.405 231.468 429.077 231.556 428.773 231.732C428.469 231.9 428.221 232.152 428.029 232.488C427.845 232.816 427.753 233.208 427.753 233.664C427.753 234.12 427.845 234.52 428.029 234.864C428.221 235.208 428.469 235.472 428.773 235.656C429.085 235.832 429.413 235.92 429.757 235.92C430.109 235.92 430.437 235.832 430.741 235.656C431.045 235.48 431.289 235.224 431.473 234.888C431.665 234.544 431.761 234.144 431.761 233.688Z" fill="#F5F5F5"/>
<path d="M31.6667 215H49.31C50.194 215 51.0417 215.352 51.6667 215.977L64.0233 228.333C64.6485 228.958 64.9998 229.806 65 230.69V261.667C65 263.435 64.2976 265.13 63.0474 266.381C61.7971 267.631 60.1014 268.333 58.3333 268.333H31.6667C29.8986 268.333 28.2029 267.631 26.9526 266.381C25.7024 265.13 25 263.435 25 261.667V221.667C25 219.899 25.7024 218.203 26.9526 216.953C28.2029 215.702 29.8986 215 31.6667 215V215ZM50 220V226.667C50 227.551 50.3512 228.399 50.9763 229.024C51.6014 229.649 52.4493 230 53.3333 230H60L50 220Z" fill="#CFCFCF"/>
<path d="M32.42 251.08C32.12 251.08 31.8733 250.993 31.68 250.82C31.4933 250.64 31.4 250.42 31.4 250.16C31.4 249.893 31.4933 249.67 31.68 249.49C31.8733 249.31 32.12 249.22 32.42 249.22C32.7133 249.22 32.9533 249.31 33.14 249.49C33.3333 249.67 33.43 249.893 33.43 250.16C33.43 250.42 33.3333 250.64 33.14 250.82C32.9533 250.993 32.7133 251.08 32.42 251.08ZM37.5723 243.98C38.3123 243.98 38.9589 244.127 39.5123 244.42C40.0656 244.713 40.4923 245.127 40.7923 245.66C41.0989 246.187 41.2523 246.797 41.2523 247.49C41.2523 248.177 41.0989 248.787 40.7923 249.32C40.4923 249.853 40.0623 250.267 39.5023 250.56C38.9489 250.853 38.3056 251 37.5723 251H34.9423V243.98H37.5723ZM37.4623 249.52C38.1089 249.52 38.6123 249.343 38.9723 248.99C39.3323 248.637 39.5123 248.137 39.5123 247.49C39.5123 246.843 39.3323 246.34 38.9723 245.98C38.6123 245.62 38.1089 245.44 37.4623 245.44H36.6523V249.52H37.4623ZM46.0279 251.07C45.3679 251.07 44.7612 250.917 44.2079 250.61C43.6612 250.303 43.2246 249.877 42.8979 249.33C42.5779 248.777 42.4179 248.157 42.4179 247.47C42.4179 246.783 42.5779 246.167 42.8979 245.62C43.2246 245.073 43.6612 244.647 44.2079 244.34C44.7612 244.033 45.3679 243.88 46.0279 243.88C46.6879 243.88 47.2912 244.033 47.8379 244.34C48.3912 244.647 48.8246 245.073 49.1379 245.62C49.4579 246.167 49.6179 246.783 49.6179 247.47C49.6179 248.157 49.4579 248.777 49.1379 249.33C48.8179 249.877 48.3846 250.303 47.8379 250.61C47.2912 250.917 46.6879 251.07 46.0279 251.07ZM46.0279 249.51C46.5879 249.51 47.0346 249.323 47.3679 248.95C47.7079 248.577 47.8779 248.083 47.8779 247.47C47.8779 246.85 47.7079 246.357 47.3679 245.99C47.0346 245.617 46.5879 245.43 46.0279 245.43C45.4612 245.43 45.0079 245.613 44.6679 245.98C44.3346 246.347 44.1679 246.843 44.1679 247.47C44.1679 248.09 44.3346 248.587 44.6679 248.96C45.0079 249.327 45.4612 249.51 46.0279 249.51ZM50.7792 247.48C50.7792 246.787 50.9292 246.17 51.2292 245.63C51.5292 245.083 51.9459 244.66 52.4792 244.36C53.0192 244.053 53.6292 243.9 54.3092 243.9C55.1426 243.9 55.8559 244.12 56.4492 244.56C57.0426 245 57.4392 245.6 57.6392 246.36H55.7592C55.6192 246.067 55.4192 245.843 55.1592 245.69C54.9059 245.537 54.6159 245.46 54.2892 245.46C53.7626 245.46 53.3359 245.643 53.0092 246.01C52.6826 246.377 52.5192 246.867 52.5192 247.48C52.5192 248.093 52.6826 248.583 53.0092 248.95C53.3359 249.317 53.7626 249.5 54.2892 249.5C54.6159 249.5 54.9059 249.423 55.1592 249.27C55.4192 249.117 55.6192 248.893 55.7592 248.6H57.6392C57.4392 249.36 57.0426 249.96 56.4492 250.4C55.8559 250.833 55.1426 251.05 54.3092 251.05C53.6292 251.05 53.0192 250.9 52.4792 250.6C51.9459 250.293 51.5292 249.87 51.2292 249.33C50.9292 248.79 50.7792 248.173 50.7792 247.48Z" fill="#131313"/>
</svg>
