<svg width="281" height="294" viewBox="0 0 281 294" fill="none" xmlns="http://www.w3.org/2000/svg">
<rect width="281" height="294" rx="8" fill="#131313"/>
<path d="M35.86 34.575V35.97H33.085V45H31.375V35.97H28.585V34.575H35.86ZM41.4768 45.135C40.6968 45.135 39.9918 44.96 39.3618 44.61C38.7318 44.25 38.2368 43.75 37.8768 43.11C37.5168 42.46 37.3368 41.71 37.3368 40.86C37.3368 40.02 37.5218 39.275 37.8918 38.625C38.2618 37.975 38.7668 37.475 39.4068 37.125C40.0468 36.775 40.7618 36.6 41.5518 36.6C42.3418 36.6 43.0568 36.775 43.6968 37.125C44.3368 37.475 44.8418 37.975 45.2118 38.625C45.5818 39.275 45.7668 40.02 45.7668 40.86C45.7668 41.7 45.5768 42.445 45.1968 43.095C44.8168 43.745 44.2968 44.25 43.6368 44.61C42.9868 44.96 42.2668 45.135 41.4768 45.135ZM41.4768 43.65C41.9168 43.65 42.3268 43.545 42.7068 43.335C43.0968 43.125 43.4118 42.81 43.6518 42.39C43.8918 41.97 44.0118 41.46 44.0118 40.86C44.0118 40.26 43.8968 39.755 43.6668 39.345C43.4368 38.925 43.1318 38.61 42.7518 38.4C42.3718 38.19 41.9618 38.085 41.5218 38.085C41.0818 38.085 40.6718 38.19 40.2918 38.4C39.9218 38.61 39.6268 38.925 39.4068 39.345C39.1868 39.755 39.0768 40.26 39.0768 40.86C39.0768 41.75 39.3018 42.44 39.7518 42.93C40.2118 43.41 40.7868 43.65 41.4768 43.65ZM51.3837 40.83C51.3837 40 51.5537 39.265 51.8937 38.625C52.2437 37.985 52.7137 37.49 53.3037 37.14C53.9037 36.78 54.5687 36.6 55.2987 36.6C55.8387 36.6 56.3687 36.72 56.8887 36.96C57.4187 37.19 57.8387 37.5 58.1487 37.89V33.9H59.8737V45H58.1487V43.755C57.8687 44.155 57.4787 44.485 56.9787 44.745C56.4887 45.005 55.9237 45.135 55.2837 45.135C54.5637 45.135 53.9037 44.955 53.3037 44.595C52.7137 44.225 52.2437 43.715 51.8937 43.065C51.5537 42.405 51.3837 41.66 51.3837 40.83ZM58.1487 40.86C58.1487 40.29 58.0287 39.795 57.7887 39.375C57.5587 38.955 57.2537 38.635 56.8737 38.415C56.4937 38.195 56.0837 38.085 55.6437 38.085C55.2037 38.085 54.7937 38.195 54.4137 38.415C54.0337 38.625 53.7237 38.94 53.4837 39.36C53.2537 39.77 53.1387 40.26 53.1387 40.83C53.1387 41.4 53.2537 41.9 53.4837 42.33C53.7237 42.76 54.0337 43.09 54.4137 43.32C54.8037 43.54 55.2137 43.65 55.6437 43.65C56.0837 43.65 56.4937 43.54 56.8737 43.32C57.2537 43.1 57.5587 42.78 57.7887 42.36C58.0287 41.93 58.1487 41.43 58.1487 40.86ZM66.0047 45.135C65.2247 45.135 64.5197 44.96 63.8897 44.61C63.2597 44.25 62.7647 43.75 62.4047 43.11C62.0447 42.46 61.8647 41.71 61.8647 40.86C61.8647 40.02 62.0497 39.275 62.4197 38.625C62.7897 37.975 63.2947 37.475 63.9347 37.125C64.5747 36.775 65.2897 36.6 66.0797 36.6C66.8697 36.6 67.5847 36.775 68.2247 37.125C68.8647 37.475 69.3697 37.975 69.7397 38.625C70.1097 39.275 70.2947 40.02 70.2947 40.86C70.2947 41.7 70.1047 42.445 69.7247 43.095C69.3447 43.745 68.8247 44.25 68.1647 44.61C67.5147 44.96 66.7947 45.135 66.0047 45.135ZM66.0047 43.65C66.4447 43.65 66.8547 43.545 67.2347 43.335C67.6247 43.125 67.9397 42.81 68.1797 42.39C68.4197 41.97 68.5397 41.46 68.5397 40.86C68.5397 40.26 68.4247 39.755 68.1947 39.345C67.9647 38.925 67.6597 38.61 67.2797 38.4C66.8997 38.19 66.4897 38.085 66.0497 38.085C65.6097 38.085 65.1997 38.19 64.8197 38.4C64.4497 38.61 64.1547 38.925 63.9347 39.345C63.7147 39.755 63.6047 40.26 63.6047 40.86C63.6047 41.75 63.8297 42.44 64.2797 42.93C64.7397 43.41 65.3147 43.65 66.0047 43.65ZM78.1916 43.62H81.7166V45H76.4816V34.575H78.1916V43.62ZM84.3167 35.64C84.0067 35.64 83.7467 35.535 83.5367 35.325C83.3267 35.115 83.2217 34.855 83.2217 34.545C83.2217 34.235 83.3267 33.975 83.5367 33.765C83.7467 33.555 84.0067 33.45 84.3167 33.45C84.6167 33.45 84.8717 33.555 85.0817 33.765C85.2917 33.975 85.3967 34.235 85.3967 34.545C85.3967 34.855 85.2917 35.115 85.0817 35.325C84.8717 35.535 84.6167 35.64 84.3167 35.64ZM85.1567 36.735V45H83.4467V36.735H85.1567ZM90.7018 45.135C90.0518 45.135 89.4668 45.02 88.9468 44.79C88.4368 44.55 88.0318 44.23 87.7318 43.83C87.4318 43.42 87.2718 42.965 87.2518 42.465H89.0218C89.0518 42.815 89.2168 43.11 89.5168 43.35C89.8268 43.58 90.2118 43.695 90.6718 43.695C91.1518 43.695 91.5218 43.605 91.7818 43.425C92.0518 43.235 92.1868 42.995 92.1868 42.705C92.1868 42.395 92.0368 42.165 91.7368 42.015C91.4468 41.865 90.9818 41.7 90.3418 41.52C89.7218 41.35 89.2168 41.185 88.8268 41.025C88.4368 40.865 88.0968 40.62 87.8068 40.29C87.5268 39.96 87.3868 39.525 87.3868 38.985C87.3868 38.545 87.5168 38.145 87.7768 37.785C88.0368 37.415 88.4068 37.125 88.8868 36.915C89.3768 36.705 89.9368 36.6 90.5668 36.6C91.5068 36.6 92.2618 36.84 92.8318 37.32C93.4118 37.79 93.7218 38.435 93.7618 39.255H92.0518C92.0218 38.885 91.8718 38.59 91.6018 38.37C91.3318 38.15 90.9668 38.04 90.5068 38.04C90.0568 38.04 89.7118 38.125 89.4718 38.295C89.2318 38.465 89.1118 38.69 89.1118 38.97C89.1118 39.19 89.1918 39.375 89.3518 39.525C89.5118 39.675 89.7068 39.795 89.9368 39.885C90.1668 39.965 90.5068 40.07 90.9568 40.2C91.5568 40.36 92.0468 40.525 92.4268 40.695C92.8168 40.855 93.1518 41.095 93.4318 41.415C93.7118 41.735 93.8568 42.16 93.8668 42.69C93.8668 43.16 93.7368 43.58 93.4768 43.95C93.2168 44.32 92.8468 44.61 92.3668 44.82C91.8968 45.03 91.3418 45.135 90.7018 45.135ZM98.0095 38.13V42.705C98.0095 43.015 98.0795 43.24 98.2195 43.38C98.3695 43.51 98.6195 43.575 98.9695 43.575H100.019V45H98.6695C97.8995 45 97.3095 44.82 96.8995 44.46C96.4895 44.1 96.2845 43.515 96.2845 42.705V38.13H95.3095V36.735H96.2845V34.68H98.0095V36.735H100.019V38.13H98.0095Z" fill="#9A9A9A"/>
<path opacity="0.7" d="M71.926 71.965C72.888 71.965 73.7287 72.1513 74.448 72.524C75.176 72.888 75.735 73.4167 76.125 74.11C76.5237 74.7947 76.723 75.5963 76.723 76.515C76.723 77.4337 76.5237 78.231 76.125 78.907C75.735 79.583 75.176 80.103 74.448 80.467C73.7287 80.8223 72.888 81 71.926 81H68.975V71.965H71.926ZM71.926 79.791C72.9833 79.791 73.7937 79.505 74.357 78.933C74.9203 78.361 75.202 77.555 75.202 76.515C75.202 75.4663 74.9203 74.6473 74.357 74.058C73.7937 73.4687 72.9833 73.174 71.926 73.174H70.457V79.791H71.926ZM85.2568 77.243C85.2568 77.5117 85.2395 77.7543 85.2048 77.971H79.7318C79.7751 78.543 79.9875 79.0023 80.3688 79.349C80.7501 79.6957 81.2181 79.869 81.7728 79.869C82.5701 79.869 83.1335 79.5353 83.4628 78.868H85.0618C84.8451 79.5267 84.4508 80.0683 83.8788 80.493C83.3155 80.909 82.6135 81.117 81.7728 81.117C81.0881 81.117 80.4728 80.9653 79.9268 80.662C79.3895 80.35 78.9648 79.9167 78.6528 79.362C78.3495 78.7987 78.1978 78.1487 78.1978 77.412C78.1978 76.6753 78.3451 76.0297 78.6398 75.475C78.9431 74.9117 79.3635 74.4783 79.9008 74.175C80.4468 73.8717 81.0708 73.72 81.7728 73.72C82.4488 73.72 83.0511 73.8673 83.5798 74.162C84.1085 74.4567 84.5201 74.8727 84.8148 75.41C85.1095 75.9387 85.2568 76.5497 85.2568 77.243ZM83.7098 76.775C83.7011 76.229 83.5061 75.7913 83.1248 75.462C82.7435 75.1327 82.2711 74.968 81.7078 74.968C81.1965 74.968 80.7588 75.1327 80.3948 75.462C80.0308 75.7827 79.8141 76.2203 79.7448 76.775H83.7098ZM88.6972 74.89C88.9486 74.5607 89.2909 74.2833 89.7242 74.058C90.1576 73.8327 90.6472 73.72 91.1932 73.72C91.8172 73.72 92.3849 73.876 92.8962 74.188C93.4162 74.4913 93.8236 74.9203 94.1182 75.475C94.4129 76.0297 94.5602 76.6667 94.5602 77.386C94.5602 78.1053 94.4129 78.751 94.1182 79.323C93.8236 79.8863 93.4162 80.3283 92.8962 80.649C92.3849 80.961 91.8172 81.117 91.1932 81.117C90.6472 81.117 90.1619 81.0087 89.7372 80.792C89.3126 80.5667 88.9659 80.2893 88.6972 79.96V84.406H87.2152V73.837H88.6972V74.89ZM93.0522 77.386C93.0522 76.892 92.9482 76.4673 92.7402 76.112C92.5409 75.748 92.2722 75.475 91.9342 75.293C91.6049 75.1023 91.2496 75.007 90.8682 75.007C90.4956 75.007 90.1402 75.1023 89.8022 75.293C89.4729 75.4837 89.2042 75.761 88.9962 76.125C88.7969 76.489 88.6972 76.918 88.6972 77.412C88.6972 77.906 88.7969 78.3393 88.9962 78.712C89.2042 79.076 89.4729 79.3533 89.8022 79.544C90.1402 79.7347 90.4956 79.83 90.8682 79.83C91.2496 79.83 91.6049 79.7347 91.9342 79.544C92.2722 79.3447 92.5409 79.0587 92.7402 78.686C92.9482 78.3133 93.0522 77.88 93.0522 77.386ZM98.0078 71.38V81H96.5258V71.38H98.0078ZM103.561 81.117C102.885 81.117 102.274 80.9653 101.728 80.662C101.182 80.35 100.753 79.9167 100.441 79.362C100.129 78.7987 99.9725 78.1487 99.9725 77.412C99.9725 76.684 100.133 76.0383 100.454 75.475C100.774 74.9117 101.212 74.4783 101.767 74.175C102.321 73.8717 102.941 73.72 103.626 73.72C104.31 73.72 104.93 73.8717 105.485 74.175C106.039 74.4783 106.477 74.9117 106.798 75.475C107.118 76.0383 107.279 76.684 107.279 77.412C107.279 78.14 107.114 78.7857 106.785 79.349C106.455 79.9123 106.005 80.35 105.433 80.662C104.869 80.9653 104.245 81.117 103.561 81.117ZM103.561 79.83C103.942 79.83 104.297 79.739 104.627 79.557C104.965 79.375 105.238 79.102 105.446 78.738C105.654 78.374 105.758 77.932 105.758 77.412C105.758 76.892 105.658 76.4543 105.459 76.099C105.259 75.735 104.995 75.462 104.666 75.28C104.336 75.098 103.981 75.007 103.6 75.007C103.218 75.007 102.863 75.098 102.534 75.28C102.213 75.462 101.957 75.735 101.767 76.099C101.576 76.4543 101.481 76.892 101.481 77.412C101.481 78.1833 101.676 78.7813 102.066 79.206C102.464 79.622 102.963 79.83 103.561 79.83ZM115.692 73.837L111.298 84.367H109.764L111.22 80.883L108.399 73.837H110.05L112.065 79.297L114.158 73.837H115.692ZM130.807 73.837L128.584 81H127.024L125.581 75.709L124.138 81H122.578L120.342 73.837H121.85L123.345 79.596L124.866 73.837H126.413L127.869 79.57L129.351 73.837H130.807ZM133.168 72.888C132.9 72.888 132.674 72.797 132.492 72.615C132.31 72.433 132.219 72.2077 132.219 71.939C132.219 71.6703 132.31 71.445 132.492 71.263C132.674 71.081 132.9 70.99 133.168 70.99C133.428 70.99 133.649 71.081 133.831 71.263C134.013 71.445 134.104 71.6703 134.104 71.939C134.104 72.2077 134.013 72.433 133.831 72.615C133.649 72.797 133.428 72.888 133.168 72.888ZM133.896 73.837V81H132.414V73.837H133.896ZM138.071 75.046V79.011C138.071 79.2797 138.132 79.4747 138.253 79.596C138.383 79.7087 138.6 79.765 138.903 79.765H139.813V81H138.643C137.976 81 137.465 80.844 137.109 80.532C136.754 80.22 136.576 79.713 136.576 79.011V75.046H135.731V73.837H136.576V72.056H138.071V73.837H139.813V75.046H138.071ZM145.384 73.72C145.93 73.72 146.415 73.837 146.84 74.071C147.273 74.305 147.611 74.6517 147.854 75.111C148.105 75.5703 148.231 76.125 148.231 76.775V81H146.762V76.996C146.762 76.3547 146.602 75.865 146.281 75.527C145.96 75.1803 145.523 75.007 144.968 75.007C144.413 75.007 143.971 75.1803 143.642 75.527C143.321 75.865 143.161 76.3547 143.161 76.996V81H141.679V71.38H143.161V74.669C143.412 74.3657 143.729 74.1317 144.11 73.967C144.5 73.8023 144.925 73.72 145.384 73.72ZM159.815 71.965V73.174H155.98V75.839H158.97V77.048H155.98V81H154.498V71.965H159.815ZM162.443 72.888C162.174 72.888 161.949 72.797 161.767 72.615C161.585 72.433 161.494 72.2077 161.494 71.939C161.494 71.6703 161.585 71.445 161.767 71.263C161.949 71.081 162.174 70.99 162.443 70.99C162.703 70.99 162.924 71.081 163.106 71.263C163.288 71.445 163.379 71.6703 163.379 71.939C163.379 72.2077 163.288 72.433 163.106 72.615C162.924 72.797 162.703 72.888 162.443 72.888ZM163.171 73.837V81H161.689V73.837H163.171ZM167.099 74.877C167.315 74.513 167.601 74.2313 167.957 74.032C168.321 73.824 168.75 73.72 169.244 73.72V75.254H168.867C168.286 75.254 167.844 75.4013 167.541 75.696C167.246 75.9907 167.099 76.502 167.099 77.23V81H165.617V73.837H167.099V74.877ZM177.671 77.243C177.671 77.5117 177.654 77.7543 177.619 77.971H172.146C172.189 78.543 172.402 79.0023 172.783 79.349C173.164 79.6957 173.632 79.869 174.187 79.869C174.984 79.869 175.548 79.5353 175.877 78.868H177.476C177.259 79.5267 176.865 80.0683 176.293 80.493C175.73 80.909 175.028 81.117 174.187 81.117C173.502 81.117 172.887 80.9653 172.341 80.662C171.804 80.35 171.379 79.9167 171.067 79.362C170.764 78.7987 170.612 78.1487 170.612 77.412C170.612 76.6753 170.759 76.0297 171.054 75.475C171.357 74.9117 171.778 74.4783 172.315 74.175C172.861 73.8717 173.485 73.72 174.187 73.72C174.863 73.72 175.465 73.8673 175.994 74.162C176.523 74.4567 176.934 74.8727 177.229 75.41C177.524 75.9387 177.671 76.5497 177.671 77.243ZM176.124 76.775C176.115 76.229 175.92 75.7913 175.539 75.462C175.158 75.1327 174.685 74.968 174.122 74.968C173.611 74.968 173.173 75.1327 172.809 75.462C172.445 75.7827 172.228 76.2203 172.159 76.775H176.124ZM181.111 74.903C181.363 74.5563 181.705 74.2747 182.138 74.058C182.58 73.8327 183.07 73.72 183.607 73.72C184.24 73.72 184.812 73.8717 185.323 74.175C185.835 74.4783 186.238 74.9117 186.532 75.475C186.827 76.0297 186.974 76.6667 186.974 77.386C186.974 78.1053 186.827 78.751 186.532 79.323C186.238 79.8863 185.83 80.3283 185.31 80.649C184.799 80.961 184.231 81.117 183.607 81.117C183.053 81.117 182.559 81.0087 182.125 80.792C181.701 80.5753 181.363 80.298 181.111 79.96V81H179.629V71.38H181.111V74.903ZM185.466 77.386C185.466 76.892 185.362 76.4673 185.154 76.112C184.955 75.748 184.686 75.475 184.348 75.293C184.019 75.1023 183.664 75.007 183.282 75.007C182.91 75.007 182.554 75.1023 182.216 75.293C181.887 75.4837 181.618 75.761 181.41 76.125C181.211 76.489 181.111 76.918 181.111 77.412C181.111 77.906 181.211 78.3393 181.41 78.712C181.618 79.076 181.887 79.3533 182.216 79.544C182.554 79.7347 182.91 79.83 183.282 79.83C183.664 79.83 184.019 79.7347 184.348 79.544C184.686 79.3447 184.955 79.0587 185.154 78.686C185.362 78.3133 185.466 77.88 185.466 77.386ZM188.446 77.386C188.446 76.6667 188.593 76.0297 188.888 75.475C189.191 74.9203 189.599 74.4913 190.11 74.188C190.63 73.876 191.202 73.72 191.826 73.72C192.389 73.72 192.879 73.8327 193.295 74.058C193.72 74.2747 194.058 74.5477 194.309 74.877V73.837H195.804V81H194.309V79.934C194.058 80.272 193.715 80.5537 193.282 80.779C192.849 81.0043 192.355 81.117 191.8 81.117C191.185 81.117 190.621 80.961 190.11 80.649C189.599 80.3283 189.191 79.8863 188.888 79.323C188.593 78.751 188.446 78.1053 188.446 77.386ZM194.309 77.412C194.309 76.918 194.205 76.489 193.997 76.125C193.798 75.761 193.533 75.4837 193.204 75.293C192.875 75.1023 192.519 75.007 192.138 75.007C191.757 75.007 191.401 75.1023 191.072 75.293C190.743 75.475 190.474 75.748 190.266 76.112C190.067 76.4673 189.967 76.892 189.967 77.386C189.967 77.88 190.067 78.3133 190.266 78.686C190.474 79.0587 190.743 79.3447 191.072 79.544C191.41 79.7347 191.765 79.83 192.138 79.83C192.519 79.83 192.875 79.7347 193.204 79.544C193.533 79.3533 193.798 79.076 193.997 78.712C194.205 78.3393 194.309 77.906 194.309 77.412ZM200.85 81.117C200.287 81.117 199.78 81.0173 199.329 80.818C198.887 80.61 198.536 80.3327 198.276 79.986C198.016 79.6307 197.878 79.2363 197.86 78.803H199.394C199.42 79.1063 199.563 79.362 199.823 79.57C200.092 79.7693 200.426 79.869 200.824 79.869C201.24 79.869 201.561 79.791 201.786 79.635C202.02 79.4703 202.137 79.2623 202.137 79.011C202.137 78.7423 202.007 78.543 201.747 78.413C201.496 78.283 201.093 78.14 200.538 77.984C200.001 77.8367 199.563 77.6937 199.225 77.555C198.887 77.4163 198.593 77.204 198.341 76.918C198.099 76.632 197.977 76.255 197.977 75.787C197.977 75.4057 198.09 75.059 198.315 74.747C198.541 74.4263 198.861 74.175 199.277 73.993C199.702 73.811 200.187 73.72 200.733 73.72C201.548 73.72 202.202 73.928 202.696 74.344C203.199 74.7513 203.468 75.3103 203.502 76.021H202.02C201.994 75.7003 201.864 75.4447 201.63 75.254C201.396 75.0633 201.08 74.968 200.681 74.968C200.291 74.968 199.992 75.0417 199.784 75.189C199.576 75.3363 199.472 75.5313 199.472 75.774C199.472 75.9647 199.542 76.125 199.68 76.255C199.819 76.385 199.988 76.489 200.187 76.567C200.387 76.6363 200.681 76.7273 201.071 76.84C201.591 76.9787 202.016 77.1217 202.345 77.269C202.683 77.4077 202.974 77.6157 203.216 77.893C203.459 78.1703 203.585 78.5387 203.593 78.998C203.593 79.4053 203.481 79.7693 203.255 80.09C203.03 80.4107 202.709 80.662 202.293 80.844C201.886 81.026 201.405 81.117 200.85 81.117ZM212.26 77.243C212.26 77.5117 212.242 77.7543 212.208 77.971H206.735C206.778 78.543 206.99 79.0023 207.372 79.349C207.753 79.6957 208.221 79.869 208.776 79.869C209.573 79.869 210.136 79.5353 210.466 78.868H212.065C211.848 79.5267 211.454 80.0683 210.882 80.493C210.318 80.909 209.616 81.117 208.776 81.117C208.091 81.117 207.476 80.9653 206.93 80.662C206.392 80.35 205.968 79.9167 205.656 79.362C205.352 78.7987 205.201 78.1487 205.201 77.412C205.201 76.6753 205.348 76.0297 205.643 75.475C205.946 74.9117 206.366 74.4783 206.904 74.175C207.45 73.8717 208.074 73.72 208.776 73.72C209.452 73.72 210.054 73.8673 210.583 74.162C211.111 74.4567 211.523 74.8727 211.818 75.41C212.112 75.9387 212.26 76.5497 212.26 77.243ZM210.713 76.775C210.704 76.229 210.509 75.7913 210.128 75.462C209.746 75.1327 209.274 74.968 208.711 74.968C208.199 74.968 207.762 75.1327 207.398 75.462C207.034 75.7827 206.817 76.2203 206.748 76.775H210.713Z" fill="#9A9A9A"/>
<path opacity="0.5" d="M74.072 92.636V93.524H71.792V101H70.7V93.524H68.408V92.636H74.072ZM81.5482 94.424V101H80.4562V100.028C80.2482 100.364 79.9562 100.628 79.5802 100.82C79.2122 101.004 78.8042 101.096 78.3562 101.096C77.8442 101.096 77.3842 100.992 76.9762 100.784C76.5682 100.568 76.2442 100.248 76.0042 99.824C75.7722 99.4 75.6562 98.884 75.6562 98.276V94.424H76.7362V98.132C76.7362 98.78 76.9002 99.28 77.2282 99.632C77.5562 99.976 78.0042 100.148 78.5722 100.148C79.1562 100.148 79.6162 99.968 79.9522 99.608C80.2882 99.248 80.4562 98.724 80.4562 98.036V94.424H81.5482ZM89.692 97.46C89.692 97.668 89.68 97.888 89.656 98.12H84.4C84.44 98.768 84.66 99.276 85.06 99.644C85.468 100.004 85.96 100.184 86.536 100.184C87.008 100.184 87.4 100.076 87.712 99.86C88.032 99.636 88.256 99.34 88.384 98.972H89.56C89.384 99.604 89.032 100.12 88.504 100.52C87.976 100.912 87.32 101.108 86.536 101.108C85.912 101.108 85.352 100.968 84.856 100.688C84.368 100.408 83.984 100.012 83.704 99.5C83.424 98.98 83.284 98.38 83.284 97.7C83.284 97.02 83.42 96.424 83.692 95.912C83.964 95.4 84.344 95.008 84.832 94.736C85.328 94.456 85.896 94.316 86.536 94.316C87.16 94.316 87.712 94.452 88.192 94.724C88.672 94.996 89.04 95.372 89.296 95.852C89.56 96.324 89.692 96.86 89.692 97.46ZM88.564 97.232C88.564 96.816 88.472 96.46 88.288 96.164C88.104 95.86 87.852 95.632 87.532 95.48C87.22 95.32 86.872 95.24 86.488 95.24C85.936 95.24 85.464 95.416 85.072 95.768C84.688 96.12 84.468 96.608 84.412 97.232H88.564ZM93.7614 101.108C93.2574 101.108 92.8054 101.024 92.4054 100.856C92.0054 100.68 91.6894 100.44 91.4574 100.136C91.2254 99.824 91.0974 99.468 91.0734 99.068H92.2014C92.2334 99.396 92.3854 99.664 92.6574 99.872C92.9374 100.08 93.3014 100.184 93.7494 100.184C94.1654 100.184 94.4934 100.092 94.7334 99.908C94.9734 99.724 95.0934 99.492 95.0934 99.212C95.0934 98.924 94.9654 98.712 94.7094 98.576C94.4534 98.432 94.0574 98.292 93.5214 98.156C93.0334 98.028 92.6334 97.9 92.3214 97.772C92.0174 97.636 91.7534 97.44 91.5294 97.184C91.3134 96.92 91.2054 96.576 91.2054 96.152C91.2054 95.816 91.3054 95.508 91.5054 95.228C91.7054 94.948 91.9894 94.728 92.3574 94.568C92.7254 94.4 93.1454 94.316 93.6174 94.316C94.3454 94.316 94.9334 94.5 95.3814 94.868C95.8294 95.236 96.0694 95.74 96.1014 96.38H95.0094C94.9854 96.036 94.8454 95.76 94.5894 95.552C94.3414 95.344 94.0054 95.24 93.5814 95.24C93.1894 95.24 92.8774 95.324 92.6454 95.492C92.4134 95.66 92.2974 95.88 92.2974 96.152C92.2974 96.368 92.3654 96.548 92.5014 96.692C92.6454 96.828 92.8214 96.94 93.0294 97.028C93.2454 97.108 93.5414 97.2 93.9174 97.304C94.3894 97.432 94.7734 97.56 95.0694 97.688C95.3654 97.808 95.6174 97.992 95.8254 98.24C96.0414 98.488 96.1534 98.812 96.1614 99.212C96.1614 99.572 96.0614 99.896 95.8614 100.184C95.6614 100.472 95.3774 100.7 95.0094 100.868C94.6494 101.028 94.2334 101.108 93.7614 101.108ZM97.5949 97.688C97.5949 97.016 97.7309 96.428 98.0029 95.924C98.2749 95.412 98.6469 95.016 99.1189 94.736C99.5989 94.456 100.135 94.316 100.727 94.316C101.239 94.316 101.715 94.436 102.155 94.676C102.595 94.908 102.931 95.216 103.163 95.6V92.12H104.267V101H103.163V99.764C102.947 100.156 102.627 100.48 102.203 100.736C101.779 100.984 101.283 101.108 100.715 101.108C100.131 101.108 99.5989 100.964 99.1189 100.676C98.6469 100.388 98.2749 99.984 98.0029 99.464C97.7309 98.944 97.5949 98.352 97.5949 97.688ZM103.163 97.7C103.163 97.204 103.063 96.772 102.863 96.404C102.663 96.036 102.391 95.756 102.047 95.564C101.711 95.364 101.339 95.264 100.931 95.264C100.523 95.264 100.151 95.36 99.8149 95.552C99.4789 95.744 99.2109 96.024 99.0109 96.392C98.8109 96.76 98.7109 97.192 98.7109 97.688C98.7109 98.192 98.8109 98.632 99.0109 99.008C99.2109 99.376 99.4789 99.66 99.8149 99.86C100.151 100.052 100.523 100.148 100.931 100.148C101.339 100.148 101.711 100.052 102.047 99.86C102.391 99.66 102.663 99.376 102.863 99.008C103.063 98.632 103.163 98.196 103.163 97.7ZM106.004 97.688C106.004 97.016 106.14 96.428 106.412 95.924C106.684 95.412 107.056 95.016 107.528 94.736C108.008 94.456 108.54 94.316 109.124 94.316C109.7 94.316 110.2 94.44 110.624 94.688C111.048 94.936 111.364 95.248 111.572 95.624V94.424H112.676V101H111.572V99.776C111.356 100.16 111.032 100.48 110.6 100.736C110.176 100.984 109.68 101.108 109.112 101.108C108.528 101.108 108 100.964 107.528 100.676C107.056 100.388 106.684 99.984 106.412 99.464C106.14 98.944 106.004 98.352 106.004 97.688ZM111.572 97.7C111.572 97.204 111.472 96.772 111.272 96.404C111.072 96.036 110.8 95.756 110.456 95.564C110.12 95.364 109.748 95.264 109.34 95.264C108.932 95.264 108.56 95.36 108.224 95.552C107.888 95.744 107.62 96.024 107.42 96.392C107.22 96.76 107.12 97.192 107.12 97.688C107.12 98.192 107.22 98.632 107.42 99.008C107.62 99.376 107.888 99.66 108.224 99.86C108.56 100.052 108.932 100.148 109.34 100.148C109.748 100.148 110.12 100.052 110.456 99.86C110.8 99.66 111.072 99.376 111.272 99.008C111.472 98.632 111.572 98.196 111.572 97.7ZM120.486 94.424L116.526 104.096H115.398L116.694 100.928L114.042 94.424H115.254L117.318 99.752L119.358 94.424H120.486ZM123.011 99.488L121.667 102.716H120.935L121.811 99.488H123.011ZM127.75 100.124C128.766 99.308 129.562 98.64 130.138 98.12C130.714 97.592 131.198 97.044 131.59 96.476C131.99 95.9 132.19 95.336 132.19 94.784C132.19 94.264 132.062 93.856 131.806 93.56C131.558 93.256 131.154 93.104 130.594 93.104C130.05 93.104 129.626 93.276 129.322 93.62C129.026 93.956 128.866 94.408 128.842 94.976H127.786C127.818 94.08 128.09 93.388 128.602 92.9C129.114 92.412 129.774 92.168 130.582 92.168C131.406 92.168 132.058 92.396 132.538 92.852C133.026 93.308 133.27 93.936 133.27 94.736C133.27 95.4 133.07 96.048 132.67 96.68C132.278 97.304 131.83 97.856 131.326 98.336C130.822 98.808 130.178 99.36 129.394 99.992H133.522V100.904H127.75V100.124ZM136.488 98.672C136.568 99.128 136.752 99.48 137.04 99.728C137.336 99.976 137.732 100.1 138.228 100.1C138.892 100.1 139.38 99.84 139.692 99.32C140.012 98.8 140.164 97.924 140.148 96.692C139.98 97.052 139.7 97.336 139.308 97.544C138.916 97.744 138.48 97.844 138 97.844C137.464 97.844 136.984 97.736 136.56 97.52C136.144 97.296 135.816 96.972 135.576 96.548C135.336 96.124 135.216 95.612 135.216 95.012C135.216 94.156 135.464 93.468 135.96 92.948C136.456 92.42 137.16 92.156 138.072 92.156C139.192 92.156 139.976 92.52 140.424 93.248C140.88 93.976 141.108 95.06 141.108 96.5C141.108 97.508 141.016 98.34 140.832 98.996C140.656 99.652 140.352 100.152 139.92 100.496C139.496 100.84 138.912 101.012 138.168 101.012C137.352 101.012 136.716 100.792 136.26 100.352C135.804 99.912 135.544 99.352 135.48 98.672H136.488ZM138.18 96.92C138.716 96.92 139.156 96.756 139.5 96.428C139.844 96.092 140.016 95.64 140.016 95.072C140.016 94.472 139.848 93.988 139.512 93.62C139.176 93.252 138.704 93.068 138.096 93.068C137.536 93.068 137.088 93.244 136.752 93.596C136.424 93.948 136.26 94.412 136.26 94.988C136.26 95.572 136.424 96.04 136.752 96.392C137.08 96.744 137.556 96.92 138.18 96.92ZM150.834 92.636V98.816C150.834 99.504 150.622 100.056 150.198 100.472C149.774 100.88 149.214 101.084 148.518 101.084C147.814 101.084 147.25 100.876 146.826 100.46C146.402 100.036 146.19 99.46 146.19 98.732H147.282C147.29 99.14 147.394 99.472 147.594 99.728C147.802 99.984 148.11 100.112 148.518 100.112C148.926 100.112 149.23 99.992 149.43 99.752C149.63 99.504 149.73 99.192 149.73 98.816V92.636H150.834ZM159.117 94.424V101H158.025V100.028C157.817 100.364 157.525 100.628 157.149 100.82C156.781 101.004 156.373 101.096 155.925 101.096C155.413 101.096 154.953 100.992 154.545 100.784C154.137 100.568 153.813 100.248 153.573 99.824C153.341 99.4 153.225 98.884 153.225 98.276V94.424H154.305V98.132C154.305 98.78 154.469 99.28 154.797 99.632C155.125 99.976 155.573 100.148 156.141 100.148C156.725 100.148 157.185 99.968 157.521 99.608C157.857 99.248 158.025 98.724 158.025 98.036V94.424H159.117ZM164.465 94.304C165.265 94.304 165.913 94.548 166.409 95.036C166.905 95.516 167.153 96.212 167.153 97.124V101H166.073V97.28C166.073 96.624 165.909 96.124 165.581 95.78C165.253 95.428 164.805 95.252 164.237 95.252C163.661 95.252 163.201 95.432 162.857 95.792C162.521 96.152 162.353 96.676 162.353 97.364V101H161.261V94.424H162.353V95.36C162.569 95.024 162.861 94.764 163.229 94.58C163.605 94.396 164.017 94.304 164.465 94.304ZM175.237 97.46C175.237 97.668 175.225 97.888 175.201 98.12H169.945C169.985 98.768 170.205 99.276 170.605 99.644C171.013 100.004 171.505 100.184 172.081 100.184C172.553 100.184 172.945 100.076 173.257 99.86C173.577 99.636 173.801 99.34 173.929 98.972H175.105C174.929 99.604 174.577 100.12 174.049 100.52C173.521 100.912 172.865 101.108 172.081 101.108C171.457 101.108 170.897 100.968 170.401 100.688C169.913 100.408 169.529 100.012 169.249 99.5C168.969 98.98 168.829 98.38 168.829 97.7C168.829 97.02 168.965 96.424 169.237 95.912C169.509 95.4 169.889 95.008 170.377 94.736C170.873 94.456 171.441 94.316 172.081 94.316C172.705 94.316 173.257 94.452 173.737 94.724C174.217 94.996 174.585 95.372 174.841 95.852C175.105 96.324 175.237 96.86 175.237 97.46ZM174.109 97.232C174.109 96.816 174.017 96.46 173.833 96.164C173.649 95.86 173.397 95.632 173.077 95.48C172.765 95.32 172.417 95.24 172.033 95.24C171.481 95.24 171.009 95.416 170.617 95.768C170.233 96.12 170.013 96.608 169.957 97.232H174.109ZM180.165 100.124C181.181 99.308 181.977 98.64 182.553 98.12C183.129 97.592 183.613 97.044 184.005 96.476C184.405 95.9 184.605 95.336 184.605 94.784C184.605 94.264 184.477 93.856 184.221 93.56C183.973 93.256 183.569 93.104 183.009 93.104C182.465 93.104 182.041 93.276 181.737 93.62C181.441 93.956 181.281 94.408 181.257 94.976H180.201C180.233 94.08 180.505 93.388 181.017 92.9C181.529 92.412 182.189 92.168 182.997 92.168C183.821 92.168 184.473 92.396 184.953 92.852C185.441 93.308 185.685 93.936 185.685 94.736C185.685 95.4 185.485 96.048 185.085 96.68C184.693 97.304 184.245 97.856 183.741 98.336C183.237 98.808 182.593 99.36 181.809 99.992H185.937V100.904H180.165V100.124ZM187.499 96.572C187.499 95.196 187.723 94.124 188.171 93.356C188.619 92.58 189.403 92.192 190.523 92.192C191.635 92.192 192.415 92.58 192.863 93.356C193.311 94.124 193.535 95.196 193.535 96.572C193.535 97.972 193.311 99.06 192.863 99.836C192.415 100.612 191.635 101 190.523 101C189.403 101 188.619 100.612 188.171 99.836C187.723 99.06 187.499 97.972 187.499 96.572ZM192.455 96.572C192.455 95.876 192.407 95.288 192.311 94.808C192.223 94.32 192.035 93.928 191.747 93.632C191.467 93.336 191.059 93.188 190.523 93.188C189.979 93.188 189.563 93.336 189.275 93.632C188.995 93.928 188.807 94.32 188.711 94.808C188.623 95.288 188.579 95.876 188.579 96.572C188.579 97.292 188.623 97.896 188.711 98.384C188.807 98.872 188.995 99.264 189.275 99.56C189.563 99.856 189.979 100.004 190.523 100.004C191.059 100.004 191.467 99.856 191.747 99.56C192.035 99.264 192.223 98.872 192.311 98.384C192.407 97.896 192.455 97.292 192.455 96.572ZM195.203 100.124C196.219 99.308 197.015 98.64 197.591 98.12C198.167 97.592 198.651 97.044 199.043 96.476C199.443 95.9 199.643 95.336 199.643 94.784C199.643 94.264 199.515 93.856 199.259 93.56C199.011 93.256 198.607 93.104 198.047 93.104C197.503 93.104 197.079 93.276 196.775 93.62C196.479 93.956 196.319 94.408 196.295 94.976H195.239C195.271 94.08 195.543 93.388 196.055 92.9C196.567 92.412 197.227 92.168 198.035 92.168C198.859 92.168 199.511 92.396 199.991 92.852C200.479 93.308 200.723 93.936 200.723 94.736C200.723 95.4 200.523 96.048 200.123 96.68C199.731 97.304 199.283 97.856 198.779 98.336C198.275 98.808 197.631 99.36 196.847 99.992H200.975V100.904H195.203V100.124ZM202.249 93.32V92.324H204.505V101H203.401V93.32H202.249Z" fill="#41475E"/>
<rect x="30" y="73" width="16" height="16" fill="#CFCFCF"/>
<path opacity="0.7" d="M75.293 135.656C75.293 136.115 75.1847 136.549 74.968 136.956C74.7513 137.363 74.4047 137.697 73.928 137.957C73.4513 138.208 72.8403 138.334 72.095 138.334H70.457V142H68.975V132.965H72.095C72.7883 132.965 73.3733 133.086 73.85 133.329C74.3353 133.563 74.695 133.884 74.929 134.291C75.1717 134.698 75.293 135.153 75.293 135.656ZM72.095 137.125C72.6583 137.125 73.0787 136.999 73.356 136.748C73.6333 136.488 73.772 136.124 73.772 135.656C73.772 134.668 73.213 134.174 72.095 134.174H70.457V137.125H72.095ZM83.6934 134.837V142H82.2114V141.155C81.9774 141.45 81.6698 141.684 81.2884 141.857C80.9158 142.022 80.5171 142.104 80.0924 142.104C79.5291 142.104 79.0221 141.987 78.5714 141.753C78.1294 141.519 77.7784 141.172 77.5184 140.713C77.2671 140.254 77.1414 139.699 77.1414 139.049V134.837H78.6104V138.828C78.6104 139.469 78.7708 139.963 79.0914 140.31C79.4121 140.648 79.8498 140.817 80.4044 140.817C80.9591 140.817 81.3968 140.648 81.7174 140.31C82.0468 139.963 82.2114 139.469 82.2114 138.828V134.837H83.6934ZM88.7488 142.117C88.1855 142.117 87.6785 142.017 87.2278 141.818C86.7858 141.61 86.4348 141.333 86.1748 140.986C85.9148 140.631 85.7762 140.236 85.7588 139.803H87.2928C87.3188 140.106 87.4618 140.362 87.7218 140.57C87.9905 140.769 88.3242 140.869 88.7228 140.869C89.1388 140.869 89.4595 140.791 89.6848 140.635C89.9188 140.47 90.0358 140.262 90.0358 140.011C90.0358 139.742 89.9058 139.543 89.6458 139.413C89.3945 139.283 88.9915 139.14 88.4368 138.984C87.8995 138.837 87.4618 138.694 87.1238 138.555C86.7858 138.416 86.4912 138.204 86.2398 137.918C85.9972 137.632 85.8758 137.255 85.8758 136.787C85.8758 136.406 85.9885 136.059 86.2138 135.747C86.4392 135.426 86.7598 135.175 87.1758 134.993C87.6005 134.811 88.0858 134.72 88.6318 134.72C89.4465 134.72 90.1008 134.928 90.5948 135.344C91.0975 135.751 91.3662 136.31 91.4008 137.021H89.9188C89.8928 136.7 89.7628 136.445 89.5288 136.254C89.2948 136.063 88.9785 135.968 88.5798 135.968C88.1898 135.968 87.8908 136.042 87.6828 136.189C87.4748 136.336 87.3708 136.531 87.3708 136.774C87.3708 136.965 87.4402 137.125 87.5788 137.255C87.7175 137.385 87.8865 137.489 88.0858 137.567C88.2852 137.636 88.5798 137.727 88.9698 137.84C89.4898 137.979 89.9145 138.122 90.2438 138.269C90.5818 138.408 90.8722 138.616 91.1148 138.893C91.3575 139.17 91.4832 139.539 91.4918 139.998C91.4918 140.405 91.3792 140.769 91.1538 141.09C90.9285 141.411 90.6078 141.662 90.1918 141.844C89.7845 142.026 89.3035 142.117 88.7488 142.117ZM97.2982 134.72C97.8442 134.72 98.3295 134.837 98.7542 135.071C99.1875 135.305 99.5255 135.652 99.7682 136.111C100.019 136.57 100.145 137.125 100.145 137.775V142H98.6762V137.996C98.6762 137.355 98.5158 136.865 98.1952 136.527C97.8745 136.18 97.4368 136.007 96.8822 136.007C96.3275 136.007 95.8855 136.18 95.5562 136.527C95.2355 136.865 95.0752 137.355 95.0752 137.996V142H93.5932V132.38H95.0752V135.669C95.3265 135.366 95.6428 135.132 96.0242 134.967C96.4142 134.802 96.8388 134.72 97.2982 134.72ZM109.52 142.117C108.844 142.117 108.233 141.965 107.687 141.662C107.141 141.35 106.712 140.917 106.4 140.362C106.088 139.799 105.932 139.149 105.932 138.412C105.932 137.684 106.092 137.038 106.413 136.475C106.733 135.912 107.171 135.478 107.726 135.175C108.28 134.872 108.9 134.72 109.585 134.72C110.269 134.72 110.889 134.872 111.444 135.175C111.998 135.478 112.436 135.912 112.757 136.475C113.077 137.038 113.238 137.684 113.238 138.412C113.238 139.14 113.073 139.786 112.744 140.349C112.414 140.912 111.964 141.35 111.392 141.662C110.828 141.965 110.204 142.117 109.52 142.117ZM109.52 140.83C109.901 140.83 110.256 140.739 110.586 140.557C110.924 140.375 111.197 140.102 111.405 139.738C111.613 139.374 111.717 138.932 111.717 138.412C111.717 137.892 111.617 137.454 111.418 137.099C111.218 136.735 110.954 136.462 110.625 136.28C110.295 136.098 109.94 136.007 109.559 136.007C109.177 136.007 108.822 136.098 108.493 136.28C108.172 136.462 107.916 136.735 107.726 137.099C107.535 137.454 107.44 137.892 107.44 138.412C107.44 139.183 107.635 139.781 108.025 140.206C108.423 140.622 108.922 140.83 109.52 140.83ZM118.817 134.72C119.38 134.72 119.883 134.837 120.325 135.071C120.775 135.305 121.126 135.652 121.378 136.111C121.629 136.57 121.755 137.125 121.755 137.775V142H120.286V137.996C120.286 137.355 120.125 136.865 119.805 136.527C119.484 136.18 119.046 136.007 118.492 136.007C117.937 136.007 117.495 136.18 117.166 136.527C116.845 136.865 116.685 137.355 116.685 137.996V142H115.203V134.837H116.685V135.656C116.927 135.361 117.235 135.132 117.608 134.967C117.989 134.802 118.392 134.72 118.817 134.72ZM134.561 135.565C134.327 135.114 134.002 134.776 133.586 134.551C133.17 134.317 132.689 134.2 132.143 134.2C131.545 134.2 131.012 134.334 130.544 134.603C130.076 134.872 129.708 135.253 129.439 135.747C129.179 136.241 129.049 136.813 129.049 137.463C129.049 138.113 129.179 138.689 129.439 139.192C129.708 139.686 130.076 140.067 130.544 140.336C131.012 140.605 131.545 140.739 132.143 140.739C132.949 140.739 133.603 140.514 134.106 140.063C134.609 139.612 134.916 139.001 135.029 138.23H131.636V137.047H136.615V138.204C136.52 138.906 136.268 139.552 135.861 140.141C135.462 140.73 134.938 141.203 134.288 141.558C133.647 141.905 132.932 142.078 132.143 142.078C131.294 142.078 130.518 141.883 129.816 141.493C129.114 141.094 128.555 140.544 128.139 139.842C127.732 139.14 127.528 138.347 127.528 137.463C127.528 136.579 127.732 135.786 128.139 135.084C128.555 134.382 129.114 133.836 129.816 133.446C130.527 133.047 131.302 132.848 132.143 132.848C133.105 132.848 133.959 133.086 134.704 133.563C135.458 134.031 136.004 134.698 136.342 135.565H134.561ZM139.331 133.888C139.062 133.888 138.837 133.797 138.655 133.615C138.473 133.433 138.382 133.208 138.382 132.939C138.382 132.67 138.473 132.445 138.655 132.263C138.837 132.081 139.062 131.99 139.331 131.99C139.591 131.99 139.812 132.081 139.994 132.263C140.176 132.445 140.267 132.67 140.267 132.939C140.267 133.208 140.176 133.433 139.994 133.615C139.812 133.797 139.591 133.888 139.331 133.888ZM140.059 134.837V142H138.577V134.837H140.059ZM144.233 136.046V140.011C144.233 140.28 144.294 140.475 144.415 140.596C144.545 140.709 144.762 140.765 145.065 140.765H145.975V142H144.805C144.138 142 143.627 141.844 143.271 141.532C142.916 141.22 142.738 140.713 142.738 140.011V136.046H141.893V134.837H142.738V133.056H144.233V134.837H145.975V136.046H144.233ZM151.546 134.72C152.092 134.72 152.578 134.837 153.002 135.071C153.436 135.305 153.774 135.652 154.016 136.111C154.268 136.57 154.393 137.125 154.393 137.775V142H152.924V137.996C152.924 137.355 152.764 136.865 152.443 136.527C152.123 136.18 151.685 136.007 151.13 136.007C150.576 136.007 150.134 136.18 149.804 136.527C149.484 136.865 149.323 137.355 149.323 137.996V142H147.841V132.38H149.323V135.669C149.575 135.366 149.891 135.132 150.272 134.967C150.662 134.802 151.087 134.72 151.546 134.72ZM163.271 134.837V142H161.789V141.155C161.555 141.45 161.247 141.684 160.866 141.857C160.493 142.022 160.094 142.104 159.67 142.104C159.106 142.104 158.599 141.987 158.149 141.753C157.707 141.519 157.356 141.172 157.096 140.713C156.844 140.254 156.719 139.699 156.719 139.049V134.837H158.188V138.828C158.188 139.469 158.348 139.963 158.669 140.31C158.989 140.648 159.427 140.817 159.982 140.817C160.536 140.817 160.974 140.648 161.295 140.31C161.624 139.963 161.789 139.469 161.789 138.828V134.837H163.271ZM167.208 135.903C167.459 135.556 167.802 135.275 168.235 135.058C168.677 134.833 169.167 134.72 169.704 134.72C170.337 134.72 170.909 134.872 171.42 135.175C171.931 135.478 172.334 135.912 172.629 136.475C172.924 137.03 173.071 137.667 173.071 138.386C173.071 139.105 172.924 139.751 172.629 140.323C172.334 140.886 171.927 141.328 171.407 141.649C170.896 141.961 170.328 142.117 169.704 142.117C169.149 142.117 168.655 142.009 168.222 141.792C167.797 141.575 167.459 141.298 167.208 140.96V142H165.726V132.38H167.208V135.903ZM171.563 138.386C171.563 137.892 171.459 137.467 171.251 137.112C171.052 136.748 170.783 136.475 170.445 136.293C170.116 136.102 169.76 136.007 169.379 136.007C169.006 136.007 168.651 136.102 168.313 136.293C167.984 136.484 167.715 136.761 167.507 137.125C167.308 137.489 167.208 137.918 167.208 138.412C167.208 138.906 167.308 139.339 167.507 139.712C167.715 140.076 167.984 140.353 168.313 140.544C168.651 140.735 169.006 140.83 169.379 140.83C169.76 140.83 170.116 140.735 170.445 140.544C170.783 140.345 171.052 140.059 171.251 139.686C171.459 139.313 171.563 138.88 171.563 138.386Z" fill="#9A9A9A"/>
<path opacity="0.5" d="M77.408 153.696V162H76.316V155.808L73.556 162H72.788L70.016 155.796V162H68.924V153.696H70.1L73.172 160.56L76.244 153.696H77.408ZM82.4279 162.108C81.8119 162.108 81.2519 161.968 80.7479 161.688C80.2519 161.408 79.8599 161.012 79.5719 160.5C79.2919 159.98 79.1519 159.38 79.1519 158.7C79.1519 158.028 79.2959 157.436 79.5839 156.924C79.8799 156.404 80.2799 156.008 80.7839 155.736C81.2879 155.456 81.8519 155.316 82.4759 155.316C83.0999 155.316 83.6639 155.456 84.1679 155.736C84.6719 156.008 85.0679 156.4 85.3559 156.912C85.6519 157.424 85.7999 158.02 85.7999 158.7C85.7999 159.38 85.6479 159.98 85.3439 160.5C85.0479 161.012 84.6439 161.408 84.1319 161.688C83.6199 161.968 83.0519 162.108 82.4279 162.108ZM82.4279 161.148C82.8199 161.148 83.1879 161.056 83.5319 160.872C83.8759 160.688 84.1519 160.412 84.3599 160.044C84.5759 159.676 84.6839 159.228 84.6839 158.7C84.6839 158.172 84.5799 157.724 84.3719 157.356C84.1639 156.988 83.8919 156.716 83.5559 156.54C83.2199 156.356 82.8559 156.264 82.4639 156.264C82.0639 156.264 81.6959 156.356 81.3599 156.54C81.0319 156.716 80.7679 156.988 80.5679 157.356C80.3679 157.724 80.2679 158.172 80.2679 158.7C80.2679 159.236 80.3639 159.688 80.5559 160.056C80.7559 160.424 81.0199 160.7 81.3479 160.884C81.6759 161.06 82.0359 161.148 82.4279 161.148ZM90.7397 155.304C91.5397 155.304 92.1877 155.548 92.6837 156.036C93.1797 156.516 93.4277 157.212 93.4277 158.124V162H92.3477V158.28C92.3477 157.624 92.1837 157.124 91.8557 156.78C91.5277 156.428 91.0797 156.252 90.5117 156.252C89.9357 156.252 89.4757 156.432 89.1317 156.792C88.7957 157.152 88.6277 157.676 88.6277 158.364V162H87.5357V155.424H88.6277V156.36C88.8437 156.024 89.1357 155.764 89.5037 155.58C89.8797 155.396 90.2917 155.304 90.7397 155.304ZM95.1035 158.688C95.1035 158.016 95.2395 157.428 95.5115 156.924C95.7835 156.412 96.1555 156.016 96.6275 155.736C97.1075 155.456 97.6435 155.316 98.2355 155.316C98.7475 155.316 99.2235 155.436 99.6635 155.676C100.103 155.908 100.439 156.216 100.671 156.6V153.12H101.776V162H100.671V160.764C100.455 161.156 100.135 161.48 99.7115 161.736C99.2875 161.984 98.7915 162.108 98.2235 162.108C97.6395 162.108 97.1075 161.964 96.6275 161.676C96.1555 161.388 95.7835 160.984 95.5115 160.464C95.2395 159.944 95.1035 159.352 95.1035 158.688ZM100.671 158.7C100.671 158.204 100.571 157.772 100.371 157.404C100.171 157.036 99.8995 156.756 99.5555 156.564C99.2195 156.364 98.8475 156.264 98.4395 156.264C98.0315 156.264 97.6595 156.36 97.3235 156.552C96.9875 156.744 96.7195 157.024 96.5195 157.392C96.3195 157.76 96.2195 158.192 96.2195 158.688C96.2195 159.192 96.3195 159.632 96.5195 160.008C96.7195 160.376 96.9875 160.66 97.3235 160.86C97.6595 161.052 98.0315 161.148 98.4395 161.148C98.8475 161.148 99.2195 161.052 99.5555 160.86C99.8995 160.66 100.171 160.376 100.371 160.008C100.571 159.632 100.671 159.196 100.671 158.7ZM103.513 158.688C103.513 158.016 103.649 157.428 103.921 156.924C104.193 156.412 104.565 156.016 105.037 155.736C105.517 155.456 106.049 155.316 106.633 155.316C107.209 155.316 107.709 155.44 108.133 155.688C108.557 155.936 108.873 156.248 109.081 156.624V155.424H110.185V162H109.081V160.776C108.865 161.16 108.541 161.48 108.109 161.736C107.685 161.984 107.189 162.108 106.621 162.108C106.037 162.108 105.509 161.964 105.037 161.676C104.565 161.388 104.193 160.984 103.921 160.464C103.649 159.944 103.513 159.352 103.513 158.688ZM109.081 158.7C109.081 158.204 108.981 157.772 108.781 157.404C108.581 157.036 108.309 156.756 107.965 156.564C107.629 156.364 107.257 156.264 106.849 156.264C106.441 156.264 106.069 156.36 105.733 156.552C105.397 156.744 105.129 157.024 104.929 157.392C104.729 157.76 104.629 158.192 104.629 158.688C104.629 159.192 104.729 159.632 104.929 160.008C105.129 160.376 105.397 160.66 105.733 160.86C106.069 161.052 106.441 161.148 106.849 161.148C107.257 161.148 107.629 161.052 107.965 160.86C108.309 160.66 108.581 160.376 108.781 160.008C108.981 159.632 109.081 159.196 109.081 158.7ZM117.994 155.424L114.034 165.096H112.906L114.202 161.928L111.55 155.424H112.762L114.826 160.752L116.866 155.424H117.994ZM120.52 160.488L119.176 163.716H118.444L119.32 160.488H120.52ZM125.258 161.124C126.274 160.308 127.07 159.64 127.646 159.12C128.222 158.592 128.706 158.044 129.098 157.476C129.498 156.9 129.698 156.336 129.698 155.784C129.698 155.264 129.57 154.856 129.314 154.56C129.066 154.256 128.662 154.104 128.102 154.104C127.558 154.104 127.134 154.276 126.83 154.62C126.534 154.956 126.374 155.408 126.35 155.976H125.294C125.326 155.08 125.598 154.388 126.11 153.9C126.622 153.412 127.282 153.168 128.09 153.168C128.914 153.168 129.566 153.396 130.046 153.852C130.534 154.308 130.778 154.936 130.778 155.736C130.778 156.4 130.578 157.048 130.178 157.68C129.786 158.304 129.338 158.856 128.834 159.336C128.33 159.808 127.686 160.36 126.902 160.992H131.03V161.904H125.258V161.124ZM134.176 157.488C133.728 157.312 133.384 157.056 133.144 156.72C132.904 156.384 132.784 155.976 132.784 155.496C132.784 155.064 132.892 154.676 133.108 154.332C133.324 153.98 133.644 153.704 134.068 153.504C134.5 153.296 135.02 153.192 135.628 153.192C136.236 153.192 136.752 153.296 137.176 153.504C137.608 153.704 137.932 153.98 138.148 154.332C138.372 154.676 138.484 155.064 138.484 155.496C138.484 155.96 138.36 156.368 138.112 156.72C137.864 157.064 137.524 157.32 137.092 157.488C137.588 157.64 137.98 157.908 138.268 158.292C138.564 158.668 138.712 159.124 138.712 159.66C138.712 160.18 138.584 160.636 138.328 161.028C138.072 161.412 137.708 161.712 137.236 161.928C136.772 162.136 136.236 162.24 135.628 162.24C135.02 162.24 134.484 162.136 134.02 161.928C133.564 161.712 133.208 161.412 132.952 161.028C132.696 160.636 132.568 160.18 132.568 159.66C132.568 159.124 132.712 158.664 133 158.28C133.288 157.896 133.68 157.632 134.176 157.488ZM137.428 155.628C137.428 155.14 137.268 154.764 136.948 154.5C136.628 154.236 136.188 154.104 135.628 154.104C135.076 154.104 134.64 154.236 134.32 154.5C134 154.764 133.84 155.144 133.84 155.64C133.84 156.088 134.004 156.448 134.332 156.72C134.668 156.992 135.1 157.128 135.628 157.128C136.164 157.128 136.596 156.992 136.924 156.72C137.26 156.44 137.428 156.076 137.428 155.628ZM135.628 157.968C135.036 157.968 134.552 158.108 134.176 158.388C133.8 158.66 133.612 159.072 133.612 159.624C133.612 160.136 133.792 160.548 134.152 160.86C134.52 161.172 135.012 161.328 135.628 161.328C136.244 161.328 136.732 161.172 137.092 160.86C137.452 160.548 137.632 160.136 137.632 159.624C137.632 159.088 137.448 158.68 137.08 158.4C136.712 158.112 136.228 157.968 135.628 157.968ZM148.354 153.636V159.816C148.354 160.504 148.142 161.056 147.718 161.472C147.294 161.88 146.734 162.084 146.038 162.084C145.334 162.084 144.77 161.876 144.346 161.46C143.922 161.036 143.71 160.46 143.71 159.732H144.802C144.81 160.14 144.914 160.472 145.114 160.728C145.322 160.984 145.63 161.112 146.038 161.112C146.446 161.112 146.75 160.992 146.95 160.752C147.15 160.504 147.25 160.192 147.25 159.816V153.636H148.354ZM156.637 155.424V162H155.545V161.028C155.337 161.364 155.045 161.628 154.669 161.82C154.301 162.004 153.893 162.096 153.445 162.096C152.933 162.096 152.473 161.992 152.065 161.784C151.657 161.568 151.333 161.248 151.093 160.824C150.861 160.4 150.745 159.884 150.745 159.276V155.424H151.825V159.132C151.825 159.78 151.989 160.28 152.317 160.632C152.645 160.976 153.093 161.148 153.661 161.148C154.245 161.148 154.705 160.968 155.041 160.608C155.377 160.248 155.545 159.724 155.545 159.036V155.424H156.637ZM161.985 155.304C162.785 155.304 163.433 155.548 163.929 156.036C164.425 156.516 164.673 157.212 164.673 158.124V162H163.593V158.28C163.593 157.624 163.429 157.124 163.101 156.78C162.773 156.428 162.325 156.252 161.757 156.252C161.181 156.252 160.721 156.432 160.377 156.792C160.041 157.152 159.873 157.676 159.873 158.364V162H158.781V155.424H159.873V156.36C160.089 156.024 160.381 155.764 160.749 155.58C161.125 155.396 161.537 155.304 161.985 155.304ZM172.757 158.46C172.757 158.668 172.745 158.888 172.721 159.12H167.465C167.505 159.768 167.725 160.276 168.125 160.644C168.533 161.004 169.025 161.184 169.601 161.184C170.073 161.184 170.465 161.076 170.777 160.86C171.097 160.636 171.321 160.34 171.449 159.972H172.625C172.449 160.604 172.097 161.12 171.569 161.52C171.041 161.912 170.385 162.108 169.601 162.108C168.977 162.108 168.417 161.968 167.921 161.688C167.433 161.408 167.049 161.012 166.769 160.5C166.489 159.98 166.349 159.38 166.349 158.7C166.349 158.02 166.485 157.424 166.757 156.912C167.029 156.4 167.409 156.008 167.897 155.736C168.393 155.456 168.961 155.316 169.601 155.316C170.225 155.316 170.777 155.452 171.257 155.724C171.737 155.996 172.105 156.372 172.361 156.852C172.625 157.324 172.757 157.86 172.757 158.46ZM171.629 158.232C171.629 157.816 171.537 157.46 171.353 157.164C171.169 156.86 170.917 156.632 170.597 156.48C170.285 156.32 169.937 156.24 169.553 156.24C169.001 156.24 168.529 156.416 168.137 156.768C167.753 157.12 167.533 157.608 167.477 158.232H171.629ZM177.685 161.124C178.701 160.308 179.497 159.64 180.073 159.12C180.649 158.592 181.133 158.044 181.525 157.476C181.925 156.9 182.125 156.336 182.125 155.784C182.125 155.264 181.997 154.856 181.741 154.56C181.493 154.256 181.089 154.104 180.529 154.104C179.985 154.104 179.561 154.276 179.257 154.62C178.961 154.956 178.801 155.408 178.777 155.976H177.721C177.753 155.08 178.025 154.388 178.537 153.9C179.049 153.412 179.709 153.168 180.517 153.168C181.341 153.168 181.993 153.396 182.473 153.852C182.961 154.308 183.205 154.936 183.205 155.736C183.205 156.4 183.005 157.048 182.605 157.68C182.213 158.304 181.765 158.856 181.261 159.336C180.757 159.808 180.113 160.36 179.329 160.992H183.457V161.904H177.685V161.124ZM185.02 157.572C185.02 156.196 185.244 155.124 185.692 154.356C186.14 153.58 186.924 153.192 188.044 153.192C189.156 153.192 189.936 153.58 190.384 154.356C190.832 155.124 191.056 156.196 191.056 157.572C191.056 158.972 190.832 160.06 190.384 160.836C189.936 161.612 189.156 162 188.044 162C186.924 162 186.14 161.612 185.692 160.836C185.244 160.06 185.02 158.972 185.02 157.572ZM189.976 157.572C189.976 156.876 189.928 156.288 189.832 155.808C189.744 155.32 189.556 154.928 189.268 154.632C188.988 154.336 188.58 154.188 188.044 154.188C187.5 154.188 187.084 154.336 186.796 154.632C186.516 154.928 186.328 155.32 186.232 155.808C186.144 156.288 186.1 156.876 186.1 157.572C186.1 158.292 186.144 158.896 186.232 159.384C186.328 159.872 186.516 160.264 186.796 160.56C187.084 160.856 187.5 161.004 188.044 161.004C188.58 161.004 188.988 160.856 189.268 160.56C189.556 160.264 189.744 159.872 189.832 159.384C189.928 158.896 189.976 158.292 189.976 157.572ZM192.723 161.124C193.739 160.308 194.535 159.64 195.111 159.12C195.687 158.592 196.171 158.044 196.563 157.476C196.963 156.9 197.163 156.336 197.163 155.784C197.163 155.264 197.035 154.856 196.779 154.56C196.531 154.256 196.127 154.104 195.567 154.104C195.023 154.104 194.599 154.276 194.295 154.62C193.999 154.956 193.839 155.408 193.815 155.976H192.759C192.791 155.08 193.063 154.388 193.575 153.9C194.087 153.412 194.747 153.168 195.555 153.168C196.379 153.168 197.031 153.396 197.511 153.852C197.999 154.308 198.243 154.936 198.243 155.736C198.243 156.4 198.043 157.048 197.643 157.68C197.251 158.304 196.803 158.856 196.299 159.336C195.795 159.808 195.151 160.36 194.367 160.992H198.495V161.904H192.723V161.124ZM199.769 154.32V153.324H202.025V162H200.921V154.32H199.769Z" fill="#41475E"/>
<rect x="30" y="134" width="16" height="16" fill="#CFCFCF"/>
<g opacity="0.7">
<path d="M71.926 193.965C72.888 193.965 73.7287 194.151 74.448 194.524C75.176 194.888 75.735 195.417 76.125 196.11C76.5237 196.795 76.723 197.596 76.723 198.515C76.723 199.434 76.5237 200.231 76.125 200.907C75.735 201.583 75.176 202.103 74.448 202.467C73.7287 202.822 72.888 203 71.926 203H68.975V193.965H71.926ZM71.926 201.791C72.9833 201.791 73.7937 201.505 74.357 200.933C74.9203 200.361 75.202 199.555 75.202 198.515C75.202 197.466 74.9203 196.647 74.357 196.058C73.7937 195.469 72.9833 195.174 71.926 195.174H70.457V201.791H71.926ZM85.2568 199.243C85.2568 199.512 85.2395 199.754 85.2048 199.971H79.7318C79.7751 200.543 79.9875 201.002 80.3688 201.349C80.7501 201.696 81.2181 201.869 81.7728 201.869C82.5701 201.869 83.1335 201.535 83.4628 200.868H85.0618C84.8451 201.527 84.4508 202.068 83.8788 202.493C83.3155 202.909 82.6135 203.117 81.7728 203.117C81.0881 203.117 80.4728 202.965 79.9268 202.662C79.3895 202.35 78.9648 201.917 78.6528 201.362C78.3495 200.799 78.1978 200.149 78.1978 199.412C78.1978 198.675 78.3451 198.03 78.6398 197.475C78.9431 196.912 79.3635 196.478 79.9008 196.175C80.4468 195.872 81.0708 195.72 81.7728 195.72C82.4488 195.72 83.0511 195.867 83.5798 196.162C84.1085 196.457 84.5201 196.873 84.8148 197.41C85.1095 197.939 85.2568 198.55 85.2568 199.243ZM83.7098 198.775C83.7011 198.229 83.5061 197.791 83.1248 197.462C82.7435 197.133 82.2711 196.968 81.7078 196.968C81.1965 196.968 80.7588 197.133 80.3948 197.462C80.0308 197.783 79.8141 198.22 79.7448 198.775H83.7098ZM89.8152 203.117C89.2519 203.117 88.7449 203.017 88.2942 202.818C87.8522 202.61 87.5012 202.333 87.2412 201.986C86.9812 201.631 86.8426 201.236 86.8252 200.803H88.3592C88.3852 201.106 88.5282 201.362 88.7882 201.57C89.0569 201.769 89.3906 201.869 89.7892 201.869C90.2052 201.869 90.5259 201.791 90.7512 201.635C90.9852 201.47 91.1022 201.262 91.1022 201.011C91.1022 200.742 90.9722 200.543 90.7122 200.413C90.4609 200.283 90.0579 200.14 89.5032 199.984C88.9659 199.837 88.5282 199.694 88.1902 199.555C87.8522 199.416 87.5576 199.204 87.3062 198.918C87.0636 198.632 86.9422 198.255 86.9422 197.787C86.9422 197.406 87.0549 197.059 87.2802 196.747C87.5056 196.426 87.8262 196.175 88.2422 195.993C88.6669 195.811 89.1522 195.72 89.6982 195.72C90.5129 195.72 91.1672 195.928 91.6612 196.344C92.1639 196.751 92.4326 197.31 92.4672 198.021H90.9852C90.9592 197.7 90.8292 197.445 90.5952 197.254C90.3612 197.063 90.0449 196.968 89.6462 196.968C89.2562 196.968 88.9572 197.042 88.7492 197.189C88.5412 197.336 88.4372 197.531 88.4372 197.774C88.4372 197.965 88.5066 198.125 88.6452 198.255C88.7839 198.385 88.9529 198.489 89.1522 198.567C89.3516 198.636 89.6462 198.727 90.0362 198.84C90.5562 198.979 90.9809 199.122 91.3102 199.269C91.6482 199.408 91.9386 199.616 92.1812 199.893C92.4239 200.17 92.5496 200.539 92.5582 200.998C92.5582 201.405 92.4456 201.769 92.2202 202.09C91.9949 202.411 91.6742 202.662 91.2582 202.844C90.8509 203.026 90.3699 203.117 89.8152 203.117ZM95.4136 194.888C95.1449 194.888 94.9196 194.797 94.7376 194.615C94.5556 194.433 94.4646 194.208 94.4646 193.939C94.4646 193.67 94.5556 193.445 94.7376 193.263C94.9196 193.081 95.1449 192.99 95.4136 192.99C95.6736 192.99 95.8946 193.081 96.0766 193.263C96.2586 193.445 96.3496 193.67 96.3496 193.939C96.3496 194.208 96.2586 194.433 96.0766 194.615C95.8946 194.797 95.6736 194.888 95.4136 194.888ZM96.1416 195.837V203H94.6596V195.837H96.1416ZM101.473 195.72C102.028 195.72 102.518 195.833 102.942 196.058C103.376 196.275 103.714 196.548 103.956 196.877V195.837H105.451V203.117C105.451 203.776 105.313 204.361 105.035 204.872C104.758 205.392 104.355 205.799 103.826 206.094C103.306 206.389 102.682 206.536 101.954 206.536C100.984 206.536 100.178 206.306 99.5363 205.847C98.895 205.396 98.531 204.781 98.4443 204.001H99.9133C100.026 204.374 100.264 204.673 100.628 204.898C101.001 205.132 101.443 205.249 101.954 205.249C102.552 205.249 103.033 205.067 103.397 204.703C103.77 204.339 103.956 203.81 103.956 203.117V201.921C103.705 202.259 103.363 202.545 102.929 202.779C102.505 203.004 102.019 203.117 101.473 203.117C100.849 203.117 100.277 202.961 99.7573 202.649C99.246 202.328 98.8386 201.886 98.5353 201.323C98.2406 200.751 98.0933 200.105 98.0933 199.386C98.0933 198.667 98.2406 198.03 98.5353 197.475C98.8386 196.92 99.246 196.491 99.7573 196.188C100.277 195.876 100.849 195.72 101.473 195.72ZM103.956 199.412C103.956 198.918 103.852 198.489 103.644 198.125C103.445 197.761 103.181 197.484 102.851 197.293C102.522 197.102 102.167 197.007 101.785 197.007C101.404 197.007 101.049 197.102 100.719 197.293C100.39 197.475 100.121 197.748 99.9133 198.112C99.714 198.467 99.6143 198.892 99.6143 199.386C99.6143 199.88 99.714 200.313 99.9133 200.686C100.121 201.059 100.39 201.345 100.719 201.544C101.057 201.735 101.413 201.83 101.785 201.83C102.167 201.83 102.522 201.735 102.851 201.544C103.181 201.353 103.445 201.076 103.644 200.712C103.852 200.339 103.956 199.906 103.956 199.412ZM111.512 195.72C112.075 195.72 112.578 195.837 113.02 196.071C113.471 196.305 113.822 196.652 114.073 197.111C114.324 197.57 114.45 198.125 114.45 198.775V203H112.981V198.996C112.981 198.355 112.821 197.865 112.5 197.527C112.179 197.18 111.742 197.007 111.187 197.007C110.632 197.007 110.19 197.18 109.861 197.527C109.54 197.865 109.38 198.355 109.38 198.996V203H107.898V195.837H109.38V196.656C109.623 196.361 109.93 196.132 110.303 195.967C110.684 195.802 111.087 195.72 111.512 195.72ZM122.199 193.38V203H120.717V193.38H122.199ZM124.151 199.386C124.151 198.667 124.298 198.03 124.593 197.475C124.896 196.92 125.304 196.491 125.815 196.188C126.335 195.876 126.907 195.72 127.531 195.72C128.094 195.72 128.584 195.833 129 196.058C129.425 196.275 129.763 196.548 130.014 196.877V195.837H131.509V203H130.014V201.934C129.763 202.272 129.42 202.554 128.987 202.779C128.554 203.004 128.06 203.117 127.505 203.117C126.89 203.117 126.326 202.961 125.815 202.649C125.304 202.328 124.896 201.886 124.593 201.323C124.298 200.751 124.151 200.105 124.151 199.386ZM130.014 199.412C130.014 198.918 129.91 198.489 129.702 198.125C129.503 197.761 129.238 197.484 128.909 197.293C128.58 197.102 128.224 197.007 127.843 197.007C127.462 197.007 127.106 197.102 126.777 197.293C126.448 197.475 126.179 197.748 125.971 198.112C125.772 198.467 125.672 198.892 125.672 199.386C125.672 199.88 125.772 200.313 125.971 200.686C126.179 201.059 126.448 201.345 126.777 201.544C127.115 201.735 127.47 201.83 127.843 201.83C128.224 201.83 128.58 201.735 128.909 201.544C129.238 201.353 129.503 201.076 129.702 200.712C129.91 200.339 130.014 199.906 130.014 199.412ZM140.403 195.837L136.009 206.367H134.475L135.931 202.883L133.11 195.837H134.761L136.776 201.297L138.869 195.837H140.403ZM145.129 203.117C144.453 203.117 143.842 202.965 143.296 202.662C142.75 202.35 142.321 201.917 142.009 201.362C141.697 200.799 141.541 200.149 141.541 199.412C141.541 198.684 141.701 198.038 142.022 197.475C142.343 196.912 142.78 196.478 143.335 196.175C143.89 195.872 144.509 195.72 145.194 195.72C145.879 195.72 146.498 195.872 147.053 196.175C147.608 196.478 148.045 196.912 148.366 197.475C148.687 198.038 148.847 198.684 148.847 199.412C148.847 200.14 148.682 200.786 148.353 201.349C148.024 201.912 147.573 202.35 147.001 202.662C146.438 202.965 145.814 203.117 145.129 203.117ZM145.129 201.83C145.51 201.83 145.866 201.739 146.195 201.557C146.533 201.375 146.806 201.102 147.014 200.738C147.222 200.374 147.326 199.932 147.326 199.412C147.326 198.892 147.226 198.454 147.027 198.099C146.828 197.735 146.563 197.462 146.234 197.28C145.905 197.098 145.549 197.007 145.168 197.007C144.787 197.007 144.431 197.098 144.102 197.28C143.781 197.462 143.526 197.735 143.335 198.099C143.144 198.454 143.049 198.892 143.049 199.412C143.049 200.183 143.244 200.781 143.634 201.206C144.033 201.622 144.531 201.83 145.129 201.83ZM157.299 195.837V203H155.817V202.155C155.583 202.45 155.275 202.684 154.894 202.857C154.521 203.022 154.123 203.104 153.698 203.104C153.135 203.104 152.628 202.987 152.177 202.753C151.735 202.519 151.384 202.172 151.124 201.713C150.873 201.254 150.747 200.699 150.747 200.049V195.837H152.216V199.828C152.216 200.469 152.376 200.963 152.697 201.31C153.018 201.648 153.455 201.817 154.01 201.817C154.565 201.817 155.002 201.648 155.323 201.31C155.652 200.963 155.817 200.469 155.817 199.828V195.837H157.299ZM161.483 197.046V201.011C161.483 201.28 161.544 201.475 161.665 201.596C161.795 201.709 162.012 201.765 162.315 201.765H163.225V203H162.055C161.388 203 160.877 202.844 160.521 202.532C160.166 202.22 159.988 201.713 159.988 201.011V197.046H159.143V195.837H159.988V194.056H161.483V195.837H163.225V197.046H161.483ZM172.673 195.72C173.219 195.72 173.704 195.837 174.129 196.071C174.562 196.305 174.9 196.652 175.143 197.111C175.394 197.57 175.52 198.125 175.52 198.775V203H174.051V198.996C174.051 198.355 173.891 197.865 173.57 197.527C173.249 197.18 172.812 197.007 172.257 197.007C171.702 197.007 171.26 197.18 170.931 197.527C170.61 197.865 170.45 198.355 170.45 198.996V203H168.968V193.38H170.45V196.669C170.701 196.366 171.018 196.132 171.399 195.967C171.789 195.802 172.214 195.72 172.673 195.72ZM181.018 203.117C180.342 203.117 179.731 202.965 179.185 202.662C178.639 202.35 178.21 201.917 177.898 201.362C177.586 200.799 177.43 200.149 177.43 199.412C177.43 198.684 177.59 198.038 177.911 197.475C178.231 196.912 178.669 196.478 179.224 196.175C179.778 195.872 180.398 195.72 181.083 195.72C181.767 195.72 182.387 195.872 182.942 196.175C183.496 196.478 183.934 196.912 184.255 197.475C184.575 198.038 184.736 198.684 184.736 199.412C184.736 200.14 184.571 200.786 184.242 201.349C183.912 201.912 183.462 202.35 182.89 202.662C182.326 202.965 181.702 203.117 181.018 203.117ZM181.018 201.83C181.399 201.83 181.754 201.739 182.084 201.557C182.422 201.375 182.695 201.102 182.903 200.738C183.111 200.374 183.215 199.932 183.215 199.412C183.215 198.892 183.115 198.454 182.916 198.099C182.716 197.735 182.452 197.462 182.123 197.28C181.793 197.098 181.438 197.007 181.057 197.007C180.675 197.007 180.32 197.098 179.991 197.28C179.67 197.462 179.414 197.735 179.224 198.099C179.033 198.454 178.938 198.892 178.938 199.412C178.938 200.183 179.133 200.781 179.523 201.206C179.921 201.622 180.42 201.83 181.018 201.83ZM195.372 195.72C195.935 195.72 196.438 195.837 196.88 196.071C197.33 196.305 197.681 196.652 197.933 197.111C198.193 197.57 198.323 198.125 198.323 198.775V203H196.854V198.996C196.854 198.355 196.693 197.865 196.373 197.527C196.052 197.18 195.614 197.007 195.06 197.007C194.505 197.007 194.063 197.18 193.734 197.527C193.413 197.865 193.253 198.355 193.253 198.996V203H191.784V198.996C191.784 198.355 191.623 197.865 191.303 197.527C190.982 197.18 190.544 197.007 189.99 197.007C189.435 197.007 188.993 197.18 188.664 197.527C188.343 197.865 188.183 198.355 188.183 198.996V203H186.701V195.837H188.183V196.656C188.425 196.361 188.733 196.132 189.106 195.967C189.478 195.802 189.877 195.72 190.302 195.72C190.874 195.72 191.385 195.841 191.836 196.084C192.286 196.327 192.633 196.678 192.876 197.137C193.092 196.704 193.43 196.361 193.89 196.11C194.349 195.85 194.843 195.72 195.372 195.72ZM207.273 199.243C207.273 199.512 207.256 199.754 207.221 199.971H201.748C201.792 200.543 202.004 201.002 202.385 201.349C202.767 201.696 203.235 201.869 203.789 201.869C204.587 201.869 205.15 201.535 205.479 200.868H207.078C206.862 201.527 206.467 202.068 205.895 202.493C205.332 202.909 204.63 203.117 203.789 203.117C203.105 203.117 202.489 202.965 201.943 202.662C201.406 202.35 200.981 201.917 200.669 201.362C200.366 200.799 200.214 200.149 200.214 199.412C200.214 198.675 200.362 198.03 200.656 197.475C200.96 196.912 201.38 196.478 201.917 196.175C202.463 195.872 203.087 195.72 203.789 195.72C204.465 195.72 205.068 195.867 205.596 196.162C206.125 196.457 206.537 196.873 206.831 197.41C207.126 197.939 207.273 198.55 207.273 199.243ZM205.726 198.775C205.718 198.229 205.523 197.791 205.141 197.462C204.76 197.133 204.288 196.968 203.724 196.968C203.213 196.968 202.775 197.133 202.411 197.462C202.047 197.783 201.831 198.22 201.761 198.775H205.726ZM210.714 196.89C210.965 196.561 211.308 196.283 211.741 196.058C212.174 195.833 212.664 195.72 213.21 195.72C213.834 195.72 214.402 195.876 214.913 196.188C215.433 196.491 215.84 196.92 216.135 197.475C216.43 198.03 216.577 198.667 216.577 199.386C216.577 200.105 216.43 200.751 216.135 201.323C215.84 201.886 215.433 202.328 214.913 202.649C214.402 202.961 213.834 203.117 213.21 203.117C212.664 203.117 212.179 203.009 211.754 202.792C211.329 202.567 210.983 202.289 210.714 201.96V206.406H209.232V195.837H210.714V196.89ZM215.069 199.386C215.069 198.892 214.965 198.467 214.757 198.112C214.558 197.748 214.289 197.475 213.951 197.293C213.622 197.102 213.266 197.007 212.885 197.007C212.512 197.007 212.157 197.102 211.819 197.293C211.49 197.484 211.221 197.761 211.013 198.125C210.814 198.489 210.714 198.918 210.714 199.412C210.714 199.906 210.814 200.339 211.013 200.712C211.221 201.076 211.49 201.353 211.819 201.544C212.157 201.735 212.512 201.83 212.885 201.83C213.266 201.83 213.622 201.735 213.951 201.544C214.289 201.345 214.558 201.059 214.757 200.686C214.965 200.313 215.069 199.88 215.069 199.386ZM218.048 199.386C218.048 198.667 218.196 198.03 218.49 197.475C218.794 196.92 219.201 196.491 219.712 196.188C220.232 195.876 220.804 195.72 221.428 195.72C221.992 195.72 222.481 195.833 222.897 196.058C223.322 196.275 223.66 196.548 223.911 196.877V195.837H225.406V203H223.911V201.934C223.66 202.272 223.318 202.554 222.884 202.779C222.451 203.004 221.957 203.117 221.402 203.117C220.787 203.117 220.224 202.961 219.712 202.649C219.201 202.328 218.794 201.886 218.49 201.323C218.196 200.751 218.048 200.105 218.048 199.386ZM223.911 199.412C223.911 198.918 223.807 198.489 223.599 198.125C223.4 197.761 223.136 197.484 222.806 197.293C222.477 197.102 222.122 197.007 221.74 197.007C221.359 197.007 221.004 197.102 220.674 197.293C220.345 197.475 220.076 197.748 219.868 198.112C219.669 198.467 219.569 198.892 219.569 199.386C219.569 199.88 219.669 200.313 219.868 200.686C220.076 201.059 220.345 201.345 220.674 201.544C221.012 201.735 221.368 201.83 221.74 201.83C222.122 201.83 222.477 201.735 222.806 201.544C223.136 201.353 223.4 201.076 223.599 200.712C223.807 200.339 223.911 199.906 223.911 199.412ZM230.739 195.72C231.294 195.72 231.783 195.833 232.208 196.058C232.641 196.275 232.979 196.548 233.222 196.877V195.837H234.717V203.117C234.717 203.776 234.578 204.361 234.301 204.872C234.024 205.392 233.621 205.799 233.092 206.094C232.572 206.389 231.948 206.536 231.22 206.536C230.249 206.536 229.443 206.306 228.802 205.847C228.161 205.396 227.797 204.781 227.71 204.001H229.179C229.292 204.374 229.53 204.673 229.894 204.898C230.267 205.132 230.709 205.249 231.22 205.249C231.818 205.249 232.299 205.067 232.663 204.703C233.036 204.339 233.222 203.81 233.222 203.117V201.921C232.971 202.259 232.628 202.545 232.195 202.779C231.77 203.004 231.285 203.117 230.739 203.117C230.115 203.117 229.543 202.961 229.023 202.649C228.512 202.328 228.104 201.886 227.801 201.323C227.506 200.751 227.359 200.105 227.359 199.386C227.359 198.667 227.506 198.03 227.801 197.475C228.104 196.92 228.512 196.491 229.023 196.188C229.543 195.876 230.115 195.72 230.739 195.72ZM233.222 199.412C233.222 198.918 233.118 198.489 232.91 198.125C232.711 197.761 232.446 197.484 232.117 197.293C231.788 197.102 231.432 197.007 231.051 197.007C230.67 197.007 230.314 197.102 229.985 197.293C229.656 197.475 229.387 197.748 229.179 198.112C228.98 198.467 228.88 198.892 228.88 199.386C228.88 199.88 228.98 200.313 229.179 200.686C229.387 201.059 229.656 201.345 229.985 201.544C230.323 201.735 230.678 201.83 231.051 201.83C231.432 201.83 231.788 201.735 232.117 201.544C232.446 201.353 232.711 201.076 232.91 200.712C233.118 200.339 233.222 199.906 233.222 199.412ZM243.728 199.243C243.728 199.512 243.711 199.754 243.676 199.971H238.203C238.247 200.543 238.459 201.002 238.84 201.349C239.222 201.696 239.69 201.869 240.244 201.869C241.042 201.869 241.605 201.535 241.934 200.868H243.533C243.317 201.527 242.922 202.068 242.35 202.493C241.787 202.909 241.085 203.117 240.244 203.117C239.56 203.117 238.944 202.965 238.398 202.662C237.861 202.35 237.436 201.917 237.124 201.362C236.821 200.799 236.669 200.149 236.669 199.412C236.669 198.675 236.817 198.03 237.111 197.475C237.415 196.912 237.835 196.478 238.372 196.175C238.918 195.872 239.542 195.72 240.244 195.72C240.92 195.72 241.523 195.867 242.051 196.162C242.58 196.457 242.992 196.873 243.286 197.41C243.581 197.939 243.728 198.55 243.728 199.243ZM242.181 198.775C242.173 198.229 241.978 197.791 241.596 197.462C241.215 197.133 240.743 196.968 240.179 196.968C239.668 196.968 239.23 197.133 238.866 197.462C238.502 197.783 238.286 198.22 238.216 198.775H242.181Z" fill="#9A9A9A"/>
<path d="M68 198.71H244.209V199.36H68V198.71Z" fill="#9A9A9A"/>
</g>
<path opacity="0.5" d="M73.652 214.636V215.524H70.016V218.344H72.968V219.232H70.016V223H68.924V214.636H73.652ZM76.3629 217.492C76.5549 217.116 76.8269 216.824 77.1789 216.616C77.5389 216.408 77.9749 216.304 78.4869 216.304V217.432H78.1989C76.9749 217.432 76.3629 218.096 76.3629 219.424V223H75.2709V216.424H76.3629V217.492ZM80.6114 215.356C80.4034 215.356 80.2274 215.284 80.0834 215.14C79.9394 214.996 79.8674 214.82 79.8674 214.612C79.8674 214.404 79.9394 214.228 80.0834 214.084C80.2274 213.94 80.4034 213.868 80.6114 213.868C80.8114 213.868 80.9794 213.94 81.1154 214.084C81.2594 214.228 81.3314 214.404 81.3314 214.612C81.3314 214.82 81.2594 214.996 81.1154 215.14C80.9794 215.284 80.8114 215.356 80.6114 215.356ZM81.1394 216.424V223H80.0474V216.424H81.1394ZM82.8926 219.688C82.8926 219.016 83.0286 218.428 83.3006 217.924C83.5726 217.412 83.9446 217.016 84.4166 216.736C84.8966 216.456 85.4326 216.316 86.0246 216.316C86.5366 216.316 87.0126 216.436 87.4526 216.676C87.8926 216.908 88.2286 217.216 88.4606 217.6V214.12H89.5646V223H88.4606V221.764C88.2446 222.156 87.9246 222.48 87.5006 222.736C87.0766 222.984 86.5806 223.108 86.0126 223.108C85.4286 223.108 84.8966 222.964 84.4166 222.676C83.9446 222.388 83.5726 221.984 83.3006 221.464C83.0286 220.944 82.8926 220.352 82.8926 219.688ZM88.4606 219.7C88.4606 219.204 88.3606 218.772 88.1606 218.404C87.9606 218.036 87.6886 217.756 87.3446 217.564C87.0086 217.364 86.6366 217.264 86.2286 217.264C85.8206 217.264 85.4486 217.36 85.1126 217.552C84.7766 217.744 84.5086 218.024 84.3086 218.392C84.1086 218.76 84.0086 219.192 84.0086 219.688C84.0086 220.192 84.1086 220.632 84.3086 221.008C84.5086 221.376 84.7766 221.66 85.1126 221.86C85.4486 222.052 85.8206 222.148 86.2286 222.148C86.6366 222.148 87.0086 222.052 87.3446 221.86C87.6886 221.66 87.9606 221.376 88.1606 221.008C88.3606 220.632 88.4606 220.196 88.4606 219.7ZM91.3019 219.688C91.3019 219.016 91.4379 218.428 91.7099 217.924C91.9819 217.412 92.3539 217.016 92.8259 216.736C93.3059 216.456 93.8379 216.316 94.4219 216.316C94.9979 216.316 95.4979 216.44 95.9219 216.688C96.3459 216.936 96.6619 217.248 96.8699 217.624V216.424H97.9739V223H96.8699V221.776C96.6539 222.16 96.3299 222.48 95.8979 222.736C95.4739 222.984 94.9779 223.108 94.4099 223.108C93.8259 223.108 93.2979 222.964 92.8259 222.676C92.3539 222.388 91.9819 221.984 91.7099 221.464C91.4379 220.944 91.3019 220.352 91.3019 219.688ZM96.8699 219.7C96.8699 219.204 96.7699 218.772 96.5699 218.404C96.3699 218.036 96.0979 217.756 95.7539 217.564C95.4179 217.364 95.0459 217.264 94.6379 217.264C94.2299 217.264 93.8579 217.36 93.5219 217.552C93.1859 217.744 92.9179 218.024 92.7179 218.392C92.5179 218.76 92.4179 219.192 92.4179 219.688C92.4179 220.192 92.5179 220.632 92.7179 221.008C92.9179 221.376 93.1859 221.66 93.5219 221.86C93.8579 222.052 94.2299 222.148 94.6379 222.148C95.0459 222.148 95.4179 222.052 95.7539 221.86C96.0979 221.66 96.3699 221.376 96.5699 221.008C96.7699 220.632 96.8699 220.196 96.8699 219.7ZM105.783 216.424L101.823 226.096H100.695L101.991 222.928L99.3393 216.424H100.551L102.615 221.752L104.655 216.424H105.783ZM108.309 221.488L106.965 224.716H106.233L107.109 221.488H108.309ZM113.047 222.124C114.063 221.308 114.859 220.64 115.435 220.12C116.011 219.592 116.495 219.044 116.887 218.476C117.287 217.9 117.487 217.336 117.487 216.784C117.487 216.264 117.359 215.856 117.103 215.56C116.855 215.256 116.451 215.104 115.891 215.104C115.347 215.104 114.923 215.276 114.619 215.62C114.323 215.956 114.163 216.408 114.139 216.976H113.083C113.115 216.08 113.387 215.388 113.899 214.9C114.411 214.412 115.071 214.168 115.879 214.168C116.703 214.168 117.355 214.396 117.835 214.852C118.323 215.308 118.567 215.936 118.567 216.736C118.567 217.4 118.367 218.048 117.967 218.68C117.575 219.304 117.127 219.856 116.623 220.336C116.119 220.808 115.475 221.36 114.691 221.992H118.819V222.904H113.047V222.124ZM125.914 215.272H121.702V218.008C121.886 217.752 122.158 217.544 122.518 217.384C122.878 217.216 123.266 217.132 123.682 217.132C124.346 217.132 124.886 217.272 125.302 217.552C125.718 217.824 126.014 218.18 126.19 218.62C126.374 219.052 126.466 219.512 126.466 220C126.466 220.576 126.358 221.092 126.142 221.548C125.926 222.004 125.594 222.364 125.146 222.628C124.706 222.892 124.158 223.024 123.502 223.024C122.662 223.024 121.982 222.808 121.462 222.376C120.942 221.944 120.626 221.368 120.514 220.648H121.582C121.686 221.104 121.906 221.46 122.242 221.716C122.578 221.972 123.002 222.1 123.514 222.1C124.146 222.1 124.622 221.912 124.942 221.536C125.262 221.152 125.422 220.648 125.422 220.024C125.422 219.4 125.262 218.92 124.942 218.584C124.622 218.24 124.15 218.068 123.526 218.068C123.102 218.068 122.73 218.172 122.41 218.38C122.098 218.58 121.87 218.856 121.726 219.208H120.694V214.312H125.914V215.272ZM136.108 214.636V220.816C136.108 221.504 135.896 222.056 135.472 222.472C135.048 222.88 134.488 223.084 133.792 223.084C133.088 223.084 132.524 222.876 132.1 222.46C131.676 222.036 131.464 221.46 131.464 220.732H132.556C132.564 221.14 132.668 221.472 132.868 221.728C133.076 221.984 133.384 222.112 133.792 222.112C134.2 222.112 134.504 221.992 134.704 221.752C134.904 221.504 135.004 221.192 135.004 220.816V214.636H136.108ZM144.391 216.424V223H143.299V222.028C143.091 222.364 142.799 222.628 142.423 222.82C142.055 223.004 141.647 223.096 141.199 223.096C140.687 223.096 140.227 222.992 139.819 222.784C139.411 222.568 139.087 222.248 138.847 221.824C138.615 221.4 138.499 220.884 138.499 220.276V216.424H139.579V220.132C139.579 220.78 139.743 221.28 140.071 221.632C140.399 221.976 140.847 222.148 141.415 222.148C141.999 222.148 142.459 221.968 142.795 221.608C143.131 221.248 143.299 220.724 143.299 220.036V216.424H144.391ZM149.739 216.304C150.539 216.304 151.187 216.548 151.683 217.036C152.179 217.516 152.427 218.212 152.427 219.124V223H151.347V219.28C151.347 218.624 151.183 218.124 150.855 217.78C150.527 217.428 150.079 217.252 149.511 217.252C148.935 217.252 148.475 217.432 148.131 217.792C147.795 218.152 147.627 218.676 147.627 219.364V223H146.535V216.424H147.627V217.36C147.843 217.024 148.135 216.764 148.503 216.58C148.879 216.396 149.291 216.304 149.739 216.304ZM160.511 219.46C160.511 219.668 160.499 219.888 160.475 220.12H155.219C155.259 220.768 155.479 221.276 155.879 221.644C156.287 222.004 156.779 222.184 157.355 222.184C157.827 222.184 158.219 222.076 158.531 221.86C158.851 221.636 159.075 221.34 159.203 220.972H160.379C160.203 221.604 159.851 222.12 159.323 222.52C158.795 222.912 158.139 223.108 157.355 223.108C156.731 223.108 156.171 222.968 155.675 222.688C155.187 222.408 154.803 222.012 154.523 221.5C154.243 220.98 154.103 220.38 154.103 219.7C154.103 219.02 154.239 218.424 154.511 217.912C154.783 217.4 155.163 217.008 155.651 216.736C156.147 216.456 156.715 216.316 157.355 216.316C157.979 216.316 158.531 216.452 159.011 216.724C159.491 216.996 159.859 217.372 160.115 217.852C160.379 218.324 160.511 218.86 160.511 219.46ZM159.383 219.232C159.383 218.816 159.291 218.46 159.107 218.164C158.923 217.86 158.671 217.632 158.351 217.48C158.039 217.32 157.691 217.24 157.307 217.24C156.755 217.24 156.283 217.416 155.891 217.768C155.507 218.12 155.287 218.608 155.231 219.232H159.383ZM165.439 222.124C166.455 221.308 167.251 220.64 167.827 220.12C168.403 219.592 168.887 219.044 169.279 218.476C169.679 217.9 169.879 217.336 169.879 216.784C169.879 216.264 169.751 215.856 169.495 215.56C169.247 215.256 168.843 215.104 168.283 215.104C167.739 215.104 167.315 215.276 167.011 215.62C166.715 215.956 166.555 216.408 166.531 216.976H165.475C165.507 216.08 165.779 215.388 166.291 214.9C166.803 214.412 167.463 214.168 168.271 214.168C169.095 214.168 169.747 214.396 170.227 214.852C170.715 215.308 170.959 215.936 170.959 216.736C170.959 217.4 170.759 218.048 170.359 218.68C169.967 219.304 169.519 219.856 169.015 220.336C168.511 220.808 167.867 221.36 167.083 221.992H171.211V222.904H165.439V222.124ZM172.774 218.572C172.774 217.196 172.998 216.124 173.446 215.356C173.894 214.58 174.678 214.192 175.798 214.192C176.91 214.192 177.69 214.58 178.138 215.356C178.586 216.124 178.81 217.196 178.81 218.572C178.81 219.972 178.586 221.06 178.138 221.836C177.69 222.612 176.91 223 175.798 223C174.678 223 173.894 222.612 173.446 221.836C172.998 221.06 172.774 219.972 172.774 218.572ZM177.73 218.572C177.73 217.876 177.682 217.288 177.586 216.808C177.498 216.32 177.31 215.928 177.022 215.632C176.742 215.336 176.334 215.188 175.798 215.188C175.254 215.188 174.838 215.336 174.55 215.632C174.27 215.928 174.082 216.32 173.986 216.808C173.898 217.288 173.854 217.876 173.854 218.572C173.854 219.292 173.898 219.896 173.986 220.384C174.082 220.872 174.27 221.264 174.55 221.56C174.838 221.856 175.254 222.004 175.798 222.004C176.334 222.004 176.742 221.856 177.022 221.56C177.31 221.264 177.498 220.872 177.586 220.384C177.682 219.896 177.73 219.292 177.73 218.572ZM180.477 222.124C181.493 221.308 182.289 220.64 182.865 220.12C183.441 219.592 183.925 219.044 184.317 218.476C184.717 217.9 184.917 217.336 184.917 216.784C184.917 216.264 184.789 215.856 184.533 215.56C184.285 215.256 183.881 215.104 183.321 215.104C182.777 215.104 182.353 215.276 182.049 215.62C181.753 215.956 181.593 216.408 181.569 216.976H180.513C180.545 216.08 180.817 215.388 181.329 214.9C181.841 214.412 182.501 214.168 183.309 214.168C184.133 214.168 184.785 214.396 185.265 214.852C185.753 215.308 185.997 215.936 185.997 216.736C185.997 217.4 185.797 218.048 185.397 218.68C185.005 219.304 184.557 219.856 184.053 220.336C183.549 220.808 182.905 221.36 182.121 221.992H186.249V222.904H180.477V222.124ZM187.523 215.32V214.324H189.779V223H188.675V215.32H187.523Z" fill="#41475E"/>
<rect x="30.5" y="195.5" width="15" height="15" fill="#CFCFCF" stroke="#CFCFCF"/>
<path d="M34 203.374L36.687 206.061L42.061 200.687" stroke="#131313" stroke-width="1.5" stroke-linecap="round" stroke-linejoin="round"/>
</svg>
