<svg width="281" height="246" viewBox="0 0 281 246" fill="none" xmlns="http://www.w3.org/2000/svg">
<rect width="281" height="246" rx="8" fill="#131313"/>
<path d="M39.436 79.636L37.012 88H35.788L33.844 81.268L31.828 88L30.616 88.012L28.276 79.636H29.44L31.264 86.728L33.28 79.636H34.504L36.424 86.704L38.26 79.636H39.436ZM46.931 84.46C46.931 84.668 46.919 84.888 46.895 85.12H41.639C41.679 85.768 41.899 86.276 42.299 86.644C42.707 87.004 43.199 87.184 43.775 87.184C44.247 87.184 44.639 87.076 44.951 86.86C45.271 86.636 45.495 86.34 45.623 85.972H46.799C46.623 86.604 46.271 87.12 45.743 87.52C45.215 87.912 44.559 88.108 43.775 88.108C43.151 88.108 42.591 87.968 42.095 87.688C41.607 87.408 41.223 87.012 40.943 86.5C40.663 85.98 40.523 85.38 40.523 84.7C40.523 84.02 40.659 83.424 40.931 82.912C41.203 82.4 41.583 82.008 42.071 81.736C42.567 81.456 43.135 81.316 43.775 81.316C44.399 81.316 44.951 81.452 45.431 81.724C45.911 81.996 46.279 82.372 46.535 82.852C46.799 83.324 46.931 83.86 46.931 84.46ZM45.803 84.232C45.803 83.816 45.711 83.46 45.527 83.164C45.343 82.86 45.091 82.632 44.771 82.48C44.459 82.32 44.111 82.24 43.727 82.24C43.175 82.24 42.703 82.416 42.311 82.768C41.927 83.12 41.707 83.608 41.651 84.232H45.803ZM49.7644 82.648C49.9884 82.256 50.3164 81.936 50.7484 81.688C51.1804 81.44 51.6724 81.316 52.2244 81.316C52.8164 81.316 53.3484 81.456 53.8204 81.736C54.2924 82.016 54.6644 82.412 54.9364 82.924C55.2084 83.428 55.3444 84.016 55.3444 84.688C55.3444 85.352 55.2084 85.944 54.9364 86.464C54.6644 86.984 54.2884 87.388 53.8084 87.676C53.3364 87.964 52.8084 88.108 52.2244 88.108C51.6564 88.108 51.1564 87.984 50.7244 87.736C50.3004 87.488 49.9804 87.172 49.7644 86.788V88H48.6724V79.12H49.7644V82.648ZM54.2284 84.688C54.2284 84.192 54.1284 83.76 53.9284 83.392C53.7284 83.024 53.4564 82.744 53.1124 82.552C52.7764 82.36 52.4044 82.264 51.9964 82.264C51.5964 82.264 51.2244 82.364 50.8804 82.564C50.5444 82.756 50.2724 83.04 50.0644 83.416C49.8644 83.784 49.7644 84.212 49.7644 84.7C49.7644 85.196 49.8644 85.632 50.0644 86.008C50.2724 86.376 50.5444 86.66 50.8804 86.86C51.2244 87.052 51.5964 87.148 51.9964 87.148C52.4044 87.148 52.7764 87.052 53.1124 86.86C53.4564 86.66 53.7284 86.376 53.9284 86.008C54.1284 85.632 54.2284 85.192 54.2284 84.688ZM66.173 82.084C66.173 82.78 65.933 83.36 65.453 83.824C64.981 84.28 64.257 84.508 63.281 84.508H61.673V88H60.581V79.636H63.281C64.225 79.636 64.941 79.864 65.429 80.32C65.925 80.776 66.173 81.364 66.173 82.084ZM63.281 83.608C63.889 83.608 64.337 83.476 64.625 83.212C64.913 82.948 65.057 82.572 65.057 82.084C65.057 81.052 64.465 80.536 63.281 80.536H61.673V83.608H63.281ZM68.9223 82.492C69.1143 82.116 69.3863 81.824 69.7383 81.616C70.0983 81.408 70.5343 81.304 71.0463 81.304V82.432H70.7583C69.5343 82.432 68.9223 83.096 68.9223 84.424V88H67.8303V81.424H68.9223V82.492ZM75.4748 88.108C74.8588 88.108 74.2988 87.968 73.7948 87.688C73.2988 87.408 72.9068 87.012 72.6188 86.5C72.3388 85.98 72.1988 85.38 72.1988 84.7C72.1988 84.028 72.3428 83.436 72.6308 82.924C72.9268 82.404 73.3268 82.008 73.8308 81.736C74.3348 81.456 74.8988 81.316 75.5228 81.316C76.1468 81.316 76.7108 81.456 77.2148 81.736C77.7188 82.008 78.1148 82.4 78.4028 82.912C78.6988 83.424 78.8468 84.02 78.8468 84.7C78.8468 85.38 78.6948 85.98 78.3908 86.5C78.0948 87.012 77.6908 87.408 77.1788 87.688C76.6668 87.968 76.0988 88.108 75.4748 88.108ZM75.4748 87.148C75.8668 87.148 76.2348 87.056 76.5788 86.872C76.9228 86.688 77.1988 86.412 77.4068 86.044C77.6228 85.676 77.7308 85.228 77.7308 84.7C77.7308 84.172 77.6268 83.724 77.4188 83.356C77.2108 82.988 76.9388 82.716 76.6028 82.54C76.2668 82.356 75.9028 82.264 75.5108 82.264C75.1108 82.264 74.7428 82.356 74.4068 82.54C74.0788 82.716 73.8148 82.988 73.6148 83.356C73.4148 83.724 73.3148 84.172 73.3148 84.7C73.3148 85.236 73.4108 85.688 73.6028 86.056C73.8028 86.424 74.0668 86.7 74.3948 86.884C74.7228 87.06 75.0828 87.148 75.4748 87.148ZM83.2946 81.316C83.8626 81.316 84.3586 81.44 84.7826 81.688C85.2146 81.936 85.5346 82.248 85.7426 82.624V81.424H86.8466V88.144C86.8466 88.744 86.7186 89.276 86.4626 89.74C86.2066 90.212 85.8386 90.58 85.3586 90.844C84.8866 91.108 84.3346 91.24 83.7026 91.24C82.8386 91.24 82.1186 91.036 81.5426 90.628C80.9666 90.22 80.6266 89.664 80.5226 88.96H81.6026C81.7226 89.36 81.9706 89.68 82.3466 89.92C82.7226 90.168 83.1746 90.292 83.7026 90.292C84.3026 90.292 84.7906 90.104 85.1666 89.728C85.5506 89.352 85.7426 88.824 85.7426 88.144V86.764C85.5266 87.148 85.2066 87.468 84.7826 87.724C84.3586 87.98 83.8626 88.108 83.2946 88.108C82.7106 88.108 82.1786 87.964 81.6986 87.676C81.2266 87.388 80.8546 86.984 80.5826 86.464C80.3106 85.944 80.1746 85.352 80.1746 84.688C80.1746 84.016 80.3106 83.428 80.5826 82.924C80.8546 82.412 81.2266 82.016 81.6986 81.736C82.1786 81.456 82.7106 81.316 83.2946 81.316ZM85.7426 84.7C85.7426 84.204 85.6426 83.772 85.4426 83.404C85.2426 83.036 84.9706 82.756 84.6266 82.564C84.2906 82.364 83.9186 82.264 83.5106 82.264C83.1026 82.264 82.7306 82.36 82.3946 82.552C82.0586 82.744 81.7906 83.024 81.5906 83.392C81.3906 83.76 81.2906 84.192 81.2906 84.688C81.2906 85.192 81.3906 85.632 81.5906 86.008C81.7906 86.376 82.0586 86.66 82.3946 86.86C82.7306 87.052 83.1026 87.148 83.5106 87.148C83.9186 87.148 84.2906 87.052 84.6266 86.86C84.9706 86.66 85.2426 86.376 85.4426 86.008C85.6426 85.632 85.7426 85.196 85.7426 84.7ZM90.084 82.492C90.276 82.116 90.548 81.824 90.9 81.616C91.26 81.408 91.696 81.304 92.208 81.304V82.432H91.92C90.696 82.432 90.084 83.096 90.084 84.424V88H88.992V81.424H90.084V82.492ZM93.3605 84.688C93.3605 84.016 93.4965 83.428 93.7685 82.924C94.0405 82.412 94.4125 82.016 94.8845 81.736C95.3645 81.456 95.8965 81.316 96.4805 81.316C97.0565 81.316 97.5565 81.44 97.9805 81.688C98.4045 81.936 98.7205 82.248 98.9285 82.624V81.424H100.033V88H98.9285V86.776C98.7125 87.16 98.3885 87.48 97.9565 87.736C97.5325 87.984 97.0365 88.108 96.4685 88.108C95.8845 88.108 95.3565 87.964 94.8845 87.676C94.4125 87.388 94.0405 86.984 93.7685 86.464C93.4965 85.944 93.3605 85.352 93.3605 84.688ZM98.9285 84.7C98.9285 84.204 98.8285 83.772 98.6285 83.404C98.4285 83.036 98.1565 82.756 97.8125 82.564C97.4765 82.364 97.1045 82.264 96.6965 82.264C96.2885 82.264 95.9165 82.36 95.5805 82.552C95.2445 82.744 94.9765 83.024 94.7765 83.392C94.5765 83.76 94.4765 84.192 94.4765 84.688C94.4765 85.192 94.5765 85.632 94.7765 86.008C94.9765 86.376 95.2445 86.66 95.5805 86.86C95.9165 87.052 96.2885 87.148 96.6965 87.148C97.1045 87.148 97.4765 87.052 97.8125 86.86C98.1565 86.66 98.4285 86.376 98.6285 86.008C98.8285 85.632 98.9285 85.196 98.9285 84.7ZM110.086 81.304C110.598 81.304 111.054 81.412 111.454 81.628C111.854 81.836 112.17 82.152 112.402 82.576C112.634 83 112.75 83.516 112.75 84.124V88H111.67V84.28C111.67 83.624 111.506 83.124 111.178 82.78C110.858 82.428 110.422 82.252 109.87 82.252C109.302 82.252 108.85 82.436 108.514 82.804C108.178 83.164 108.01 83.688 108.01 84.376V88H106.93V84.28C106.93 83.624 106.766 83.124 106.438 82.78C106.118 82.428 105.682 82.252 105.13 82.252C104.562 82.252 104.11 82.436 103.774 82.804C103.438 83.164 103.27 83.688 103.27 84.376V88H102.178V81.424H103.27V82.372C103.486 82.028 103.774 81.764 104.134 81.58C104.502 81.396 104.906 81.304 105.346 81.304C105.898 81.304 106.386 81.428 106.81 81.676C107.234 81.924 107.55 82.288 107.758 82.768C107.942 82.304 108.246 81.944 108.67 81.688C109.094 81.432 109.566 81.304 110.086 81.304ZM122.749 81.304C123.261 81.304 123.717 81.412 124.117 81.628C124.517 81.836 124.833 82.152 125.065 82.576C125.297 83 125.413 83.516 125.413 84.124V88H124.333V84.28C124.333 83.624 124.169 83.124 123.841 82.78C123.521 82.428 123.085 82.252 122.533 82.252C121.965 82.252 121.513 82.436 121.177 82.804C120.841 83.164 120.673 83.688 120.673 84.376V88H119.593V84.28C119.593 83.624 119.429 83.124 119.101 82.78C118.781 82.428 118.345 82.252 117.793 82.252C117.225 82.252 116.773 82.436 116.437 82.804C116.101 83.164 115.933 83.688 115.933 84.376V88H114.841V81.424H115.933V82.372C116.149 82.028 116.437 81.764 116.797 81.58C117.165 81.396 117.569 81.304 118.009 81.304C118.561 81.304 119.049 81.428 119.473 81.676C119.897 81.924 120.213 82.288 120.421 82.768C120.605 82.304 120.909 81.944 121.333 81.688C121.757 81.432 122.229 81.304 122.749 81.304ZM128.068 80.356C127.86 80.356 127.684 80.284 127.54 80.14C127.396 79.996 127.324 79.82 127.324 79.612C127.324 79.404 127.396 79.228 127.54 79.084C127.684 78.94 127.86 78.868 128.068 78.868C128.268 78.868 128.436 78.94 128.572 79.084C128.716 79.228 128.788 79.404 128.788 79.612C128.788 79.82 128.716 79.996 128.572 80.14C128.436 80.284 128.268 80.356 128.068 80.356ZM128.596 81.424V88H127.504V81.424H128.596ZM133.962 81.304C134.762 81.304 135.41 81.548 135.906 82.036C136.402 82.516 136.65 83.212 136.65 84.124V88H135.57V84.28C135.57 83.624 135.406 83.124 135.078 82.78C134.75 82.428 134.302 82.252 133.734 82.252C133.158 82.252 132.698 82.432 132.354 82.792C132.018 83.152 131.85 83.676 131.85 84.364V88H130.758V81.424H131.85V82.36C132.066 82.024 132.358 81.764 132.726 81.58C133.102 81.396 133.514 81.304 133.962 81.304ZM141.445 81.316C142.013 81.316 142.509 81.44 142.933 81.688C143.365 81.936 143.685 82.248 143.893 82.624V81.424H144.997V88.144C144.997 88.744 144.869 89.276 144.613 89.74C144.357 90.212 143.989 90.58 143.509 90.844C143.037 91.108 142.485 91.24 141.853 91.24C140.989 91.24 140.269 91.036 139.693 90.628C139.117 90.22 138.777 89.664 138.673 88.96H139.753C139.873 89.36 140.121 89.68 140.497 89.92C140.873 90.168 141.325 90.292 141.853 90.292C142.453 90.292 142.941 90.104 143.317 89.728C143.701 89.352 143.893 88.824 143.893 88.144V86.764C143.677 87.148 143.357 87.468 142.933 87.724C142.509 87.98 142.013 88.108 141.445 88.108C140.861 88.108 140.329 87.964 139.849 87.676C139.377 87.388 139.005 86.984 138.733 86.464C138.461 85.944 138.325 85.352 138.325 84.688C138.325 84.016 138.461 83.428 138.733 82.924C139.005 82.412 139.377 82.016 139.849 81.736C140.329 81.456 140.861 81.316 141.445 81.316ZM143.893 84.7C143.893 84.204 143.793 83.772 143.593 83.404C143.393 83.036 143.121 82.756 142.777 82.564C142.441 82.364 142.069 82.264 141.661 82.264C141.253 82.264 140.881 82.36 140.545 82.552C140.209 82.744 139.941 83.024 139.741 83.392C139.541 83.76 139.441 84.192 139.441 84.688C139.441 85.192 139.541 85.632 139.741 86.008C139.941 86.376 140.209 86.66 140.545 86.86C140.881 87.052 141.253 87.148 141.661 87.148C142.069 87.148 142.441 87.052 142.777 86.86C143.121 86.66 143.393 86.376 143.593 86.008C143.793 85.632 143.893 85.196 143.893 84.7Z" fill="#9A9A9A"/>
<path opacity="0.5" d="M233.276 80.272H229.064V83.008C229.248 82.752 229.52 82.544 229.88 82.384C230.24 82.216 230.628 82.132 231.044 82.132C231.708 82.132 232.248 82.272 232.664 82.552C233.08 82.824 233.376 83.18 233.552 83.62C233.736 84.052 233.828 84.512 233.828 85C233.828 85.576 233.72 86.092 233.504 86.548C233.288 87.004 232.956 87.364 232.508 87.628C232.068 87.892 231.52 88.024 230.864 88.024C230.024 88.024 229.344 87.808 228.824 87.376C228.304 86.944 227.988 86.368 227.876 85.648H228.944C229.048 86.104 229.268 86.46 229.604 86.716C229.94 86.972 230.364 87.1 230.876 87.1C231.508 87.1 231.984 86.912 232.304 86.536C232.624 86.152 232.784 85.648 232.784 85.024C232.784 84.4 232.624 83.92 232.304 83.584C231.984 83.24 231.512 83.068 230.888 83.068C230.464 83.068 230.092 83.172 229.772 83.38C229.46 83.58 229.232 83.856 229.088 84.208H228.056V79.312H233.276V80.272ZM239.839 76.696L236.551 90.04H235.471L238.747 76.696H239.839ZM241.298 80.32V79.324H243.554V88H242.45V80.32H241.298ZM245.73 83.572C245.73 82.196 245.954 81.124 246.402 80.356C246.85 79.58 247.634 79.192 248.754 79.192C249.866 79.192 250.646 79.58 251.094 80.356C251.542 81.124 251.766 82.196 251.766 83.572C251.766 84.972 251.542 86.06 251.094 86.836C250.646 87.612 249.866 88 248.754 88C247.634 88 246.85 87.612 246.402 86.836C245.954 86.06 245.73 84.972 245.73 83.572ZM250.686 83.572C250.686 82.876 250.638 82.288 250.542 81.808C250.454 81.32 250.266 80.928 249.978 80.632C249.698 80.336 249.29 80.188 248.754 80.188C248.21 80.188 247.794 80.336 247.506 80.632C247.226 80.928 247.038 81.32 246.942 81.808C246.854 82.288 246.81 82.876 246.81 83.572C246.81 84.292 246.854 84.896 246.942 85.384C247.038 85.872 247.226 86.264 247.506 86.56C247.794 86.856 248.21 87.004 248.754 87.004C249.29 87.004 249.698 86.856 249.978 86.56C250.266 86.264 250.454 85.872 250.542 85.384C250.638 84.896 250.686 84.292 250.686 83.572Z" fill="#9A9A9A"/>
<rect opacity="0.1" x="28" y="99" width="225" height="5" rx="2.5" fill="#CFCFCF"/>
<rect x="28" y="99" width="120" height="5" rx="2.5" fill="#CFCFCF"/>
<path d="M31.528 134.636C32.44 134.636 33.228 134.808 33.892 135.152C34.564 135.488 35.076 135.972 35.428 136.604C35.788 137.236 35.968 137.98 35.968 138.836C35.968 139.692 35.788 140.436 35.428 141.068C35.076 141.692 34.564 142.172 33.892 142.508C33.228 142.836 32.44 143 31.528 143H28.924V134.636H31.528ZM31.528 142.1C32.608 142.1 33.432 141.816 34 141.248C34.568 140.672 34.852 139.868 34.852 138.836C34.852 137.796 34.564 136.984 33.988 136.4C33.42 135.816 32.6 135.524 31.528 135.524H30.016V142.1H31.528ZM37.3004 139.688C37.3004 139.016 37.4364 138.428 37.7084 137.924C37.9804 137.412 38.3524 137.016 38.8244 136.736C39.3044 136.456 39.8364 136.316 40.4204 136.316C40.9964 136.316 41.4964 136.44 41.9204 136.688C42.3444 136.936 42.6604 137.248 42.8684 137.624V136.424H43.9724V143H42.8684V141.776C42.6524 142.16 42.3284 142.48 41.8964 142.736C41.4724 142.984 40.9764 143.108 40.4084 143.108C39.8244 143.108 39.2964 142.964 38.8244 142.676C38.3524 142.388 37.9804 141.984 37.7084 141.464C37.4364 140.944 37.3004 140.352 37.3004 139.688ZM42.8684 139.7C42.8684 139.204 42.7684 138.772 42.5684 138.404C42.3684 138.036 42.0964 137.756 41.7524 137.564C41.4164 137.364 41.0444 137.264 40.6364 137.264C40.2284 137.264 39.8564 137.36 39.5204 137.552C39.1844 137.744 38.9164 138.024 38.7164 138.392C38.5164 138.76 38.4164 139.192 38.4164 139.688C38.4164 140.192 38.5164 140.632 38.7164 141.008C38.9164 141.376 39.1844 141.66 39.5204 141.86C39.8564 142.052 40.2284 142.148 40.6364 142.148C41.0444 142.148 41.4164 142.052 41.7524 141.86C42.0964 141.66 42.3684 141.376 42.5684 141.008C42.7684 140.632 42.8684 140.196 42.8684 139.7ZM47.4498 137.324V141.2C47.4498 141.52 47.5178 141.748 47.6538 141.884C47.7898 142.012 48.0258 142.076 48.3618 142.076H49.1658V143H48.1818C47.5738 143 47.1178 142.86 46.8138 142.58C46.5098 142.3 46.3578 141.84 46.3578 141.2V137.324H45.5058V136.424H46.3578V134.768H47.4498V136.424H49.1658V137.324H47.4498ZM50.3808 139.688C50.3808 139.016 50.5168 138.428 50.7888 137.924C51.0608 137.412 51.4328 137.016 51.9048 136.736C52.3848 136.456 52.9168 136.316 53.5008 136.316C54.0768 136.316 54.5768 136.44 55.0008 136.688C55.4248 136.936 55.7408 137.248 55.9488 137.624V136.424H57.0528V143H55.9488V141.776C55.7328 142.16 55.4088 142.48 54.9768 142.736C54.5528 142.984 54.0568 143.108 53.4888 143.108C52.9048 143.108 52.3768 142.964 51.9048 142.676C51.4328 142.388 51.0608 141.984 50.7888 141.464C50.5168 140.944 50.3808 140.352 50.3808 139.688ZM55.9488 139.7C55.9488 139.204 55.8488 138.772 55.6488 138.404C55.4488 138.036 55.1768 137.756 54.8328 137.564C54.4968 137.364 54.1248 137.264 53.7168 137.264C53.3088 137.264 52.9368 137.36 52.6008 137.552C52.2648 137.744 51.9968 138.024 51.7968 138.392C51.5968 138.76 51.4968 139.192 51.4968 139.688C51.4968 140.192 51.5968 140.632 51.7968 141.008C51.9968 141.376 52.2648 141.66 52.6008 141.86C52.9368 142.052 53.3088 142.148 53.7168 142.148C54.1248 142.148 54.4968 142.052 54.8328 141.86C55.1768 141.66 55.4488 141.376 55.6488 141.008C55.8488 140.632 55.9488 140.196 55.9488 139.7ZM62.2894 139.688C62.2894 139.016 62.4254 138.428 62.6974 137.924C62.9694 137.412 63.3414 137.016 63.8134 136.736C64.2934 136.456 64.8254 136.316 65.4094 136.316C65.9854 136.316 66.4854 136.44 66.9094 136.688C67.3334 136.936 67.6494 137.248 67.8574 137.624V136.424H68.9614V143H67.8574V141.776C67.6414 142.16 67.3174 142.48 66.8854 142.736C66.4614 142.984 65.9654 143.108 65.3974 143.108C64.8134 143.108 64.2854 142.964 63.8134 142.676C63.3414 142.388 62.9694 141.984 62.6974 141.464C62.4254 140.944 62.2894 140.352 62.2894 139.688ZM67.8574 139.7C67.8574 139.204 67.7574 138.772 67.5574 138.404C67.3574 138.036 67.0854 137.756 66.7414 137.564C66.4054 137.364 66.0334 137.264 65.6254 137.264C65.2174 137.264 64.8454 137.36 64.5094 137.552C64.1734 137.744 63.9054 138.024 63.7054 138.392C63.5054 138.76 63.4054 139.192 63.4054 139.688C63.4054 140.192 63.5054 140.632 63.7054 141.008C63.9054 141.376 64.1734 141.66 64.5094 141.86C64.8454 142.052 65.2174 142.148 65.6254 142.148C66.0334 142.148 66.4054 142.052 66.7414 141.86C67.0854 141.66 67.3574 141.376 67.5574 141.008C67.7574 140.632 67.8574 140.196 67.8574 139.7ZM74.3108 136.304C75.1108 136.304 75.7588 136.548 76.2548 137.036C76.7508 137.516 76.9988 138.212 76.9988 139.124V143H75.9188V139.28C75.9188 138.624 75.7548 138.124 75.4268 137.78C75.0988 137.428 74.6508 137.252 74.0828 137.252C73.5068 137.252 73.0468 137.432 72.7028 137.792C72.3668 138.152 72.1988 138.676 72.1988 139.364V143H71.1068V136.424H72.1988V137.36C72.4148 137.024 72.7068 136.764 73.0748 136.58C73.4508 136.396 73.8628 136.304 74.3108 136.304ZM78.6746 139.688C78.6746 139.016 78.8106 138.428 79.0826 137.924C79.3546 137.412 79.7266 137.016 80.1986 136.736C80.6786 136.456 81.2146 136.316 81.8066 136.316C82.3186 136.316 82.7946 136.436 83.2346 136.676C83.6746 136.908 84.0106 137.216 84.2426 137.6V134.12H85.3466V143H84.2426V141.764C84.0266 142.156 83.7066 142.48 83.2826 142.736C82.8586 142.984 82.3626 143.108 81.7946 143.108C81.2106 143.108 80.6786 142.964 80.1986 142.676C79.7266 142.388 79.3546 141.984 79.0826 141.464C78.8106 140.944 78.6746 140.352 78.6746 139.688ZM84.2426 139.7C84.2426 139.204 84.1426 138.772 83.9426 138.404C83.7426 138.036 83.4706 137.756 83.1266 137.564C82.7906 137.364 82.4186 137.264 82.0106 137.264C81.6026 137.264 81.2306 137.36 80.8946 137.552C80.5586 137.744 80.2906 138.024 80.0906 138.392C79.8906 138.76 79.7906 139.192 79.7906 139.688C79.7906 140.192 79.8906 140.632 80.0906 141.008C80.2906 141.376 80.5586 141.66 80.8946 141.86C81.2306 142.052 81.6026 142.148 82.0106 142.148C82.4186 142.148 82.7906 142.052 83.1266 141.86C83.4706 141.66 83.7426 141.376 83.9426 141.008C84.1426 140.632 84.2426 140.196 84.2426 139.7ZM93.6432 143.084C93.0912 143.084 92.5952 142.988 92.1552 142.796C91.7232 142.596 91.3832 142.324 91.1352 141.98C90.8872 141.628 90.7592 141.224 90.7512 140.768H91.9152C91.9552 141.16 92.1152 141.492 92.3952 141.764C92.6832 142.028 93.0992 142.16 93.6432 142.16C94.1632 142.16 94.5712 142.032 94.8672 141.776C95.1712 141.512 95.3232 141.176 95.3232 140.768C95.3232 140.448 95.2352 140.188 95.0592 139.988C94.8832 139.788 94.6632 139.636 94.3992 139.532C94.1352 139.428 93.7792 139.316 93.3312 139.196C92.7792 139.052 92.3352 138.908 91.9992 138.764C91.6712 138.62 91.3872 138.396 91.1472 138.092C90.9152 137.78 90.7992 137.364 90.7992 136.844C90.7992 136.388 90.9152 135.984 91.1472 135.632C91.3792 135.28 91.7032 135.008 92.1192 134.816C92.5432 134.624 93.0272 134.528 93.5712 134.528C94.3552 134.528 94.9952 134.724 95.4912 135.116C95.9952 135.508 96.2792 136.028 96.3432 136.676H95.1432C95.1032 136.356 94.9352 136.076 94.6392 135.836C94.3432 135.588 93.9512 135.464 93.4632 135.464C93.0072 135.464 92.6352 135.584 92.3472 135.824C92.0592 136.056 91.9152 136.384 91.9152 136.808C91.9152 137.112 91.9992 137.36 92.1672 137.552C92.3432 137.744 92.5552 137.892 92.8032 137.996C93.0592 138.092 93.4152 138.204 93.8712 138.332C94.4232 138.484 94.8672 138.636 95.2032 138.788C95.5392 138.932 95.8272 139.16 96.0672 139.472C96.3072 139.776 96.4272 140.192 96.4272 140.72C96.4272 141.128 96.3192 141.512 96.1032 141.872C95.8872 142.232 95.5672 142.524 95.1432 142.748C94.7192 142.972 94.2192 143.084 93.6432 143.084ZM99.6662 137.324V141.2C99.6662 141.52 99.7342 141.748 99.8702 141.884C100.006 142.012 100.242 142.076 100.578 142.076H101.382V143H100.398C99.7902 143 99.3342 142.86 99.0302 142.58C98.7262 142.3 98.5742 141.84 98.5742 141.2V137.324H97.7222V136.424H98.5742V134.768H99.6662V136.424H101.382V137.324H99.6662ZM104.097 137.492C104.289 137.116 104.561 136.824 104.913 136.616C105.273 136.408 105.709 136.304 106.221 136.304V137.432H105.933C104.709 137.432 104.097 138.096 104.097 139.424V143H103.005V136.424H104.097V137.492ZM113.614 136.424V143H112.522V142.028C112.314 142.364 112.022 142.628 111.646 142.82C111.278 143.004 110.87 143.096 110.422 143.096C109.91 143.096 109.45 142.992 109.042 142.784C108.634 142.568 108.31 142.248 108.07 141.824C107.838 141.4 107.722 140.884 107.722 140.276V136.424H108.802V140.132C108.802 140.78 108.966 141.28 109.294 141.632C109.622 141.976 110.07 142.148 110.638 142.148C111.222 142.148 111.682 141.968 112.018 141.608C112.354 141.248 112.522 140.724 112.522 140.036V136.424H113.614ZM115.35 139.7C115.35 139.02 115.486 138.428 115.758 137.924C116.03 137.412 116.406 137.016 116.886 136.736C117.374 136.456 117.93 136.316 118.554 136.316C119.362 136.316 120.026 136.512 120.546 136.904C121.074 137.296 121.422 137.84 121.59 138.536H120.414C120.302 138.136 120.082 137.82 119.754 137.588C119.434 137.356 119.034 137.24 118.554 137.24C117.93 137.24 117.426 137.456 117.042 137.888C116.658 138.312 116.466 138.916 116.466 139.7C116.466 140.492 116.658 141.104 117.042 141.536C117.426 141.968 117.93 142.184 118.554 142.184C119.034 142.184 119.434 142.072 119.754 141.848C120.074 141.624 120.294 141.304 120.414 140.888H121.59C121.414 141.56 121.062 142.1 120.534 142.508C120.006 142.908 119.346 143.108 118.554 143.108C117.93 143.108 117.374 142.968 116.886 142.688C116.406 142.408 116.03 142.012 115.758 141.5C115.486 140.988 115.35 140.388 115.35 139.7ZM124.679 137.324V141.2C124.679 141.52 124.747 141.748 124.883 141.884C125.019 142.012 125.255 142.076 125.591 142.076H126.395V143H125.411C124.803 143 124.347 142.86 124.043 142.58C123.739 142.3 123.587 141.84 123.587 141.2V137.324H122.735V136.424H123.587V134.768H124.679V136.424H126.395V137.324H124.679ZM133.85 136.424V143H132.758V142.028C132.55 142.364 132.258 142.628 131.882 142.82C131.514 143.004 131.106 143.096 130.658 143.096C130.146 143.096 129.686 142.992 129.278 142.784C128.87 142.568 128.546 142.248 128.306 141.824C128.074 141.4 127.958 140.884 127.958 140.276V136.424H129.038V140.132C129.038 140.78 129.202 141.28 129.53 141.632C129.858 141.976 130.306 142.148 130.874 142.148C131.458 142.148 131.918 141.968 132.254 141.608C132.59 141.248 132.758 140.724 132.758 140.036V136.424H133.85ZM137.086 137.492C137.278 137.116 137.55 136.824 137.902 136.616C138.262 136.408 138.698 136.304 139.21 136.304V137.432H138.922C137.698 137.432 137.086 138.096 137.086 139.424V143H135.994V136.424H137.086V137.492ZM146.77 139.46C146.77 139.668 146.758 139.888 146.734 140.12H141.478C141.518 140.768 141.738 141.276 142.138 141.644C142.546 142.004 143.038 142.184 143.614 142.184C144.086 142.184 144.478 142.076 144.79 141.86C145.11 141.636 145.334 141.34 145.462 140.972H146.638C146.462 141.604 146.11 142.12 145.582 142.52C145.054 142.912 144.398 143.108 143.614 143.108C142.99 143.108 142.43 142.968 141.934 142.688C141.446 142.408 141.062 142.012 140.782 141.5C140.502 140.98 140.362 140.38 140.362 139.7C140.362 139.02 140.498 138.424 140.77 137.912C141.042 137.4 141.422 137.008 141.91 136.736C142.406 136.456 142.974 136.316 143.614 136.316C144.238 136.316 144.79 136.452 145.27 136.724C145.75 136.996 146.118 137.372 146.374 137.852C146.638 138.324 146.77 138.86 146.77 139.46ZM145.642 139.232C145.642 138.816 145.55 138.46 145.366 138.164C145.182 137.86 144.93 137.632 144.61 137.48C144.298 137.32 143.95 137.24 143.566 137.24C143.014 137.24 142.542 137.416 142.15 137.768C141.766 138.12 141.546 138.608 141.49 139.232H145.642ZM150.84 143.108C150.336 143.108 149.884 143.024 149.484 142.856C149.084 142.68 148.768 142.44 148.536 142.136C148.304 141.824 148.176 141.468 148.152 141.068H149.28C149.312 141.396 149.464 141.664 149.736 141.872C150.016 142.08 150.38 142.184 150.828 142.184C151.244 142.184 151.572 142.092 151.812 141.908C152.052 141.724 152.172 141.492 152.172 141.212C152.172 140.924 152.044 140.712 151.788 140.576C151.532 140.432 151.136 140.292 150.6 140.156C150.112 140.028 149.712 139.9 149.4 139.772C149.096 139.636 148.832 139.44 148.608 139.184C148.392 138.92 148.284 138.576 148.284 138.152C148.284 137.816 148.384 137.508 148.584 137.228C148.784 136.948 149.068 136.728 149.436 136.568C149.804 136.4 150.224 136.316 150.696 136.316C151.424 136.316 152.012 136.5 152.46 136.868C152.908 137.236 153.148 137.74 153.18 138.38H152.088C152.064 138.036 151.924 137.76 151.668 137.552C151.42 137.344 151.084 137.24 150.66 137.24C150.268 137.24 149.956 137.324 149.724 137.492C149.492 137.66 149.376 137.88 149.376 138.152C149.376 138.368 149.444 138.548 149.58 138.692C149.724 138.828 149.9 138.94 150.108 139.028C150.324 139.108 150.62 139.2 150.996 139.304C151.468 139.432 151.852 139.56 152.148 139.688C152.444 139.808 152.696 139.992 152.904 140.24C153.12 140.488 153.232 140.812 153.24 141.212C153.24 141.572 153.14 141.896 152.94 142.184C152.74 142.472 152.456 142.7 152.088 142.868C151.728 143.028 151.312 143.108 150.84 143.108Z" fill="#9A9A9A"/>
<path opacity="0.5" d="M227.947 141.068V140.24L232.159 134.408H233.467V140.12H234.667V141.068H233.467V143H232.387V141.068H227.947ZM232.435 135.548L229.207 140.12H232.435V135.548ZM240.318 131.696L237.03 145.04H235.95L239.226 131.696H240.318ZM241.777 135.32V134.324H244.033V143H242.929V135.32H241.777ZM251.741 135.272H247.529V138.008C247.713 137.752 247.985 137.544 248.345 137.384C248.705 137.216 249.093 137.132 249.509 137.132C250.173 137.132 250.713 137.272 251.129 137.552C251.545 137.824 251.841 138.18 252.017 138.62C252.201 139.052 252.293 139.512 252.293 140C252.293 140.576 252.185 141.092 251.969 141.548C251.753 142.004 251.421 142.364 250.973 142.628C250.533 142.892 249.985 143.024 249.329 143.024C248.489 143.024 247.809 142.808 247.289 142.376C246.769 141.944 246.453 141.368 246.341 140.648H247.409C247.513 141.104 247.733 141.46 248.069 141.716C248.405 141.972 248.829 142.1 249.341 142.1C249.973 142.1 250.449 141.912 250.769 141.536C251.089 141.152 251.249 140.648 251.249 140.024C251.249 139.4 251.089 138.92 250.769 138.584C250.449 138.24 249.977 138.068 249.353 138.068C248.929 138.068 248.557 138.172 248.237 138.38C247.925 138.58 247.697 138.856 247.553 139.208H246.521V134.312H251.741V135.272Z" fill="#9A9A9A"/>
<rect opacity="0.1" x="28" y="154" width="225" height="5" rx="2.5" fill="#CFCFCF"/>
<rect x="28" y="154" width="80" height="5" rx="2.5" fill="#CFCFCF"/>
<path d="M33.868 196.14H30.22L29.548 198H28.396L31.42 189.684H32.68L35.692 198H34.54L33.868 196.14ZM33.556 195.252L32.044 191.028L30.532 195.252H33.556ZM38.4019 192.492C38.5939 192.116 38.8659 191.824 39.2179 191.616C39.5779 191.408 40.0139 191.304 40.5259 191.304V192.432H40.2379C39.0139 192.432 38.4019 193.096 38.4019 194.424V198H37.3099V191.424H38.4019V192.492ZM43.4185 192.324V196.2C43.4185 196.52 43.4865 196.748 43.6225 196.884C43.7585 197.012 43.9945 197.076 44.3305 197.076H45.1345V198H44.1505C43.5425 198 43.0865 197.86 42.7825 197.58C42.4785 197.3 42.3265 196.84 42.3265 196.2V192.324H41.4745V191.424H42.3265V189.768H43.4185V191.424H45.1345V192.324H43.4185ZM47.3216 190.356C47.1136 190.356 46.9376 190.284 46.7936 190.14C46.6496 189.996 46.5776 189.82 46.5776 189.612C46.5776 189.404 46.6496 189.228 46.7936 189.084C46.9376 188.94 47.1136 188.868 47.3216 188.868C47.5216 188.868 47.6896 188.94 47.8256 189.084C47.9696 189.228 48.0416 189.404 48.0416 189.612C48.0416 189.82 47.9696 189.996 47.8256 190.14C47.6896 190.284 47.5216 190.356 47.3216 190.356ZM47.8496 191.424V198H46.7576V191.424H47.8496ZM52.6867 192.324H51.3067V198H50.2147V192.324H49.3627V191.424H50.2147V190.956C50.2147 190.22 50.4027 189.684 50.7787 189.348C51.1627 189.004 51.7747 188.832 52.6147 188.832V189.744C52.1347 189.744 51.7947 189.84 51.5947 190.032C51.4027 190.216 51.3067 190.524 51.3067 190.956V191.424H52.6867V192.324ZM54.8239 190.356C54.6159 190.356 54.4399 190.284 54.2959 190.14C54.1519 189.996 54.0799 189.82 54.0799 189.612C54.0799 189.404 54.1519 189.228 54.2959 189.084C54.4399 188.94 54.6159 188.868 54.8239 188.868C55.0239 188.868 55.1919 188.94 55.3279 189.084C55.4719 189.228 55.5439 189.404 55.5439 189.612C55.5439 189.82 55.4719 189.996 55.3279 190.14C55.1919 190.284 55.0239 190.356 54.8239 190.356ZM55.3519 191.424V198H54.2599V191.424H55.3519ZM57.1051 194.7C57.1051 194.02 57.2411 193.428 57.5131 192.924C57.7851 192.412 58.1611 192.016 58.6411 191.736C59.1291 191.456 59.6851 191.316 60.3091 191.316C61.1171 191.316 61.7811 191.512 62.3011 191.904C62.8291 192.296 63.1771 192.84 63.3451 193.536H62.1691C62.0571 193.136 61.8371 192.82 61.5091 192.588C61.1891 192.356 60.7891 192.24 60.3091 192.24C59.6851 192.24 59.1811 192.456 58.7971 192.888C58.4131 193.312 58.2211 193.916 58.2211 194.7C58.2211 195.492 58.4131 196.104 58.7971 196.536C59.1811 196.968 59.6851 197.184 60.3091 197.184C60.7891 197.184 61.1891 197.072 61.5091 196.848C61.8291 196.624 62.0491 196.304 62.1691 195.888H63.3451C63.1691 196.56 62.8171 197.1 62.2891 197.508C61.7611 197.908 61.1011 198.108 60.3091 198.108C59.6851 198.108 59.1291 197.968 58.6411 197.688C58.1611 197.408 57.7851 197.012 57.5131 196.5C57.2411 195.988 57.1051 195.388 57.1051 194.7ZM65.6661 190.356C65.4581 190.356 65.2821 190.284 65.1381 190.14C64.9941 189.996 64.9221 189.82 64.9221 189.612C64.9221 189.404 64.9941 189.228 65.1381 189.084C65.2821 188.94 65.4581 188.868 65.6661 188.868C65.8661 188.868 66.0341 188.94 66.1701 189.084C66.3141 189.228 66.3861 189.404 66.3861 189.612C66.3861 189.82 66.3141 189.996 66.1701 190.14C66.0341 190.284 65.8661 190.356 65.6661 190.356ZM66.1941 191.424V198H65.1021V191.424H66.1941ZM67.9473 194.688C67.9473 194.016 68.0833 193.428 68.3553 192.924C68.6273 192.412 68.9993 192.016 69.4713 191.736C69.9513 191.456 70.4833 191.316 71.0673 191.316C71.6433 191.316 72.1433 191.44 72.5673 191.688C72.9913 191.936 73.3073 192.248 73.5153 192.624V191.424H74.6193V198H73.5153V196.776C73.2993 197.16 72.9753 197.48 72.5433 197.736C72.1193 197.984 71.6233 198.108 71.0553 198.108C70.4713 198.108 69.9433 197.964 69.4713 197.676C68.9993 197.388 68.6273 196.984 68.3553 196.464C68.0833 195.944 67.9473 195.352 67.9473 194.688ZM73.5153 194.7C73.5153 194.204 73.4153 193.772 73.2153 193.404C73.0153 193.036 72.7433 192.756 72.3993 192.564C72.0633 192.364 71.6913 192.264 71.2833 192.264C70.8753 192.264 70.5033 192.36 70.1673 192.552C69.8313 192.744 69.5633 193.024 69.3633 193.392C69.1633 193.76 69.0633 194.192 69.0633 194.688C69.0633 195.192 69.1633 195.632 69.3633 196.008C69.5633 196.376 69.8313 196.66 70.1673 196.86C70.5033 197.052 70.8753 197.148 71.2833 197.148C71.6913 197.148 72.0633 197.052 72.3993 196.86C72.7433 196.66 73.0153 196.376 73.2153 196.008C73.4153 195.632 73.5153 195.196 73.5153 194.7ZM77.8566 189.12V198H76.7646V189.12H77.8566ZM84.609 189.636V198H83.517V189.636H84.609ZM89.9741 191.304C90.7741 191.304 91.4221 191.548 91.9181 192.036C92.4141 192.516 92.6621 193.212 92.6621 194.124V198H91.5821V194.28C91.5821 193.624 91.4181 193.124 91.0901 192.78C90.7621 192.428 90.3141 192.252 89.7461 192.252C89.1701 192.252 88.7101 192.432 88.3661 192.792C88.0301 193.152 87.8621 193.676 87.8621 194.364V198H86.7701V191.424H87.8621V192.36C88.0781 192.024 88.3701 191.764 88.7381 191.58C89.1141 191.396 89.5261 191.304 89.9741 191.304ZM96.0779 192.324V196.2C96.0779 196.52 96.1459 196.748 96.2819 196.884C96.4179 197.012 96.6539 197.076 96.9899 197.076H97.7939V198H96.8099C96.2019 198 95.7459 197.86 95.4419 197.58C95.1379 197.3 94.9859 196.84 94.9859 196.2V192.324H94.1339V191.424H94.9859V189.768H96.0779V191.424H97.7939V192.324H96.0779ZM105.417 194.46C105.417 194.668 105.405 194.888 105.381 195.12H100.125C100.165 195.768 100.385 196.276 100.785 196.644C101.193 197.004 101.685 197.184 102.261 197.184C102.733 197.184 103.125 197.076 103.437 196.86C103.757 196.636 103.981 196.34 104.109 195.972H105.285C105.109 196.604 104.757 197.12 104.229 197.52C103.701 197.912 103.045 198.108 102.261 198.108C101.637 198.108 101.077 197.968 100.581 197.688C100.093 197.408 99.709 197.012 99.429 196.5C99.149 195.98 99.009 195.38 99.009 194.7C99.009 194.02 99.145 193.424 99.417 192.912C99.689 192.4 100.069 192.008 100.557 191.736C101.053 191.456 101.621 191.316 102.261 191.316C102.885 191.316 103.437 191.452 103.917 191.724C104.397 191.996 104.765 192.372 105.021 192.852C105.285 193.324 105.417 193.86 105.417 194.46ZM104.289 194.232C104.289 193.816 104.197 193.46 104.013 193.164C103.829 192.86 103.577 192.632 103.257 192.48C102.945 192.32 102.597 192.24 102.213 192.24C101.661 192.24 101.189 192.416 100.797 192.768C100.413 193.12 100.193 193.608 100.137 194.232H104.289ZM108.25 189.12V198H107.158V189.12H108.25ZM111.504 189.12V198H110.412V189.12H111.504ZM114.229 190.356C114.021 190.356 113.845 190.284 113.701 190.14C113.557 189.996 113.485 189.82 113.485 189.612C113.485 189.404 113.557 189.228 113.701 189.084C113.845 188.94 114.021 188.868 114.229 188.868C114.429 188.868 114.597 188.94 114.733 189.084C114.877 189.228 114.949 189.404 114.949 189.612C114.949 189.82 114.877 189.996 114.733 190.14C114.597 190.284 114.429 190.356 114.229 190.356ZM114.757 191.424V198H113.665V191.424H114.757ZM119.63 191.316C120.198 191.316 120.694 191.44 121.118 191.688C121.55 191.936 121.87 192.248 122.078 192.624V191.424H123.182V198.144C123.182 198.744 123.054 199.276 122.798 199.74C122.542 200.212 122.174 200.58 121.694 200.844C121.222 201.108 120.67 201.24 120.038 201.24C119.174 201.24 118.454 201.036 117.878 200.628C117.302 200.22 116.962 199.664 116.858 198.96H117.938C118.058 199.36 118.306 199.68 118.682 199.92C119.058 200.168 119.51 200.292 120.038 200.292C120.638 200.292 121.126 200.104 121.502 199.728C121.886 199.352 122.078 198.824 122.078 198.144V196.764C121.862 197.148 121.542 197.468 121.118 197.724C120.694 197.98 120.198 198.108 119.63 198.108C119.046 198.108 118.514 197.964 118.034 197.676C117.562 197.388 117.19 196.984 116.918 196.464C116.646 195.944 116.51 195.352 116.51 194.688C116.51 194.016 116.646 193.428 116.918 192.924C117.19 192.412 117.562 192.016 118.034 191.736C118.514 191.456 119.046 191.316 119.63 191.316ZM122.078 194.7C122.078 194.204 121.978 193.772 121.778 193.404C121.578 193.036 121.306 192.756 120.962 192.564C120.626 192.364 120.254 192.264 119.846 192.264C119.438 192.264 119.066 192.36 118.73 192.552C118.394 192.744 118.126 193.024 117.926 193.392C117.726 193.76 117.626 194.192 117.626 194.688C117.626 195.192 117.726 195.632 117.926 196.008C118.126 196.376 118.394 196.66 118.73 196.86C119.066 197.052 119.438 197.148 119.846 197.148C120.254 197.148 120.626 197.052 120.962 196.86C121.306 196.66 121.578 196.376 121.778 196.008C121.978 195.632 122.078 195.196 122.078 194.7ZM131.327 194.46C131.327 194.668 131.315 194.888 131.291 195.12H126.035C126.075 195.768 126.295 196.276 126.695 196.644C127.103 197.004 127.595 197.184 128.171 197.184C128.643 197.184 129.035 197.076 129.347 196.86C129.667 196.636 129.891 196.34 130.019 195.972H131.195C131.019 196.604 130.667 197.12 130.139 197.52C129.611 197.912 128.955 198.108 128.171 198.108C127.547 198.108 126.987 197.968 126.491 197.688C126.003 197.408 125.619 197.012 125.339 196.5C125.059 195.98 124.919 195.38 124.919 194.7C124.919 194.02 125.055 193.424 125.327 192.912C125.599 192.4 125.979 192.008 126.467 191.736C126.963 191.456 127.531 191.316 128.171 191.316C128.795 191.316 129.347 191.452 129.827 191.724C130.307 191.996 130.675 192.372 130.931 192.852C131.195 193.324 131.327 193.86 131.327 194.46ZM130.199 194.232C130.199 193.816 130.107 193.46 129.923 193.164C129.739 192.86 129.487 192.632 129.167 192.48C128.855 192.32 128.507 192.24 128.123 192.24C127.571 192.24 127.099 192.416 126.707 192.768C126.323 193.12 126.103 193.608 126.047 194.232H130.199ZM136.273 191.304C137.073 191.304 137.721 191.548 138.217 192.036C138.713 192.516 138.961 193.212 138.961 194.124V198H137.881V194.28C137.881 193.624 137.717 193.124 137.389 192.78C137.061 192.428 136.613 192.252 136.045 192.252C135.469 192.252 135.009 192.432 134.665 192.792C134.329 193.152 134.161 193.676 134.161 194.364V198H133.069V191.424H134.161V192.36C134.377 192.024 134.669 191.764 135.037 191.58C135.413 191.396 135.825 191.304 136.273 191.304ZM140.636 194.7C140.636 194.02 140.772 193.428 141.044 192.924C141.316 192.412 141.692 192.016 142.172 191.736C142.66 191.456 143.216 191.316 143.84 191.316C144.648 191.316 145.312 191.512 145.832 191.904C146.36 192.296 146.708 192.84 146.876 193.536H145.7C145.588 193.136 145.368 192.82 145.04 192.588C144.72 192.356 144.32 192.24 143.84 192.24C143.216 192.24 142.712 192.456 142.328 192.888C141.944 193.312 141.752 193.916 141.752 194.7C141.752 195.492 141.944 196.104 142.328 196.536C142.712 196.968 143.216 197.184 143.84 197.184C144.32 197.184 144.72 197.072 145.04 196.848C145.36 196.624 145.58 196.304 145.7 195.888H146.876C146.7 196.56 146.348 197.1 145.82 197.508C145.292 197.908 144.632 198.108 143.84 198.108C143.216 198.108 142.66 197.968 142.172 197.688C141.692 197.408 141.316 197.012 141.044 196.5C140.772 195.988 140.636 195.388 140.636 194.7ZM154.633 194.46C154.633 194.668 154.621 194.888 154.597 195.12H149.341C149.381 195.768 149.601 196.276 150.001 196.644C150.409 197.004 150.901 197.184 151.477 197.184C151.949 197.184 152.341 197.076 152.653 196.86C152.973 196.636 153.197 196.34 153.325 195.972H154.501C154.325 196.604 153.973 197.12 153.445 197.52C152.917 197.912 152.261 198.108 151.477 198.108C150.853 198.108 150.293 197.968 149.797 197.688C149.309 197.408 148.925 197.012 148.645 196.5C148.365 195.98 148.225 195.38 148.225 194.7C148.225 194.02 148.361 193.424 148.633 192.912C148.905 192.4 149.285 192.008 149.773 191.736C150.269 191.456 150.837 191.316 151.477 191.316C152.101 191.316 152.653 191.452 153.133 191.724C153.613 191.996 153.981 192.372 154.237 192.852C154.501 193.324 154.633 193.86 154.633 194.46ZM153.505 194.232C153.505 193.816 153.413 193.46 153.229 193.164C153.045 192.86 152.793 192.632 152.473 192.48C152.161 192.32 151.813 192.24 151.429 192.24C150.877 192.24 150.405 192.416 150.013 192.768C149.629 193.12 149.409 193.608 149.353 194.232H153.505Z" fill="#9A9A9A"/>
<path opacity="0.5" d="M225.665 197.124C226.681 196.308 227.477 195.64 228.053 195.12C228.629 194.592 229.113 194.044 229.505 193.476C229.905 192.9 230.105 192.336 230.105 191.784C230.105 191.264 229.977 190.856 229.721 190.56C229.473 190.256 229.069 190.104 228.509 190.104C227.965 190.104 227.541 190.276 227.237 190.62C226.941 190.956 226.781 191.408 226.757 191.976H225.701C225.733 191.08 226.005 190.388 226.517 189.9C227.029 189.412 227.689 189.168 228.497 189.168C229.321 189.168 229.973 189.396 230.453 189.852C230.941 190.308 231.185 190.936 231.185 191.736C231.185 192.4 230.985 193.048 230.585 193.68C230.193 194.304 229.745 194.856 229.241 195.336C228.737 195.808 228.093 196.36 227.309 196.992H231.437V197.904H225.665V197.124ZM237.259 186.696L233.971 200.04H232.891L236.167 186.696H237.259ZM238.875 197.124C239.891 196.308 240.687 195.64 241.263 195.12C241.839 194.592 242.323 194.044 242.715 193.476C243.115 192.9 243.315 192.336 243.315 191.784C243.315 191.264 243.187 190.856 242.931 190.56C242.683 190.256 242.279 190.104 241.719 190.104C241.175 190.104 240.751 190.276 240.447 190.62C240.151 190.956 239.991 191.408 239.967 191.976H238.911C238.943 191.08 239.215 190.388 239.727 189.9C240.239 189.412 240.899 189.168 241.707 189.168C242.531 189.168 243.183 189.396 243.663 189.852C244.151 190.308 244.395 190.936 244.395 191.736C244.395 192.4 244.195 193.048 243.795 193.68C243.403 194.304 242.955 194.856 242.451 195.336C241.947 195.808 241.303 196.36 240.519 196.992H244.647V197.904H238.875V197.124ZM246.209 193.572C246.209 192.196 246.433 191.124 246.881 190.356C247.329 189.58 248.113 189.192 249.233 189.192C250.345 189.192 251.125 189.58 251.573 190.356C252.021 191.124 252.245 192.196 252.245 193.572C252.245 194.972 252.021 196.06 251.573 196.836C251.125 197.612 250.345 198 249.233 198C248.113 198 247.329 197.612 246.881 196.836C246.433 196.06 246.209 194.972 246.209 193.572ZM251.165 193.572C251.165 192.876 251.117 192.288 251.021 191.808C250.933 191.32 250.745 190.928 250.457 190.632C250.177 190.336 249.769 190.188 249.233 190.188C248.689 190.188 248.273 190.336 247.985 190.632C247.705 190.928 247.517 191.32 247.421 191.808C247.333 192.288 247.289 192.876 247.289 193.572C247.289 194.292 247.333 194.896 247.421 195.384C247.517 195.872 247.705 196.264 247.985 196.56C248.273 196.856 248.689 197.004 249.233 197.004C249.769 197.004 250.177 196.856 250.457 196.56C250.745 196.264 250.933 195.872 251.021 195.384C251.117 194.896 251.165 194.292 251.165 193.572Z" fill="#9A9A9A"/>
<rect opacity="0.1" x="28" y="209" width="225" height="5" rx="2.5" fill="#CFCFCF"/>
<rect x="28" y="209" width="15" height="5" rx="2.5" fill="#CFCFCF"/>
<path d="M35.86 34.575V35.97H33.085V45H31.375V35.97H28.585V34.575H35.86ZM37.3218 40.83C37.3218 40 37.4918 39.265 37.8318 38.625C38.1818 37.985 38.6518 37.49 39.2418 37.14C39.8418 36.78 40.5018 36.6 41.2218 36.6C41.8718 36.6 42.4368 36.73 42.9168 36.99C43.4068 37.24 43.7968 37.555 44.0868 37.935V36.735H45.8118V45H44.0868V43.77C43.7968 44.16 43.4018 44.485 42.9018 44.745C42.4018 45.005 41.8318 45.135 41.1918 45.135C40.4818 45.135 39.8318 44.955 39.2418 44.595C38.6518 44.225 38.1818 43.715 37.8318 43.065C37.4918 42.405 37.3218 41.66 37.3218 40.83ZM44.0868 40.86C44.0868 40.29 43.9668 39.795 43.7268 39.375C43.4968 38.955 43.1918 38.635 42.8118 38.415C42.4318 38.195 42.0218 38.085 41.5818 38.085C41.1418 38.085 40.7318 38.195 40.3518 38.415C39.9718 38.625 39.6618 38.94 39.4218 39.36C39.1918 39.77 39.0768 40.26 39.0768 40.83C39.0768 41.4 39.1918 41.9 39.4218 42.33C39.6618 42.76 39.9718 43.09 40.3518 43.32C40.7418 43.54 41.1518 43.65 41.5818 43.65C42.0218 43.65 42.4318 43.54 42.8118 43.32C43.1918 43.1 43.4968 42.78 43.7268 42.36C43.9668 41.93 44.0868 41.43 44.0868 40.86ZM51.3578 45.135C50.7078 45.135 50.1228 45.02 49.6028 44.79C49.0928 44.55 48.6878 44.23 48.3878 43.83C48.0878 43.42 47.9278 42.965 47.9078 42.465H49.6778C49.7078 42.815 49.8728 43.11 50.1728 43.35C50.4828 43.58 50.8678 43.695 51.3278 43.695C51.8078 43.695 52.1778 43.605 52.4378 43.425C52.7078 43.235 52.8428 42.995 52.8428 42.705C52.8428 42.395 52.6928 42.165 52.3928 42.015C52.1028 41.865 51.6378 41.7 50.9978 41.52C50.3778 41.35 49.8728 41.185 49.4828 41.025C49.0928 40.865 48.7528 40.62 48.4628 40.29C48.1828 39.96 48.0428 39.525 48.0428 38.985C48.0428 38.545 48.1728 38.145 48.4328 37.785C48.6928 37.415 49.0628 37.125 49.5428 36.915C50.0328 36.705 50.5928 36.6 51.2228 36.6C52.1628 36.6 52.9178 36.84 53.4878 37.32C54.0678 37.79 54.3778 38.435 54.4178 39.255H52.7078C52.6778 38.885 52.5278 38.59 52.2578 38.37C51.9878 38.15 51.6228 38.04 51.1628 38.04C50.7128 38.04 50.3678 38.125 50.1278 38.295C49.8878 38.465 49.7678 38.69 49.7678 38.97C49.7678 39.19 49.8478 39.375 50.0078 39.525C50.1678 39.675 50.3628 39.795 50.5928 39.885C50.8228 39.965 51.1628 40.07 51.6128 40.2C52.2128 40.36 52.7028 40.525 53.0828 40.695C53.4728 40.855 53.8078 41.095 54.0878 41.415C54.3678 41.735 54.5128 42.16 54.5228 42.69C54.5228 43.16 54.3928 43.58 54.1328 43.95C53.8728 44.32 53.5028 44.61 53.0228 44.82C52.5528 45.03 51.9978 45.135 51.3578 45.135ZM59.9405 40.875L63.7505 45H61.4405L58.3805 41.445V45H56.6705V33.9H58.3805V40.35L61.3805 36.735H63.7505L59.9405 40.875ZM76.7627 37.68C76.7627 38.21 76.6377 38.71 76.3877 39.18C76.1377 39.65 75.7377 40.035 75.1877 40.335C74.6377 40.625 73.9327 40.77 73.0727 40.77H71.1827V45H69.4727V34.575H73.0727C73.8727 34.575 74.5477 34.715 75.0977 34.995C75.6577 35.265 76.0727 35.635 76.3427 36.105C76.6227 36.575 76.7627 37.1 76.7627 37.68ZM73.0727 39.375C73.7227 39.375 74.2077 39.23 74.5277 38.94C74.8477 38.64 75.0077 38.22 75.0077 37.68C75.0077 36.54 74.3627 35.97 73.0727 35.97H71.1827V39.375H73.0727ZM80.4036 37.935C80.6536 37.515 80.9836 37.19 81.3936 36.96C81.8136 36.72 82.3086 36.6 82.8786 36.6V38.37H82.4436C81.7736 38.37 81.2636 38.54 80.9136 38.88C80.5736 39.22 80.4036 39.81 80.4036 40.65V45H78.6936V36.735H80.4036V37.935ZM88.3354 45.135C87.5554 45.135 86.8504 44.96 86.2204 44.61C85.5904 44.25 85.0954 43.75 84.7354 43.11C84.3754 42.46 84.1954 41.71 84.1954 40.86C84.1954 40.02 84.3804 39.275 84.7504 38.625C85.1204 37.975 85.6254 37.475 86.2654 37.125C86.9054 36.775 87.6204 36.6 88.4104 36.6C89.2004 36.6 89.9154 36.775 90.5554 37.125C91.1954 37.475 91.7004 37.975 92.0704 38.625C92.4404 39.275 92.6254 40.02 92.6254 40.86C92.6254 41.7 92.4354 42.445 92.0554 43.095C91.6754 43.745 91.1554 44.25 90.4954 44.61C89.8454 44.96 89.1254 45.135 88.3354 45.135ZM88.3354 43.65C88.7754 43.65 89.1854 43.545 89.5654 43.335C89.9554 43.125 90.2704 42.81 90.5104 42.39C90.7504 41.97 90.8704 41.46 90.8704 40.86C90.8704 40.26 90.7554 39.755 90.5254 39.345C90.2954 38.925 89.9904 38.61 89.6104 38.4C89.2304 38.19 88.8204 38.085 88.3804 38.085C87.9404 38.085 87.5304 38.19 87.1504 38.4C86.7804 38.61 86.4854 38.925 86.2654 39.345C86.0454 39.755 85.9354 40.26 85.9354 40.86C85.9354 41.75 86.1604 42.44 86.6104 42.93C87.0704 43.41 87.6454 43.65 88.3354 43.65ZM97.9458 36.6C98.5858 36.6 99.1508 36.73 99.6408 36.99C100.141 37.24 100.531 37.555 100.811 37.935V36.735H102.536V45.135C102.536 45.895 102.376 46.57 102.056 47.16C101.736 47.76 101.271 48.23 100.661 48.57C100.061 48.91 99.3408 49.08 98.5008 49.08C97.3808 49.08 96.4508 48.815 95.7108 48.285C94.9708 47.765 94.5508 47.055 94.4508 46.155H96.1458C96.2758 46.585 96.5508 46.93 96.9708 47.19C97.4008 47.46 97.9108 47.595 98.5008 47.595C99.1908 47.595 99.7458 47.385 100.166 46.965C100.596 46.545 100.811 45.935 100.811 45.135V43.755C100.521 44.145 100.126 44.475 99.6258 44.745C99.1358 45.005 98.5758 45.135 97.9458 45.135C97.2258 45.135 96.5658 44.955 95.9658 44.595C95.3758 44.225 94.9058 43.715 94.5558 43.065C94.2158 42.405 94.0458 41.66 94.0458 40.83C94.0458 40 94.2158 39.265 94.5558 38.625C94.9058 37.985 95.3758 37.49 95.9658 37.14C96.5658 36.78 97.2258 36.6 97.9458 36.6ZM100.811 40.86C100.811 40.29 100.691 39.795 100.451 39.375C100.221 38.955 99.9158 38.635 99.5358 38.415C99.1558 38.195 98.7458 38.085 98.3058 38.085C97.8658 38.085 97.4558 38.195 97.0758 38.415C96.6958 38.625 96.3858 38.94 96.1458 39.36C95.9158 39.77 95.8008 40.26 95.8008 40.83C95.8008 41.4 95.9158 41.9 96.1458 42.33C96.3858 42.76 96.6958 43.09 97.0758 43.32C97.4658 43.54 97.8758 43.65 98.3058 43.65C98.7458 43.65 99.1558 43.54 99.5358 43.32C99.9158 43.1 100.221 42.78 100.451 42.36C100.691 41.93 100.811 41.43 100.811 40.86ZM106.792 37.935C107.042 37.515 107.372 37.19 107.782 36.96C108.202 36.72 108.697 36.6 109.267 36.6V38.37H108.832C108.162 38.37 107.652 38.54 107.302 38.88C106.962 39.22 106.792 39.81 106.792 40.65V45H105.082V36.735H106.792V37.935ZM118.714 40.665C118.714 40.975 118.694 41.255 118.654 41.505H112.339C112.389 42.165 112.634 42.695 113.074 43.095C113.514 43.495 114.054 43.695 114.694 43.695C115.614 43.695 116.264 43.31 116.644 42.54H118.489C118.239 43.3 117.784 43.925 117.124 44.415C116.474 44.895 115.664 45.135 114.694 45.135C113.904 45.135 113.194 44.96 112.564 44.61C111.944 44.25 111.454 43.75 111.094 43.11C110.744 42.46 110.569 41.71 110.569 40.86C110.569 40.01 110.739 39.265 111.079 38.625C111.429 37.975 111.914 37.475 112.534 37.125C113.164 36.775 113.884 36.6 114.694 36.6C115.474 36.6 116.169 36.77 116.779 37.11C117.389 37.45 117.864 37.93 118.204 38.55C118.544 39.16 118.714 39.865 118.714 40.665ZM116.929 40.125C116.919 39.495 116.694 38.99 116.254 38.61C115.814 38.23 115.269 38.04 114.619 38.04C114.029 38.04 113.524 38.23 113.104 38.61C112.684 38.98 112.434 39.485 112.354 40.125H116.929ZM123.696 45.135C123.046 45.135 122.461 45.02 121.941 44.79C121.431 44.55 121.026 44.23 120.726 43.83C120.426 43.42 120.266 42.965 120.246 42.465H122.016C122.046 42.815 122.211 43.11 122.511 43.35C122.821 43.58 123.206 43.695 123.666 43.695C124.146 43.695 124.516 43.605 124.776 43.425C125.046 43.235 125.181 42.995 125.181 42.705C125.181 42.395 125.031 42.165 124.731 42.015C124.441 41.865 123.976 41.7 123.336 41.52C122.716 41.35 122.211 41.185 121.821 41.025C121.431 40.865 121.091 40.62 120.801 40.29C120.521 39.96 120.381 39.525 120.381 38.985C120.381 38.545 120.511 38.145 120.771 37.785C121.031 37.415 121.401 37.125 121.881 36.915C122.371 36.705 122.931 36.6 123.561 36.6C124.501 36.6 125.256 36.84 125.826 37.32C126.406 37.79 126.716 38.435 126.756 39.255H125.046C125.016 38.885 124.866 38.59 124.596 38.37C124.326 38.15 123.961 38.04 123.501 38.04C123.051 38.04 122.706 38.125 122.466 38.295C122.226 38.465 122.106 38.69 122.106 38.97C122.106 39.19 122.186 39.375 122.346 39.525C122.506 39.675 122.701 39.795 122.931 39.885C123.161 39.965 123.501 40.07 123.951 40.2C124.551 40.36 125.041 40.525 125.421 40.695C125.811 40.855 126.146 41.095 126.426 41.415C126.706 41.735 126.851 42.16 126.861 42.69C126.861 43.16 126.731 43.58 126.471 43.95C126.211 44.32 125.841 44.61 125.361 44.82C124.891 45.03 124.336 45.135 123.696 45.135ZM132.009 45.135C131.359 45.135 130.774 45.02 130.254 44.79C129.744 44.55 129.339 44.23 129.039 43.83C128.739 43.42 128.579 42.965 128.559 42.465H130.329C130.359 42.815 130.524 43.11 130.824 43.35C131.134 43.58 131.519 43.695 131.979 43.695C132.459 43.695 132.829 43.605 133.089 43.425C133.359 43.235 133.494 42.995 133.494 42.705C133.494 42.395 133.344 42.165 133.044 42.015C132.754 41.865 132.289 41.7 131.649 41.52C131.029 41.35 130.524 41.185 130.134 41.025C129.744 40.865 129.404 40.62 129.114 40.29C128.834 39.96 128.694 39.525 128.694 38.985C128.694 38.545 128.824 38.145 129.084 37.785C129.344 37.415 129.714 37.125 130.194 36.915C130.684 36.705 131.244 36.6 131.874 36.6C132.814 36.6 133.569 36.84 134.139 37.32C134.719 37.79 135.029 38.435 135.069 39.255H133.359C133.329 38.885 133.179 38.59 132.909 38.37C132.639 38.15 132.274 38.04 131.814 38.04C131.364 38.04 131.019 38.125 130.779 38.295C130.539 38.465 130.419 38.69 130.419 38.97C130.419 39.19 130.499 39.375 130.659 39.525C130.819 39.675 131.014 39.795 131.244 39.885C131.474 39.965 131.814 40.07 132.264 40.2C132.864 40.36 133.354 40.525 133.734 40.695C134.124 40.855 134.459 41.095 134.739 41.415C135.019 41.735 135.164 42.16 135.174 42.69C135.174 43.16 135.044 43.58 134.784 43.95C134.524 44.32 134.154 44.61 133.674 44.82C133.204 45.03 132.649 45.135 132.009 45.135Z" fill="#9A9A9A"/>
</svg>
